<svg width="518" height="64" viewBox="0 0 518 64" version="1.1" xmlns="http://www.w3.org/2000/svg" xmlns:xlink="http://www.w3.org/1999/xlink">
<title>Group 2</title>
<desc>Created using Figma</desc>
<g id="Canvas" transform="translate(-364 -207)">
<g id="Group 2">
<g id="1 2 3 4 5 6 7 8 9">
<use xlink:href="#path0_fill" transform="translate(409 212)" fill="#333333"/>
</g>
<g id="Component">
<g id="Line 2">
<use xlink:href="#path1_stroke" transform="matrix(8.27892e-32 1 -0.998976 0.0452422 400 209)"/>
</g>
<g id="Line 3">
<use xlink:href="#path2_stroke" transform="translate(400 209)"/>
</g>
<g id="Line 3">
<use xlink:href="#path2_stroke" transform="translate(400 271)"/>
</g>
</g>
<g id="Line 2">
<use xlink:href="#path1_stroke" transform="matrix(-1.22465e-16 -1 0.998976 -0.0452422 469 269)"/>
</g>
<g id="Line 3">
<use xlink:href="#path2_stroke" transform="matrix(-1 1.22465e-16 -1.22465e-16 -1 469 269)"/>
</g>
<g id="Line 3">
<use xlink:href="#path2_stroke" transform="matrix(-1 1.22465e-16 -1.22465e-16 -1 469 207)"/>
</g>
<g id="det ( ) = 1* det( ) - 2* det( ) + 3* det ( )">
<use xlink:href="#path3_fill" transform="translate(364 228)"/>
</g>
<g id="5 6 8 9">
<use xlink:href="#path4_fill" transform="translate(560 219)" fill="#333333"/>
</g>
<g id="Line 2">
<use xlink:href="#path5_stroke" transform="matrix(0 1 -0.999552 0.0299354 552 219)"/>
</g>
<g id="Line 3">
<use xlink:href="#path2_stroke" transform="translate(552 219)"/>
</g>
<g id="Line 3">
<use xlink:href="#path2_stroke" transform="translate(552 260)"/>
</g>
<g id="Line 2">
<use xlink:href="#path5_stroke" transform="matrix(-1.22465e-16 -1 0.999552 -0.0299354 598 259)"/>
</g>
<g id="Line 3">
<use xlink:href="#path2_stroke" transform="matrix(-1 1.22465e-16 -1.22465e-16 -1 598 259)"/>
</g>
<g id="Line 3">
<use xlink:href="#path2_stroke" transform="matrix(-1 1.22465e-16 -1.22465e-16 -1 598 218)"/>
</g>
<g id="4 6 7 9">
<use xlink:href="#path6_fill" transform="translate(690 219)" fill="#333333"/>
</g>
<g id="Component">
<g id="Line 2">
<use xlink:href="#path5_stroke" transform="matrix(1.25193e-31 1 -0.999552 0.0299354 682 219)"/>
</g>
<g id="Line 3">
<use xlink:href="#path2_stroke" transform="translate(682 219)"/>
</g>
<g id="Line 3">
<use xlink:href="#path2_stroke" transform="translate(682 260)"/>
</g>
</g>
<g id="Component">
<g id="Line 2">
<use xlink:href="#path5_stroke" transform="matrix(-1.22465e-16 -1 0.999552 -0.0299354 728 259)"/>
</g>
<g id="Line 3">
<use xlink:href="#path2_stroke" transform="matrix(-1 1.22465e-16 -1.22465e-16 -1 728 259)"/>
</g>
<g id="Line 3">
<use xlink:href="#path2_stroke" transform="matrix(-1 1.22465e-16 -1.22465e-16 -1 728 218)"/>
</g>
</g>
<g id="4 5 7 8">
<use xlink:href="#path7_fill" transform="translate(834 219)" fill="#333333"/>
</g>
<g id="Line 2">
<use xlink:href="#path5_stroke" transform="matrix(0 1 -0.999552 0.0299354 826 219)"/>
</g>
<g id="Line 3">
<use xlink:href="#path2_stroke" transform="translate(826 219)"/>
</g>
<g id="Line 3">
<use xlink:href="#path2_stroke" transform="translate(826 260)"/>
</g>
<g id="Line 2">
<use xlink:href="#path5_stroke" transform="matrix(-1.22465e-16 -1 0.999552 -0.0299354 872 259)"/>
</g>
<g id="Line 3">
<use xlink:href="#path2_stroke" transform="matrix(-1 1.22465e-16 -1.22465e-16 -1 872 259)"/>
</g>
<g id="Line 3">
<use xlink:href="#path2_stroke" transform="matrix(-1 1.22465e-16 -1.22465e-16 -1 872 218)"/>
</g>
</g>
</g>
<defs>
<path id="path0_fill" d="M 5.69531 15L 4.24219 15L 4.24219 5.36719L 1.32812 6.4375L 1.32812 5.125L 5.46875 3.57031L 5.69531 3.57031L 5.69531 15ZM 29.2891 15L 21.8359 15L 21.8359 13.9609L 25.7734 9.58594C 26.3568 8.92448 26.7578 8.38802 26.9766 7.97656C 27.2005 7.5599 27.3125 7.13021 27.3125 6.6875C 27.3125 6.09375 27.1328 5.60677 26.7734 5.22656C 26.4141 4.84635 25.9349 4.65625 25.3359 4.65625C 24.6172 4.65625 24.0573 4.86198 23.6562 5.27344C 23.2604 5.67969 23.0625 6.2474 23.0625 6.97656L 21.6172 6.97656C 21.6172 5.92969 21.9531 5.08333 22.625 4.4375C 23.3021 3.79167 24.2057 3.46875 25.3359 3.46875C 26.3932 3.46875 27.2292 3.7474 27.8438 4.30469C 28.4583 4.85677 28.7656 5.59375 28.7656 6.51562C 28.7656 7.63542 28.0521 8.96875 26.625 10.5156L 23.5781 13.8203L 29.2891 13.8203L 29.2891 15ZM 44.8281 8.60938L 45.9141 8.60938C 46.5964 8.59896 47.1328 8.41927 47.5234 8.07031C 47.9141 7.72135 48.1094 7.25 48.1094 6.65625C 48.1094 5.32292 47.4453 4.65625 46.1172 4.65625C 45.4922 4.65625 44.9922 4.83594 44.6172 5.19531C 44.2474 5.54948 44.0625 6.02083 44.0625 6.60938L 42.6172 6.60938C 42.6172 5.70833 42.9453 4.96094 43.6016 4.36719C 44.263 3.76823 45.1016 3.46875 46.1172 3.46875C 47.1901 3.46875 48.0312 3.7526 48.6406 4.32031C 49.25 4.88802 49.5547 5.67708 49.5547 6.6875C 49.5547 7.18229 49.3932 7.66146 49.0703 8.125C 48.7526 8.58854 48.3177 8.9349 47.7656 9.16406C 48.3906 9.36198 48.8724 9.6901 49.2109 10.1484C 49.5547 10.6068 49.7266 11.1667 49.7266 11.8281C 49.7266 12.849 49.3932 13.6589 48.7266 14.2578C 48.0599 14.8568 47.1927 15.1562 46.125 15.1562C 45.0573 15.1562 44.1875 14.8672 43.5156 14.2891C 42.849 13.7109 42.5156 12.9479 42.5156 12L 43.9688 12C 43.9688 12.599 44.1641 13.0781 44.5547 13.4375C 44.9453 13.7969 45.4688 13.9766 46.125 13.9766C 46.8229 13.9766 47.3568 13.7943 47.7266 13.4297C 48.0964 13.0651 48.2812 12.5417 48.2812 11.8594C 48.2812 11.1979 48.0781 10.6901 47.6719 10.3359C 47.2656 9.98177 46.6797 9.79948 45.9141 9.78906L 44.8281 9.78906L 44.8281 8.60938ZM 7.04688 30.1797L 8.625 30.1797L 8.625 31.3594L 7.04688 31.3594L 7.04688 34L 5.59375 34L 5.59375 31.3594L 0.414062 31.3594L 0.414062 30.5078L 5.50781 22.625L 7.04688 22.625L 7.04688 30.1797ZM 2.05469 30.1797L 5.59375 30.1797L 5.59375 24.6016L 5.42188 24.9141L 2.05469 30.1797ZM 22.5 28.2969L 23.0781 22.625L 28.9062 22.625L 28.9062 23.9609L 24.3047 23.9609L 23.9609 27.0625C 24.5182 26.7344 25.151 26.5703 25.8594 26.5703C 26.8958 26.5703 27.7188 26.9141 28.3281 27.6016C 28.9375 28.2839 29.2422 29.2083 29.2422 30.375C 29.2422 31.5469 28.9245 32.4714 28.2891 33.1484C 27.6589 33.8203 26.776 34.1562 25.6406 34.1562C 24.6354 34.1562 23.8151 33.8776 23.1797 33.3203C 22.5443 32.763 22.1823 31.9922 22.0938 31.0078L 23.4609 31.0078C 23.5495 31.6589 23.7812 32.151 24.1562 32.4844C 24.5312 32.8125 25.026 32.9766 25.6406 32.9766C 26.3125 32.9766 26.8385 32.7474 27.2188 32.2891C 27.6042 31.8307 27.7969 31.1979 27.7969 30.3906C 27.7969 29.6302 27.5885 29.0208 27.1719 28.5625C 26.7604 28.099 26.2109 27.8672 25.5234 27.8672C 24.8932 27.8672 24.3984 28.0052 24.0391 28.2812L 23.6562 28.5938L 22.5 28.2969ZM 48.3984 22.6172L 48.3984 23.8438L 48.1328 23.8438C 47.0078 23.8646 46.112 24.1979 45.4453 24.8438C 44.7786 25.4896 44.3932 26.3984 44.2891 27.5703C 44.888 26.8828 45.7057 26.5391 46.7422 26.5391C 47.7318 26.5391 48.5208 26.888 49.1094 27.5859C 49.7031 28.2839 50 29.1849 50 30.2891C 50 31.4609 49.6797 32.3984 49.0391 33.1016C 48.4036 33.8047 47.5495 34.1562 46.4766 34.1562C 45.388 34.1562 44.5052 33.7396 43.8281 32.9062C 43.151 32.0677 42.8125 30.9896 42.8125 29.6719L 42.8125 29.1172C 42.8125 27.0234 43.2578 25.4245 44.1484 24.3203C 45.0443 23.2109 46.375 22.6432 48.1406 22.6172L 48.3984 22.6172ZM 46.5 27.7422C 46.0052 27.7422 45.5495 27.8906 45.1328 28.1875C 44.7161 28.4844 44.4271 28.8568 44.2656 29.3047L 44.2656 29.8359C 44.2656 30.7734 44.4766 31.5286 44.8984 32.1016C 45.3203 32.6745 45.8464 32.9609 46.4766 32.9609C 47.1276 32.9609 47.638 32.7214 48.0078 32.2422C 48.3828 31.763 48.5703 31.1354 48.5703 30.3594C 48.5703 29.5781 48.3802 28.9479 48 28.4688C 47.625 27.9844 47.125 27.7422 46.5 27.7422ZM 8.28906 41.4375L 3.57812 52L 2.0625 52L 6.75781 41.8125L 0.601562 41.8125L 0.601562 40.625L 8.28906 40.625L 8.28906 41.4375ZM 28.7344 43.5938C 28.7344 44.1615 28.5833 44.6667 28.2812 45.1094C 27.9844 45.5521 27.5807 45.8984 27.0703 46.1484C 27.6641 46.4036 28.1328 46.776 28.4766 47.2656C 28.8255 47.7552 29 48.3099 29 48.9297C 29 49.9141 28.6667 50.6979 28 51.2812C 27.3385 51.8646 26.4661 52.1562 25.3828 52.1562C 24.2891 52.1562 23.4115 51.8646 22.75 51.2812C 22.0938 50.6927 21.7656 49.9089 21.7656 48.9297C 21.7656 48.3151 21.9323 47.7604 22.2656 47.2656C 22.6042 46.7708 23.0703 46.3958 23.6641 46.1406C 23.1589 45.8906 22.7604 45.5443 22.4688 45.1016C 22.1771 44.6589 22.0312 44.1562 22.0312 43.5938C 22.0312 42.6354 22.3385 41.875 22.9531 41.3125C 23.5677 40.75 24.3776 40.4688 25.3828 40.4688C 26.3828 40.4688 27.1901 40.75 27.8047 41.3125C 28.4245 41.875 28.7344 42.6354 28.7344 43.5938ZM 27.5547 48.8984C 27.5547 48.263 27.3516 47.7448 26.9453 47.3438C 26.5443 46.9427 26.0182 46.7422 25.3672 46.7422C 24.7161 46.7422 24.1927 46.9401 23.7969 47.3359C 23.4062 47.7318 23.2109 48.2526 23.2109 48.8984C 23.2109 49.5443 23.401 50.0521 23.7812 50.4219C 24.1667 50.7917 24.7005 50.9766 25.3828 50.9766C 26.0599 50.9766 26.5911 50.7917 26.9766 50.4219C 27.362 50.0469 27.5547 49.5391 27.5547 48.8984ZM 25.3828 41.6562C 24.8151 41.6562 24.3542 41.8333 24 42.1875C 23.651 42.5365 23.4766 43.013 23.4766 43.6172C 23.4766 44.1953 23.6484 44.6641 23.9922 45.0234C 24.3411 45.3776 24.8047 45.5547 25.3828 45.5547C 25.9609 45.5547 26.4219 45.3776 26.7656 45.0234C 27.1146 44.6641 27.2891 44.1953 27.2891 43.6172C 27.2891 43.0391 27.1094 42.5677 26.75 42.2031C 26.3906 41.8385 25.9349 41.6562 25.3828 41.6562ZM 48.2656 47C 47.9635 47.3594 47.6016 47.6484 47.1797 47.8672C 46.763 48.0859 46.3047 48.1953 45.8047 48.1953C 45.1484 48.1953 44.5755 48.0339 44.0859 47.7109C 43.6016 47.388 43.2266 46.9349 42.9609 46.3516C 42.6953 45.763 42.5625 45.1146 42.5625 44.4062C 42.5625 43.6458 42.7057 42.9609 42.9922 42.3516C 43.2839 41.7422 43.6953 41.276 44.2266 40.9531C 44.7578 40.6302 45.3776 40.4688 46.0859 40.4688C 47.2109 40.4688 48.0964 40.8906 48.7422 41.7344C 49.3932 42.5729 49.7188 43.7188 49.7188 45.1719L 49.7188 45.5938C 49.7188 47.8073 49.2812 49.4245 48.4062 50.4453C 47.5312 51.4609 46.2109 51.9818 44.4453 52.0078L 44.1641 52.0078L 44.1641 50.7891L 44.4688 50.7891C 45.6615 50.7682 46.5781 50.4583 47.2188 49.8594C 47.8594 49.2552 48.2083 48.3021 48.2656 47ZM 46.0391 47C 46.5234 47 46.9688 46.8516 47.375 46.5547C 47.7865 46.2578 48.0859 45.8906 48.2734 45.4531L 48.2734 44.875C 48.2734 43.9271 48.0677 43.1562 47.6562 42.5625C 47.2448 41.9688 46.724 41.6719 46.0938 41.6719C 45.4583 41.6719 44.9479 41.9167 44.5625 42.4062C 44.1771 42.8906 43.9844 43.5312 43.9844 44.3281C 43.9844 45.1042 44.1693 45.7448 44.5391 46.25C 44.9141 46.75 45.4141 47 46.0391 47Z"/>
<path id="path1_stroke" d="M 0 0L 62 0L 62 -1L 0 -1L 0 0Z"/>
<path id="path2_stroke" d="M 0 0L 6 0L 6 -1L 0 -1L 0 0Z"/>
<path id="path3_fill" d="M 0.742188 10.7031C 0.742188 9.40625 1.04948 8.36458 1.66406 7.57812C 2.27865 6.78646 3.08333 6.39062 4.07812 6.39062C 5.06771 6.39062 5.85156 6.72917 6.42969 7.40625L 6.42969 3L 7.875 3L 7.875 15L 6.54688 15L 6.47656 14.0938C 5.89844 14.8021 5.09375 15.1562 4.0625 15.1562C 3.08333 15.1562 2.28385 14.7552 1.66406 13.9531C 1.04948 13.151 0.742188 12.1042 0.742188 10.8125L 0.742188 10.7031ZM 2.1875 10.8672C 2.1875 11.8255 2.38542 12.5755 2.78125 13.1172C 3.17708 13.6589 3.72396 13.9297 4.42188 13.9297C 5.33854 13.9297 6.00781 13.5182 6.42969 12.6953L 6.42969 8.8125C 5.9974 8.01562 5.33333 7.61719 4.4375 7.61719C 3.72917 7.61719 3.17708 7.89062 2.78125 8.4375C 2.38542 8.98438 2.1875 9.79427 2.1875 10.8672ZM 13.6328 15.1562C 12.487 15.1562 11.5547 14.7812 10.8359 14.0312C 10.1172 13.276 9.75781 12.2682 9.75781 11.0078L 9.75781 10.7422C 9.75781 9.90365 9.91667 9.15625 10.2344 8.5C 10.5573 7.83854 11.0052 7.32292 11.5781 6.95312C 12.1562 6.57812 12.7812 6.39062 13.4531 6.39062C 14.5521 6.39062 15.4062 6.7526 16.0156 7.47656C 16.625 8.20052 16.9297 9.23698 16.9297 10.5859L 16.9297 11.1875L 11.2031 11.1875C 11.224 12.0208 11.4661 12.6953 11.9297 13.2109C 12.3984 13.7214 12.9922 13.9766 13.7109 13.9766C 14.2214 13.9766 14.6536 13.8724 15.0078 13.6641C 15.362 13.4557 15.6719 13.1797 15.9375 12.8359L 16.8203 13.5234C 16.112 14.612 15.0495 15.1562 13.6328 15.1562ZM 13.4531 7.57812C 12.8698 7.57812 12.3802 7.79167 11.9844 8.21875C 11.5885 8.64062 11.3438 9.23438 11.25 10L 15.4844 10L 15.4844 9.89062C 15.4427 9.15625 15.2448 8.58854 14.8906 8.1875C 14.5365 7.78125 14.0573 7.57812 13.4531 7.57812ZM 20.5703 4.5L 20.5703 6.54688L 22.1484 6.54688L 22.1484 7.66406L 20.5703 7.66406L 20.5703 12.9062C 20.5703 13.2448 20.6406 13.5 20.7812 13.6719C 20.9219 13.8385 21.1615 13.9219 21.5 13.9219C 21.6667 13.9219 21.8958 13.8906 22.1875 13.8281L 22.1875 15C 21.8073 15.1042 21.4375 15.1562 21.0781 15.1562C 20.4323 15.1562 19.9453 14.9609 19.6172 14.5703C 19.2891 14.1797 19.125 13.625 19.125 12.9062L 19.125 7.66406L 17.5859 7.66406L 17.5859 6.54688L 19.125 6.54688L 19.125 4.5L 20.5703 4.5ZM 27.7578 10.3828C 27.7578 9.20573 27.9141 8.07552 28.2266 6.99219C 28.5443 5.90885 29.0156 4.92448 29.6406 4.03906C 30.2656 3.15365 30.9141 2.52865 31.5859 2.16406L 31.8828 3.11719C 31.1224 3.70052 30.4974 4.59115 30.0078 5.78906C 29.5234 6.98698 29.2578 8.32812 29.2109 9.8125L 29.2031 10.4766C 29.2031 12.487 29.5703 14.2318 30.3047 15.7109C 30.7474 16.5964 31.2734 17.2891 31.8828 17.7891L 31.5859 18.6719C 30.8932 18.2865 30.2318 17.6406 29.6016 16.7344C 28.3724 14.9635 27.7578 12.8464 27.7578 10.3828ZM 112.023 10.4609C 112.023 11.6224 111.87 12.737 111.562 13.8047C 111.26 14.8672 110.794 15.849 110.164 16.75C 109.539 17.651 108.883 18.2917 108.195 18.6719L 107.891 17.7891C 108.693 17.1745 109.336 16.2214 109.82 14.9297C 110.31 13.6328 110.56 12.1953 110.57 10.6172L 110.57 10.3672C 110.57 9.27344 110.456 8.25781 110.227 7.32031C 109.997 6.3776 109.677 5.53385 109.266 4.78906C 108.859 4.04427 108.401 3.46354 107.891 3.04688L 108.195 2.16406C 108.883 2.54427 109.536 3.17969 110.156 4.07031C 110.781 4.96094 111.247 5.94271 111.555 7.01562C 111.867 8.08854 112.023 9.23698 112.023 10.4609ZM 128.797 8.64062L 122.281 8.64062L 122.281 7.38281L 128.797 7.38281L 128.797 8.64062ZM 128.797 11.8828L 122.281 11.8828L 122.281 10.6328L 128.797 10.6328L 128.797 11.8828ZM 143.508 15L 142.055 15L 142.055 5.36719L 139.141 6.4375L 139.141 5.125L 143.281 3.57031L 143.508 3.57031L 143.508 15ZM 149.375 7.32031L 147.016 6.61719L 147.375 5.4375L 149.734 6.3125L 149.664 3.625L 150.859 3.625L 150.781 6.35156L 153.102 5.49219L 153.461 6.67969L 151.062 7.39062L 152.609 9.50781L 151.641 10.2422L 150.188 7.99219L 148.781 10.1875L 147.805 9.47656L 149.375 7.32031ZM 158.398 10.7031C 158.398 9.40625 158.706 8.36458 159.32 7.57812C 159.935 6.78646 160.74 6.39062 161.734 6.39062C 162.724 6.39062 163.508 6.72917 164.086 7.40625L 164.086 3L 165.531 3L 165.531 15L 164.203 15L 164.133 14.0938C 163.555 14.8021 162.75 15.1562 161.719 15.1562C 160.74 15.1562 159.94 14.7552 159.32 13.9531C 158.706 13.151 158.398 12.1042 158.398 10.8125L 158.398 10.7031ZM 159.844 10.8672C 159.844 11.8255 160.042 12.5755 160.438 13.1172C 160.833 13.6589 161.38 13.9297 162.078 13.9297C 162.995 13.9297 163.664 13.5182 164.086 12.6953L 164.086 8.8125C 163.654 8.01562 162.99 7.61719 162.094 7.61719C 161.385 7.61719 160.833 7.89062 160.438 8.4375C 160.042 8.98438 159.844 9.79427 159.844 10.8672ZM 171.289 15.1562C 170.143 15.1562 169.211 14.7812 168.492 14.0312C 167.773 13.276 167.414 12.2682 167.414 11.0078L 167.414 10.7422C 167.414 9.90365 167.573 9.15625 167.891 8.5C 168.214 7.83854 168.661 7.32292 169.234 6.95312C 169.812 6.57812 170.438 6.39062 171.109 6.39062C 172.208 6.39062 173.062 6.7526 173.672 7.47656C 174.281 8.20052 174.586 9.23698 174.586 10.5859L 174.586 11.1875L 168.859 11.1875C 168.88 12.0208 169.122 12.6953 169.586 13.2109C 170.055 13.7214 170.648 13.9766 171.367 13.9766C 171.878 13.9766 172.31 13.8724 172.664 13.6641C 173.018 13.4557 173.328 13.1797 173.594 12.8359L 174.477 13.5234C 173.768 14.612 172.706 15.1562 171.289 15.1562ZM 171.109 7.57812C 170.526 7.57812 170.036 7.79167 169.641 8.21875C 169.245 8.64062 169 9.23438 168.906 10L 173.141 10L 173.141 9.89062C 173.099 9.15625 172.901 8.58854 172.547 8.1875C 172.193 7.78125 171.714 7.57812 171.109 7.57812ZM 178.227 4.5L 178.227 6.54688L 179.805 6.54688L 179.805 7.66406L 178.227 7.66406L 178.227 12.9062C 178.227 13.2448 178.297 13.5 178.438 13.6719C 178.578 13.8385 178.818 13.9219 179.156 13.9219C 179.323 13.9219 179.552 13.8906 179.844 13.8281L 179.844 15C 179.464 15.1042 179.094 15.1562 178.734 15.1562C 178.089 15.1562 177.602 14.9609 177.273 14.5703C 176.945 14.1797 176.781 13.625 176.781 12.9062L 176.781 7.66406L 175.242 7.66406L 175.242 6.54688L 176.781 6.54688L 176.781 4.5L 178.227 4.5ZM 181.445 10.3828C 181.445 9.20573 181.602 8.07552 181.914 6.99219C 182.232 5.90885 182.703 4.92448 183.328 4.03906C 183.953 3.15365 184.602 2.52865 185.273 2.16406L 185.57 3.11719C 184.81 3.70052 184.185 4.59115 183.695 5.78906C 183.211 6.98698 182.945 8.32812 182.898 9.8125L 182.891 10.4766C 182.891 12.487 183.258 14.2318 183.992 15.7109C 184.435 16.5964 184.961 17.2891 185.57 17.7891L 185.273 18.6719C 184.581 18.2865 183.919 17.6406 183.289 16.7344C 182.06 14.9635 181.445 12.8464 181.445 10.3828ZM 241.898 10.4609C 241.898 11.6224 241.745 12.737 241.438 13.8047C 241.135 14.8672 240.669 15.849 240.039 16.75C 239.414 17.651 238.758 18.2917 238.07 18.6719L 237.766 17.7891C 238.568 17.1745 239.211 16.2214 239.695 14.9297C 240.185 13.6328 240.435 12.1953 240.445 10.6172L 240.445 10.3672C 240.445 9.27344 240.331 8.25781 240.102 7.32031C 239.872 6.3776 239.552 5.53385 239.141 4.78906C 238.734 4.04427 238.276 3.46354 237.766 3.04688L 238.07 2.16406C 238.758 2.54427 239.411 3.17969 240.031 4.07031C 240.656 4.96094 241.122 5.94271 241.43 7.01562C 241.742 8.08854 241.898 9.23698 241.898 10.4609ZM 259.039 10.7578L 255.227 10.7578L 255.227 9.57812L 259.039 9.57812L 259.039 10.7578ZM 275.695 15L 268.242 15L 268.242 13.9609L 272.18 9.58594C 272.763 8.92448 273.164 8.38802 273.383 7.97656C 273.607 7.5599 273.719 7.13021 273.719 6.6875C 273.719 6.09375 273.539 5.60677 273.18 5.22656C 272.82 4.84635 272.341 4.65625 271.742 4.65625C 271.023 4.65625 270.464 4.86198 270.062 5.27344C 269.667 5.67969 269.469 6.2474 269.469 6.97656L 268.023 6.97656C 268.023 5.92969 268.359 5.08333 269.031 4.4375C 269.708 3.79167 270.612 3.46875 271.742 3.46875C 272.799 3.46875 273.635 3.7474 274.25 4.30469C 274.865 4.85677 275.172 5.59375 275.172 6.51562C 275.172 7.63542 274.458 8.96875 273.031 10.5156L 269.984 13.8203L 275.695 13.8203L 275.695 15ZM 278.859 7.32031L 276.5 6.61719L 276.859 5.4375L 279.219 6.3125L 279.148 3.625L 280.344 3.625L 280.266 6.35156L 282.586 5.49219L 282.945 6.67969L 280.547 7.39062L 282.094 9.50781L 281.125 10.2422L 279.672 7.99219L 278.266 10.1875L 277.289 9.47656L 278.859 7.32031ZM 287.883 10.7031C 287.883 9.40625 288.19 8.36458 288.805 7.57812C 289.419 6.78646 290.224 6.39062 291.219 6.39062C 292.208 6.39062 292.992 6.72917 293.57 7.40625L 293.57 3L 295.016 3L 295.016 15L 293.688 15L 293.617 14.0938C 293.039 14.8021 292.234 15.1562 291.203 15.1562C 290.224 15.1562 289.424 14.7552 288.805 13.9531C 288.19 13.151 287.883 12.1042 287.883 10.8125L 287.883 10.7031ZM 289.328 10.8672C 289.328 11.8255 289.526 12.5755 289.922 13.1172C 290.318 13.6589 290.865 13.9297 291.562 13.9297C 292.479 13.9297 293.148 13.5182 293.57 12.6953L 293.57 8.8125C 293.138 8.01562 292.474 7.61719 291.578 7.61719C 290.87 7.61719 290.318 7.89062 289.922 8.4375C 289.526 8.98438 289.328 9.79427 289.328 10.8672ZM 300.773 15.1562C 299.628 15.1562 298.695 14.7812 297.977 14.0312C 297.258 13.276 296.898 12.2682 296.898 11.0078L 296.898 10.7422C 296.898 9.90365 297.057 9.15625 297.375 8.5C 297.698 7.83854 298.146 7.32292 298.719 6.95312C 299.297 6.57812 299.922 6.39062 300.594 6.39062C 301.693 6.39062 302.547 6.7526 303.156 7.47656C 303.766 8.20052 304.07 9.23698 304.07 10.5859L 304.07 11.1875L 298.344 11.1875C 298.365 12.0208 298.607 12.6953 299.07 13.2109C 299.539 13.7214 300.133 13.9766 300.852 13.9766C 301.362 13.9766 301.794 13.8724 302.148 13.6641C 302.503 13.4557 302.812 13.1797 303.078 12.8359L 303.961 13.5234C 303.253 14.612 302.19 15.1562 300.773 15.1562ZM 300.594 7.57812C 300.01 7.57812 299.521 7.79167 299.125 8.21875C 298.729 8.64062 298.484 9.23438 298.391 10L 302.625 10L 302.625 9.89062C 302.583 9.15625 302.385 8.58854 302.031 8.1875C 301.677 7.78125 301.198 7.57812 300.594 7.57812ZM 307.711 4.5L 307.711 6.54688L 309.289 6.54688L 309.289 7.66406L 307.711 7.66406L 307.711 12.9062C 307.711 13.2448 307.781 13.5 307.922 13.6719C 308.062 13.8385 308.302 13.9219 308.641 13.9219C 308.807 13.9219 309.036 13.8906 309.328 13.8281L 309.328 15C 308.948 15.1042 308.578 15.1562 308.219 15.1562C 307.573 15.1562 307.086 14.9609 306.758 14.5703C 306.43 14.1797 306.266 13.625 306.266 12.9062L 306.266 7.66406L 304.727 7.66406L 304.727 6.54688L 306.266 6.54688L 306.266 4.5L 307.711 4.5ZM 310.93 10.3828C 310.93 9.20573 311.086 8.07552 311.398 6.99219C 311.716 5.90885 312.188 4.92448 312.812 4.03906C 313.438 3.15365 314.086 2.52865 314.758 2.16406L 315.055 3.11719C 314.294 3.70052 313.669 4.59115 313.18 5.78906C 312.695 6.98698 312.43 8.32812 312.383 9.8125L 312.375 10.4766C 312.375 12.487 312.742 14.2318 313.477 15.7109C 313.919 16.5964 314.445 17.2891 315.055 17.7891L 314.758 18.6719C 314.065 18.2865 313.404 17.6406 312.773 16.7344C 311.544 14.9635 310.93 12.8464 310.93 10.3828ZM 371.383 10.4609C 371.383 11.6224 371.229 12.737 370.922 13.8047C 370.62 14.8672 370.154 15.849 369.523 16.75C 368.898 17.651 368.242 18.2917 367.555 18.6719L 367.25 17.7891C 368.052 17.1745 368.695 16.2214 369.18 14.9297C 369.669 13.6328 369.919 12.1953 369.93 10.6172L 369.93 10.3672C 369.93 9.27344 369.815 8.25781 369.586 7.32031C 369.357 6.3776 369.036 5.53385 368.625 4.78906C 368.219 4.04427 367.76 3.46354 367.25 3.04688L 367.555 2.16406C 368.242 2.54427 368.896 3.17969 369.516 4.07031C 370.141 4.96094 370.607 5.94271 370.914 7.01562C 371.227 8.08854 371.383 9.23698 371.383 10.4609ZM 393.625 8.89844L 396.797 8.89844L 396.797 10.2656L 393.625 10.2656L 393.625 13.8594L 392.172 13.8594L 392.172 10.2656L 389 10.2656L 389 8.89844L 392.172 8.89844L 392.172 5.57812L 393.625 5.57812L 393.625 8.89844ZM 408.453 8.60938L 409.539 8.60938C 410.221 8.59896 410.758 8.41927 411.148 8.07031C 411.539 7.72135 411.734 7.25 411.734 6.65625C 411.734 5.32292 411.07 4.65625 409.742 4.65625C 409.117 4.65625 408.617 4.83594 408.242 5.19531C 407.872 5.54948 407.688 6.02083 407.688 6.60938L 406.242 6.60938C 406.242 5.70833 406.57 4.96094 407.227 4.36719C 407.888 3.76823 408.727 3.46875 409.742 3.46875C 410.815 3.46875 411.656 3.7526 412.266 4.32031C 412.875 4.88802 413.18 5.67708 413.18 6.6875C 413.18 7.18229 413.018 7.66146 412.695 8.125C 412.378 8.58854 411.943 8.9349 411.391 9.16406C 412.016 9.36198 412.497 9.6901 412.836 10.1484C 413.18 10.6068 413.352 11.1667 413.352 11.8281C 413.352 12.849 413.018 13.6589 412.352 14.2578C 411.685 14.8568 410.818 15.1562 409.75 15.1562C 408.682 15.1562 407.812 14.8672 407.141 14.2891C 406.474 13.7109 406.141 12.9479 406.141 12L 407.594 12C 407.594 12.599 407.789 13.0781 408.18 13.4375C 408.57 13.7969 409.094 13.9766 409.75 13.9766C 410.448 13.9766 410.982 13.7943 411.352 13.4297C 411.721 13.0651 411.906 12.5417 411.906 11.8594C 411.906 11.1979 411.703 10.6901 411.297 10.3359C 410.891 9.98177 410.305 9.79948 409.539 9.78906L 408.453 9.78906L 408.453 8.60938ZM 416.969 7.32031L 414.609 6.61719L 414.969 5.4375L 417.328 6.3125L 417.258 3.625L 418.453 3.625L 418.375 6.35156L 420.695 5.49219L 421.055 6.67969L 418.656 7.39062L 420.203 9.50781L 419.234 10.2422L 417.781 7.99219L 416.375 10.1875L 415.398 9.47656L 416.969 7.32031ZM 425.992 10.7031C 425.992 9.40625 426.299 8.36458 426.914 7.57812C 427.529 6.78646 428.333 6.39062 429.328 6.39062C 430.318 6.39062 431.102 6.72917 431.68 7.40625L 431.68 3L 433.125 3L 433.125 15L 431.797 15L 431.727 14.0938C 431.148 14.8021 430.344 15.1562 429.312 15.1562C 428.333 15.1562 427.534 14.7552 426.914 13.9531C 426.299 13.151 425.992 12.1042 425.992 10.8125L 425.992 10.7031ZM 427.438 10.8672C 427.438 11.8255 427.635 12.5755 428.031 13.1172C 428.427 13.6589 428.974 13.9297 429.672 13.9297C 430.589 13.9297 431.258 13.5182 431.68 12.6953L 431.68 8.8125C 431.247 8.01562 430.583 7.61719 429.688 7.61719C 428.979 7.61719 428.427 7.89062 428.031 8.4375C 427.635 8.98438 427.438 9.79427 427.438 10.8672ZM 438.883 15.1562C 437.737 15.1562 436.805 14.7812 436.086 14.0312C 435.367 13.276 435.008 12.2682 435.008 11.0078L 435.008 10.7422C 435.008 9.90365 435.167 9.15625 435.484 8.5C 435.807 7.83854 436.255 7.32292 436.828 6.95312C 437.406 6.57812 438.031 6.39062 438.703 6.39062C 439.802 6.39062 440.656 6.7526 441.266 7.47656C 441.875 8.20052 442.18 9.23698 442.18 10.5859L 442.18 11.1875L 436.453 11.1875C 436.474 12.0208 436.716 12.6953 437.18 13.2109C 437.648 13.7214 438.242 13.9766 438.961 13.9766C 439.471 13.9766 439.904 13.8724 440.258 13.6641C 440.612 13.4557 440.922 13.1797 441.188 12.8359L 442.07 13.5234C 441.362 14.612 440.299 15.1562 438.883 15.1562ZM 438.703 7.57812C 438.12 7.57812 437.63 7.79167 437.234 8.21875C 436.839 8.64062 436.594 9.23438 436.5 10L 440.734 10L 440.734 9.89062C 440.693 9.15625 440.495 8.58854 440.141 8.1875C 439.786 7.78125 439.307 7.57812 438.703 7.57812ZM 445.82 4.5L 445.82 6.54688L 447.398 6.54688L 447.398 7.66406L 445.82 7.66406L 445.82 12.9062C 445.82 13.2448 445.891 13.5 446.031 13.6719C 446.172 13.8385 446.411 13.9219 446.75 13.9219C 446.917 13.9219 447.146 13.8906 447.438 13.8281L 447.438 15C 447.057 15.1042 446.688 15.1562 446.328 15.1562C 445.682 15.1562 445.195 14.9609 444.867 14.5703C 444.539 14.1797 444.375 13.625 444.375 12.9062L 444.375 7.66406L 442.836 7.66406L 442.836 6.54688L 444.375 6.54688L 444.375 4.5L 445.82 4.5ZM 453.008 10.3828C 453.008 9.20573 453.164 8.07552 453.477 6.99219C 453.794 5.90885 454.266 4.92448 454.891 4.03906C 455.516 3.15365 456.164 2.52865 456.836 2.16406L 457.133 3.11719C 456.372 3.70052 455.747 4.59115 455.258 5.78906C 454.773 6.98698 454.508 8.32812 454.461 9.8125L 454.453 10.4766C 454.453 12.487 454.82 14.2318 455.555 15.7109C 455.997 16.5964 456.523 17.2891 457.133 17.7891L 456.836 18.6719C 456.143 18.2865 455.482 17.6406 454.852 16.7344C 453.622 14.9635 453.008 12.8464 453.008 10.3828ZM 517.43 10.4609C 517.43 11.6224 517.276 12.737 516.969 13.8047C 516.667 14.8672 516.201 15.849 515.57 16.75C 514.945 17.651 514.289 18.2917 513.602 18.6719L 513.297 17.7891C 514.099 17.1745 514.742 16.2214 515.227 14.9297C 515.716 13.6328 515.966 12.1953 515.977 10.6172L 515.977 10.3672C 515.977 9.27344 515.862 8.25781 515.633 7.32031C 515.404 6.3776 515.083 5.53385 514.672 4.78906C 514.266 4.04427 513.807 3.46354 513.297 3.04688L 513.602 2.16406C 514.289 2.54427 514.943 3.17969 515.562 4.07031C 516.188 4.96094 516.654 5.94271 516.961 7.01562C 517.273 8.08854 517.43 9.23698 517.43 10.4609Z"/>
<path id="path4_fill" d="M 1.60938 9.29688L 2.1875 3.625L 8.01562 3.625L 8.01562 4.96094L 3.41406 4.96094L 3.07031 8.0625C 3.6276 7.73438 4.26042 7.57031 4.96875 7.57031C 6.00521 7.57031 6.82812 7.91406 7.4375 8.60156C 8.04688 9.28385 8.35156 10.2083 8.35156 11.375C 8.35156 12.5469 8.03385 13.4714 7.39844 14.1484C 6.76823 14.8203 5.88542 15.1562 4.75 15.1562C 3.74479 15.1562 2.92448 14.8776 2.28906 14.3203C 1.65365 13.763 1.29167 12.9922 1.20312 12.0078L 2.57031 12.0078C 2.65885 12.6589 2.89062 13.151 3.26562 13.4844C 3.64062 13.8125 4.13542 13.9766 4.75 13.9766C 5.42188 13.9766 5.94792 13.7474 6.32812 13.2891C 6.71354 12.8307 6.90625 12.1979 6.90625 11.3906C 6.90625 10.6302 6.69792 10.0208 6.28125 9.5625C 5.86979 9.09896 5.32031 8.86719 4.63281 8.86719C 4.0026 8.86719 3.50781 9.00521 3.14844 9.28125L 2.76562 9.59375L 1.60938 9.29688ZM 27.5078 3.61719L 27.5078 4.84375L 27.2422 4.84375C 26.1172 4.86458 25.2214 5.19792 24.5547 5.84375C 23.888 6.48958 23.5026 7.39844 23.3984 8.57031C 23.9974 7.88281 24.8151 7.53906 25.8516 7.53906C 26.8411 7.53906 27.6302 7.88802 28.2188 8.58594C 28.8125 9.28385 29.1094 10.1849 29.1094 11.2891C 29.1094 12.4609 28.7891 13.3984 28.1484 14.1016C 27.513 14.8047 26.6589 15.1562 25.5859 15.1562C 24.4974 15.1562 23.6146 14.7396 22.9375 13.9062C 22.2604 13.0677 21.9219 11.9896 21.9219 10.6719L 21.9219 10.1172C 21.9219 8.02344 22.3672 6.42448 23.2578 5.32031C 24.1536 4.21094 25.4844 3.64323 27.25 3.61719L 27.5078 3.61719ZM 25.6094 8.74219C 25.1146 8.74219 24.6589 8.89062 24.2422 9.1875C 23.8255 9.48438 23.5365 9.85677 23.375 10.3047L 23.375 10.8359C 23.375 11.7734 23.5859 12.5286 24.0078 13.1016C 24.4297 13.6745 24.9557 13.9609 25.5859 13.9609C 26.237 13.9609 26.7474 13.7214 27.1172 13.2422C 27.4922 12.763 27.6797 12.1354 27.6797 11.3594C 27.6797 10.5781 27.4896 9.94792 27.1094 9.46875C 26.7344 8.98438 26.2344 8.74219 25.6094 8.74219ZM 7.84375 25.5938C 7.84375 26.1615 7.69271 26.6667 7.39062 27.1094C 7.09375 27.5521 6.6901 27.8984 6.17969 28.1484C 6.77344 28.4036 7.24219 28.776 7.58594 29.2656C 7.9349 29.7552 8.10938 30.3099 8.10938 30.9297C 8.10938 31.9141 7.77604 32.6979 7.10938 33.2812C 6.44792 33.8646 5.57552 34.1562 4.49219 34.1562C 3.39844 34.1562 2.52083 33.8646 1.85938 33.2812C 1.20312 32.6927 0.875 31.9089 0.875 30.9297C 0.875 30.3151 1.04167 29.7604 1.375 29.2656C 1.71354 28.7708 2.17969 28.3958 2.77344 28.1406C 2.26823 27.8906 1.86979 27.5443 1.57812 27.1016C 1.28646 26.6589 1.14062 26.1562 1.14062 25.5938C 1.14062 24.6354 1.44792 23.875 2.0625 23.3125C 2.67708 22.75 3.48698 22.4688 4.49219 22.4688C 5.49219 22.4688 6.29948 22.75 6.91406 23.3125C 7.53385 23.875 7.84375 24.6354 7.84375 25.5938ZM 6.66406 30.8984C 6.66406 30.263 6.46094 29.7448 6.05469 29.3438C 5.65365 28.9427 5.1276 28.7422 4.47656 28.7422C 3.82552 28.7422 3.30208 28.9401 2.90625 29.3359C 2.51562 29.7318 2.32031 30.2526 2.32031 30.8984C 2.32031 31.5443 2.51042 32.0521 2.89062 32.4219C 3.27604 32.7917 3.8099 32.9766 4.49219 32.9766C 5.16927 32.9766 5.70052 32.7917 6.08594 32.4219C 6.47135 32.0469 6.66406 31.5391 6.66406 30.8984ZM 4.49219 23.6562C 3.92448 23.6562 3.46354 23.8333 3.10938 24.1875C 2.76042 24.5365 2.58594 25.013 2.58594 25.6172C 2.58594 26.1953 2.75781 26.6641 3.10156 27.0234C 3.45052 27.3776 3.91406 27.5547 4.49219 27.5547C 5.07031 27.5547 5.53125 27.3776 5.875 27.0234C 6.22396 26.6641 6.39844 26.1953 6.39844 25.6172C 6.39844 25.0391 6.21875 24.5677 5.85938 24.2031C 5.5 23.8385 5.04427 23.6562 4.49219 23.6562ZM 27.375 29C 27.0729 29.3594 26.7109 29.6484 26.2891 29.8672C 25.8724 30.0859 25.4141 30.1953 24.9141 30.1953C 24.2578 30.1953 23.6849 30.0339 23.1953 29.7109C 22.7109 29.388 22.3359 28.9349 22.0703 28.3516C 21.8047 27.763 21.6719 27.1146 21.6719 26.4062C 21.6719 25.6458 21.8151 24.9609 22.1016 24.3516C 22.3932 23.7422 22.8047 23.276 23.3359 22.9531C 23.8672 22.6302 24.487 22.4688 25.1953 22.4688C 26.3203 22.4688 27.2057 22.8906 27.8516 23.7344C 28.5026 24.5729 28.8281 25.7188 28.8281 27.1719L 28.8281 27.5938C 28.8281 29.8073 28.3906 31.4245 27.5156 32.4453C 26.6406 33.4609 25.3203 33.9818 23.5547 34.0078L 23.2734 34.0078L 23.2734 32.7891L 23.5781 32.7891C 24.7708 32.7682 25.6875 32.4583 26.3281 31.8594C 26.9688 31.2552 27.3177 30.3021 27.375 29ZM 25.1484 29C 25.6328 29 26.0781 28.8516 26.4844 28.5547C 26.8958 28.2578 27.1953 27.8906 27.3828 27.4531L 27.3828 26.875C 27.3828 25.9271 27.1771 25.1562 26.7656 24.5625C 26.3542 23.9688 25.8333 23.6719 25.2031 23.6719C 24.5677 23.6719 24.0573 23.9167 23.6719 24.4062C 23.2865 24.8906 23.0938 25.5312 23.0938 26.3281C 23.0938 27.1042 23.2786 27.7448 23.6484 28.25C 24.0234 28.75 24.5234 29 25.1484 29Z"/>
<path id="path5_stroke" d="M 0 0L 41 0L 41 -1L 0 -1L 0 0Z"/>
<path id="path6_fill" d="M 7.04688 11.1797L 8.625 11.1797L 8.625 12.3594L 7.04688 12.3594L 7.04688 15L 5.59375 15L 5.59375 12.3594L 0.414062 12.3594L 0.414062 11.5078L 5.50781 3.625L 7.04688 3.625L 7.04688 11.1797ZM 2.05469 11.1797L 5.59375 11.1797L 5.59375 5.60156L 5.42188 5.91406L 2.05469 11.1797ZM 27.5078 3.61719L 27.5078 4.84375L 27.2422 4.84375C 26.1172 4.86458 25.2214 5.19792 24.5547 5.84375C 23.888 6.48958 23.5026 7.39844 23.3984 8.57031C 23.9974 7.88281 24.8151 7.53906 25.8516 7.53906C 26.8411 7.53906 27.6302 7.88802 28.2188 8.58594C 28.8125 9.28385 29.1094 10.1849 29.1094 11.2891C 29.1094 12.4609 28.7891 13.3984 28.1484 14.1016C 27.513 14.8047 26.6589 15.1562 25.5859 15.1562C 24.4974 15.1562 23.6146 14.7396 22.9375 13.9062C 22.2604 13.0677 21.9219 11.9896 21.9219 10.6719L 21.9219 10.1172C 21.9219 8.02344 22.3672 6.42448 23.2578 5.32031C 24.1536 4.21094 25.4844 3.64323 27.25 3.61719L 27.5078 3.61719ZM 25.6094 8.74219C 25.1146 8.74219 24.6589 8.89062 24.2422 9.1875C 23.8255 9.48438 23.5365 9.85677 23.375 10.3047L 23.375 10.8359C 23.375 11.7734 23.5859 12.5286 24.0078 13.1016C 24.4297 13.6745 24.9557 13.9609 25.5859 13.9609C 26.237 13.9609 26.7474 13.7214 27.1172 13.2422C 27.4922 12.763 27.6797 12.1354 27.6797 11.3594C 27.6797 10.5781 27.4896 9.94792 27.1094 9.46875C 26.7344 8.98438 26.2344 8.74219 25.6094 8.74219ZM 8.28906 23.4375L 3.57812 34L 2.0625 34L 6.75781 23.8125L 0.601562 23.8125L 0.601562 22.625L 8.28906 22.625L 8.28906 23.4375ZM 27.375 29C 27.0729 29.3594 26.7109 29.6484 26.2891 29.8672C 25.8724 30.0859 25.4141 30.1953 24.9141 30.1953C 24.2578 30.1953 23.6849 30.0339 23.1953 29.7109C 22.7109 29.388 22.3359 28.9349 22.0703 28.3516C 21.8047 27.763 21.6719 27.1146 21.6719 26.4062C 21.6719 25.6458 21.8151 24.9609 22.1016 24.3516C 22.3932 23.7422 22.8047 23.276 23.3359 22.9531C 23.8672 22.6302 24.487 22.4688 25.1953 22.4688C 26.3203 22.4688 27.2057 22.8906 27.8516 23.7344C 28.5026 24.5729 28.8281 25.7188 28.8281 27.1719L 28.8281 27.5938C 28.8281 29.8073 28.3906 31.4245 27.5156 32.4453C 26.6406 33.4609 25.3203 33.9818 23.5547 34.0078L 23.2734 34.0078L 23.2734 32.7891L 23.5781 32.7891C 24.7708 32.7682 25.6875 32.4583 26.3281 31.8594C 26.9688 31.2552 27.3177 30.3021 27.375 29ZM 25.1484 29C 25.6328 29 26.0781 28.8516 26.4844 28.5547C 26.8958 28.2578 27.1953 27.8906 27.3828 27.4531L 27.3828 26.875C 27.3828 25.9271 27.1771 25.1562 26.7656 24.5625C 26.3542 23.9688 25.8333 23.6719 25.2031 23.6719C 24.5677 23.6719 24.0573 23.9167 23.6719 24.4062C 23.2865 24.8906 23.0938 25.5312 23.0938 26.3281C 23.0938 27.1042 23.2786 27.7448 23.6484 28.25C 24.0234 28.75 24.5234 29 25.1484 29Z"/>
<path id="path7_fill" d="M 7.04688 11.1797L 8.625 11.1797L 8.625 12.3594L 7.04688 12.3594L 7.04688 15L 5.59375 15L 5.59375 12.3594L 0.414062 12.3594L 0.414062 11.5078L 5.50781 3.625L 7.04688 3.625L 7.04688 11.1797ZM 2.05469 11.1797L 5.59375 11.1797L 5.59375 5.60156L 5.42188 5.91406L 2.05469 11.1797ZM 22.5 9.29688L 23.0781 3.625L 28.9062 3.625L 28.9062 4.96094L 24.3047 4.96094L 23.9609 8.0625C 24.5182 7.73438 25.151 7.57031 25.8594 7.57031C 26.8958 7.57031 27.7188 7.91406 28.3281 8.60156C 28.9375 9.28385 29.2422 10.2083 29.2422 11.375C 29.2422 12.5469 28.9245 13.4714 28.2891 14.1484C 27.6589 14.8203 26.776 15.1562 25.6406 15.1562C 24.6354 15.1562 23.8151 14.8776 23.1797 14.3203C 22.5443 13.763 22.1823 12.9922 22.0938 12.0078L 23.4609 12.0078C 23.5495 12.6589 23.7812 13.151 24.1562 13.4844C 24.5312 13.8125 25.026 13.9766 25.6406 13.9766C 26.3125 13.9766 26.8385 13.7474 27.2188 13.2891C 27.6042 12.8307 27.7969 12.1979 27.7969 11.3906C 27.7969 10.6302 27.5885 10.0208 27.1719 9.5625C 26.7604 9.09896 26.2109 8.86719 25.5234 8.86719C 24.8932 8.86719 24.3984 9.00521 24.0391 9.28125L 23.6562 9.59375L 22.5 9.29688ZM 8.28906 23.4375L 3.57812 34L 2.0625 34L 6.75781 23.8125L 0.601562 23.8125L 0.601562 22.625L 8.28906 22.625L 8.28906 23.4375ZM 28.7344 25.5938C 28.7344 26.1615 28.5833 26.6667 28.2812 27.1094C 27.9844 27.5521 27.5807 27.8984 27.0703 28.1484C 27.6641 28.4036 28.1328 28.776 28.4766 29.2656C 28.8255 29.7552 29 30.3099 29 30.9297C 29 31.9141 28.6667 32.6979 28 33.2812C 27.3385 33.8646 26.4661 34.1562 25.3828 34.1562C 24.2891 34.1562 23.4115 33.8646 22.75 33.2812C 22.0938 32.6927 21.7656 31.9089 21.7656 30.9297C 21.7656 30.3151 21.9323 29.7604 22.2656 29.2656C 22.6042 28.7708 23.0703 28.3958 23.6641 28.1406C 23.1589 27.8906 22.7604 27.5443 22.4688 27.1016C 22.1771 26.6589 22.0312 26.1562 22.0312 25.5938C 22.0312 24.6354 22.3385 23.875 22.9531 23.3125C 23.5677 22.75 24.3776 22.4688 25.3828 22.4688C 26.3828 22.4688 27.1901 22.75 27.8047 23.3125C 28.4245 23.875 28.7344 24.6354 28.7344 25.5938ZM 27.5547 30.8984C 27.5547 30.263 27.3516 29.7448 26.9453 29.3438C 26.5443 28.9427 26.0182 28.7422 25.3672 28.7422C 24.7161 28.7422 24.1927 28.9401 23.7969 29.3359C 23.4062 29.7318 23.2109 30.2526 23.2109 30.8984C 23.2109 31.5443 23.401 32.0521 23.7812 32.4219C 24.1667 32.7917 24.7005 32.9766 25.3828 32.9766C 26.0599 32.9766 26.5911 32.7917 26.9766 32.4219C 27.362 32.0469 27.5547 31.5391 27.5547 30.8984ZM 25.3828 23.6562C 24.8151 23.6562 24.3542 23.8333 24 24.1875C 23.651 24.5365 23.4766 25.013 23.4766 25.6172C 23.4766 26.1953 23.6484 26.6641 23.9922 27.0234C 24.3411 27.3776 24.8047 27.5547 25.3828 27.5547C 25.9609 27.5547 26.4219 27.3776 26.7656 27.0234C 27.1146 26.6641 27.2891 26.1953 27.2891 25.6172C 27.2891 25.0391 27.1094 24.5677 26.75 24.2031C 26.3906 23.8385 25.9349 23.6562 25.3828 23.6562Z"/>
</defs>
</svg>

