<svg width="585" height="64" viewBox="0 0 585 64" version="1.1" xmlns="http://www.w3.org/2000/svg" xmlns:xlink="http://www.w3.org/1999/xlink">
<title>Group 2</title>
<desc>Created using Figma</desc>
<g id="Canvas" transform="translate(-288 -177)">
<g id="Group 2">
<g id="Group">
<g id="a b c d e f g h i">
<use xlink:href="#path0_fill" transform="translate(332 182)" fill="#333333"/>
</g>
<g id="Component">
<g id="Line 2">
<use xlink:href="#path1_stroke" transform="matrix(8.27892e-32 1 -0.998976 0.0452422 323 179)"/>
</g>
<g id="Line 3">
<use xlink:href="#path2_stroke" transform="translate(323 179)"/>
</g>
<g id="Line 3">
<use xlink:href="#path2_stroke" transform="translate(323 241)"/>
</g>
</g>
<g id="Line 2">
<use xlink:href="#path1_stroke" transform="matrix(-1.22465e-16 -1 0.998976 -0.0452422 392 239)"/>
</g>
<g id="Line 3">
<use xlink:href="#path2_stroke" transform="matrix(-1 1.22465e-16 -1.22465e-16 -1 392 239)"/>
</g>
<g id="Line 3">
<use xlink:href="#path2_stroke" transform="matrix(-1 1.22465e-16 -1.22465e-16 -1 392 177)"/>
</g>
<g id="det ( ) = a * det( ) - b * det( ) + c * det( )">
<use xlink:href="#path3_fill" transform="translate(288 200)"/>
</g>
<g id="a b c d e f g h i">
<use xlink:href="#path4_fill" transform="translate(492 180)" fill="#EB5757"/>
<use xlink:href="#path5_fill" transform="translate(492 180)" fill="#333333"/>
</g>
<g id="Line 2">
<use xlink:href="#path1_stroke" transform="matrix(2.44929e-16 1 -0.998976 0.0452422 482 178)"/>
</g>
<g id="Line 3">
<use xlink:href="#path2_stroke" transform="matrix(1 -2.44929e-16 2.44929e-16 1 482 178)"/>
</g>
<g id="Line 3">
<use xlink:href="#path2_stroke" transform="matrix(1 -2.44929e-16 2.44929e-16 1 482 240)"/>
</g>
<g id="Line 2">
<use xlink:href="#path1_stroke" transform="matrix(-1.22465e-16 -1 0.998976 -0.0452422 552 239)"/>
</g>
<g id="Line 3">
<use xlink:href="#path2_stroke" transform="matrix(-1 1.22465e-16 -1.22465e-16 -1 552 239)"/>
</g>
<g id="Line 3">
<use xlink:href="#path2_stroke" transform="matrix(-1 1.22465e-16 -1.22465e-16 -1 552 177)"/>
</g>
<g id="Line 9">
<use xlink:href="#path6_stroke" transform="translate(513.5 190)"/>
</g>
<g id="Line 9">
<use xlink:href="#path7_stroke" transform="matrix(6.12323e-17 1 -1 6.12323e-17 495 207)"/>
</g>
<g id="a b c d e f g h i">
<use xlink:href="#path8_fill" transform="translate(652 180)" fill="#EB5757"/>
<use xlink:href="#path9_fill" transform="translate(652 180)" fill="#333333"/>
</g>
<g id="Line 2">
<use xlink:href="#path1_stroke" transform="matrix(2.44929e-16 1 -0.998976 0.0452422 642 178)"/>
</g>
<g id="Line 3">
<use xlink:href="#path2_stroke" transform="matrix(1 -2.44929e-16 2.44929e-16 1 642 178)"/>
</g>
<g id="Line 2">
<use xlink:href="#path1_stroke" transform="matrix(-1.22465e-16 -1 0.998976 -0.0452422 712 239)"/>
</g>
<g id="Line 3">
<use xlink:href="#path2_stroke" transform="matrix(-1 1.22465e-16 -1.22465e-16 -1 712 177)"/>
</g>
<g id="Line 9">
<use xlink:href="#path10_stroke" transform="translate(650 192)"/>
</g>
<g id="Line 9">
<use xlink:href="#path11_stroke" transform="matrix(6.12323e-17 1 -1 6.12323e-17 675 205)"/>
</g>
<g id="Line 3">
<use xlink:href="#path2_stroke" transform="matrix(1 -2.44929e-16 2.44929e-16 1 642 240)"/>
</g>
<g id="Line 3">
<use xlink:href="#path2_stroke" transform="matrix(1 -2.44929e-16 2.44929e-16 1 706 239)"/>
</g>
<g id="Line 9">
<use xlink:href="#path10_stroke" transform="translate(691 193)"/>
</g>
<g id="a b c d e f g h i">
<use xlink:href="#path12_fill" transform="translate(808 180)" fill="#EB5757"/>
<use xlink:href="#path13_fill" transform="translate(808 180)" fill="#333333"/>
</g>
<g id="Line 2">
<use xlink:href="#path1_stroke" transform="matrix(2.44929e-16 1 -0.998976 0.0452422 798 178)"/>
</g>
<g id="Line 3">
<use xlink:href="#path2_stroke" transform="matrix(1 -2.44929e-16 2.44929e-16 1 798 178)"/>
</g>
<g id="Line 2">
<use xlink:href="#path1_stroke" transform="matrix(-1.22465e-16 -1 0.998976 -0.0452422 868 239)"/>
</g>
<g id="Line 3">
<use xlink:href="#path2_stroke" transform="matrix(-1 1.22465e-16 -1.22465e-16 -1 868 177)"/>
</g>
<g id="Line 9">
<use xlink:href="#path14_stroke" transform="translate(808 192)"/>
</g>
<g id="Line 9">
<use xlink:href="#path15_stroke" transform="matrix(8.44153e-17 1 -1 8.32667e-17 851 203)"/>
</g>
<g id="Line 3">
<use xlink:href="#path2_stroke" transform="matrix(1 -2.44929e-16 2.44929e-16 1 798 240)"/>
</g>
<g id="Line 3">
<use xlink:href="#path2_stroke" transform="matrix(1 -2.44929e-16 2.44929e-16 1 862 239)"/>
</g>
</g>
</g>
</g>
<defs>
<path id="path0_fill" d="M 6.3125 15C 6.22917 14.8333 6.16146 14.5365 6.10938 14.1094C 5.4375 14.8073 4.63542 15.1562 3.70312 15.1562C 2.86979 15.1562 2.1849 14.9219 1.64844 14.4531C 1.11719 13.9792 0.851562 13.3802 0.851562 12.6562C 0.851562 11.776 1.1849 11.0938 1.85156 10.6094C 2.52344 10.1198 3.46615 9.875 4.67969 9.875L 6.08594 9.875L 6.08594 9.21094C 6.08594 8.70573 5.9349 8.30469 5.63281 8.00781C 5.33073 7.70573 4.88542 7.55469 4.29688 7.55469C 3.78125 7.55469 3.34896 7.6849 3 7.94531C 2.65104 8.20573 2.47656 8.52083 2.47656 8.89062L 1.02344 8.89062C 1.02344 8.46875 1.17188 8.0625 1.46875 7.67188C 1.77083 7.27604 2.17708 6.96354 2.6875 6.73438C 3.20312 6.50521 3.76823 6.39062 4.38281 6.39062C 5.35677 6.39062 6.11979 6.63542 6.67188 7.125C 7.22396 7.60938 7.51042 8.27865 7.53125 9.13281L 7.53125 13.0234C 7.53125 13.7995 7.63021 14.4167 7.82812 14.875L 7.82812 15L 6.3125 15ZM 3.91406 13.8984C 4.36719 13.8984 4.79688 13.7812 5.20312 13.5469C 5.60938 13.3125 5.90365 13.0078 6.08594 12.6328L 6.08594 10.8984L 4.95312 10.8984C 3.18229 10.8984 2.29688 11.4167 2.29688 12.4531C 2.29688 12.9062 2.44792 13.2604 2.75 13.5156C 3.05208 13.7708 3.4401 13.8984 3.91406 13.8984ZM 28.8594 10.8672C 28.8594 12.1589 28.5625 13.1979 27.9688 13.9844C 27.375 14.7656 26.5781 15.1562 25.5781 15.1562C 24.5104 15.1562 23.6849 14.7786 23.1016 14.0234L 23.0312 15L 21.7031 15L 21.7031 3L 23.1484 3L 23.1484 7.47656C 23.7318 6.7526 24.5365 6.39062 25.5625 6.39062C 26.5885 6.39062 27.3932 6.77865 27.9766 7.55469C 28.5651 8.33073 28.8594 9.39323 28.8594 10.7422L 28.8594 10.8672ZM 27.4141 10.7031C 27.4141 9.71875 27.224 8.95833 26.8438 8.42188C 26.4635 7.88542 25.9167 7.61719 25.2031 7.61719C 24.25 7.61719 23.5651 8.0599 23.1484 8.94531L 23.1484 12.6016C 23.5911 13.487 24.2812 13.9297 25.2188 13.9297C 25.9115 13.9297 26.4505 13.6615 26.8359 13.125C 27.2214 12.5885 27.4141 11.7812 27.4141 10.7031ZM 45.9844 13.9766C 46.5 13.9766 46.9505 13.8203 47.3359 13.5078C 47.7214 13.1953 47.9349 12.8047 47.9766 12.3359L 49.3438 12.3359C 49.3177 12.8203 49.151 13.2812 48.8438 13.7188C 48.5365 14.1562 48.125 14.5052 47.6094 14.7656C 47.099 15.026 46.5573 15.1562 45.9844 15.1562C 44.8333 15.1562 43.9167 14.7734 43.2344 14.0078C 42.5573 13.237 42.2188 12.1849 42.2188 10.8516L 42.2188 10.6094C 42.2188 9.78646 42.3698 9.05469 42.6719 8.41406C 42.974 7.77344 43.4062 7.27604 43.9688 6.92188C 44.5365 6.56771 45.2057 6.39062 45.9766 6.39062C 46.9245 6.39062 47.7109 6.67448 48.3359 7.24219C 48.9661 7.8099 49.3021 8.54688 49.3438 9.45312L 47.9766 9.45312C 47.9349 8.90625 47.7266 8.45833 47.3516 8.10938C 46.9818 7.75521 46.5234 7.57812 45.9766 7.57812C 45.2422 7.57812 44.6719 7.84375 44.2656 8.375C 43.8646 8.90104 43.6641 9.66406 43.6641 10.6641L 43.6641 10.9375C 43.6641 11.9115 43.8646 12.6615 44.2656 13.1875C 44.6667 13.7135 45.2396 13.9766 45.9844 13.9766ZM 0.742188 29.7031C 0.742188 28.4062 1.04948 27.3646 1.66406 26.5781C 2.27865 25.7865 3.08333 25.3906 4.07812 25.3906C 5.06771 25.3906 5.85156 25.7292 6.42969 26.4062L 6.42969 22L 7.875 22L 7.875 34L 6.54688 34L 6.47656 33.0938C 5.89844 33.8021 5.09375 34.1562 4.0625 34.1562C 3.08333 34.1562 2.28385 33.7552 1.66406 32.9531C 1.04948 32.151 0.742188 31.1042 0.742188 29.8125L 0.742188 29.7031ZM 2.1875 29.8672C 2.1875 30.8255 2.38542 31.5755 2.78125 32.1172C 3.17708 32.6589 3.72396 32.9297 4.42188 32.9297C 5.33854 32.9297 6.00781 32.5182 6.42969 31.6953L 6.42969 27.8125C 5.9974 27.0156 5.33333 26.6172 4.4375 26.6172C 3.72917 26.6172 3.17708 26.8906 2.78125 27.4375C 2.38542 27.9844 2.1875 28.7943 2.1875 29.8672ZM 25.5391 34.1562C 24.3932 34.1562 23.4609 33.7812 22.7422 33.0312C 22.0234 32.276 21.6641 31.2682 21.6641 30.0078L 21.6641 29.7422C 21.6641 28.9036 21.8229 28.1562 22.1406 27.5C 22.4635 26.8385 22.9115 26.3229 23.4844 25.9531C 24.0625 25.5781 24.6875 25.3906 25.3594 25.3906C 26.4583 25.3906 27.3125 25.7526 27.9219 26.4766C 28.5312 27.2005 28.8359 28.237 28.8359 29.5859L 28.8359 30.1875L 23.1094 30.1875C 23.1302 31.0208 23.3724 31.6953 23.8359 32.2109C 24.3047 32.7214 24.8984 32.9766 25.6172 32.9766C 26.1276 32.9766 26.5599 32.8724 26.9141 32.6641C 27.2682 32.4557 27.5781 32.1797 27.8438 31.8359L 28.7266 32.5234C 28.0182 33.612 26.9557 34.1562 25.5391 34.1562ZM 25.3594 26.5781C 24.776 26.5781 24.2865 26.7917 23.8906 27.2188C 23.4948 27.6406 23.25 28.2344 23.1562 29L 27.3906 29L 27.3906 28.8906C 27.349 28.1562 27.151 27.5885 26.7969 27.1875C 26.4427 26.7812 25.9635 26.5781 25.3594 26.5781ZM 43.1328 34L 43.1328 26.6641L 41.7969 26.6641L 41.7969 25.5469L 43.1328 25.5469L 43.1328 24.6797C 43.1328 23.7734 43.375 23.0729 43.8594 22.5781C 44.3438 22.0833 45.0286 21.8359 45.9141 21.8359C 46.2474 21.8359 46.5781 21.8802 46.9062 21.9688L 46.8281 23.1406C 46.5833 23.0938 46.3229 23.0703 46.0469 23.0703C 45.5781 23.0703 45.2161 23.2083 44.9609 23.4844C 44.7057 23.7552 44.5781 24.1458 44.5781 24.6562L 44.5781 25.5469L 46.3828 25.5469L 46.3828 26.6641L 44.5781 26.6641L 44.5781 34L 43.1328 34ZM 0.75 47.7031C 0.75 46.3854 1.05469 45.3385 1.66406 44.5625C 2.27344 43.7812 3.08073 43.3906 4.08594 43.3906C 5.11719 43.3906 5.92188 43.7552 6.5 44.4844L 6.57031 43.5469L 7.89062 43.5469L 7.89062 51.7969C 7.89062 52.8906 7.5651 53.7526 6.91406 54.3828C 6.26823 55.013 5.39844 55.3281 4.30469 55.3281C 3.69531 55.3281 3.09896 55.1979 2.51562 54.9375C 1.93229 54.6771 1.48698 54.3203 1.17969 53.8672L 1.92969 53C 2.54948 53.7656 3.30729 54.1484 4.20312 54.1484C 4.90625 54.1484 5.45312 53.9505 5.84375 53.5547C 6.23958 53.1589 6.4375 52.6016 6.4375 51.8828L 6.4375 51.1562C 5.85938 51.8229 5.07031 52.1562 4.07031 52.1562C 3.08073 52.1562 2.27865 51.7578 1.66406 50.9609C 1.05469 50.1641 0.75 49.0781 0.75 47.7031ZM 2.20312 47.8672C 2.20312 48.8203 2.39844 49.5703 2.78906 50.1172C 3.17969 50.6589 3.72656 50.9297 4.42969 50.9297C 5.34115 50.9297 6.01042 50.5156 6.4375 49.6875L 6.4375 45.8281C 5.99479 45.0208 5.33073 44.6172 4.44531 44.6172C 3.74219 44.6172 3.19271 44.8906 2.79688 45.4375C 2.40104 45.9844 2.20312 46.7943 2.20312 47.8672ZM 23.4297 44.5703C 24.0703 43.7839 24.9036 43.3906 25.9297 43.3906C 27.7161 43.3906 28.6172 44.3984 28.6328 46.4141L 28.6328 52L 27.1875 52L 27.1875 46.4062C 27.1823 45.7969 27.0417 45.3464 26.7656 45.0547C 26.4948 44.763 26.0703 44.6172 25.4922 44.6172C 25.0234 44.6172 24.612 44.7422 24.2578 44.9922C 23.9036 45.2422 23.6276 45.5703 23.4297 45.9766L 23.4297 52L 21.9844 52L 21.9844 40L 23.4297 40L 23.4297 44.5703ZM 44.2734 52L 42.8281 52L 42.8281 43.5469L 44.2734 43.5469L 44.2734 52ZM 42.7109 41.3047C 42.7109 41.0703 42.7812 40.8724 42.9219 40.7109C 43.0677 40.5495 43.2812 40.4688 43.5625 40.4688C 43.8438 40.4688 44.0573 40.5495 44.2031 40.7109C 44.349 40.8724 44.4219 41.0703 44.4219 41.3047C 44.4219 41.5391 44.349 41.7344 44.2031 41.8906C 44.0573 42.0469 43.8438 42.125 43.5625 42.125C 43.2812 42.125 43.0677 42.0469 42.9219 41.8906C 42.7812 41.7344 42.7109 41.5391 42.7109 41.3047Z"/>
<path id="path1_stroke" d="M 0 0L 62 0L 62 -1L 0 -1L 0 0Z"/>
<path id="path2_stroke" d="M 0 0L 6 0L 6 -1L 0 -1L 0 0Z"/>
<path id="path3_fill" d="M 0.742188 10.7031C 0.742188 9.40625 1.04948 8.36458 1.66406 7.57812C 2.27865 6.78646 3.08333 6.39062 4.07812 6.39062C 5.06771 6.39062 5.85156 6.72917 6.42969 7.40625L 6.42969 3L 7.875 3L 7.875 15L 6.54688 15L 6.47656 14.0938C 5.89844 14.8021 5.09375 15.1562 4.0625 15.1562C 3.08333 15.1562 2.28385 14.7552 1.66406 13.9531C 1.04948 13.151 0.742188 12.1042 0.742188 10.8125L 0.742188 10.7031ZM 2.1875 10.8672C 2.1875 11.8255 2.38542 12.5755 2.78125 13.1172C 3.17708 13.6589 3.72396 13.9297 4.42188 13.9297C 5.33854 13.9297 6.00781 13.5182 6.42969 12.6953L 6.42969 8.8125C 5.9974 8.01562 5.33333 7.61719 4.4375 7.61719C 3.72917 7.61719 3.17708 7.89062 2.78125 8.4375C 2.38542 8.98438 2.1875 9.79427 2.1875 10.8672ZM 13.6328 15.1562C 12.487 15.1562 11.5547 14.7812 10.8359 14.0312C 10.1172 13.276 9.75781 12.2682 9.75781 11.0078L 9.75781 10.7422C 9.75781 9.90365 9.91667 9.15625 10.2344 8.5C 10.5573 7.83854 11.0052 7.32292 11.5781 6.95312C 12.1562 6.57812 12.7812 6.39062 13.4531 6.39062C 14.5521 6.39062 15.4062 6.7526 16.0156 7.47656C 16.625 8.20052 16.9297 9.23698 16.9297 10.5859L 16.9297 11.1875L 11.2031 11.1875C 11.224 12.0208 11.4661 12.6953 11.9297 13.2109C 12.3984 13.7214 12.9922 13.9766 13.7109 13.9766C 14.2214 13.9766 14.6536 13.8724 15.0078 13.6641C 15.362 13.4557 15.6719 13.1797 15.9375 12.8359L 16.8203 13.5234C 16.112 14.612 15.0495 15.1562 13.6328 15.1562ZM 13.4531 7.57812C 12.8698 7.57812 12.3802 7.79167 11.9844 8.21875C 11.5885 8.64062 11.3438 9.23438 11.25 10L 15.4844 10L 15.4844 9.89062C 15.4427 9.15625 15.2448 8.58854 14.8906 8.1875C 14.5365 7.78125 14.0573 7.57812 13.4531 7.57812ZM 20.5703 4.5L 20.5703 6.54688L 22.1484 6.54688L 22.1484 7.66406L 20.5703 7.66406L 20.5703 12.9062C 20.5703 13.2448 20.6406 13.5 20.7812 13.6719C 20.9219 13.8385 21.1615 13.9219 21.5 13.9219C 21.6667 13.9219 21.8958 13.8906 22.1875 13.8281L 22.1875 15C 21.8073 15.1042 21.4375 15.1562 21.0781 15.1562C 20.4323 15.1562 19.9453 14.9609 19.6172 14.5703C 19.2891 14.1797 19.125 13.625 19.125 12.9062L 19.125 7.66406L 17.5859 7.66406L 17.5859 6.54688L 19.125 6.54688L 19.125 4.5L 20.5703 4.5ZM 27.7578 10.3828C 27.7578 9.20573 27.9141 8.07552 28.2266 6.99219C 28.5443 5.90885 29.0156 4.92448 29.6406 4.03906C 30.2656 3.15365 30.9141 2.52865 31.5859 2.16406L 31.8828 3.11719C 31.1224 3.70052 30.4974 4.59115 30.0078 5.78906C 29.5234 6.98698 29.2578 8.32812 29.2109 9.8125L 29.2031 10.4766C 29.2031 12.487 29.5703 14.2318 30.3047 15.7109C 30.7474 16.5964 31.2734 17.2891 31.8828 17.7891L 31.5859 18.6719C 30.8932 18.2865 30.2318 17.6406 29.6016 16.7344C 28.3724 14.9635 27.7578 12.8464 27.7578 10.3828ZM 112.023 10.4609C 112.023 11.6224 111.87 12.737 111.562 13.8047C 111.26 14.8672 110.794 15.849 110.164 16.75C 109.539 17.651 108.883 18.2917 108.195 18.6719L 107.891 17.7891C 108.693 17.1745 109.336 16.2214 109.82 14.9297C 110.31 13.6328 110.56 12.1953 110.57 10.6172L 110.57 10.3672C 110.57 9.27344 110.456 8.25781 110.227 7.32031C 109.997 6.3776 109.677 5.53385 109.266 4.78906C 108.859 4.04427 108.401 3.46354 107.891 3.04688L 108.195 2.16406C 108.883 2.54427 109.536 3.17969 110.156 4.07031C 110.781 4.96094 111.247 5.94271 111.555 7.01562C 111.867 8.08854 112.023 9.23698 112.023 10.4609ZM 128.797 8.64062L 122.281 8.64062L 122.281 7.38281L 128.797 7.38281L 128.797 8.64062ZM 128.797 11.8828L 122.281 11.8828L 122.281 10.6328L 128.797 10.6328L 128.797 11.8828ZM 144.125 15C 144.042 14.8333 143.974 14.5365 143.922 14.1094C 143.25 14.8073 142.448 15.1562 141.516 15.1562C 140.682 15.1562 139.997 14.9219 139.461 14.4531C 138.93 13.9792 138.664 13.3802 138.664 12.6562C 138.664 11.776 138.997 11.0938 139.664 10.6094C 140.336 10.1198 141.279 9.875 142.492 9.875L 143.898 9.875L 143.898 9.21094C 143.898 8.70573 143.747 8.30469 143.445 8.00781C 143.143 7.70573 142.698 7.55469 142.109 7.55469C 141.594 7.55469 141.161 7.6849 140.812 7.94531C 140.464 8.20573 140.289 8.52083 140.289 8.89062L 138.836 8.89062C 138.836 8.46875 138.984 8.0625 139.281 7.67188C 139.583 7.27604 139.99 6.96354 140.5 6.73438C 141.016 6.50521 141.581 6.39062 142.195 6.39062C 143.169 6.39062 143.932 6.63542 144.484 7.125C 145.036 7.60938 145.323 8.27865 145.344 9.13281L 145.344 13.0234C 145.344 13.7995 145.443 14.4167 145.641 14.875L 145.641 15L 144.125 15ZM 141.727 13.8984C 142.18 13.8984 142.609 13.7812 143.016 13.5469C 143.422 13.3125 143.716 13.0078 143.898 12.6328L 143.898 10.8984L 142.766 10.8984C 140.995 10.8984 140.109 11.4167 140.109 12.4531C 140.109 12.9062 140.26 13.2604 140.562 13.5156C 140.865 13.7708 141.253 13.8984 141.727 13.8984ZM 153.062 7.32031L 150.703 6.61719L 151.062 5.4375L 153.422 6.3125L 153.352 3.625L 154.547 3.625L 154.469 6.35156L 156.789 5.49219L 157.148 6.67969L 154.75 7.39062L 156.297 9.50781L 155.328 10.2422L 153.875 7.99219L 152.469 10.1875L 151.492 9.47656L 153.062 7.32031ZM 162.086 10.7031C 162.086 9.40625 162.393 8.36458 163.008 7.57812C 163.622 6.78646 164.427 6.39062 165.422 6.39062C 166.411 6.39062 167.195 6.72917 167.773 7.40625L 167.773 3L 169.219 3L 169.219 15L 167.891 15L 167.82 14.0938C 167.242 14.8021 166.438 15.1562 165.406 15.1562C 164.427 15.1562 163.628 14.7552 163.008 13.9531C 162.393 13.151 162.086 12.1042 162.086 10.8125L 162.086 10.7031ZM 163.531 10.8672C 163.531 11.8255 163.729 12.5755 164.125 13.1172C 164.521 13.6589 165.068 13.9297 165.766 13.9297C 166.682 13.9297 167.352 13.5182 167.773 12.6953L 167.773 8.8125C 167.341 8.01562 166.677 7.61719 165.781 7.61719C 165.073 7.61719 164.521 7.89062 164.125 8.4375C 163.729 8.98438 163.531 9.79427 163.531 10.8672ZM 174.977 15.1562C 173.831 15.1562 172.898 14.7812 172.18 14.0312C 171.461 13.276 171.102 12.2682 171.102 11.0078L 171.102 10.7422C 171.102 9.90365 171.26 9.15625 171.578 8.5C 171.901 7.83854 172.349 7.32292 172.922 6.95312C 173.5 6.57812 174.125 6.39062 174.797 6.39062C 175.896 6.39062 176.75 6.7526 177.359 7.47656C 177.969 8.20052 178.273 9.23698 178.273 10.5859L 178.273 11.1875L 172.547 11.1875C 172.568 12.0208 172.81 12.6953 173.273 13.2109C 173.742 13.7214 174.336 13.9766 175.055 13.9766C 175.565 13.9766 175.997 13.8724 176.352 13.6641C 176.706 13.4557 177.016 13.1797 177.281 12.8359L 178.164 13.5234C 177.456 14.612 176.393 15.1562 174.977 15.1562ZM 174.797 7.57812C 174.214 7.57812 173.724 7.79167 173.328 8.21875C 172.932 8.64062 172.688 9.23438 172.594 10L 176.828 10L 176.828 9.89062C 176.786 9.15625 176.589 8.58854 176.234 8.1875C 175.88 7.78125 175.401 7.57812 174.797 7.57812ZM 181.914 4.5L 181.914 6.54688L 183.492 6.54688L 183.492 7.66406L 181.914 7.66406L 181.914 12.9062C 181.914 13.2448 181.984 13.5 182.125 13.6719C 182.266 13.8385 182.505 13.9219 182.844 13.9219C 183.01 13.9219 183.24 13.8906 183.531 13.8281L 183.531 15C 183.151 15.1042 182.781 15.1562 182.422 15.1562C 181.776 15.1562 181.289 14.9609 180.961 14.5703C 180.633 14.1797 180.469 13.625 180.469 12.9062L 180.469 7.66406L 178.93 7.66406L 178.93 6.54688L 180.469 6.54688L 180.469 4.5L 181.914 4.5ZM 185.133 10.3828C 185.133 9.20573 185.289 8.07552 185.602 6.99219C 185.919 5.90885 186.391 4.92448 187.016 4.03906C 187.641 3.15365 188.289 2.52865 188.961 2.16406L 189.258 3.11719C 188.497 3.70052 187.872 4.59115 187.383 5.78906C 186.898 6.98698 186.633 8.32812 186.586 9.8125L 186.578 10.4766C 186.578 12.487 186.945 14.2318 187.68 15.7109C 188.122 16.5964 188.648 17.2891 189.258 17.7891L 188.961 18.6719C 188.268 18.2865 187.607 17.6406 186.977 16.7344C 185.747 14.9635 185.133 12.8464 185.133 10.3828ZM 273.367 10.4609C 273.367 11.6224 273.214 12.737 272.906 13.8047C 272.604 14.8672 272.138 15.849 271.508 16.75C 270.883 17.651 270.227 18.2917 269.539 18.6719L 269.234 17.7891C 270.036 17.1745 270.68 16.2214 271.164 14.9297C 271.654 13.6328 271.904 12.1953 271.914 10.6172L 271.914 10.3672C 271.914 9.27344 271.799 8.25781 271.57 7.32031C 271.341 6.3776 271.021 5.53385 270.609 4.78906C 270.203 4.04427 269.745 3.46354 269.234 3.04688L 269.539 2.16406C 270.227 2.54427 270.88 3.17969 271.5 4.07031C 272.125 4.96094 272.591 5.94271 272.898 7.01562C 273.211 8.08854 273.367 9.23698 273.367 10.4609ZM 286.539 10.7578L 282.727 10.7578L 282.727 9.57812L 286.539 9.57812L 286.539 10.7578ZM 303.047 10.8672C 303.047 12.1589 302.75 13.1979 302.156 13.9844C 301.562 14.7656 300.766 15.1562 299.766 15.1562C 298.698 15.1562 297.872 14.7786 297.289 14.0234L 297.219 15L 295.891 15L 295.891 3L 297.336 3L 297.336 7.47656C 297.919 6.7526 298.724 6.39062 299.75 6.39062C 300.776 6.39062 301.581 6.77865 302.164 7.55469C 302.753 8.33073 303.047 9.39323 303.047 10.7422L 303.047 10.8672ZM 301.602 10.7031C 301.602 9.71875 301.411 8.95833 301.031 8.42188C 300.651 7.88542 300.104 7.61719 299.391 7.61719C 298.438 7.61719 297.753 8.0599 297.336 8.94531L 297.336 12.6016C 297.779 13.487 298.469 13.9297 299.406 13.9297C 300.099 13.9297 300.638 13.6615 301.023 13.125C 301.409 12.5885 301.602 11.7812 301.602 10.7031ZM 310.328 7.32031L 307.969 6.61719L 308.328 5.4375L 310.688 6.3125L 310.617 3.625L 311.812 3.625L 311.734 6.35156L 314.055 5.49219L 314.414 6.67969L 312.016 7.39062L 313.562 9.50781L 312.594 10.2422L 311.141 7.99219L 309.734 10.1875L 308.758 9.47656L 310.328 7.32031ZM 319.352 10.7031C 319.352 9.40625 319.659 8.36458 320.273 7.57812C 320.888 6.78646 321.693 6.39062 322.688 6.39062C 323.677 6.39062 324.461 6.72917 325.039 7.40625L 325.039 3L 326.484 3L 326.484 15L 325.156 15L 325.086 14.0938C 324.508 14.8021 323.703 15.1562 322.672 15.1562C 321.693 15.1562 320.893 14.7552 320.273 13.9531C 319.659 13.151 319.352 12.1042 319.352 10.8125L 319.352 10.7031ZM 320.797 10.8672C 320.797 11.8255 320.995 12.5755 321.391 13.1172C 321.786 13.6589 322.333 13.9297 323.031 13.9297C 323.948 13.9297 324.617 13.5182 325.039 12.6953L 325.039 8.8125C 324.607 8.01562 323.943 7.61719 323.047 7.61719C 322.339 7.61719 321.786 7.89062 321.391 8.4375C 320.995 8.98438 320.797 9.79427 320.797 10.8672ZM 332.242 15.1562C 331.096 15.1562 330.164 14.7812 329.445 14.0312C 328.727 13.276 328.367 12.2682 328.367 11.0078L 328.367 10.7422C 328.367 9.90365 328.526 9.15625 328.844 8.5C 329.167 7.83854 329.615 7.32292 330.188 6.95312C 330.766 6.57812 331.391 6.39062 332.062 6.39062C 333.161 6.39062 334.016 6.7526 334.625 7.47656C 335.234 8.20052 335.539 9.23698 335.539 10.5859L 335.539 11.1875L 329.812 11.1875C 329.833 12.0208 330.076 12.6953 330.539 13.2109C 331.008 13.7214 331.602 13.9766 332.32 13.9766C 332.831 13.9766 333.263 13.8724 333.617 13.6641C 333.971 13.4557 334.281 13.1797 334.547 12.8359L 335.43 13.5234C 334.721 14.612 333.659 15.1562 332.242 15.1562ZM 332.062 7.57812C 331.479 7.57812 330.99 7.79167 330.594 8.21875C 330.198 8.64062 329.953 9.23438 329.859 10L 334.094 10L 334.094 9.89062C 334.052 9.15625 333.854 8.58854 333.5 8.1875C 333.146 7.78125 332.667 7.57812 332.062 7.57812ZM 339.18 4.5L 339.18 6.54688L 340.758 6.54688L 340.758 7.66406L 339.18 7.66406L 339.18 12.9062C 339.18 13.2448 339.25 13.5 339.391 13.6719C 339.531 13.8385 339.771 13.9219 340.109 13.9219C 340.276 13.9219 340.505 13.8906 340.797 13.8281L 340.797 15C 340.417 15.1042 340.047 15.1562 339.688 15.1562C 339.042 15.1562 338.555 14.9609 338.227 14.5703C 337.898 14.1797 337.734 13.625 337.734 12.9062L 337.734 7.66406L 336.195 7.66406L 336.195 6.54688L 337.734 6.54688L 337.734 4.5L 339.18 4.5ZM 342.398 10.3828C 342.398 9.20573 342.555 8.07552 342.867 6.99219C 343.185 5.90885 343.656 4.92448 344.281 4.03906C 344.906 3.15365 345.555 2.52865 346.227 2.16406L 346.523 3.11719C 345.763 3.70052 345.138 4.59115 344.648 5.78906C 344.164 6.98698 343.898 8.32812 343.852 9.8125L 343.844 10.4766C 343.844 12.487 344.211 14.2318 344.945 15.7109C 345.388 16.5964 345.914 17.2891 346.523 17.7891L 346.227 18.6719C 345.534 18.2865 344.872 17.6406 344.242 16.7344C 343.013 14.9635 342.398 12.8464 342.398 10.3828ZM 426.664 10.4609C 426.664 11.6224 426.51 12.737 426.203 13.8047C 425.901 14.8672 425.435 15.849 424.805 16.75C 424.18 17.651 423.523 18.2917 422.836 18.6719L 422.531 17.7891C 423.333 17.1745 423.977 16.2214 424.461 14.9297C 424.951 13.6328 425.201 12.1953 425.211 10.6172L 425.211 10.3672C 425.211 9.27344 425.096 8.25781 424.867 7.32031C 424.638 6.3776 424.318 5.53385 423.906 4.78906C 423.5 4.04427 423.042 3.46354 422.531 3.04688L 422.836 2.16406C 423.523 2.54427 424.177 3.17969 424.797 4.07031C 425.422 4.96094 425.888 5.94271 426.195 7.01562C 426.508 8.08854 426.664 9.23698 426.664 10.4609ZM 444.938 8.89844L 448.109 8.89844L 448.109 10.2656L 444.938 10.2656L 444.938 13.8594L 443.484 13.8594L 443.484 10.2656L 440.312 10.2656L 440.312 8.89844L 443.484 8.89844L 443.484 5.57812L 444.938 5.57812L 444.938 8.89844ZM 457.234 13.9766C 457.75 13.9766 458.201 13.8203 458.586 13.5078C 458.971 13.1953 459.185 12.8047 459.227 12.3359L 460.594 12.3359C 460.568 12.8203 460.401 13.2812 460.094 13.7188C 459.786 14.1562 459.375 14.5052 458.859 14.7656C 458.349 15.026 457.807 15.1562 457.234 15.1562C 456.083 15.1562 455.167 14.7734 454.484 14.0078C 453.807 13.237 453.469 12.1849 453.469 10.8516L 453.469 10.6094C 453.469 9.78646 453.62 9.05469 453.922 8.41406C 454.224 7.77344 454.656 7.27604 455.219 6.92188C 455.786 6.56771 456.456 6.39062 457.227 6.39062C 458.174 6.39062 458.961 6.67448 459.586 7.24219C 460.216 7.8099 460.552 8.54688 460.594 9.45312L 459.227 9.45312C 459.185 8.90625 458.977 8.45833 458.602 8.10938C 458.232 7.75521 457.773 7.57812 457.227 7.57812C 456.492 7.57812 455.922 7.84375 455.516 8.375C 455.115 8.90104 454.914 9.66406 454.914 10.6641L 454.914 10.9375C 454.914 11.9115 455.115 12.6615 455.516 13.1875C 455.917 13.7135 456.49 13.9766 457.234 13.9766ZM 467.672 7.32031L 465.312 6.61719L 465.672 5.4375L 468.031 6.3125L 467.961 3.625L 469.156 3.625L 469.078 6.35156L 471.398 5.49219L 471.758 6.67969L 469.359 7.39062L 470.906 9.50781L 469.938 10.2422L 468.484 7.99219L 467.078 10.1875L 466.102 9.47656L 467.672 7.32031ZM 476.695 10.7031C 476.695 9.40625 477.003 8.36458 477.617 7.57812C 478.232 6.78646 479.036 6.39062 480.031 6.39062C 481.021 6.39062 481.805 6.72917 482.383 7.40625L 482.383 3L 483.828 3L 483.828 15L 482.5 15L 482.43 14.0938C 481.852 14.8021 481.047 15.1562 480.016 15.1562C 479.036 15.1562 478.237 14.7552 477.617 13.9531C 477.003 13.151 476.695 12.1042 476.695 10.8125L 476.695 10.7031ZM 478.141 10.8672C 478.141 11.8255 478.339 12.5755 478.734 13.1172C 479.13 13.6589 479.677 13.9297 480.375 13.9297C 481.292 13.9297 481.961 13.5182 482.383 12.6953L 482.383 8.8125C 481.951 8.01562 481.286 7.61719 480.391 7.61719C 479.682 7.61719 479.13 7.89062 478.734 8.4375C 478.339 8.98438 478.141 9.79427 478.141 10.8672ZM 489.586 15.1562C 488.44 15.1562 487.508 14.7812 486.789 14.0312C 486.07 13.276 485.711 12.2682 485.711 11.0078L 485.711 10.7422C 485.711 9.90365 485.87 9.15625 486.188 8.5C 486.51 7.83854 486.958 7.32292 487.531 6.95312C 488.109 6.57812 488.734 6.39062 489.406 6.39062C 490.505 6.39062 491.359 6.7526 491.969 7.47656C 492.578 8.20052 492.883 9.23698 492.883 10.5859L 492.883 11.1875L 487.156 11.1875C 487.177 12.0208 487.419 12.6953 487.883 13.2109C 488.352 13.7214 488.945 13.9766 489.664 13.9766C 490.174 13.9766 490.607 13.8724 490.961 13.6641C 491.315 13.4557 491.625 13.1797 491.891 12.8359L 492.773 13.5234C 492.065 14.612 491.003 15.1562 489.586 15.1562ZM 489.406 7.57812C 488.823 7.57812 488.333 7.79167 487.938 8.21875C 487.542 8.64062 487.297 9.23438 487.203 10L 491.438 10L 491.438 9.89062C 491.396 9.15625 491.198 8.58854 490.844 8.1875C 490.49 7.78125 490.01 7.57812 489.406 7.57812ZM 496.523 4.5L 496.523 6.54688L 498.102 6.54688L 498.102 7.66406L 496.523 7.66406L 496.523 12.9062C 496.523 13.2448 496.594 13.5 496.734 13.6719C 496.875 13.8385 497.115 13.9219 497.453 13.9219C 497.62 13.9219 497.849 13.8906 498.141 13.8281L 498.141 15C 497.76 15.1042 497.391 15.1562 497.031 15.1562C 496.385 15.1562 495.898 14.9609 495.57 14.5703C 495.242 14.1797 495.078 13.625 495.078 12.9062L 495.078 7.66406L 493.539 7.66406L 493.539 6.54688L 495.078 6.54688L 495.078 4.5L 496.523 4.5ZM 499.742 10.3828C 499.742 9.20573 499.898 8.07552 500.211 6.99219C 500.529 5.90885 501 4.92448 501.625 4.03906C 502.25 3.15365 502.898 2.52865 503.57 2.16406L 503.867 3.11719C 503.107 3.70052 502.482 4.59115 501.992 5.78906C 501.508 6.98698 501.242 8.32812 501.195 9.8125L 501.188 10.4766C 501.188 12.487 501.555 14.2318 502.289 15.7109C 502.732 16.5964 503.258 17.2891 503.867 17.7891L 503.57 18.6719C 502.878 18.2865 502.216 17.6406 501.586 16.7344C 500.357 14.9635 499.742 12.8464 499.742 10.3828ZM 584.008 10.4609C 584.008 11.6224 583.854 12.737 583.547 13.8047C 583.245 14.8672 582.779 15.849 582.148 16.75C 581.523 17.651 580.867 18.2917 580.18 18.6719L 579.875 17.7891C 580.677 17.1745 581.32 16.2214 581.805 14.9297C 582.294 13.6328 582.544 12.1953 582.555 10.6172L 582.555 10.3672C 582.555 9.27344 582.44 8.25781 582.211 7.32031C 581.982 6.3776 581.661 5.53385 581.25 4.78906C 580.844 4.04427 580.385 3.46354 579.875 3.04688L 580.18 2.16406C 580.867 2.54427 581.521 3.17969 582.141 4.07031C 582.766 4.96094 583.232 5.94271 583.539 7.01562C 583.852 8.08854 584.008 9.23698 584.008 10.4609Z"/>
<path id="path4_fill" d="M 25.5391 34.1562C 24.3932 34.1562 23.4609 33.7812 22.7422 33.0312C 22.0234 32.276 21.6641 31.2682 21.6641 30.0078L 21.6641 29.7422C 21.6641 28.9036 21.8229 28.1562 22.1406 27.5C 22.4635 26.8385 22.9115 26.3229 23.4844 25.9531C 24.0625 25.5781 24.6875 25.3906 25.3594 25.3906C 26.4583 25.3906 27.3125 25.7526 27.9219 26.4766C 28.5312 27.2005 28.8359 28.237 28.8359 29.5859L 28.8359 30.1875L 23.1094 30.1875C 23.1302 31.0208 23.3724 31.6953 23.8359 32.2109C 24.3047 32.7214 24.8984 32.9766 25.6172 32.9766C 26.1276 32.9766 26.5599 32.8724 26.9141 32.6641C 27.2682 32.4557 27.5781 32.1797 27.8438 31.8359L 28.7266 32.5234C 28.0182 33.612 26.9557 34.1562 25.5391 34.1562ZM 25.3594 26.5781C 24.776 26.5781 24.2865 26.7917 23.8906 27.2188C 23.4948 27.6406 23.25 28.2344 23.1562 29L 27.3906 29L 27.3906 28.8906C 27.349 28.1562 27.151 27.5885 26.7969 27.1875C 26.4427 26.7812 25.9635 26.5781 25.3594 26.5781ZM 43.1328 34L 43.1328 26.6641L 41.7969 26.6641L 41.7969 25.5469L 43.1328 25.5469L 43.1328 24.6797C 43.1328 23.7734 43.375 23.0729 43.8594 22.5781C 44.3438 22.0833 45.0286 21.8359 45.9141 21.8359C 46.2474 21.8359 46.5781 21.8802 46.9062 21.9688L 46.8281 23.1406C 46.5833 23.0938 46.3229 23.0703 46.0469 23.0703C 45.5781 23.0703 45.2161 23.2083 44.9609 23.4844C 44.7057 23.7552 44.5781 24.1458 44.5781 24.6562L 44.5781 25.5469L 46.3828 25.5469L 46.3828 26.6641L 44.5781 26.6641L 44.5781 34L 43.1328 34ZM 23.4297 44.5703C 24.0703 43.7839 24.9036 43.3906 25.9297 43.3906C 27.7161 43.3906 28.6172 44.3984 28.6328 46.4141L 28.6328 52L 27.1875 52L 27.1875 46.4062C 27.1823 45.7969 27.0417 45.3464 26.7656 45.0547C 26.4948 44.763 26.0703 44.6172 25.4922 44.6172C 25.0234 44.6172 24.612 44.7422 24.2578 44.9922C 23.9036 45.2422 23.6276 45.5703 23.4297 45.9766L 23.4297 52L 21.9844 52L 21.9844 40L 23.4297 40L 23.4297 44.5703ZM 44.2734 52L 42.8281 52L 42.8281 43.5469L 44.2734 43.5469L 44.2734 52ZM 42.7109 41.3047C 42.7109 41.0703 42.7812 40.8724 42.9219 40.7109C 43.0677 40.5495 43.2812 40.4688 43.5625 40.4688C 43.8438 40.4688 44.0573 40.5495 44.2031 40.7109C 44.349 40.8724 44.4219 41.0703 44.4219 41.3047C 44.4219 41.5391 44.349 41.7344 44.2031 41.8906C 44.0573 42.0469 43.8438 42.125 43.5625 42.125C 43.2812 42.125 43.0677 42.0469 42.9219 41.8906C 42.7812 41.7344 42.7109 41.5391 42.7109 41.3047Z"/>
<path id="path5_fill" d="M 6.3125 15C 6.22917 14.8333 6.16146 14.5365 6.10938 14.1094C 5.4375 14.8073 4.63542 15.1562 3.70312 15.1562C 2.86979 15.1562 2.1849 14.9219 1.64844 14.4531C 1.11719 13.9792 0.851562 13.3802 0.851562 12.6562C 0.851562 11.776 1.1849 11.0938 1.85156 10.6094C 2.52344 10.1198 3.46615 9.875 4.67969 9.875L 6.08594 9.875L 6.08594 9.21094C 6.08594 8.70573 5.9349 8.30469 5.63281 8.00781C 5.33073 7.70573 4.88542 7.55469 4.29688 7.55469C 3.78125 7.55469 3.34896 7.6849 3 7.94531C 2.65104 8.20573 2.47656 8.52083 2.47656 8.89062L 1.02344 8.89062C 1.02344 8.46875 1.17188 8.0625 1.46875 7.67188C 1.77083 7.27604 2.17708 6.96354 2.6875 6.73438C 3.20312 6.50521 3.76823 6.39062 4.38281 6.39062C 5.35677 6.39062 6.11979 6.63542 6.67188 7.125C 7.22396 7.60938 7.51042 8.27865 7.53125 9.13281L 7.53125 13.0234C 7.53125 13.7995 7.63021 14.4167 7.82812 14.875L 7.82812 15L 6.3125 15ZM 3.91406 13.8984C 4.36719 13.8984 4.79688 13.7812 5.20312 13.5469C 5.60938 13.3125 5.90365 13.0078 6.08594 12.6328L 6.08594 10.8984L 4.95312 10.8984C 3.18229 10.8984 2.29688 11.4167 2.29688 12.4531C 2.29688 12.9062 2.44792 13.2604 2.75 13.5156C 3.05208 13.7708 3.4401 13.8984 3.91406 13.8984ZM 28.8594 10.8672C 28.8594 12.1589 28.5625 13.1979 27.9688 13.9844C 27.375 14.7656 26.5781 15.1562 25.5781 15.1562C 24.5104 15.1562 23.6849 14.7786 23.1016 14.0234L 23.0312 15L 21.7031 15L 21.7031 3L 23.1484 3L 23.1484 7.47656C 23.7318 6.7526 24.5365 6.39062 25.5625 6.39062C 26.5885 6.39062 27.3932 6.77865 27.9766 7.55469C 28.5651 8.33073 28.8594 9.39323 28.8594 10.7422L 28.8594 10.8672ZM 27.4141 10.7031C 27.4141 9.71875 27.224 8.95833 26.8438 8.42188C 26.4635 7.88542 25.9167 7.61719 25.2031 7.61719C 24.25 7.61719 23.5651 8.0599 23.1484 8.94531L 23.1484 12.6016C 23.5911 13.487 24.2812 13.9297 25.2188 13.9297C 25.9115 13.9297 26.4505 13.6615 26.8359 13.125C 27.2214 12.5885 27.4141 11.7812 27.4141 10.7031ZM 45.9844 13.9766C 46.5 13.9766 46.9505 13.8203 47.3359 13.5078C 47.7214 13.1953 47.9349 12.8047 47.9766 12.3359L 49.3438 12.3359C 49.3177 12.8203 49.151 13.2812 48.8438 13.7188C 48.5365 14.1562 48.125 14.5052 47.6094 14.7656C 47.099 15.026 46.5573 15.1562 45.9844 15.1562C 44.8333 15.1562 43.9167 14.7734 43.2344 14.0078C 42.5573 13.237 42.2188 12.1849 42.2188 10.8516L 42.2188 10.6094C 42.2188 9.78646 42.3698 9.05469 42.6719 8.41406C 42.974 7.77344 43.4062 7.27604 43.9688 6.92188C 44.5365 6.56771 45.2057 6.39062 45.9766 6.39062C 46.9245 6.39062 47.7109 6.67448 48.3359 7.24219C 48.9661 7.8099 49.3021 8.54688 49.3438 9.45312L 47.9766 9.45312C 47.9349 8.90625 47.7266 8.45833 47.3516 8.10938C 46.9818 7.75521 46.5234 7.57812 45.9766 7.57812C 45.2422 7.57812 44.6719 7.84375 44.2656 8.375C 43.8646 8.90104 43.6641 9.66406 43.6641 10.6641L 43.6641 10.9375C 43.6641 11.9115 43.8646 12.6615 44.2656 13.1875C 44.6667 13.7135 45.2396 13.9766 45.9844 13.9766ZM 0.742188 29.7031C 0.742188 28.4062 1.04948 27.3646 1.66406 26.5781C 2.27865 25.7865 3.08333 25.3906 4.07812 25.3906C 5.06771 25.3906 5.85156 25.7292 6.42969 26.4062L 6.42969 22L 7.875 22L 7.875 34L 6.54688 34L 6.47656 33.0938C 5.89844 33.8021 5.09375 34.1562 4.0625 34.1562C 3.08333 34.1562 2.28385 33.7552 1.66406 32.9531C 1.04948 32.151 0.742188 31.1042 0.742188 29.8125L 0.742188 29.7031ZM 2.1875 29.8672C 2.1875 30.8255 2.38542 31.5755 2.78125 32.1172C 3.17708 32.6589 3.72396 32.9297 4.42188 32.9297C 5.33854 32.9297 6.00781 32.5182 6.42969 31.6953L 6.42969 27.8125C 5.9974 27.0156 5.33333 26.6172 4.4375 26.6172C 3.72917 26.6172 3.17708 26.8906 2.78125 27.4375C 2.38542 27.9844 2.1875 28.7943 2.1875 29.8672ZM 0.75 47.7031C 0.75 46.3854 1.05469 45.3385 1.66406 44.5625C 2.27344 43.7812 3.08073 43.3906 4.08594 43.3906C 5.11719 43.3906 5.92188 43.7552 6.5 44.4844L 6.57031 43.5469L 7.89062 43.5469L 7.89062 51.7969C 7.89062 52.8906 7.5651 53.7526 6.91406 54.3828C 6.26823 55.013 5.39844 55.3281 4.30469 55.3281C 3.69531 55.3281 3.09896 55.1979 2.51562 54.9375C 1.93229 54.6771 1.48698 54.3203 1.17969 53.8672L 1.92969 53C 2.54948 53.7656 3.30729 54.1484 4.20312 54.1484C 4.90625 54.1484 5.45312 53.9505 5.84375 53.5547C 6.23958 53.1589 6.4375 52.6016 6.4375 51.8828L 6.4375 51.1562C 5.85938 51.8229 5.07031 52.1562 4.07031 52.1562C 3.08073 52.1562 2.27865 51.7578 1.66406 50.9609C 1.05469 50.1641 0.75 49.0781 0.75 47.7031ZM 2.20312 47.8672C 2.20312 48.8203 2.39844 49.5703 2.78906 50.1172C 3.17969 50.6589 3.72656 50.9297 4.42969 50.9297C 5.34115 50.9297 6.01042 50.5156 6.4375 49.6875L 6.4375 45.8281C 5.99479 45.0208 5.33073 44.6172 4.44531 44.6172C 3.74219 44.6172 3.19271 44.8906 2.79688 45.4375C 2.40104 45.9844 2.20312 46.7943 2.20312 47.8672Z"/>
<path id="path6_stroke" d="M 0 2L 35.5 2L 35.5 -2L 0 -2L 0 2Z"/>
<path id="path7_stroke" d="M 0 0L 26 0L 26 -4L 0 -4L 0 0Z"/>
<path id="path8_fill" d="M 0.742188 29.7031C 0.742188 28.4062 1.04948 27.3646 1.66406 26.5781C 2.27865 25.7865 3.08333 25.3906 4.07812 25.3906C 5.06771 25.3906 5.85156 25.7292 6.42969 26.4062L 6.42969 22L 7.875 22L 7.875 34L 6.54688 34L 6.47656 33.0938C 5.89844 33.8021 5.09375 34.1562 4.0625 34.1562C 3.08333 34.1562 2.28385 33.7552 1.66406 32.9531C 1.04948 32.151 0.742188 31.1042 0.742188 29.8125L 0.742188 29.7031ZM 2.1875 29.8672C 2.1875 30.8255 2.38542 31.5755 2.78125 32.1172C 3.17708 32.6589 3.72396 32.9297 4.42188 32.9297C 5.33854 32.9297 6.00781 32.5182 6.42969 31.6953L 6.42969 27.8125C 5.9974 27.0156 5.33333 26.6172 4.4375 26.6172C 3.72917 26.6172 3.17708 26.8906 2.78125 27.4375C 2.38542 27.9844 2.1875 28.7943 2.1875 29.8672ZM 43.1328 34L 43.1328 26.6641L 41.7969 26.6641L 41.7969 25.5469L 43.1328 25.5469L 43.1328 24.6797C 43.1328 23.7734 43.375 23.0729 43.8594 22.5781C 44.3438 22.0833 45.0286 21.8359 45.9141 21.8359C 46.2474 21.8359 46.5781 21.8802 46.9062 21.9688L 46.8281 23.1406C 46.5833 23.0938 46.3229 23.0703 46.0469 23.0703C 45.5781 23.0703 45.2161 23.2083 44.9609 23.4844C 44.7057 23.7552 44.5781 24.1458 44.5781 24.6562L 44.5781 25.5469L 46.3828 25.5469L 46.3828 26.6641L 44.5781 26.6641L 44.5781 34L 43.1328 34ZM 0.75 47.7031C 0.75 46.3854 1.05469 45.3385 1.66406 44.5625C 2.27344 43.7812 3.08073 43.3906 4.08594 43.3906C 5.11719 43.3906 5.92188 43.7552 6.5 44.4844L 6.57031 43.5469L 7.89062 43.5469L 7.89062 51.7969C 7.89062 52.8906 7.5651 53.7526 6.91406 54.3828C 6.26823 55.013 5.39844 55.3281 4.30469 55.3281C 3.69531 55.3281 3.09896 55.1979 2.51562 54.9375C 1.93229 54.6771 1.48698 54.3203 1.17969 53.8672L 1.92969 53C 2.54948 53.7656 3.30729 54.1484 4.20312 54.1484C 4.90625 54.1484 5.45312 53.9505 5.84375 53.5547C 6.23958 53.1589 6.4375 52.6016 6.4375 51.8828L 6.4375 51.1562C 5.85938 51.8229 5.07031 52.1562 4.07031 52.1562C 3.08073 52.1562 2.27865 51.7578 1.66406 50.9609C 1.05469 50.1641 0.75 49.0781 0.75 47.7031ZM 2.20312 47.8672C 2.20312 48.8203 2.39844 49.5703 2.78906 50.1172C 3.17969 50.6589 3.72656 50.9297 4.42969 50.9297C 5.34115 50.9297 6.01042 50.5156 6.4375 49.6875L 6.4375 45.8281C 5.99479 45.0208 5.33073 44.6172 4.44531 44.6172C 3.74219 44.6172 3.19271 44.8906 2.79688 45.4375C 2.40104 45.9844 2.20312 46.7943 2.20312 47.8672ZM 44.2734 52L 42.8281 52L 42.8281 43.5469L 44.2734 43.5469L 44.2734 52ZM 42.7109 41.3047C 42.7109 41.0703 42.7812 40.8724 42.9219 40.7109C 43.0677 40.5495 43.2812 40.4688 43.5625 40.4688C 43.8438 40.4688 44.0573 40.5495 44.2031 40.7109C 44.349 40.8724 44.4219 41.0703 44.4219 41.3047C 44.4219 41.5391 44.349 41.7344 44.2031 41.8906C 44.0573 42.0469 43.8438 42.125 43.5625 42.125C 43.2812 42.125 43.0677 42.0469 42.9219 41.8906C 42.7812 41.7344 42.7109 41.5391 42.7109 41.3047Z"/>
<path id="path9_fill" d="M 6.3125 15C 6.22917 14.8333 6.16146 14.5365 6.10938 14.1094C 5.4375 14.8073 4.63542 15.1562 3.70312 15.1562C 2.86979 15.1562 2.1849 14.9219 1.64844 14.4531C 1.11719 13.9792 0.851562 13.3802 0.851562 12.6562C 0.851562 11.776 1.1849 11.0938 1.85156 10.6094C 2.52344 10.1198 3.46615 9.875 4.67969 9.875L 6.08594 9.875L 6.08594 9.21094C 6.08594 8.70573 5.9349 8.30469 5.63281 8.00781C 5.33073 7.70573 4.88542 7.55469 4.29688 7.55469C 3.78125 7.55469 3.34896 7.6849 3 7.94531C 2.65104 8.20573 2.47656 8.52083 2.47656 8.89062L 1.02344 8.89062C 1.02344 8.46875 1.17188 8.0625 1.46875 7.67188C 1.77083 7.27604 2.17708 6.96354 2.6875 6.73438C 3.20312 6.50521 3.76823 6.39062 4.38281 6.39062C 5.35677 6.39062 6.11979 6.63542 6.67188 7.125C 7.22396 7.60938 7.51042 8.27865 7.53125 9.13281L 7.53125 13.0234C 7.53125 13.7995 7.63021 14.4167 7.82812 14.875L 7.82812 15L 6.3125 15ZM 3.91406 13.8984C 4.36719 13.8984 4.79688 13.7812 5.20312 13.5469C 5.60938 13.3125 5.90365 13.0078 6.08594 12.6328L 6.08594 10.8984L 4.95312 10.8984C 3.18229 10.8984 2.29688 11.4167 2.29688 12.4531C 2.29688 12.9062 2.44792 13.2604 2.75 13.5156C 3.05208 13.7708 3.4401 13.8984 3.91406 13.8984ZM 28.8594 10.8672C 28.8594 12.1589 28.5625 13.1979 27.9688 13.9844C 27.375 14.7656 26.5781 15.1562 25.5781 15.1562C 24.5104 15.1562 23.6849 14.7786 23.1016 14.0234L 23.0312 15L 21.7031 15L 21.7031 3L 23.1484 3L 23.1484 7.47656C 23.7318 6.7526 24.5365 6.39062 25.5625 6.39062C 26.5885 6.39062 27.3932 6.77865 27.9766 7.55469C 28.5651 8.33073 28.8594 9.39323 28.8594 10.7422L 28.8594 10.8672ZM 27.4141 10.7031C 27.4141 9.71875 27.224 8.95833 26.8438 8.42188C 26.4635 7.88542 25.9167 7.61719 25.2031 7.61719C 24.25 7.61719 23.5651 8.0599 23.1484 8.94531L 23.1484 12.6016C 23.5911 13.487 24.2812 13.9297 25.2188 13.9297C 25.9115 13.9297 26.4505 13.6615 26.8359 13.125C 27.2214 12.5885 27.4141 11.7812 27.4141 10.7031ZM 45.9844 13.9766C 46.5 13.9766 46.9505 13.8203 47.3359 13.5078C 47.7214 13.1953 47.9349 12.8047 47.9766 12.3359L 49.3438 12.3359C 49.3177 12.8203 49.151 13.2812 48.8438 13.7188C 48.5365 14.1562 48.125 14.5052 47.6094 14.7656C 47.099 15.026 46.5573 15.1562 45.9844 15.1562C 44.8333 15.1562 43.9167 14.7734 43.2344 14.0078C 42.5573 13.237 42.2188 12.1849 42.2188 10.8516L 42.2188 10.6094C 42.2188 9.78646 42.3698 9.05469 42.6719 8.41406C 42.974 7.77344 43.4062 7.27604 43.9688 6.92188C 44.5365 6.56771 45.2057 6.39062 45.9766 6.39062C 46.9245 6.39062 47.7109 6.67448 48.3359 7.24219C 48.9661 7.8099 49.3021 8.54688 49.3438 9.45312L 47.9766 9.45312C 47.9349 8.90625 47.7266 8.45833 47.3516 8.10938C 46.9818 7.75521 46.5234 7.57812 45.9766 7.57812C 45.2422 7.57812 44.6719 7.84375 44.2656 8.375C 43.8646 8.90104 43.6641 9.66406 43.6641 10.6641L 43.6641 10.9375C 43.6641 11.9115 43.8646 12.6615 44.2656 13.1875C 44.6667 13.7135 45.2396 13.9766 45.9844 13.9766ZM 25.5391 34.1562C 24.3932 34.1562 23.4609 33.7812 22.7422 33.0312C 22.0234 32.276 21.6641 31.2682 21.6641 30.0078L 21.6641 29.7422C 21.6641 28.9036 21.8229 28.1562 22.1406 27.5C 22.4635 26.8385 22.9115 26.3229 23.4844 25.9531C 24.0625 25.5781 24.6875 25.3906 25.3594 25.3906C 26.4583 25.3906 27.3125 25.7526 27.9219 26.4766C 28.5312 27.2005 28.8359 28.237 28.8359 29.5859L 28.8359 30.1875L 23.1094 30.1875C 23.1302 31.0208 23.3724 31.6953 23.8359 32.2109C 24.3047 32.7214 24.8984 32.9766 25.6172 32.9766C 26.1276 32.9766 26.5599 32.8724 26.9141 32.6641C 27.2682 32.4557 27.5781 32.1797 27.8438 31.8359L 28.7266 32.5234C 28.0182 33.612 26.9557 34.1562 25.5391 34.1562ZM 25.3594 26.5781C 24.776 26.5781 24.2865 26.7917 23.8906 27.2188C 23.4948 27.6406 23.25 28.2344 23.1562 29L 27.3906 29L 27.3906 28.8906C 27.349 28.1562 27.151 27.5885 26.7969 27.1875C 26.4427 26.7812 25.9635 26.5781 25.3594 26.5781ZM 23.4297 44.5703C 24.0703 43.7839 24.9036 43.3906 25.9297 43.3906C 27.7161 43.3906 28.6172 44.3984 28.6328 46.4141L 28.6328 52L 27.1875 52L 27.1875 46.4062C 27.1823 45.7969 27.0417 45.3464 26.7656 45.0547C 26.4948 44.763 26.0703 44.6172 25.4922 44.6172C 25.0234 44.6172 24.612 44.7422 24.2578 44.9922C 23.9036 45.2422 23.6276 45.5703 23.4297 45.9766L 23.4297 52L 21.9844 52L 21.9844 40L 23.4297 40L 23.4297 44.5703Z"/>
<path id="path10_stroke" d="M 0 0L 13 0L 13 -4L 0 -4L 0 0Z"/>
<path id="path11_stroke" d="M 0 0L 25 0L 25 -4L 0 -4L 0 0Z"/>
<path id="path12_fill" d="M 0.742188 29.7031C 0.742188 28.4062 1.04948 27.3646 1.66406 26.5781C 2.27865 25.7865 3.08333 25.3906 4.07812 25.3906C 5.06771 25.3906 5.85156 25.7292 6.42969 26.4062L 6.42969 22L 7.875 22L 7.875 34L 6.54688 34L 6.47656 33.0938C 5.89844 33.8021 5.09375 34.1562 4.0625 34.1562C 3.08333 34.1562 2.28385 33.7552 1.66406 32.9531C 1.04948 32.151 0.742188 31.1042 0.742188 29.8125L 0.742188 29.7031ZM 2.1875 29.8672C 2.1875 30.8255 2.38542 31.5755 2.78125 32.1172C 3.17708 32.6589 3.72396 32.9297 4.42188 32.9297C 5.33854 32.9297 6.00781 32.5182 6.42969 31.6953L 6.42969 27.8125C 5.9974 27.0156 5.33333 26.6172 4.4375 26.6172C 3.72917 26.6172 3.17708 26.8906 2.78125 27.4375C 2.38542 27.9844 2.1875 28.7943 2.1875 29.8672ZM 25.5391 34.1562C 24.3932 34.1562 23.4609 33.7812 22.7422 33.0312C 22.0234 32.276 21.6641 31.2682 21.6641 30.0078L 21.6641 29.7422C 21.6641 28.9036 21.8229 28.1562 22.1406 27.5C 22.4635 26.8385 22.9115 26.3229 23.4844 25.9531C 24.0625 25.5781 24.6875 25.3906 25.3594 25.3906C 26.4583 25.3906 27.3125 25.7526 27.9219 26.4766C 28.5312 27.2005 28.8359 28.237 28.8359 29.5859L 28.8359 30.1875L 23.1094 30.1875C 23.1302 31.0208 23.3724 31.6953 23.8359 32.2109C 24.3047 32.7214 24.8984 32.9766 25.6172 32.9766C 26.1276 32.9766 26.5599 32.8724 26.9141 32.6641C 27.2682 32.4557 27.5781 32.1797 27.8438 31.8359L 28.7266 32.5234C 28.0182 33.612 26.9557 34.1562 25.5391 34.1562ZM 25.3594 26.5781C 24.776 26.5781 24.2865 26.7917 23.8906 27.2188C 23.4948 27.6406 23.25 28.2344 23.1562 29L 27.3906 29L 27.3906 28.8906C 27.349 28.1562 27.151 27.5885 26.7969 27.1875C 26.4427 26.7812 25.9635 26.5781 25.3594 26.5781ZM 0.75 47.7031C 0.75 46.3854 1.05469 45.3385 1.66406 44.5625C 2.27344 43.7812 3.08073 43.3906 4.08594 43.3906C 5.11719 43.3906 5.92188 43.7552 6.5 44.4844L 6.57031 43.5469L 7.89062 43.5469L 7.89062 51.7969C 7.89062 52.8906 7.5651 53.7526 6.91406 54.3828C 6.26823 55.013 5.39844 55.3281 4.30469 55.3281C 3.69531 55.3281 3.09896 55.1979 2.51562 54.9375C 1.93229 54.6771 1.48698 54.3203 1.17969 53.8672L 1.92969 53C 2.54948 53.7656 3.30729 54.1484 4.20312 54.1484C 4.90625 54.1484 5.45312 53.9505 5.84375 53.5547C 6.23958 53.1589 6.4375 52.6016 6.4375 51.8828L 6.4375 51.1562C 5.85938 51.8229 5.07031 52.1562 4.07031 52.1562C 3.08073 52.1562 2.27865 51.7578 1.66406 50.9609C 1.05469 50.1641 0.75 49.0781 0.75 47.7031ZM 2.20312 47.8672C 2.20312 48.8203 2.39844 49.5703 2.78906 50.1172C 3.17969 50.6589 3.72656 50.9297 4.42969 50.9297C 5.34115 50.9297 6.01042 50.5156 6.4375 49.6875L 6.4375 45.8281C 5.99479 45.0208 5.33073 44.6172 4.44531 44.6172C 3.74219 44.6172 3.19271 44.8906 2.79688 45.4375C 2.40104 45.9844 2.20312 46.7943 2.20312 47.8672ZM 23.4297 44.5703C 24.0703 43.7839 24.9036 43.3906 25.9297 43.3906C 27.7161 43.3906 28.6172 44.3984 28.6328 46.4141L 28.6328 52L 27.1875 52L 27.1875 46.4062C 27.1823 45.7969 27.0417 45.3464 26.7656 45.0547C 26.4948 44.763 26.0703 44.6172 25.4922 44.6172C 25.0234 44.6172 24.612 44.7422 24.2578 44.9922C 23.9036 45.2422 23.6276 45.5703 23.4297 45.9766L 23.4297 52L 21.9844 52L 21.9844 40L 23.4297 40L 23.4297 44.5703Z"/>
<path id="path13_fill" d="M 6.3125 15C 6.22917 14.8333 6.16146 14.5365 6.10938 14.1094C 5.4375 14.8073 4.63542 15.1562 3.70312 15.1562C 2.86979 15.1562 2.1849 14.9219 1.64844 14.4531C 1.11719 13.9792 0.851562 13.3802 0.851562 12.6562C 0.851562 11.776 1.1849 11.0938 1.85156 10.6094C 2.52344 10.1198 3.46615 9.875 4.67969 9.875L 6.08594 9.875L 6.08594 9.21094C 6.08594 8.70573 5.9349 8.30469 5.63281 8.00781C 5.33073 7.70573 4.88542 7.55469 4.29688 7.55469C 3.78125 7.55469 3.34896 7.6849 3 7.94531C 2.65104 8.20573 2.47656 8.52083 2.47656 8.89062L 1.02344 8.89062C 1.02344 8.46875 1.17188 8.0625 1.46875 7.67188C 1.77083 7.27604 2.17708 6.96354 2.6875 6.73438C 3.20312 6.50521 3.76823 6.39062 4.38281 6.39062C 5.35677 6.39062 6.11979 6.63542 6.67188 7.125C 7.22396 7.60938 7.51042 8.27865 7.53125 9.13281L 7.53125 13.0234C 7.53125 13.7995 7.63021 14.4167 7.82812 14.875L 7.82812 15L 6.3125 15ZM 3.91406 13.8984C 4.36719 13.8984 4.79688 13.7812 5.20312 13.5469C 5.60938 13.3125 5.90365 13.0078 6.08594 12.6328L 6.08594 10.8984L 4.95312 10.8984C 3.18229 10.8984 2.29688 11.4167 2.29688 12.4531C 2.29688 12.9062 2.44792 13.2604 2.75 13.5156C 3.05208 13.7708 3.4401 13.8984 3.91406 13.8984ZM 28.8594 10.8672C 28.8594 12.1589 28.5625 13.1979 27.9688 13.9844C 27.375 14.7656 26.5781 15.1562 25.5781 15.1562C 24.5104 15.1562 23.6849 14.7786 23.1016 14.0234L 23.0312 15L 21.7031 15L 21.7031 3L 23.1484 3L 23.1484 7.47656C 23.7318 6.7526 24.5365 6.39062 25.5625 6.39062C 26.5885 6.39062 27.3932 6.77865 27.9766 7.55469C 28.5651 8.33073 28.8594 9.39323 28.8594 10.7422L 28.8594 10.8672ZM 27.4141 10.7031C 27.4141 9.71875 27.224 8.95833 26.8438 8.42188C 26.4635 7.88542 25.9167 7.61719 25.2031 7.61719C 24.25 7.61719 23.5651 8.0599 23.1484 8.94531L 23.1484 12.6016C 23.5911 13.487 24.2812 13.9297 25.2188 13.9297C 25.9115 13.9297 26.4505 13.6615 26.8359 13.125C 27.2214 12.5885 27.4141 11.7812 27.4141 10.7031ZM 45.9844 13.9766C 46.5 13.9766 46.9505 13.8203 47.3359 13.5078C 47.7214 13.1953 47.9349 12.8047 47.9766 12.3359L 49.3438 12.3359C 49.3177 12.8203 49.151 13.2812 48.8438 13.7188C 48.5365 14.1562 48.125 14.5052 47.6094 14.7656C 47.099 15.026 46.5573 15.1562 45.9844 15.1562C 44.8333 15.1562 43.9167 14.7734 43.2344 14.0078C 42.5573 13.237 42.2188 12.1849 42.2188 10.8516L 42.2188 10.6094C 42.2188 9.78646 42.3698 9.05469 42.6719 8.41406C 42.974 7.77344 43.4062 7.27604 43.9688 6.92188C 44.5365 6.56771 45.2057 6.39062 45.9766 6.39062C 46.9245 6.39062 47.7109 6.67448 48.3359 7.24219C 48.9661 7.8099 49.3021 8.54688 49.3438 9.45312L 47.9766 9.45312C 47.9349 8.90625 47.7266 8.45833 47.3516 8.10938C 46.9818 7.75521 46.5234 7.57812 45.9766 7.57812C 45.2422 7.57812 44.6719 7.84375 44.2656 8.375C 43.8646 8.90104 43.6641 9.66406 43.6641 10.6641L 43.6641 10.9375C 43.6641 11.9115 43.8646 12.6615 44.2656 13.1875C 44.6667 13.7135 45.2396 13.9766 45.9844 13.9766ZM 43.1328 34L 43.1328 26.6641L 41.7969 26.6641L 41.7969 25.5469L 43.1328 25.5469L 43.1328 24.6797C 43.1328 23.7734 43.375 23.0729 43.8594 22.5781C 44.3438 22.0833 45.0286 21.8359 45.9141 21.8359C 46.2474 21.8359 46.5781 21.8802 46.9062 21.9688L 46.8281 23.1406C 46.5833 23.0938 46.3229 23.0703 46.0469 23.0703C 45.5781 23.0703 45.2161 23.2083 44.9609 23.4844C 44.7057 23.7552 44.5781 24.1458 44.5781 24.6562L 44.5781 25.5469L 46.3828 25.5469L 46.3828 26.6641L 44.5781 26.6641L 44.5781 34L 43.1328 34ZM 44.2734 52L 42.8281 52L 42.8281 43.5469L 44.2734 43.5469L 44.2734 52ZM 42.7109 41.3047C 42.7109 41.0703 42.7812 40.8724 42.9219 40.7109C 43.0677 40.5495 43.2812 40.4688 43.5625 40.4688C 43.8438 40.4688 44.0573 40.5495 44.2031 40.7109C 44.349 40.8724 44.4219 41.0703 44.4219 41.3047C 44.4219 41.5391 44.349 41.7344 44.2031 41.8906C 44.0573 42.0469 43.8438 42.125 43.5625 42.125C 43.2812 42.125 43.0677 42.0469 42.9219 41.8906C 42.7812 41.7344 42.7109 41.5391 42.7109 41.3047Z"/>
<path id="path14_stroke" d="M 0 0L 29 0L 29 -4L 0 -4L 0 0Z"/>
<path id="path15_stroke" d="M 0 0L 30 0L 30 -4L 0 -4L 0 0Z"/>
</defs>
</svg>

