<svg width="1582" height="538" viewBox="0 0 1582 538" version="1.1" xmlns="http://www.w3.org/2000/svg" xmlns:xlink="http://www.w3.org/1999/xlink">
<title>Frame</title>
<desc>Created using Figma</desc>
<g id="Canvas" transform="matrix(2 0 0 2 456 590)">
<clipPath id="clip-0" clip-rule="evenodd">
<path d="M -228 -295L 563 -295L 563 -26L -228 -26L -228 -295Z" fill="#FFFFFF"/>
</clipPath>
<g id="Frame" clip-path="url(#clip-0)">
<path d="M -228 -295L 563 -295L 563 -26L -228 -26L -228 -295Z" fill="#FFFFFF"/>
<g id="Line">
<use xlink:href="#path0_stroke" transform="matrix(6.12323e-17 1 -1 6.12323e-17 -153 -250)"/>
</g>
<g id="Line">
<use xlink:href="#path1_stroke" transform="matrix(-1 1.22465e-16 -1.22465e-16 -1 12 -76)"/>
</g>
<g id="Ellipse">
<use xlink:href="#path2_fill" transform="translate(-67 -232)" fill="#27AE60"/>
</g>
<g id="Ellipse">
<use xlink:href="#path2_fill" transform="translate(-92 -146)" fill="#EB5757"/>
</g>
<g id="Ellipse">
<use xlink:href="#path2_fill" transform="translate(-82 -166)" fill="#4F4F4F"/>
</g>
<g id="Ellipse">
<use xlink:href="#path2_fill" transform="translate(-71 -171)" fill="#27AE60"/>
</g>
<g id="Ellipse">
<use xlink:href="#path2_fill" transform="translate(-48 -196)" fill="#219653"/>
</g>
<g id="Ellipse">
<use xlink:href="#path2_fill" transform="translate(-100 -210)" fill="#EB5757"/>
</g>
<g id="Ellipse">
<use xlink:href="#path2_fill" transform="translate(-108 -182)" fill="#EB5757"/>
</g>
<g id="Ellipse">
<use xlink:href="#path2_fill" transform="translate(-131 -115)" fill="#EB5757"/>
</g>
<g id="Ellipse">
<use xlink:href="#path2_fill" transform="translate(-16 -95)" fill="#219653"/>
</g>
<g id="Ellipse">
<use xlink:href="#path2_fill" transform="translate(-14 -151)" fill="#219653"/>
</g>
<g id="k = 1">
<use xlink:href="#path3_fill" transform="translate(-86 -267)"/>
</g>
<g id="feature one">
<use xlink:href="#path4_fill" transform="translate(-203 -185)"/>
</g>
<g id="feature one">
<use xlink:href="#path5_fill" transform="translate(48 -193)"/>
</g>
<g id="feature one">
<use xlink:href="#path5_fill" transform="translate(305 -189)"/>
</g>
<g id="feature two">
<use xlink:href="#path6_fill" transform="translate(-106 -68)"/>
</g>
<g id="feature two">
<use xlink:href="#path7_fill" transform="translate(144 -68)"/>
</g>
<g id="feature two">
<use xlink:href="#path7_fill" transform="translate(399 -68)"/>
</g>
<g id="Ellipse 2">
<mask id="mask0_outline_ins">
<use xlink:href="#path8_fill" fill="white" transform="translate(-94 -180)"/>
</mask>
<g mask="url(#mask0_outline_ins)">
<use xlink:href="#path9_stroke_2x" transform="translate(-94 -180)"/>
</g>
</g>
<g id="Line">
<use xlink:href="#path0_stroke" transform="matrix(6.12323e-17 1 -1 6.12323e-17 100 -250)"/>
</g>
<g id="Line">
<use xlink:href="#path1_stroke" transform="matrix(-1 1.22465e-16 -1.22465e-16 -1 265 -76)"/>
</g>
<g id="Ellipse">
<use xlink:href="#path2_fill" transform="translate(186 -232)" fill="#27AE60"/>
</g>
<g id="Ellipse">
<use xlink:href="#path2_fill" transform="translate(161 -146)" fill="#EB5757"/>
</g>
<g id="Ellipse">
<use xlink:href="#path2_fill" transform="translate(171 -166)" fill="#4F4F4F"/>
</g>
<g id="Ellipse">
<use xlink:href="#path2_fill" transform="translate(182 -171)" fill="#27AE60"/>
</g>
<g id="Ellipse">
<use xlink:href="#path2_fill" transform="translate(205 -196)" fill="#219653"/>
</g>
<g id="Ellipse">
<use xlink:href="#path2_fill" transform="translate(153 -210)" fill="#EB5757"/>
</g>
<g id="Ellipse">
<use xlink:href="#path2_fill" transform="translate(145 -182)" fill="#EB5757"/>
</g>
<g id="Ellipse">
<use xlink:href="#path2_fill" transform="translate(122 -115)" fill="#EB5757"/>
</g>
<g id="Ellipse">
<use xlink:href="#path2_fill" transform="translate(237 -95)" fill="#219653"/>
</g>
<g id="Ellipse">
<use xlink:href="#path2_fill" transform="translate(239 -151)" fill="#219653"/>
</g>
<g id="k = 3">
<use xlink:href="#path10_fill" transform="translate(167 -267)"/>
</g>
<g id="Ellipse 2">
<mask id="mask1_outline_ins">
<use xlink:href="#path11_fill" fill="white" transform="translate(138 -200)"/>
</mask>
<g mask="url(#mask1_outline_ins)">
<use xlink:href="#path12_stroke_2x" transform="translate(138 -200)"/>
</g>
</g>
<g id="Line">
<use xlink:href="#path0_stroke" transform="matrix(6.12323e-17 1 -1 6.12323e-17 355 -250)"/>
</g>
<g id="Line">
<use xlink:href="#path1_stroke" transform="matrix(-1 1.22465e-16 -1.22465e-16 -1 520 -76)"/>
</g>
<g id="Ellipse">
<use xlink:href="#path2_fill" transform="translate(441 -232)" fill="#27AE60"/>
</g>
<g id="Ellipse">
<use xlink:href="#path2_fill" transform="translate(416 -146)" fill="#EB5757"/>
</g>
<g id="Ellipse">
<use xlink:href="#path2_fill" transform="translate(426 -166)" fill="#4F4F4F"/>
</g>
<g id="Ellipse">
<use xlink:href="#path2_fill" transform="translate(437 -171)" fill="#27AE60"/>
</g>
<g id="Ellipse">
<use xlink:href="#path2_fill" transform="translate(460 -196)" fill="#219653"/>
</g>
<g id="Ellipse">
<use xlink:href="#path2_fill" transform="translate(408 -210)" fill="#EB5757"/>
</g>
<g id="Ellipse">
<use xlink:href="#path2_fill" transform="translate(400 -182)" fill="#EB5757"/>
</g>
<g id="Ellipse">
<use xlink:href="#path2_fill" transform="translate(377 -115)" fill="#EB5757"/>
</g>
<g id="Ellipse">
<use xlink:href="#path2_fill" transform="translate(492 -95)" fill="#219653"/>
</g>
<g id="Ellipse">
<use xlink:href="#path2_fill" transform="translate(494 -151)" fill="#219653"/>
</g>
<g id="k = 5">
<use xlink:href="#path13_fill" transform="translate(422 -267)"/>
</g>
<g id="Ellipse 2">
<mask id="mask2_outline_ins">
<use xlink:href="#path14_fill" fill="white" transform="translate(377 -216)"/>
</mask>
<g mask="url(#mask2_outline_ins)">
<use xlink:href="#path15_stroke_2x" transform="translate(377 -216)"/>
</g>
</g>
</g>
</g>
<defs>
<path id="path0_stroke" d="M 0 0L 174 0L 174 -2L 0 -2L 0 0Z"/>
<path id="path1_stroke" d="M 0 0L 165 0L 165 -2L 0 -2L 0 0Z"/>
<path id="path2_fill" d="M 10 5C 10 7.76142 7.76142 10 5 10C 2.23858 10 0 7.76142 0 5C 0 2.23858 2.23858 0 5 0C 7.76142 0 10 2.23858 10 5Z"/>
<path id="path3_fill" d="M 3.44531 10.0332L 2.73438 10.7441L 2.73438 13L 0.758789 13L 0.758789 2.5L 2.73438 2.5L 2.73438 8.31738L 3.11719 7.8252L 5.01074 5.60352L 7.38281 5.60352L 4.70996 8.68652L 7.61523 13L 5.3457 13L 3.44531 10.0332ZM 18.0059 7.90039L 11.8945 7.90039L 11.8945 6.28711L 18.0059 6.28711L 18.0059 7.90039ZM 18.0059 10.8604L 11.8945 10.8604L 11.8945 9.24707L 18.0059 9.24707L 18.0059 10.8604ZM 27.9385 13L 25.9629 13L 25.9629 5.38477L 23.6045 6.11621L 23.6045 4.50977L 27.7266 3.0332L 27.9385 3.0332L 27.9385 13Z"/>
<path id="path4_fill" d="M 2.04004 13L 2.04004 6.58105L 0.871094 6.58105L 0.871094 5.60352L 2.04004 5.60352L 2.04004 4.84473C 2.04004 4.05176 2.25195 3.4388 2.67578 3.00586C 3.09961 2.57292 3.69889 2.35645 4.47363 2.35645C 4.7653 2.35645 5.05469 2.39518 5.3418 2.47266L 5.27344 3.49805C 5.05924 3.45703 4.83138 3.43652 4.58984 3.43652C 4.17969 3.43652 3.86296 3.55729 3.63965 3.79883C 3.41634 4.03581 3.30469 4.3776 3.30469 4.82422L 3.30469 5.60352L 4.88379 5.60352L 4.88379 6.58105L 3.30469 6.58105L 3.30469 13L 2.04004 13ZM 9.19043 13.1367C 8.18783 13.1367 7.37207 12.8086 6.74316 12.1523C 6.11426 11.4915 5.7998 10.6097 5.7998 9.50684L 5.7998 9.27441C 5.7998 8.54069 5.9388 7.88672 6.2168 7.3125C 6.49935 6.73372 6.89128 6.28255 7.39258 5.95898C 7.89844 5.63086 8.44531 5.4668 9.0332 5.4668C 9.99479 5.4668 10.7422 5.78353 11.2754 6.41699C 11.8086 7.05046 12.0752 7.95736 12.0752 9.1377L 12.0752 9.66406L 7.06445 9.66406C 7.08268 10.3932 7.2946 10.9834 7.7002 11.4346C 8.11035 11.8812 8.62988 12.1045 9.25879 12.1045C 9.7054 12.1045 10.0837 12.0133 10.3936 11.8311C 10.7035 11.6488 10.9746 11.4072 11.207 11.1064L 11.9795 11.708C 11.3597 12.6605 10.43 13.1367 9.19043 13.1367ZM 9.0332 6.50586C 8.52279 6.50586 8.0944 6.69271 7.74805 7.06641C 7.40169 7.43555 7.1875 7.95508 7.10547 8.625L 10.8105 8.625L 10.8105 8.5293C 10.7741 7.88672 10.6009 7.38997 10.291 7.03906C 9.98112 6.68359 9.56185 6.50586 9.0332 6.50586ZM 18.1113 13C 18.0384 12.8542 17.9792 12.5944 17.9336 12.2207C 17.3457 12.8314 16.6439 13.1367 15.8281 13.1367C 15.099 13.1367 14.4997 12.9316 14.0303 12.5215C 13.5654 12.1068 13.333 11.5827 13.333 10.9492C 13.333 10.179 13.6247 9.58203 14.208 9.1582C 14.7959 8.72982 15.6208 8.51562 16.6826 8.51562L 17.9131 8.51562L 17.9131 7.93457C 17.9131 7.49251 17.7809 7.1416 17.5166 6.88184C 17.2523 6.61751 16.8626 6.48535 16.3477 6.48535C 15.8965 6.48535 15.5182 6.59928 15.2129 6.82715C 14.9076 7.05501 14.7549 7.33073 14.7549 7.6543L 13.4834 7.6543C 13.4834 7.28516 13.6133 6.92969 13.873 6.58789C 14.1374 6.24154 14.4928 5.9681 14.9395 5.76758C 15.3906 5.56706 15.8851 5.4668 16.4229 5.4668C 17.2751 5.4668 17.9427 5.68099 18.4258 6.10938C 18.9089 6.5332 19.1595 7.11882 19.1777 7.86621L 19.1777 11.2705C 19.1777 11.9495 19.2643 12.4896 19.4375 12.8906L 19.4375 13L 18.1113 13ZM 16.0127 12.0361C 16.4092 12.0361 16.7852 11.9336 17.1406 11.7285C 17.4961 11.5234 17.7536 11.2568 17.9131 10.9287L 17.9131 9.41113L 16.9219 9.41113C 15.3724 9.41113 14.5977 9.86458 14.5977 10.7715C 14.5977 11.168 14.7298 11.4779 14.9941 11.7012C 15.2585 11.9245 15.598 12.0361 16.0127 12.0361ZM 22.876 3.8125L 22.876 5.60352L 24.2568 5.60352L 24.2568 6.58105L 22.876 6.58105L 22.876 11.168C 22.876 11.4642 22.9375 11.6875 23.0605 11.8379C 23.1836 11.9837 23.3932 12.0566 23.6895 12.0566C 23.8353 12.0566 24.0358 12.0293 24.291 11.9746L 24.291 13C 23.9583 13.0911 23.6348 13.1367 23.3203 13.1367C 22.7552 13.1367 22.3291 12.9658 22.042 12.624C 21.7549 12.2822 21.6113 11.7969 21.6113 11.168L 21.6113 6.58105L 20.2646 6.58105L 20.2646 5.60352L 21.6113 5.60352L 21.6113 3.8125L 22.876 3.8125ZM 30.3066 12.2686C 29.8145 12.8473 29.0921 13.1367 28.1396 13.1367C 27.3512 13.1367 26.7497 12.9089 26.335 12.4531C 25.9248 11.9928 25.7174 11.3138 25.7129 10.416L 25.7129 5.60352L 26.9775 5.60352L 26.9775 10.3818C 26.9775 11.5029 27.4333 12.0635 28.3447 12.0635C 29.3109 12.0635 29.9535 11.7035 30.2725 10.9834L 30.2725 5.60352L 31.5371 5.60352L 31.5371 13L 30.334 13L 30.3066 12.2686ZM 37.04 6.73828C 36.8486 6.70638 36.6413 6.69043 36.418 6.69043C 35.5885 6.69043 35.0257 7.04362 34.7295 7.75L 34.7295 13L 33.4648 13L 33.4648 5.60352L 34.6953 5.60352L 34.7158 6.45801C 35.1305 5.7972 35.7184 5.4668 36.4795 5.4668C 36.7256 5.4668 36.9124 5.4987 37.04 5.5625L 37.04 6.73828ZM 41.1416 13.1367C 40.139 13.1367 39.3232 12.8086 38.6943 12.1523C 38.0654 11.4915 37.751 10.6097 37.751 9.50684L 37.751 9.27441C 37.751 8.54069 37.89 7.88672 38.168 7.3125C 38.4505 6.73372 38.8424 6.28255 39.3438 5.95898C 39.8496 5.63086 40.3965 5.4668 40.9844 5.4668C 41.946 5.4668 42.6934 5.78353 43.2266 6.41699C 43.7598 7.05046 44.0264 7.95736 44.0264 9.1377L 44.0264 9.66406L 39.0156 9.66406C 39.0339 10.3932 39.2458 10.9834 39.6514 11.4346C 40.0615 11.8812 40.5811 12.1045 41.21 12.1045C 41.6566 12.1045 42.0348 12.0133 42.3447 11.8311C 42.6546 11.6488 42.9258 11.4072 43.1582 11.1064L 43.9307 11.708C 43.3109 12.6605 42.3812 13.1367 41.1416 13.1367ZM 40.9844 6.50586C 40.474 6.50586 40.0456 6.69271 39.6992 7.06641C 39.3529 7.43555 39.1387 7.95508 39.0566 8.625L 42.7617 8.625L 42.7617 8.5293C 42.7253 7.88672 42.5521 7.38997 42.2422 7.03906C 41.9323 6.68359 41.513 6.50586 40.9844 6.50586ZM 11.5557 25.2334C 11.5557 24.5088 11.6969 23.8571 11.9795 23.2783C 12.2666 22.6995 12.6631 22.2529 13.1689 21.9385C 13.6794 21.624 14.2604 21.4668 14.9121 21.4668C 15.9193 21.4668 16.7327 21.8154 17.3525 22.5127C 17.9769 23.21 18.2891 24.1374 18.2891 25.2949L 18.2891 25.3838C 18.2891 26.1038 18.1501 26.751 17.8721 27.3252C 17.5986 27.8949 17.2044 28.3392 16.6895 28.6582C 16.179 28.9772 15.5911 29.1367 14.9258 29.1367C 13.9232 29.1367 13.1097 28.7881 12.4854 28.0908C 11.8656 27.3936 11.5557 26.4707 11.5557 25.3223L 11.5557 25.2334ZM 12.8271 25.3838C 12.8271 26.2041 13.0163 26.8626 13.3945 27.3594C 13.7773 27.8561 14.2878 28.1045 14.9258 28.1045C 15.5684 28.1045 16.0788 27.8538 16.457 27.3525C 16.8353 26.8467 17.0244 26.1403 17.0244 25.2334C 17.0244 24.4222 16.8307 23.766 16.4434 23.2646C 16.0605 22.7588 15.5501 22.5059 14.9121 22.5059C 14.2878 22.5059 13.7842 22.7542 13.4014 23.251C 13.0186 23.7477 12.8271 24.4587 12.8271 25.3838ZM 21.0713 21.6035L 21.1123 22.5332C 21.6774 21.8223 22.4157 21.4668 23.3271 21.4668C 24.8903 21.4668 25.6787 22.3486 25.6924 24.1123L 25.6924 29L 24.4277 29L 24.4277 24.1055C 24.4232 23.5723 24.3001 23.1781 24.0586 22.9229C 23.8216 22.6676 23.4502 22.54 22.9443 22.54C 22.5342 22.54 22.1742 22.6494 21.8643 22.8682C 21.5544 23.0869 21.3128 23.374 21.1396 23.7295L 21.1396 29L 19.875 29L 19.875 21.6035L 21.0713 21.6035ZM 30.6689 29.1367C 29.6663 29.1367 28.8506 28.8086 28.2217 28.1523C 27.5928 27.4915 27.2783 26.6097 27.2783 25.5068L 27.2783 25.2744C 27.2783 24.5407 27.4173 23.8867 27.6953 23.3125C 27.9779 22.7337 28.3698 22.2826 28.8711 21.959C 29.377 21.6309 29.9238 21.4668 30.5117 21.4668C 31.4733 21.4668 32.2207 21.7835 32.7539 22.417C 33.2871 23.0505 33.5537 23.9574 33.5537 25.1377L 33.5537 25.6641L 28.543 25.6641C 28.5612 26.3932 28.7731 26.9834 29.1787 27.4346C 29.5889 27.8812 30.1084 28.1045 30.7373 28.1045C 31.1839 28.1045 31.5622 28.0133 31.8721 27.8311C 32.182 27.6488 32.4531 27.4072 32.6855 27.1064L 33.458 27.708C 32.8382 28.6605 31.9085 29.1367 30.6689 29.1367ZM 30.5117 22.5059C 30.0013 22.5059 29.5729 22.6927 29.2266 23.0664C 28.8802 23.4355 28.666 23.9551 28.584 24.625L 32.2891 24.625L 32.2891 24.5293C 32.2526 23.8867 32.0794 23.39 31.7695 23.0391C 31.4596 22.6836 31.0404 22.5059 30.5117 22.5059Z"/>
<path id="path5_fill" d="M 2.04004 13L 2.04004 6.58105L 0.871094 6.58105L 0.871094 5.60352L 2.04004 5.60352L 2.04004 4.84473C 2.04004 4.05176 2.25195 3.4388 2.67578 3.00586C 3.09961 2.57292 3.69889 2.35645 4.47363 2.35645C 4.7653 2.35645 5.05469 2.39518 5.3418 2.47266L 5.27344 3.49805C 5.05924 3.45703 4.83138 3.43652 4.58984 3.43652C 4.17969 3.43652 3.86296 3.55729 3.63965 3.79883C 3.41634 4.03581 3.30469 4.3776 3.30469 4.82422L 3.30469 5.60352L 4.88379 5.60352L 4.88379 6.58105L 3.30469 6.58105L 3.30469 13L 2.04004 13ZM 9.19043 13.1367C 8.18783 13.1367 7.37207 12.8086 6.74316 12.1523C 6.11426 11.4915 5.7998 10.6097 5.7998 9.50684L 5.7998 9.27441C 5.7998 8.54069 5.9388 7.88672 6.2168 7.3125C 6.49935 6.73372 6.89128 6.28255 7.39258 5.95898C 7.89844 5.63086 8.44531 5.4668 9.0332 5.4668C 9.99479 5.4668 10.7422 5.78353 11.2754 6.41699C 11.8086 7.05046 12.0752 7.95736 12.0752 9.1377L 12.0752 9.66406L 7.06445 9.66406C 7.08268 10.3932 7.2946 10.9834 7.7002 11.4346C 8.11035 11.8812 8.62988 12.1045 9.25879 12.1045C 9.7054 12.1045 10.0837 12.0133 10.3936 11.8311C 10.7035 11.6488 10.9746 11.4072 11.207 11.1064L 11.9795 11.708C 11.3597 12.6605 10.43 13.1367 9.19043 13.1367ZM 9.0332 6.50586C 8.52279 6.50586 8.0944 6.69271 7.74805 7.06641C 7.40169 7.43555 7.1875 7.95508 7.10547 8.625L 10.8105 8.625L 10.8105 8.5293C 10.7741 7.88672 10.6009 7.38997 10.291 7.03906C 9.98112 6.68359 9.56185 6.50586 9.0332 6.50586ZM 18.1113 13C 18.0384 12.8542 17.9792 12.5944 17.9336 12.2207C 17.3457 12.8314 16.6439 13.1367 15.8281 13.1367C 15.099 13.1367 14.4997 12.9316 14.0303 12.5215C 13.5654 12.1068 13.333 11.5827 13.333 10.9492C 13.333 10.179 13.6247 9.58203 14.208 9.1582C 14.7959 8.72982 15.6208 8.51562 16.6826 8.51562L 17.9131 8.51562L 17.9131 7.93457C 17.9131 7.49251 17.7809 7.1416 17.5166 6.88184C 17.2523 6.61751 16.8626 6.48535 16.3477 6.48535C 15.8965 6.48535 15.5182 6.59928 15.2129 6.82715C 14.9076 7.05501 14.7549 7.33073 14.7549 7.6543L 13.4834 7.6543C 13.4834 7.28516 13.6133 6.92969 13.873 6.58789C 14.1374 6.24154 14.4928 5.9681 14.9395 5.76758C 15.3906 5.56706 15.8851 5.4668 16.4229 5.4668C 17.2751 5.4668 17.9427 5.68099 18.4258 6.10938C 18.9089 6.5332 19.1595 7.11882 19.1777 7.86621L 19.1777 11.2705C 19.1777 11.9495 19.2643 12.4896 19.4375 12.8906L 19.4375 13L 18.1113 13ZM 16.0127 12.0361C 16.4092 12.0361 16.7852 11.9336 17.1406 11.7285C 17.4961 11.5234 17.7536 11.2568 17.9131 10.9287L 17.9131 9.41113L 16.9219 9.41113C 15.3724 9.41113 14.5977 9.86458 14.5977 10.7715C 14.5977 11.168 14.7298 11.4779 14.9941 11.7012C 15.2585 11.9245 15.598 12.0361 16.0127 12.0361ZM 22.876 3.8125L 22.876 5.60352L 24.2568 5.60352L 24.2568 6.58105L 22.876 6.58105L 22.876 11.168C 22.876 11.4642 22.9375 11.6875 23.0605 11.8379C 23.1836 11.9837 23.3932 12.0566 23.6895 12.0566C 23.8353 12.0566 24.0358 12.0293 24.291 11.9746L 24.291 13C 23.9583 13.0911 23.6348 13.1367 23.3203 13.1367C 22.7552 13.1367 22.3291 12.9658 22.042 12.624C 21.7549 12.2822 21.6113 11.7969 21.6113 11.168L 21.6113 6.58105L 20.2646 6.58105L 20.2646 5.60352L 21.6113 5.60352L 21.6113 3.8125L 22.876 3.8125ZM 30.3066 12.2686C 29.8145 12.8473 29.0921 13.1367 28.1396 13.1367C 27.3512 13.1367 26.7497 12.9089 26.335 12.4531C 25.9248 11.9928 25.7174 11.3138 25.7129 10.416L 25.7129 5.60352L 26.9775 5.60352L 26.9775 10.3818C 26.9775 11.5029 27.4333 12.0635 28.3447 12.0635C 29.3109 12.0635 29.9535 11.7035 30.2725 10.9834L 30.2725 5.60352L 31.5371 5.60352L 31.5371 13L 30.334 13L 30.3066 12.2686ZM 37.04 6.73828C 36.8486 6.70638 36.6413 6.69043 36.418 6.69043C 35.5885 6.69043 35.0257 7.04362 34.7295 7.75L 34.7295 13L 33.4648 13L 33.4648 5.60352L 34.6953 5.60352L 34.7158 6.45801C 35.1305 5.7972 35.7184 5.4668 36.4795 5.4668C 36.7256 5.4668 36.9124 5.4987 37.04 5.5625L 37.04 6.73828ZM 41.1416 13.1367C 40.139 13.1367 39.3232 12.8086 38.6943 12.1523C 38.0654 11.4915 37.751 10.6097 37.751 9.50684L 37.751 9.27441C 37.751 8.54069 37.89 7.88672 38.168 7.3125C 38.4505 6.73372 38.8424 6.28255 39.3438 5.95898C 39.8496 5.63086 40.3965 5.4668 40.9844 5.4668C 41.946 5.4668 42.6934 5.78353 43.2266 6.41699C 43.7598 7.05046 44.0264 7.95736 44.0264 9.1377L 44.0264 9.66406L 39.0156 9.66406C 39.0339 10.3932 39.2458 10.9834 39.6514 11.4346C 40.0615 11.8812 40.5811 12.1045 41.21 12.1045C 41.6566 12.1045 42.0348 12.0133 42.3447 11.8311C 42.6546 11.6488 42.9258 11.4072 43.1582 11.1064L 43.9307 11.708C 43.3109 12.6605 42.3812 13.1367 41.1416 13.1367ZM 40.9844 6.50586C 40.474 6.50586 40.0456 6.69271 39.6992 7.06641C 39.3529 7.43555 39.1387 7.95508 39.0566 8.625L 42.7617 8.625L 42.7617 8.5293C 42.7253 7.88672 42.5521 7.38997 42.2422 7.03906C 41.9323 6.68359 41.513 6.50586 40.9844 6.50586ZM 11.5557 25.2334C 11.5557 24.5088 11.6969 23.8571 11.9795 23.2783C 12.2666 22.6995 12.6631 22.2529 13.1689 21.9385C 13.6794 21.624 14.2604 21.4668 14.9121 21.4668C 15.9193 21.4668 16.7327 21.8154 17.3525 22.5127C 17.9769 23.21 18.2891 24.1374 18.2891 25.2949L 18.2891 25.3838C 18.2891 26.1038 18.1501 26.751 17.8721 27.3252C 17.5986 27.8949 17.2044 28.3392 16.6895 28.6582C 16.179 28.9772 15.5911 29.1367 14.9258 29.1367C 13.9232 29.1367 13.1097 28.7881 12.4854 28.0908C 11.8656 27.3936 11.5557 26.4707 11.5557 25.3223L 11.5557 25.2334ZM 12.8271 25.3838C 12.8271 26.2041 13.0163 26.8626 13.3945 27.3594C 13.7773 27.8561 14.2878 28.1045 14.9258 28.1045C 15.5684 28.1045 16.0788 27.8538 16.457 27.3525C 16.8353 26.8467 17.0244 26.1403 17.0244 25.2334C 17.0244 24.4222 16.8307 23.766 16.4434 23.2646C 16.0605 22.7588 15.5501 22.5059 14.9121 22.5059C 14.2878 22.5059 13.7842 22.7542 13.4014 23.251C 13.0186 23.7477 12.8271 24.4587 12.8271 25.3838ZM 21.0713 21.6035L 21.1123 22.5332C 21.6774 21.8223 22.4157 21.4668 23.3271 21.4668C 24.8903 21.4668 25.6787 22.3486 25.6924 24.1123L 25.6924 29L 24.4277 29L 24.4277 24.1055C 24.4232 23.5723 24.3001 23.1781 24.0586 22.9229C 23.8216 22.6676 23.4502 22.54 22.9443 22.54C 22.5342 22.54 22.1742 22.6494 21.8643 22.8682C 21.5544 23.0869 21.3128 23.374 21.1396 23.7295L 21.1396 29L 19.875 29L 19.875 21.6035L 21.0713 21.6035ZM 30.6689 29.1367C 29.6663 29.1367 28.8506 28.8086 28.2217 28.1523C 27.5928 27.4915 27.2783 26.6097 27.2783 25.5068L 27.2783 25.2744C 27.2783 24.5407 27.4173 23.8867 27.6953 23.3125C 27.9779 22.7337 28.3698 22.2826 28.8711 21.959C 29.377 21.6309 29.9238 21.4668 30.5117 21.4668C 31.4733 21.4668 32.2207 21.7835 32.7539 22.417C 33.2871 23.0505 33.5537 23.9574 33.5537 25.1377L 33.5537 25.6641L 28.543 25.6641C 28.5612 26.3932 28.7731 26.9834 29.1787 27.4346C 29.5889 27.8812 30.1084 28.1045 30.7373 28.1045C 31.1839 28.1045 31.5622 28.0133 31.8721 27.8311C 32.182 27.6488 32.4531 27.4072 32.6855 27.1064L 33.458 27.708C 32.8382 28.6605 31.9085 29.1367 30.6689 29.1367ZM 30.5117 22.5059C 30.0013 22.5059 29.5729 22.6927 29.2266 23.0664C 28.8802 23.4355 28.666 23.9551 28.584 24.625L 32.2891 24.625L 32.2891 24.5293C 32.2526 23.8867 32.0794 23.39 31.7695 23.0391C 31.4596 22.6836 31.0404 22.5059 30.5117 22.5059Z"/>
<path id="path6_fill" d="M 1.75781 13L 1.75781 6.58105L 0.588867 6.58105L 0.588867 5.60352L 1.75781 5.60352L 1.75781 4.84473C 1.75781 4.05176 1.96973 3.4388 2.39355 3.00586C 2.81738 2.57292 3.41667 2.35645 4.19141 2.35645C 4.48307 2.35645 4.77246 2.39518 5.05957 2.47266L 4.99121 3.49805C 4.77702 3.45703 4.54915 3.43652 4.30762 3.43652C 3.89746 3.43652 3.58073 3.55729 3.35742 3.79883C 3.13411 4.03581 3.02246 4.3776 3.02246 4.82422L 3.02246 5.60352L 4.60156 5.60352L 4.60156 6.58105L 3.02246 6.58105L 3.02246 13L 1.75781 13ZM 8.9082 13.1367C 7.9056 13.1367 7.08984 12.8086 6.46094 12.1523C 5.83203 11.4915 5.51758 10.6097 5.51758 9.50684L 5.51758 9.27441C 5.51758 8.54069 5.65658 7.88672 5.93457 7.3125C 6.21712 6.73372 6.60905 6.28255 7.11035 5.95898C 7.61621 5.63086 8.16309 5.4668 8.75098 5.4668C 9.71257 5.4668 10.46 5.78353 10.9932 6.41699C 11.5264 7.05046 11.793 7.95736 11.793 9.1377L 11.793 9.66406L 6.78223 9.66406C 6.80046 10.3932 7.01237 10.9834 7.41797 11.4346C 7.82812 11.8812 8.34766 12.1045 8.97656 12.1045C 9.42318 12.1045 9.80143 12.0133 10.1113 11.8311C 10.4212 11.6488 10.6924 11.4072 10.9248 11.1064L 11.6973 11.708C 11.0775 12.6605 10.1478 13.1367 8.9082 13.1367ZM 8.75098 6.50586C 8.24056 6.50586 7.81217 6.69271 7.46582 7.06641C 7.11947 7.43555 6.90527 7.95508 6.82324 8.625L 10.5283 8.625L 10.5283 8.5293C 10.4919 7.88672 10.3187 7.38997 10.0088 7.03906C 9.69889 6.68359 9.27962 6.50586 8.75098 6.50586ZM 17.8291 13C 17.7562 12.8542 17.6969 12.5944 17.6514 12.2207C 17.0635 12.8314 16.3617 13.1367 15.5459 13.1367C 14.8167 13.1367 14.2174 12.9316 13.748 12.5215C 13.2832 12.1068 13.0508 11.5827 13.0508 10.9492C 13.0508 10.179 13.3424 9.58203 13.9258 9.1582C 14.5137 8.72982 15.3385 8.51562 16.4004 8.51562L 17.6309 8.51562L 17.6309 7.93457C 17.6309 7.49251 17.4987 7.1416 17.2344 6.88184C 16.9701 6.61751 16.5804 6.48535 16.0654 6.48535C 15.6143 6.48535 15.236 6.59928 14.9307 6.82715C 14.6253 7.05501 14.4727 7.33073 14.4727 7.6543L 13.2012 7.6543C 13.2012 7.28516 13.3311 6.92969 13.5908 6.58789C 13.8551 6.24154 14.2106 5.9681 14.6572 5.76758C 15.1084 5.56706 15.6029 5.4668 16.1406 5.4668C 16.9928 5.4668 17.6605 5.68099 18.1436 6.10938C 18.6266 6.5332 18.8773 7.11882 18.8955 7.86621L 18.8955 11.2705C 18.8955 11.9495 18.9821 12.4896 19.1553 12.8906L 19.1553 13L 17.8291 13ZM 15.7305 12.0361C 16.127 12.0361 16.5029 11.9336 16.8584 11.7285C 17.2139 11.5234 17.4714 11.2568 17.6309 10.9287L 17.6309 9.41113L 16.6396 9.41113C 15.0902 9.41113 14.3154 9.86458 14.3154 10.7715C 14.3154 11.168 14.4476 11.4779 14.7119 11.7012C 14.9762 11.9245 15.3158 12.0361 15.7305 12.0361ZM 22.5938 3.8125L 22.5938 5.60352L 23.9746 5.60352L 23.9746 6.58105L 22.5938 6.58105L 22.5938 11.168C 22.5938 11.4642 22.6553 11.6875 22.7783 11.8379C 22.9014 11.9837 23.111 12.0566 23.4072 12.0566C 23.5531 12.0566 23.7536 12.0293 24.0088 11.9746L 24.0088 13C 23.6761 13.0911 23.3525 13.1367 23.0381 13.1367C 22.473 13.1367 22.0469 12.9658 21.7598 12.624C 21.4727 12.2822 21.3291 11.7969 21.3291 11.168L 21.3291 6.58105L 19.9824 6.58105L 19.9824 5.60352L 21.3291 5.60352L 21.3291 3.8125L 22.5938 3.8125ZM 30.0244 12.2686C 29.5322 12.8473 28.8099 13.1367 27.8574 13.1367C 27.069 13.1367 26.4674 12.9089 26.0527 12.4531C 25.6426 11.9928 25.4352 11.3138 25.4307 10.416L 25.4307 5.60352L 26.6953 5.60352L 26.6953 10.3818C 26.6953 11.5029 27.151 12.0635 28.0625 12.0635C 29.0286 12.0635 29.6712 11.7035 29.9902 10.9834L 29.9902 5.60352L 31.2549 5.60352L 31.2549 13L 30.0518 13L 30.0244 12.2686ZM 36.7578 6.73828C 36.5664 6.70638 36.359 6.69043 36.1357 6.69043C 35.3063 6.69043 34.7435 7.04362 34.4473 7.75L 34.4473 13L 33.1826 13L 33.1826 5.60352L 34.4131 5.60352L 34.4336 6.45801C 34.8483 5.7972 35.4362 5.4668 36.1973 5.4668C 36.4434 5.4668 36.6302 5.4987 36.7578 5.5625L 36.7578 6.73828ZM 40.8594 13.1367C 39.8568 13.1367 39.041 12.8086 38.4121 12.1523C 37.7832 11.4915 37.4688 10.6097 37.4688 9.50684L 37.4688 9.27441C 37.4688 8.54069 37.6077 7.88672 37.8857 7.3125C 38.1683 6.73372 38.5602 6.28255 39.0615 5.95898C 39.5674 5.63086 40.1143 5.4668 40.7021 5.4668C 41.6637 5.4668 42.4111 5.78353 42.9443 6.41699C 43.4775 7.05046 43.7441 7.95736 43.7441 9.1377L 43.7441 9.66406L 38.7334 9.66406C 38.7516 10.3932 38.9635 10.9834 39.3691 11.4346C 39.7793 11.8812 40.2988 12.1045 40.9277 12.1045C 41.3743 12.1045 41.7526 12.0133 42.0625 11.8311C 42.3724 11.6488 42.6436 11.4072 42.876 11.1064L 43.6484 11.708C 43.0286 12.6605 42.099 13.1367 40.8594 13.1367ZM 40.7021 6.50586C 40.1917 6.50586 39.7633 6.69271 39.417 7.06641C 39.0706 7.43555 38.8564 7.95508 38.7744 8.625L 42.4795 8.625L 42.4795 8.5293C 42.443 7.88672 42.2699 7.38997 41.96 7.03906C 41.6501 6.68359 41.2308 6.50586 40.7021 6.50586ZM 50.4023 3.8125L 50.4023 5.60352L 51.7832 5.60352L 51.7832 6.58105L 50.4023 6.58105L 50.4023 11.168C 50.4023 11.4642 50.4639 11.6875 50.5869 11.8379C 50.71 11.9837 50.9196 12.0566 51.2158 12.0566C 51.3617 12.0566 51.5622 12.0293 51.8174 11.9746L 51.8174 13C 51.4847 13.0911 51.1611 13.1367 50.8467 13.1367C 50.2816 13.1367 49.8555 12.9658 49.5684 12.624C 49.2812 12.2822 49.1377 11.7969 49.1377 11.168L 49.1377 6.58105L 47.791 6.58105L 47.791 5.60352L 49.1377 5.60352L 49.1377 3.8125L 50.4023 3.8125ZM 59.8154 11.2568L 61.2373 5.60352L 62.502 5.60352L 60.3486 13L 59.3232 13L 57.5254 7.39453L 55.7754 13L 54.75 13L 52.6035 5.60352L 53.8613 5.60352L 55.3174 11.1406L 57.04 5.60352L 58.0586 5.60352L 59.8154 11.2568ZM 63.459 9.2334C 63.459 8.50879 63.6003 7.8571 63.8828 7.27832C 64.1699 6.69954 64.5664 6.25293 65.0723 5.93848C 65.5827 5.62402 66.1637 5.4668 66.8154 5.4668C 67.8226 5.4668 68.6361 5.81543 69.2559 6.5127C 69.8802 7.20996 70.1924 8.13737 70.1924 9.29492L 70.1924 9.38379C 70.1924 10.1038 70.0534 10.751 69.7754 11.3252C 69.502 11.8949 69.1077 12.3392 68.5928 12.6582C 68.0824 12.9772 67.4945 13.1367 66.8291 13.1367C 65.8265 13.1367 65.013 12.7881 64.3887 12.0908C 63.7689 11.3936 63.459 10.4707 63.459 9.32227L 63.459 9.2334ZM 64.7305 9.38379C 64.7305 10.2041 64.9196 10.8626 65.2979 11.3594C 65.6807 11.8561 66.1911 12.1045 66.8291 12.1045C 67.4717 12.1045 67.9821 11.8538 68.3604 11.3525C 68.7386 10.8467 68.9277 10.1403 68.9277 9.2334C 68.9277 8.4222 68.734 7.76595 68.3467 7.26465C 67.9639 6.75879 67.4535 6.50586 66.8154 6.50586C 66.1911 6.50586 65.6875 6.75423 65.3047 7.25098C 64.9219 7.74772 64.7305 8.45866 64.7305 9.38379Z"/>
<path id="path7_fill" d="M 1.75781 13L 1.75781 6.58105L 0.588867 6.58105L 0.588867 5.60352L 1.75781 5.60352L 1.75781 4.84473C 1.75781 4.05176 1.96973 3.4388 2.39355 3.00586C 2.81738 2.57292 3.41667 2.35645 4.19141 2.35645C 4.48307 2.35645 4.77246 2.39518 5.05957 2.47266L 4.99121 3.49805C 4.77702 3.45703 4.54915 3.43652 4.30762 3.43652C 3.89746 3.43652 3.58073 3.55729 3.35742 3.79883C 3.13411 4.03581 3.02246 4.3776 3.02246 4.82422L 3.02246 5.60352L 4.60156 5.60352L 4.60156 6.58105L 3.02246 6.58105L 3.02246 13L 1.75781 13ZM 8.9082 13.1367C 7.9056 13.1367 7.08984 12.8086 6.46094 12.1523C 5.83203 11.4915 5.51758 10.6097 5.51758 9.50684L 5.51758 9.27441C 5.51758 8.54069 5.65658 7.88672 5.93457 7.3125C 6.21712 6.73372 6.60905 6.28255 7.11035 5.95898C 7.61621 5.63086 8.16309 5.4668 8.75098 5.4668C 9.71257 5.4668 10.46 5.78353 10.9932 6.41699C 11.5264 7.05046 11.793 7.95736 11.793 9.1377L 11.793 9.66406L 6.78223 9.66406C 6.80046 10.3932 7.01237 10.9834 7.41797 11.4346C 7.82812 11.8812 8.34766 12.1045 8.97656 12.1045C 9.42318 12.1045 9.80143 12.0133 10.1113 11.8311C 10.4212 11.6488 10.6924 11.4072 10.9248 11.1064L 11.6973 11.708C 11.0775 12.6605 10.1478 13.1367 8.9082 13.1367ZM 8.75098 6.50586C 8.24056 6.50586 7.81217 6.69271 7.46582 7.06641C 7.11947 7.43555 6.90527 7.95508 6.82324 8.625L 10.5283 8.625L 10.5283 8.5293C 10.4919 7.88672 10.3187 7.38997 10.0088 7.03906C 9.69889 6.68359 9.27962 6.50586 8.75098 6.50586ZM 17.8291 13C 17.7562 12.8542 17.6969 12.5944 17.6514 12.2207C 17.0635 12.8314 16.3617 13.1367 15.5459 13.1367C 14.8167 13.1367 14.2174 12.9316 13.748 12.5215C 13.2832 12.1068 13.0508 11.5827 13.0508 10.9492C 13.0508 10.179 13.3424 9.58203 13.9258 9.1582C 14.5137 8.72982 15.3385 8.51562 16.4004 8.51562L 17.6309 8.51562L 17.6309 7.93457C 17.6309 7.49251 17.4987 7.1416 17.2344 6.88184C 16.9701 6.61751 16.5804 6.48535 16.0654 6.48535C 15.6143 6.48535 15.236 6.59928 14.9307 6.82715C 14.6253 7.05501 14.4727 7.33073 14.4727 7.6543L 13.2012 7.6543C 13.2012 7.28516 13.3311 6.92969 13.5908 6.58789C 13.8551 6.24154 14.2106 5.9681 14.6572 5.76758C 15.1084 5.56706 15.6029 5.4668 16.1406 5.4668C 16.9928 5.4668 17.6605 5.68099 18.1436 6.10938C 18.6266 6.5332 18.8773 7.11882 18.8955 7.86621L 18.8955 11.2705C 18.8955 11.9495 18.9821 12.4896 19.1553 12.8906L 19.1553 13L 17.8291 13ZM 15.7305 12.0361C 16.127 12.0361 16.5029 11.9336 16.8584 11.7285C 17.2139 11.5234 17.4714 11.2568 17.6309 10.9287L 17.6309 9.41113L 16.6396 9.41113C 15.0902 9.41113 14.3154 9.86458 14.3154 10.7715C 14.3154 11.168 14.4476 11.4779 14.7119 11.7012C 14.9762 11.9245 15.3158 12.0361 15.7305 12.0361ZM 22.5938 3.8125L 22.5938 5.60352L 23.9746 5.60352L 23.9746 6.58105L 22.5938 6.58105L 22.5938 11.168C 22.5938 11.4642 22.6553 11.6875 22.7783 11.8379C 22.9014 11.9837 23.111 12.0566 23.4072 12.0566C 23.5531 12.0566 23.7536 12.0293 24.0088 11.9746L 24.0088 13C 23.6761 13.0911 23.3525 13.1367 23.0381 13.1367C 22.473 13.1367 22.0469 12.9658 21.7598 12.624C 21.4727 12.2822 21.3291 11.7969 21.3291 11.168L 21.3291 6.58105L 19.9824 6.58105L 19.9824 5.60352L 21.3291 5.60352L 21.3291 3.8125L 22.5938 3.8125ZM 30.0244 12.2686C 29.5322 12.8473 28.8099 13.1367 27.8574 13.1367C 27.069 13.1367 26.4674 12.9089 26.0527 12.4531C 25.6426 11.9928 25.4352 11.3138 25.4307 10.416L 25.4307 5.60352L 26.6953 5.60352L 26.6953 10.3818C 26.6953 11.5029 27.151 12.0635 28.0625 12.0635C 29.0286 12.0635 29.6712 11.7035 29.9902 10.9834L 29.9902 5.60352L 31.2549 5.60352L 31.2549 13L 30.0518 13L 30.0244 12.2686ZM 36.7578 6.73828C 36.5664 6.70638 36.359 6.69043 36.1357 6.69043C 35.3063 6.69043 34.7435 7.04362 34.4473 7.75L 34.4473 13L 33.1826 13L 33.1826 5.60352L 34.4131 5.60352L 34.4336 6.45801C 34.8483 5.7972 35.4362 5.4668 36.1973 5.4668C 36.4434 5.4668 36.6302 5.4987 36.7578 5.5625L 36.7578 6.73828ZM 40.8594 13.1367C 39.8568 13.1367 39.041 12.8086 38.4121 12.1523C 37.7832 11.4915 37.4688 10.6097 37.4688 9.50684L 37.4688 9.27441C 37.4688 8.54069 37.6077 7.88672 37.8857 7.3125C 38.1683 6.73372 38.5602 6.28255 39.0615 5.95898C 39.5674 5.63086 40.1143 5.4668 40.7021 5.4668C 41.6637 5.4668 42.4111 5.78353 42.9443 6.41699C 43.4775 7.05046 43.7441 7.95736 43.7441 9.1377L 43.7441 9.66406L 38.7334 9.66406C 38.7516 10.3932 38.9635 10.9834 39.3691 11.4346C 39.7793 11.8812 40.2988 12.1045 40.9277 12.1045C 41.3743 12.1045 41.7526 12.0133 42.0625 11.8311C 42.3724 11.6488 42.6436 11.4072 42.876 11.1064L 43.6484 11.708C 43.0286 12.6605 42.099 13.1367 40.8594 13.1367ZM 40.7021 6.50586C 40.1917 6.50586 39.7633 6.69271 39.417 7.06641C 39.0706 7.43555 38.8564 7.95508 38.7744 8.625L 42.4795 8.625L 42.4795 8.5293C 42.443 7.88672 42.2699 7.38997 41.96 7.03906C 41.6501 6.68359 41.2308 6.50586 40.7021 6.50586ZM 50.4023 3.8125L 50.4023 5.60352L 51.7832 5.60352L 51.7832 6.58105L 50.4023 6.58105L 50.4023 11.168C 50.4023 11.4642 50.4639 11.6875 50.5869 11.8379C 50.71 11.9837 50.9196 12.0566 51.2158 12.0566C 51.3617 12.0566 51.5622 12.0293 51.8174 11.9746L 51.8174 13C 51.4847 13.0911 51.1611 13.1367 50.8467 13.1367C 50.2816 13.1367 49.8555 12.9658 49.5684 12.624C 49.2812 12.2822 49.1377 11.7969 49.1377 11.168L 49.1377 6.58105L 47.791 6.58105L 47.791 5.60352L 49.1377 5.60352L 49.1377 3.8125L 50.4023 3.8125ZM 59.8154 11.2568L 61.2373 5.60352L 62.502 5.60352L 60.3486 13L 59.3232 13L 57.5254 7.39453L 55.7754 13L 54.75 13L 52.6035 5.60352L 53.8613 5.60352L 55.3174 11.1406L 57.04 5.60352L 58.0586 5.60352L 59.8154 11.2568ZM 63.459 9.2334C 63.459 8.50879 63.6003 7.8571 63.8828 7.27832C 64.1699 6.69954 64.5664 6.25293 65.0723 5.93848C 65.5827 5.62402 66.1637 5.4668 66.8154 5.4668C 67.8226 5.4668 68.6361 5.81543 69.2559 6.5127C 69.8802 7.20996 70.1924 8.13737 70.1924 9.29492L 70.1924 9.38379C 70.1924 10.1038 70.0534 10.751 69.7754 11.3252C 69.502 11.8949 69.1077 12.3392 68.5928 12.6582C 68.0824 12.9772 67.4945 13.1367 66.8291 13.1367C 65.8265 13.1367 65.013 12.7881 64.3887 12.0908C 63.7689 11.3936 63.459 10.4707 63.459 9.32227L 63.459 9.2334ZM 64.7305 9.38379C 64.7305 10.2041 64.9196 10.8626 65.2979 11.3594C 65.6807 11.8561 66.1911 12.1045 66.8291 12.1045C 67.4717 12.1045 67.9821 11.8538 68.3604 11.3525C 68.7386 10.8467 68.9277 10.1403 68.9277 9.2334C 68.9277 8.4222 68.734 7.76595 68.3467 7.26465C 67.9639 6.75879 67.4535 6.50586 66.8154 6.50586C 66.1911 6.50586 65.6875 6.75423 65.3047 7.25098C 64.9219 7.74772 64.7305 8.45866 64.7305 9.38379Z"/>
<path id="path8_fill" d="M 35 17.5C 35 27.165 27.165 35 17.5 35C 7.83502 35 0 27.165 0 17.5C 0 7.83502 7.83502 0 17.5 0C 27.165 0 35 7.83502 35 17.5Z"/>
<path id="path9_stroke_2x" d="M 35.5 17.5C 35.4997 16.7089 35.4473 15.9136 35.3479 15.1497L 34.3563 15.279C 34.4521 16.0112 34.5003 16.7418 34.5 17.5L 35.5 17.5ZM 34.134 10.6097C 33.5302 9.15658 32.7251 7.77191 31.7809 6.54161L 30.988 7.15094C 31.8947 8.32906 32.6341 9.60044 33.2102 10.9927L 34.134 10.6097ZM 28.4584 3.21905C 27.2281 2.27492 25.8434 1.46983 24.3903 0.866047L 24.0073 1.78977C 25.3996 2.36593 26.6709 3.10533 27.8491 4.01197L 28.4584 3.21905ZM 19.8503 -0.347885C 19.0864 -0.447275 18.2911 -0.499729 17.5 -0.5L 17.5 0.5C 18.2582 0.499729 18.9888 0.547947 19.721 0.643715L 19.8503 -0.347885ZM 17.5 -0.5C 16.7089 -0.499729 15.9136 -0.447275 15.1497 -0.347885L 15.279 0.643715C 16.0112 0.547947 16.7418 0.499729 17.5 0.5L 17.5 -0.5ZM 10.6097 0.866046C 9.15658 1.46983 7.77191 2.27492 6.54161 3.21905L 7.15094 4.01197C 8.32906 3.10533 9.60044 2.36593 10.9927 1.78977L 10.6097 0.866046ZM 3.21905 6.54161C 2.27492 7.77191 1.46983 9.15657 0.866047 10.6097L 1.78977 10.9927C 2.36593 9.60044 3.10533 8.32906 4.01197 7.15094L 3.21905 6.54161ZM -0.347885 15.1497C -0.447275 15.9136 -0.499729 16.7089 -0.5 17.5L 0.5 17.5C 0.499729 16.7418 0.547947 16.0112 0.643715 15.279L -0.347885 15.1497ZM -0.5 17.5C -0.499729 18.2911 -0.447275 19.0864 -0.347885 19.8503L 0.643715 19.721C 0.547947 18.9888 0.499729 18.2582 0.5 17.5L -0.5 17.5ZM 0.866046 24.3903C 1.46983 25.8434 2.27492 27.2281 3.21905 28.4584L 4.01197 27.8491C 3.10533 26.6709 2.36593 25.3996 1.78977 24.0073L 0.866046 24.3903ZM 6.54161 31.7809C 7.77191 32.7251 9.15657 33.5302 10.6097 34.134L 10.9927 33.2102C 9.60044 32.6341 8.32906 31.8947 7.15094 30.988L 6.54161 31.7809ZM 15.1497 35.3479C 15.9136 35.4473 16.7089 35.4997 17.5 35.5L 17.5 34.5C 16.7418 34.5003 16.0112 34.4521 15.279 34.3563L 15.1497 35.3479ZM 17.5 35.5C 18.2911 35.4997 19.0864 35.4473 19.8503 35.3479L 19.721 34.3563C 18.9888 34.4521 18.2582 34.5003 17.5 34.5L 17.5 35.5ZM 24.3903 34.134C 25.8434 33.5302 27.2281 32.7251 28.4584 31.7809L 27.8491 30.988C 26.6709 31.8947 25.3996 32.6341 24.0073 33.2102L 24.3903 34.134ZM 31.7809 28.4584C 32.7251 27.2281 33.5302 25.8434 34.134 24.3903L 33.2102 24.0073C 32.6341 25.3996 31.8947 26.6709 30.988 27.8491L 31.7809 28.4584ZM 35.3479 19.8503C 35.4473 19.0864 35.4997 18.2911 35.5 17.5L 34.5 17.5C 34.5003 18.2582 34.4521 18.9888 34.3563 19.721L 35.3479 19.8503ZM 36 17.5C 35.9995 16.6924 35.9449 15.8648 35.8437 15.085L 33.8605 15.3437C 33.9544 16.06 34.0005 16.7583 34 17.5L 36 17.5ZM 34.5958 10.4182C 33.9782 8.93464 33.1403 7.49333 32.1774 6.23695L 30.5916 7.4556C 31.4795 8.60764 32.186 9.82237 32.7484 11.1843L 34.5958 10.4182ZM 28.763 2.82259C 27.5067 1.85972 26.0654 1.02179 24.5818 0.404184L 23.8157 2.25164C 25.1776 2.81398 26.3924 3.52053 27.5444 4.40843L 28.763 2.82259ZM 19.915 -0.843685C 19.1352 -0.944886 18.3076 -0.999457 17.5 -1L 17.5 1C 18.2417 0.999457 18.94 1.04556 19.6563 1.13951L 19.915 -0.843685ZM 17.5 -1C 16.6924 -0.999457 15.8648 -0.944886 15.085 -0.843685L 15.3437 1.13951C 16.06 1.04556 16.7583 0.999457 17.5 1L 17.5 -1ZM 10.4182 0.404183C 8.93464 1.02179 7.49333 1.85972 6.23695 2.82259L 7.4556 4.40843C 8.60764 3.52053 9.82237 2.81398 11.1843 2.25164L 10.4182 0.404183ZM 2.82259 6.23695C 1.85972 7.49333 1.02179 8.93464 0.404184 10.4182L 2.25164 11.1843C 2.81398 9.82237 3.52053 8.60764 4.40843 7.4556L 2.82259 6.23695ZM -0.843685 15.085C -0.944886 15.8648 -0.999457 16.6924 -1 17.5L 1 17.5C 0.999457 16.7583 1.04556 16.06 1.13951 15.3437L -0.843685 15.085ZM -1 17.5C -0.999457 18.3076 -0.944886 19.1352 -0.843685 19.915L 1.13951 19.6563C 1.04556 18.94 0.999457 18.2417 1 17.5L -1 17.5ZM 0.404183 24.5818C 1.02179 26.0654 1.85972 27.5067 2.82259 28.763L 4.40843 27.5444C 3.52053 26.3924 2.81398 25.1776 2.25164 23.8157L 0.404183 24.5818ZM 6.23695 32.1774C 7.49333 33.1403 8.93464 33.9782 10.4182 34.5958L 11.1843 32.7484C 9.82237 32.186 8.60764 31.4795 7.4556 30.5916L 6.23695 32.1774ZM 15.085 35.8437C 15.8648 35.9449 16.6924 35.9995 17.5 36L 17.5 34C 16.7583 34.0005 16.06 33.9544 15.3437 33.8605L 15.085 35.8437ZM 17.5 36C 18.3076 35.9995 19.1352 35.9449 19.915 35.8437L 19.6563 33.8605C 18.94 33.9544 18.2417 34.0005 17.5 34L 17.5 36ZM 24.5818 34.5958C 26.0654 33.9782 27.5067 33.1403 28.763 32.1774L 27.5444 30.5916C 26.3924 31.4795 25.1776 32.186 23.8157 32.7484L 24.5818 34.5958ZM 32.1774 28.763C 33.1403 27.5067 33.9782 26.0654 34.5958 24.5818L 32.7484 23.8157C 32.186 25.1776 31.4795 26.3924 30.5916 27.5444L 32.1774 28.763ZM 35.8437 19.915C 35.9449 19.1352 35.9995 18.3076 36 17.5L 34 17.5C 34.0005 18.2417 33.9544 18.94 33.8605 19.6563L 35.8437 19.915Z"/>
<path id="path10_fill" d="M 3.44531 10.0332L 2.73438 10.7441L 2.73438 13L 0.758789 13L 0.758789 2.5L 2.73438 2.5L 2.73438 8.31738L 3.11719 7.8252L 5.01074 5.60352L 7.38281 5.60352L 4.70996 8.68652L 7.61523 13L 5.3457 13L 3.44531 10.0332ZM 18.0059 7.90039L 11.8945 7.90039L 11.8945 6.28711L 18.0059 6.28711L 18.0059 7.90039ZM 18.0059 10.8604L 11.8945 10.8604L 11.8945 9.24707L 18.0059 9.24707L 18.0059 10.8604ZM 25.1494 7.14844L 26.2021 7.14844C 26.7035 7.14844 27.0749 7.02311 27.3164 6.77246C 27.5579 6.52181 27.6787 6.18913 27.6787 5.77441C 27.6787 5.37337 27.5579 5.0612 27.3164 4.83789C 27.0794 4.61458 26.7513 4.50293 26.332 4.50293C 25.9538 4.50293 25.637 4.60775 25.3818 4.81738C 25.1266 5.02246 24.999 5.29134 24.999 5.62402L 23.0234 5.62402C 23.0234 5.10449 23.1624 4.63965 23.4404 4.22949C 23.723 3.81478 24.1149 3.49121 24.6162 3.25879C 25.1221 3.02637 25.6781 2.91016 26.2842 2.91016C 27.3369 2.91016 28.1618 3.16309 28.7588 3.66895C 29.3558 4.17025 29.6543 4.86296 29.6543 5.74707C 29.6543 6.2028 29.5153 6.62207 29.2373 7.00488C 28.9593 7.3877 28.5947 7.68164 28.1436 7.88672C 28.7041 8.08724 29.1211 8.38802 29.3945 8.78906C 29.6725 9.1901 29.8115 9.66406 29.8115 10.2109C 29.8115 11.0951 29.488 11.8037 28.8408 12.3369C 28.1982 12.8701 27.346 13.1367 26.2842 13.1367C 25.2907 13.1367 24.4772 12.8747 23.8438 12.3506C 23.2148 11.8265 22.9004 11.1338 22.9004 10.2725L 24.876 10.2725C 24.876 10.6462 25.015 10.9515 25.293 11.1885C 25.5755 11.4255 25.9219 11.5439 26.332 11.5439C 26.8014 11.5439 27.1683 11.4209 27.4326 11.1748C 27.7015 10.9242 27.8359 10.5938 27.8359 10.1836C 27.8359 9.1901 27.2891 8.69336 26.1953 8.69336L 25.1494 8.69336L 25.1494 7.14844Z"/>
<path id="path11_fill" d="M 77 38.5C 77 59.763 59.763 77 38.5 77C 17.237 77 0 59.763 0 38.5C 0 17.237 17.237 0 38.5 0C 59.763 0 77 17.237 77 38.5Z"/>
<path id="path12_stroke_2x" d="M 77.5 38.5C 77.4999 37.6451 77.4721 36.7885 77.4178 35.9473L 76.4199 36.0118C 76.4732 36.837 76.5001 37.6613 76.5 38.5L 77.5 38.5ZM 76.7577 30.8892C 76.4252 29.2098 75.9805 27.5534 75.4398 25.9594L 74.4929 26.2807C 75.0236 27.8439 75.4512 29.4366 75.7767 31.0833L 76.7577 30.8892ZM 73.4856 21.2467C 72.731 19.7201 71.8713 18.2359 70.9308 16.8306L 70.0998 17.387C 71.0227 18.765 71.8496 20.1925 72.5891 21.6897L 73.4856 21.2467ZM 67.8221 12.7852C 66.7027 11.5101 65.4899 10.2973 64.2148 9.17787L 63.5552 9.92945C 64.8061 11.027 65.973 12.1939 67.0706 13.4448L 67.8221 12.7852ZM 60.1694 6.06925C 58.7641 5.12874 57.2799 4.26897 55.7533 3.51438L 55.3103 4.41092C 56.8075 5.15036 58.235 5.97732 59.613 6.90022L 60.1694 6.06925ZM 51.0406 1.5602C 49.4466 1.01949 47.7902 0.574847 46.1108 0.242317L 45.9167 1.2233C 47.5634 1.54879 49.1561 1.97638 50.7193 2.50715L 51.0406 1.5602ZM 41.0527 -0.417777C 40.2115 -0.472072 39.3549 -0.499934 38.5 -0.5L 38.5 0.5C 39.3387 0.499934 40.163 0.526751 40.9882 0.580142L 41.0527 -0.417777ZM 38.5 -0.5C 37.6451 -0.499934 36.7885 -0.472072 35.9473 -0.417777L 36.0118 0.580142C 36.837 0.52675 37.6613 0.499934 38.5 0.5L 38.5 -0.5ZM 30.8892 0.242317C 29.2098 0.574847 27.5534 1.01949 25.9594 1.5602L 26.2807 2.50715C 27.8439 1.97637 29.4366 1.54879 31.0833 1.2233L 30.8892 0.242317ZM 21.2467 3.51438C 19.7201 4.26897 18.2359 5.12874 16.8306 6.06925L 17.387 6.90022C 18.765 5.97732 20.1925 5.15036 21.6897 4.41092L 21.2467 3.51438ZM 12.7852 9.17787C 11.5101 10.2973 10.2973 11.5101 9.17787 12.7852L 9.92945 13.4448C 11.027 12.1939 12.1939 11.027 13.4448 9.92945L 12.7852 9.17787ZM 6.06925 16.8306C 5.12874 18.2359 4.26897 19.7201 3.51438 21.2467L 4.41092 21.6897C 5.15036 20.1925 5.97732 18.765 6.90022 17.387L 6.06925 16.8306ZM 1.5602 25.9594C 1.01949 27.5534 0.574847 29.2098 0.242317 30.8892L 1.2233 31.0833C 1.54879 29.4366 1.97638 27.8439 2.50715 26.2807L 1.5602 25.9594ZM -0.417777 35.9473C -0.472072 36.7885 -0.499934 37.6451 -0.5 38.5L 0.5 38.5C 0.499934 37.6613 0.526751 36.837 0.580142 36.0118L -0.417777 35.9473ZM -0.5 38.5C -0.499934 39.3549 -0.472072 40.2115 -0.417777 41.0527L 0.580142 40.9882C 0.52675 40.163 0.499934 39.3387 0.5 38.5L -0.5 38.5ZM 0.242317 46.1108C 0.574847 47.7902 1.01949 49.4466 1.5602 51.0406L 2.50715 50.7193C 1.97637 49.1561 1.54879 47.5634 1.2233 45.9167L 0.242317 46.1108ZM 3.51438 55.7533C 4.26897 57.2799 5.12874 58.7641 6.06925 60.1694L 6.90022 59.613C 5.97732 58.235 5.15036 56.8075 4.41092 55.3103L 3.51438 55.7533ZM 9.17787 64.2148C 10.2973 65.4899 11.5101 66.7027 12.7852 67.8221L 13.4448 67.0706C 12.1939 65.973 11.027 64.8061 9.92945 63.5552L 9.17787 64.2148ZM 16.8306 70.9308C 18.2359 71.8713 19.7201 72.731 21.2467 73.4856L 21.6897 72.5891C 20.1925 71.8496 18.765 71.0227 17.387 70.0998L 16.8306 70.9308ZM 25.9594 75.4398C 27.5534 75.9805 29.2098 76.4252 30.8892 76.7577L 31.0833 75.7767C 29.4366 75.4512 27.8439 75.0236 26.2807 74.4929L 25.9594 75.4398ZM 35.9473 77.4178C 36.7885 77.4721 37.6451 77.4999 38.5 77.5L 38.5 76.5C 37.6613 76.5001 36.837 76.4732 36.0118 76.4199L 35.9473 77.4178ZM 38.5 77.5C 39.3549 77.4999 40.2115 77.4721 41.0527 77.4178L 40.9882 76.4199C 40.163 76.4732 39.3387 76.5001 38.5 76.5L 38.5 77.5ZM 46.1108 76.7577C 47.7902 76.4252 49.4466 75.9805 51.0406 75.4398L 50.7193 74.4929C 49.1561 75.0236 47.5634 75.4512 45.9167 75.7767L 46.1108 76.7577ZM 55.7533 73.4856C 57.2799 72.731 58.7641 71.8713 60.1694 70.9308L 59.613 70.0998C 58.235 71.0227 56.8075 71.8496 55.3103 72.5891L 55.7533 73.4856ZM 64.2148 67.8221C 65.4899 66.7027 66.7027 65.4899 67.8221 64.2148L 67.0706 63.5552C 65.973 64.8061 64.8061 65.973 63.5552 67.0706L 64.2148 67.8221ZM 70.9308 60.1694C 71.8713 58.7641 72.731 57.2799 73.4856 55.7533L 72.5891 55.3103C 71.8496 56.8075 71.0227 58.235 70.0998 59.613L 70.9308 60.1694ZM 75.4398 51.0406C 75.9805 49.4466 76.4252 47.7902 76.7577 46.1108L 75.7767 45.9167C 75.4512 47.5634 75.0236 49.1561 74.4929 50.7193L 75.4398 51.0406ZM 77.4178 41.0527C 77.4721 40.2115 77.4999 39.3549 77.5 38.5L 76.5 38.5C 76.5001 39.3387 76.4732 40.163 76.4199 40.9882L 77.4178 41.0527ZM 78 38.5C 77.9999 37.6369 77.9715 36.7643 77.9167 35.9151L 75.9209 36.0441C 75.9738 36.8613 76.0001 37.6695 76 38.5L 78 38.5ZM 77.2482 30.7922C 76.9121 29.0964 76.4589 27.4081 75.9133 25.7987L 74.0194 26.4414C 74.5452 27.9891 74.9642 29.55 75.2862 31.1803L 77.2482 30.7922ZM 73.9339 21.0252C 73.1717 19.4839 72.2955 17.9714 71.3462 16.5525L 69.6843 17.6651C 70.5984 19.0295 71.4089 20.4286 72.1408 21.9112L 73.9339 21.0252ZM 68.1979 12.4554C 67.0676 11.1683 65.8317 9.93243 64.5446 8.80208L 63.2254 10.3052C 64.4643 11.3919 65.6081 12.5357 66.6948 13.7746L 68.1979 12.4554ZM 60.4475 5.65376C 59.0286 4.70446 57.5161 3.82827 55.9748 3.06611L 55.0889 4.85919C 56.5714 5.59106 57.9705 6.40161 59.3349 7.3157L 60.4475 5.65376ZM 51.2013 1.08672C 49.5919 0.541052 47.9036 0.0878762 46.2078 -0.248177L 45.8197 1.7138C 47.45 2.03576 49.0109 2.45482 50.5586 2.98062L 51.2013 1.08672ZM 41.0849 -0.916736C 40.2357 -0.971484 39.3631 -0.999868 38.5 -1L 38.5 1C 39.3305 0.999868 40.1387 1.02616 40.9559 1.0791L 41.0849 -0.916736ZM 38.5 -1C 37.6369 -0.999868 36.7643 -0.971484 35.9151 -0.916736L 36.0441 1.0791C 36.8613 1.02616 37.6695 0.999868 38.5 1L 38.5 -1ZM 30.7922 -0.248177C 29.0964 0.0878759 27.4081 0.541052 25.7987 1.08672L 26.4414 2.98062C 27.9891 2.45482 29.55 2.03576 31.1803 1.7138L 30.7922 -0.248177ZM 21.0252 3.06611C 19.4839 3.82827 17.9714 4.70446 16.5525 5.65376L 17.6651 7.3157C 19.0295 6.40161 20.4286 5.59106 21.9112 4.85919L 21.0252 3.06611ZM 12.4554 8.80207C 11.1683 9.93242 9.93243 11.1683 8.80208 12.4554L 10.3052 13.7746C 11.3919 12.5357 12.5357 11.3919 13.7746 10.3052L 12.4554 8.80207ZM 5.65376 16.5525C 4.70446 17.9714 3.82827 19.4839 3.06611 21.0252L 4.85919 21.9111C 5.59106 20.4286 6.40161 19.0295 7.3157 17.6651L 5.65376 16.5525ZM 1.08672 25.7987C 0.541052 27.4081 0.0878762 29.0964 -0.248177 30.7922L 1.7138 31.1803C 2.03576 29.55 2.45482 27.9891 2.98062 26.4414L 1.08672 25.7987ZM -0.916736 35.9151C -0.971484 36.7643 -0.999868 37.6369 -1 38.5L 1 38.5C 0.999868 37.6695 1.02616 36.8613 1.0791 36.0441L -0.916736 35.9151ZM -1 38.5C -0.999868 39.3631 -0.971484 40.2357 -0.916736 41.0849L 1.0791 40.9559C 1.02616 40.1387 0.999868 39.3305 1 38.5L -1 38.5ZM -0.248177 46.2078C 0.0878759 47.9036 0.541052 49.5919 1.08672 51.2013L 2.98062 50.5586C 2.45482 49.0109 2.03576 47.45 1.7138 45.8197L -0.248177 46.2078ZM 3.06611 55.9748C 3.82827 57.5161 4.70446 59.0286 5.65376 60.4475L 7.3157 59.3349C 6.40161 57.9705 5.59106 56.5714 4.85919 55.0888L 3.06611 55.9748ZM 8.80207 64.5446C 9.93242 65.8317 11.1683 67.0676 12.4554 68.1979L 13.7746 66.6948C 12.5357 65.6081 11.3919 64.4643 10.3052 63.2254L 8.80207 64.5446ZM 16.5525 71.3462C 17.9714 72.2955 19.4839 73.1717 21.0252 73.9339L 21.9111 72.1408C 20.4286 71.4089 19.0295 70.5984 17.6651 69.6843L 16.5525 71.3462ZM 25.7987 75.9133C 27.4081 76.4589 29.0964 76.9121 30.7922 77.2482L 31.1803 75.2862C 29.55 74.9642 27.9891 74.5452 26.4414 74.0194L 25.7987 75.9133ZM 35.9151 77.9167C 36.7643 77.9715 37.6369 77.9999 38.5 78L 38.5 76C 37.6695 76.0001 36.8613 75.9738 36.0441 75.9209L 35.9151 77.9167ZM 38.5 78C 39.3631 77.9999 40.2357 77.9715 41.0849 77.9167L 40.9559 75.9209C 40.1387 75.9738 39.3305 76.0001 38.5 76L 38.5 78ZM 46.2078 77.2482C 47.9036 76.9121 49.5919 76.4589 51.2013 75.9133L 50.5586 74.0194C 49.0109 74.5452 47.45 74.9642 45.8197 75.2862L 46.2078 77.2482ZM 55.9748 73.9339C 57.5161 73.1717 59.0286 72.2955 60.4475 71.3462L 59.3349 69.6843C 57.9705 70.5984 56.5714 71.4089 55.0888 72.1408L 55.9748 73.9339ZM 64.5446 68.1979C 65.8317 67.0676 67.0676 65.8317 68.1979 64.5446L 66.6948 63.2254C 65.6081 64.4643 64.4643 65.6081 63.2254 66.6948L 64.5446 68.1979ZM 71.3462 60.4475C 72.2955 59.0286 73.1717 57.5161 73.9339 55.9748L 72.1408 55.0889C 71.4089 56.5714 70.5984 57.9705 69.6843 59.3349L 71.3462 60.4475ZM 75.9133 51.2013C 76.4589 49.5919 76.9121 47.9036 77.2482 46.2078L 75.2862 45.8197C 74.9642 47.45 74.5452 49.0109 74.0194 50.5586L 75.9133 51.2013ZM 77.9167 41.0849C 77.9715 40.2357 77.9999 39.3631 78 38.5L 76 38.5C 76.0001 39.3305 75.9738 40.1387 75.9209 40.9559L 77.9167 41.0849Z"/>
<path id="path13_fill" d="M 3.44531 10.0332L 2.73438 10.7441L 2.73438 13L 0.758789 13L 0.758789 2.5L 2.73438 2.5L 2.73438 8.31738L 3.11719 7.8252L 5.01074 5.60352L 7.38281 5.60352L 4.70996 8.68652L 7.61523 13L 5.3457 13L 3.44531 10.0332ZM 18.0059 7.90039L 11.8945 7.90039L 11.8945 6.28711L 18.0059 6.28711L 18.0059 7.90039ZM 18.0059 10.8604L 11.8945 10.8604L 11.8945 9.24707L 18.0059 9.24707L 18.0059 10.8604ZM 23.4336 8.10547L 24.0078 3.04688L 29.5859 3.04688L 29.5859 4.69434L 25.6279 4.69434L 25.3818 6.83398C 25.8512 6.58333 26.3503 6.45801 26.8789 6.45801C 27.8268 6.45801 28.5697 6.75195 29.1074 7.33984C 29.6452 7.92773 29.9141 8.75033 29.9141 9.80762C 29.9141 10.4502 29.7773 11.0267 29.5039 11.5371C 29.235 12.043 28.8477 12.4372 28.3418 12.7197C 27.8359 12.9977 27.2389 13.1367 26.5508 13.1367C 25.9492 13.1367 25.391 13.016 24.876 12.7744C 24.361 12.5283 23.9531 12.1842 23.6523 11.7422C 23.3561 11.3001 23.1989 10.7965 23.1807 10.2314L 25.1357 10.2314C 25.1768 10.6462 25.3203 10.9697 25.5664 11.2021C 25.8171 11.43 26.1429 11.5439 26.5439 11.5439C 26.9906 11.5439 27.3346 11.3844 27.5762 11.0654C 27.8177 10.7419 27.9385 10.2861 27.9385 9.69824C 27.9385 9.13314 27.7995 8.7002 27.5215 8.39941C 27.2435 8.09863 26.8493 7.94824 26.3389 7.94824C 25.8695 7.94824 25.4889 8.07129 25.1973 8.31738L 25.0059 8.49512L 23.4336 8.10547Z"/>
<path id="path14_fill" d="M 108 54C 108 83.8234 83.8234 108 54 108C 24.1766 108 0 83.8234 0 54C 0 24.1766 24.1766 0 54 0C 83.8234 0 108 24.1766 108 54Z"/>
<path id="path15_stroke_2x" d="M 108.5 54C 108.5 53.1052 108.478 52.2093 108.435 51.3251L 107.437 51.3734C 107.479 52.2456 107.5 53.1173 107.5 54L 108.5 54ZM 107.917 46.0008C 107.656 44.2263 107.307 42.4676 106.879 40.7532L 105.909 40.9955C 106.331 42.6862 106.67 44.3965 106.928 46.1464L 107.917 46.0008ZM 105.328 35.6338C 104.725 33.9507 104.038 32.2945 103.279 30.6927L 102.375 31.1209C 103.124 32.7004 103.792 34.311 104.386 35.9708L 105.328 35.6338ZM 100.753 25.9774C 99.835 24.4488 98.837 22.9589 97.7778 21.5327L 96.975 22.129C 98.02 23.5354 98.9907 24.9847 99.8961 26.4924L 100.753 25.9774ZM 94.3823 17.3999C 93.1865 16.0816 91.9184 14.8135 90.6001 13.6177L 89.9283 14.3585C 91.2288 15.5376 92.4624 16.7712 93.6415 18.0717L 94.3823 17.3999ZM 86.4673 10.2222C 85.0411 9.16299 83.5512 8.16498 82.0226 7.24665L 81.5076 8.10389C 83.0153 9.00928 84.4646 9.98003 85.871 11.025L 86.4673 10.2222ZM 77.3073 4.72119C 75.7055 3.96243 74.0493 3.27476 72.3662 2.67225L 72.0292 3.61378C 73.689 4.20758 75.2996 4.87633 76.8791 5.62489L 77.3073 4.72119ZM 67.2468 1.12121C 65.5324 0.693261 63.7737 0.344135 61.9992 0.0829525L 61.8536 1.07231C 63.6035 1.32955 65.3138 1.66908 67.0045 2.09142L 67.2468 1.12121ZM 56.6749 -0.435494C 55.7907 -0.478199 54.8948 -0.499963 54 -0.5L 54 0.5C 54.8827 0.499963 55.7544 0.521142 56.6266 0.56334L 56.6749 -0.435494ZM 54 -0.5C 53.1052 -0.499963 52.2093 -0.4782 51.3251 -0.435494L 51.3734 0.56334C 52.2456 0.521142 53.1173 0.499963 54 0.5L 54 -0.5ZM 46.0008 0.0829524C 44.2263 0.344135 42.4676 0.693261 40.7532 1.12121L 40.9955 2.09142C 42.6862 1.66908 44.3965 1.32955 46.1464 1.07231L 46.0008 0.0829524ZM 35.6338 2.67225C 33.9507 3.27475 32.2945 3.96243 30.6927 4.72119L 31.1209 5.62489C 32.7004 4.87633 34.311 4.20758 35.9708 3.61378L 35.6338 2.67225ZM 25.9774 7.24665C 24.4488 8.16498 22.9589 9.16299 21.5327 10.2222L 22.129 11.025C 23.5354 9.98003 24.9847 9.00928 26.4924 8.10389L 25.9774 7.24665ZM 17.3999 13.6177C 16.0816 14.8135 14.8135 16.0816 13.6177 17.3999L 14.3585 18.0717C 15.5376 16.7712 16.7712 15.5376 18.0717 14.3585L 17.3999 13.6177ZM 10.2222 21.5327C 9.16299 22.9589 8.16498 24.4488 7.24665 25.9774L 8.10389 26.4924C 9.00928 24.9847 9.98003 23.5354 11.025 22.129L 10.2222 21.5327ZM 4.72119 30.6927C 3.96243 32.2945 3.27476 33.9507 2.67225 35.6338L 3.61378 35.9708C 4.20758 34.311 4.87633 32.7004 5.62489 31.1209L 4.72119 30.6927ZM 1.12121 40.7532C 0.693261 42.4676 0.344135 44.2263 0.0829525 46.0008L 1.07231 46.1464C 1.32955 44.3965 1.66908 42.6862 2.09142 40.9955L 1.12121 40.7532ZM -0.435494 51.3251C -0.478199 52.2093 -0.499963 53.1052 -0.5 54L 0.5 54C 0.499963 53.1173 0.521142 52.2456 0.56334 51.3734L -0.435494 51.3251ZM -0.5 54C -0.499963 54.8948 -0.4782 55.7907 -0.435494 56.6749L 0.56334 56.6266C 0.521142 55.7544 0.499963 54.8827 0.5 54L -0.5 54ZM 0.0829524 61.9992C 0.344135 63.7737 0.693261 65.5324 1.12121 67.2468L 2.09142 67.0045C 1.66908 65.3138 1.32955 63.6035 1.07231 61.8536L 0.0829524 61.9992ZM 2.67225 72.3662C 3.27475 74.0493 3.96243 75.7055 4.72119 77.3073L 5.62489 76.8791C 4.87633 75.2996 4.20758 73.689 3.61378 72.0292L 2.67225 72.3662ZM 7.24665 82.0226C 8.16498 83.5512 9.16299 85.0411 10.2222 86.4673L 11.025 85.871C 9.98003 84.4646 9.00928 83.0153 8.10389 81.5076L 7.24665 82.0226ZM 13.6177 90.6001C 14.8135 91.9184 16.0816 93.1865 17.3999 94.3823L 18.0717 93.6415C 16.7712 92.4624 15.5376 91.2288 14.3585 89.9283L 13.6177 90.6001ZM 21.5327 97.7778C 22.9589 98.837 24.4488 99.835 25.9774 100.753L 26.4924 99.8961C 24.9847 98.9907 23.5354 98.02 22.129 96.975L 21.5327 97.7778ZM 30.6927 103.279C 32.2945 104.038 33.9507 104.725 35.6338 105.328L 35.9708 104.386C 34.311 103.792 32.7004 103.124 31.1209 102.375L 30.6927 103.279ZM 40.7532 106.879C 42.4676 107.307 44.2263 107.656 46.0008 107.917L 46.1464 106.928C 44.3965 106.67 42.6862 106.331 40.9955 105.909L 40.7532 106.879ZM 51.3251 108.435C 52.2093 108.478 53.1052 108.5 54 108.5L 54 107.5C 53.1173 107.5 52.2456 107.479 51.3734 107.437L 51.3251 108.435ZM 54 108.5C 54.8948 108.5 55.7907 108.478 56.6749 108.435L 56.6266 107.437C 55.7544 107.479 54.8827 107.5 54 107.5L 54 108.5ZM 61.9992 107.917C 63.7737 107.656 65.5324 107.307 67.2468 106.879L 67.0045 105.909C 65.3138 106.331 63.6035 106.67 61.8536 106.928L 61.9992 107.917ZM 72.3662 105.328C 74.0493 104.725 75.7055 104.038 77.3073 103.279L 76.8791 102.375C 75.2996 103.124 73.689 103.792 72.0292 104.386L 72.3662 105.328ZM 82.0226 100.753C 83.5512 99.835 85.0411 98.837 86.4673 97.7778L 85.871 96.975C 84.4646 98.02 83.0153 98.9907 81.5076 99.8961L 82.0226 100.753ZM 90.6001 94.3823C 91.9184 93.1865 93.1865 91.9184 94.3823 90.6001L 93.6415 89.9283C 92.4624 91.2288 91.2288 92.4624 89.9283 93.6415L 90.6001 94.3823ZM 97.7778 86.4673C 98.837 85.0411 99.835 83.5512 100.753 82.0226L 99.8961 81.5076C 98.9907 83.0153 98.02 84.4646 96.975 85.871L 97.7778 86.4673ZM 103.279 77.3073C 104.038 75.7055 104.725 74.0493 105.328 72.3662L 104.386 72.0292C 103.792 73.689 103.124 75.2996 102.375 76.8791L 103.279 77.3073ZM 106.879 67.2468C 107.307 65.5324 107.656 63.7737 107.917 61.9992L 106.928 61.8536C 106.67 63.6035 106.331 65.3138 105.909 67.0045L 106.879 67.2468ZM 108.435 56.6749C 108.478 55.7907 108.5 54.8948 108.5 54L 107.5 54C 107.5 54.8827 107.479 55.7544 107.437 56.6266L 108.435 56.6749ZM 109 54C 109 53.0991 108.978 52.1912 108.935 51.301L 106.937 51.3975C 106.979 52.2638 107 53.1234 107 54L 109 54ZM 108.412 45.9281C 108.149 44.1412 107.795 42.3583 107.364 40.6321L 105.423 41.1167C 105.843 42.7955 106.178 44.4816 106.433 46.2191L 108.412 45.9281ZM 105.799 35.4654C 105.192 33.7705 104.495 32.0915 103.731 30.4786L 101.923 31.3349C 102.667 32.9034 103.326 34.4911 103.915 36.1392L 105.799 35.4654ZM 101.182 25.72C 100.257 24.1809 99.2455 22.6706 98.1791 21.2345L 96.5736 22.4272C 97.6115 23.8237 98.5686 25.2526 99.4675 26.7498L 101.182 25.72ZM 94.7526 17.064C 93.5486 15.7368 92.2632 14.4514 90.936 13.2474L 89.5924 14.7289C 90.8839 15.8997 92.1003 17.1161 93.2711 18.4076L 94.7526 17.064ZM 86.7655 9.82086C 85.3294 8.75447 83.8191 7.74283 82.28 6.81802L 81.2502 8.53252C 82.7474 9.43143 84.1763 10.3885 85.5728 11.4264L 86.7655 9.82086ZM 77.5214 4.26934C 75.9085 3.50549 74.2295 2.80834 72.5346 2.20149L 71.8608 4.08455C 73.5089 4.674 75.0966 5.33328 76.6651 6.07674L 77.5214 4.26934ZM 67.3679 0.636106C 65.6417 0.20535 63.8588 -0.148572 62.0719 -0.411724L 61.7809 1.56698C 63.5184 1.82225 65.2045 2.157 66.8833 2.57652L 67.3679 0.636106ZM 56.699 -0.934911C 55.8088 -0.97787 54.9009 -0.999926 54 -1L 54 1C 54.8766 0.999926 55.7362 1.02081 56.6025 1.06276L 56.699 -0.934911ZM 54 -1C 53.0991 -0.999926 52.1912 -0.97787 51.301 -0.934911L 51.3975 1.06276C 52.2638 1.02081 53.1234 0.999926 54 1L 54 -1ZM 45.9281 -0.411724C 44.1412 -0.148572 42.3583 0.20535 40.6321 0.636105L 41.1167 2.57652C 42.7955 2.157 44.4816 1.82225 46.2191 1.56698L 45.9281 -0.411724ZM 35.4654 2.20149C 33.7705 2.80834 32.0915 3.50548 30.4786 4.26934L 31.3349 6.07674C 32.9034 5.33328 34.4911 4.674 36.1392 4.08455L 35.4654 2.20149ZM 25.72 6.81802C 24.1809 7.74283 22.6706 8.75447 21.2345 9.82086L 22.4272 11.4264C 23.8237 10.3885 25.2526 9.43143 26.7498 8.53252L 25.72 6.81802ZM 17.064 13.2474C 15.7368 14.4514 14.4514 15.7368 13.2474 17.064L 14.7289 18.4076C 15.8997 17.1161 17.1161 15.8997 18.4076 14.7289L 17.064 13.2474ZM 9.82086 21.2345C 8.75447 22.6706 7.74283 24.1809 6.81802 25.72L 8.53252 26.7498C 9.43143 25.2526 10.3885 23.8237 11.4264 22.4272L 9.82086 21.2345ZM 4.26934 30.4786C 3.50549 32.0915 2.80834 33.7705 2.20149 35.4654L 4.08455 36.1392C 4.674 34.4911 5.33328 32.9034 6.07674 31.3349L 4.26934 30.4786ZM 0.636106 40.6321C 0.20535 42.3583 -0.148572 44.1412 -0.411724 45.9281L 1.56698 46.2191C 1.82225 44.4816 2.157 42.7955 2.57652 41.1167L 0.636106 40.6321ZM -0.934911 51.301C -0.97787 52.1912 -0.999926 53.0991 -1 54L 1 54C 0.999926 53.1234 1.02081 52.2638 1.06276 51.3975L -0.934911 51.301ZM -1 54C -0.999926 54.9009 -0.97787 55.8088 -0.934911 56.699L 1.06276 56.6025C 1.02081 55.7362 0.999926 54.8766 1 54L -1 54ZM -0.411724 62.0719C -0.148572 63.8588 0.20535 65.6417 0.636105 67.3679L 2.57652 66.8833C 2.157 65.2045 1.82225 63.5184 1.56698 61.7809L -0.411724 62.0719ZM 2.20149 72.5346C 2.80834 74.2295 3.50548 75.9085 4.26934 77.5214L 6.07674 76.6651C 5.33328 75.0966 4.674 73.5089 4.08455 71.8608L 2.20149 72.5346ZM 6.81802 82.28C 7.74283 83.8191 8.75447 85.3294 9.82086 86.7655L 11.4264 85.5728C 10.3885 84.1763 9.43143 82.7474 8.53252 81.2502L 6.81802 82.28ZM 13.2474 90.936C 14.4514 92.2632 15.7368 93.5486 17.064 94.7526L 18.4076 93.2711C 17.1161 92.1003 15.8997 90.8839 14.7289 89.5924L 13.2474 90.936ZM 21.2345 98.1791C 22.6706 99.2455 24.1809 100.257 25.72 101.182L 26.7498 99.4675C 25.2526 98.5686 23.8237 97.6115 22.4272 96.5736L 21.2345 98.1791ZM 30.4786 103.731C 32.0915 104.495 33.7705 105.192 35.4654 105.799L 36.1392 103.915C 34.4911 103.326 32.9034 102.667 31.3349 101.923L 30.4786 103.731ZM 40.6321 107.364C 42.3583 107.795 44.1412 108.149 45.9281 108.412L 46.2191 106.433C 44.4816 106.178 42.7955 105.843 41.1167 105.423L 40.6321 107.364ZM 51.301 108.935C 52.1912 108.978 53.0991 109 54 109L 54 107C 53.1234 107 52.2638 106.979 51.3975 106.937L 51.301 108.935ZM 54 109C 54.9009 109 55.8088 108.978 56.699 108.935L 56.6025 106.937C 55.7362 106.979 54.8766 107 54 107L 54 109ZM 62.0719 108.412C 63.8588 108.149 65.6417 107.795 67.3679 107.364L 66.8833 105.423C 65.2045 105.843 63.5184 106.178 61.7809 106.433L 62.0719 108.412ZM 72.5346 105.799C 74.2295 105.192 75.9085 104.495 77.5214 103.731L 76.6651 101.923C 75.0966 102.667 73.5089 103.326 71.8608 103.915L 72.5346 105.799ZM 82.28 101.182C 83.8191 100.257 85.3294 99.2455 86.7655 98.1791L 85.5728 96.5736C 84.1763 97.6115 82.7474 98.5686 81.2502 99.4675L 82.28 101.182ZM 90.936 94.7526C 92.2632 93.5486 93.5486 92.2632 94.7526 90.936L 93.2711 89.5924C 92.1003 90.8839 90.8839 92.1003 89.5924 93.2711L 90.936 94.7526ZM 98.1791 86.7655C 99.2455 85.3294 100.257 83.8191 101.182 82.28L 99.4675 81.2502C 98.5686 82.7474 97.6115 84.1763 96.5736 85.5728L 98.1791 86.7655ZM 103.731 77.5214C 104.495 75.9085 105.192 74.2295 105.799 72.5346L 103.915 71.8608C 103.326 73.5089 102.667 75.0966 101.923 76.6651L 103.731 77.5214ZM 107.364 67.3679C 107.795 65.6417 108.149 63.8588 108.412 62.0719L 106.433 61.7809C 106.178 63.5184 105.843 65.2045 105.423 66.8833L 107.364 67.3679ZM 108.935 56.699C 108.978 55.8088 109 54.9009 109 54L 107 54C 107 54.8766 106.979 55.7362 106.937 56.6025L 108.935 56.699Z"/>
</defs>
</svg>
