<svg width="432" height="150" viewBox="0 0 432 150" version="1.1" xmlns="http://www.w3.org/2000/svg" xmlns:xlink="http://www.w3.org/1999/xlink">
<title>Group.svg</title>
<desc>Created using Figma</desc>
<g id="Canvas" transform="translate(295 130)">
<g id="Group">
<g id="Number">
<use xlink:href="#path0_fill" transform="translate(-287 -133)"/>
</g>
<g id="Base 10 Expansion">
<use xlink:href="#path1_fill" transform="translate(-116 -133)"/>
</g>
<g id="008">
<use xlink:href="#path2_fill" transform="translate(-276 -92)" fill="#EB5757"/>
</g>
<g id="091">
<use xlink:href="#path3_fill" transform="translate(-276 -54)" fill="#EB5757"/>
</g>
<g id="453">
<use xlink:href="#path4_fill" transform="translate(-277 -15)" fill="#EB5757"/>
</g>
<g id="0 * (10^2) + 0 * (10^1) + 8 * (10^0)">
<use xlink:href="#path5_fill" transform="translate(-189 -92)"/>
<use xlink:href="#path6_fill" transform="translate(-189 -92)" fill="#EB5757"/>
</g>
<g id="0 * (10^2) + 9 * (10^1) + 1 * (10^0)">
<use xlink:href="#path7_fill" transform="translate(-189 -54)"/>
<use xlink:href="#path8_fill" transform="translate(-189 -54)" fill="#EB5757"/>
</g>
<g id="4 * (10^2) + 5 * (10^1) + 3 * (10^0)">
<use xlink:href="#path9_fill" transform="translate(-189 -15)"/>
<use xlink:href="#path10_fill" transform="translate(-189 -15)" fill="#EB5757"/>
</g>
<g id="Line 3">
<use xlink:href="#path11_stroke" transform="translate(-295 -105)"/>
</g>
<g id="Line 3">
<use xlink:href="#path12_stroke" transform="translate(-294 -62)"/>
</g>
<g id="Line 3">
<use xlink:href="#path12_stroke" transform="translate(-295 -25)"/>
</g>
<g id="Line 4">
<use xlink:href="#path13_stroke" transform="matrix(6.12323e-17 1 -1 6.12323e-17 -295 -105)"/>
</g>
<g id="Line 4">
<use xlink:href="#path14_stroke" transform="matrix(6.12323e-17 1 -1 6.12323e-17 -224 -105)"/>
</g>
<g id="Line 3">
<use xlink:href="#path11_stroke" transform="translate(-295 20)"/>
</g>
<g id="Line 4">
<use xlink:href="#path15_stroke" transform="matrix(5.89881e-17 1 -1 6.59195e-17 135 -105)"/>
</g>
</g>
</g>
<defs>
<path id="path0_fill" d="M 10.0625 15L 8.55469 15L 2.82812 6.23438L 2.82812 15L 1.32031 15L 1.32031 3.625L 2.82812 3.625L 8.57031 12.4297L 8.57031 3.625L 10.0625 3.625L 10.0625 15ZM 17.7188 14.1641C 17.1562 14.8255 16.3307 15.1562 15.2422 15.1562C 14.3411 15.1562 13.6536 14.8958 13.1797 14.375C 12.7109 13.849 12.474 13.0729 12.4688 12.0469L 12.4688 6.54688L 13.9141 6.54688L 13.9141 12.0078C 13.9141 13.2891 14.4349 13.9297 15.4766 13.9297C 16.5807 13.9297 17.3151 13.5182 17.6797 12.6953L 17.6797 6.54688L 19.125 6.54688L 19.125 15L 17.75 15L 17.7188 14.1641ZM 22.6875 6.54688L 22.7266 7.48438C 23.3464 6.75521 24.1823 6.39062 25.2344 6.39062C 26.4167 6.39062 27.2214 6.84375 27.6484 7.75C 27.9297 7.34375 28.2943 7.01562 28.7422 6.76562C 29.1953 6.51562 29.7292 6.39062 30.3438 6.39062C 32.1979 6.39062 33.1406 7.3724 33.1719 9.33594L 33.1719 15L 31.7266 15L 31.7266 9.42188C 31.7266 8.81771 31.5885 8.36719 31.3125 8.07031C 31.0365 7.76823 30.5729 7.61719 29.9219 7.61719C 29.3854 7.61719 28.9401 7.77865 28.5859 8.10156C 28.2318 8.41927 28.026 8.84896 27.9688 9.39062L 27.9688 15L 26.5156 15L 26.5156 9.46094C 26.5156 8.23177 25.9141 7.61719 24.7109 7.61719C 23.763 7.61719 23.1146 8.02083 22.7656 8.82812L 22.7656 15L 21.3203 15L 21.3203 6.54688L 22.6875 6.54688ZM 42.5156 10.8672C 42.5156 12.1589 42.2188 13.1979 41.625 13.9844C 41.0312 14.7656 40.2344 15.1562 39.2344 15.1562C 38.1667 15.1562 37.3411 14.7786 36.7578 14.0234L 36.6875 15L 35.3594 15L 35.3594 3L 36.8047 3L 36.8047 7.47656C 37.388 6.7526 38.1927 6.39062 39.2188 6.39062C 40.2448 6.39062 41.0495 6.77865 41.6328 7.55469C 42.2214 8.33073 42.5156 9.39323 42.5156 10.7422L 42.5156 10.8672ZM 41.0703 10.7031C 41.0703 9.71875 40.8802 8.95833 40.5 8.42188C 40.1198 7.88542 39.5729 7.61719 38.8594 7.61719C 37.9062 7.61719 37.2214 8.0599 36.8047 8.94531L 36.8047 12.6016C 37.2474 13.487 37.9375 13.9297 38.875 13.9297C 39.5677 13.9297 40.1068 13.6615 40.4922 13.125C 40.8776 12.5885 41.0703 11.7812 41.0703 10.7031ZM 47.8516 15.1562C 46.7057 15.1562 45.7734 14.7812 45.0547 14.0312C 44.3359 13.276 43.9766 12.2682 43.9766 11.0078L 43.9766 10.7422C 43.9766 9.90365 44.1354 9.15625 44.4531 8.5C 44.776 7.83854 45.224 7.32292 45.7969 6.95312C 46.375 6.57812 47 6.39062 47.6719 6.39062C 48.7708 6.39062 49.625 6.7526 50.2344 7.47656C 50.8438 8.20052 51.1484 9.23698 51.1484 10.5859L 51.1484 11.1875L 45.4219 11.1875C 45.4427 12.0208 45.6849 12.6953 46.1484 13.2109C 46.6172 13.7214 47.2109 13.9766 47.9297 13.9766C 48.4401 13.9766 48.8724 13.8724 49.2266 13.6641C 49.5807 13.4557 49.8906 13.1797 50.1562 12.8359L 51.0391 13.5234C 50.3307 14.612 49.2682 15.1562 47.8516 15.1562ZM 47.6719 7.57812C 47.0885 7.57812 46.599 7.79167 46.2031 8.21875C 45.8073 8.64062 45.5625 9.23438 45.4688 10L 49.7031 10L 49.7031 9.89062C 49.6615 9.15625 49.4635 8.58854 49.1094 8.1875C 48.7552 7.78125 48.276 7.57812 47.6719 7.57812ZM 56.9141 7.84375C 56.6953 7.80729 56.4583 7.78906 56.2031 7.78906C 55.2552 7.78906 54.612 8.19271 54.2734 9L 54.2734 15L 52.8281 15L 52.8281 6.54688L 54.2344 6.54688L 54.2578 7.52344C 54.7318 6.76823 55.4036 6.39062 56.2734 6.39062C 56.5547 6.39062 56.7682 6.42708 56.9141 6.5L 56.9141 7.84375Z"/>
<path id="path1_fill" d="M 1.32031 15L 1.32031 3.625L 5.03906 3.625C 6.27344 3.625 7.20052 3.88021 7.82031 4.39062C 8.44531 4.90104 8.75781 5.65625 8.75781 6.65625C 8.75781 7.1875 8.60677 7.65885 8.30469 8.07031C 8.0026 8.47656 7.59115 8.79167 7.07031 9.01562C 7.6849 9.1875 8.16927 9.51562 8.52344 10C 8.88281 10.4792 9.0625 11.0521 9.0625 11.7188C 9.0625 12.7396 8.73177 13.5417 8.07031 14.125C 7.40885 14.7083 6.47396 15 5.26562 15L 1.32031 15ZM 2.82031 9.67969L 2.82031 13.7734L 5.29688 13.7734C 5.99479 13.7734 6.54427 13.5938 6.94531 13.2344C 7.35156 12.8698 7.55469 12.3698 7.55469 11.7344C 7.55469 10.3646 6.8099 9.67969 5.32031 9.67969L 2.82031 9.67969ZM 2.82031 8.47656L 5.08594 8.47656C 5.74219 8.47656 6.26562 8.3125 6.65625 7.98438C 7.05208 7.65625 7.25 7.21094 7.25 6.64844C 7.25 6.02344 7.06771 5.57031 6.70312 5.28906C 6.33854 5.0026 5.78385 4.85938 5.03906 4.85938L 2.82031 4.85938L 2.82031 8.47656ZM 16.2812 15C 16.1979 14.8333 16.1302 14.5365 16.0781 14.1094C 15.4062 14.8073 14.6042 15.1562 13.6719 15.1562C 12.8385 15.1562 12.1536 14.9219 11.6172 14.4531C 11.0859 13.9792 10.8203 13.3802 10.8203 12.6562C 10.8203 11.776 11.1536 11.0938 11.8203 10.6094C 12.4922 10.1198 13.4349 9.875 14.6484 9.875L 16.0547 9.875L 16.0547 9.21094C 16.0547 8.70573 15.9036 8.30469 15.6016 8.00781C 15.2995 7.70573 14.8542 7.55469 14.2656 7.55469C 13.75 7.55469 13.3177 7.6849 12.9688 7.94531C 12.6198 8.20573 12.4453 8.52083 12.4453 8.89062L 10.9922 8.89062C 10.9922 8.46875 11.1406 8.0625 11.4375 7.67188C 11.7396 7.27604 12.1458 6.96354 12.6562 6.73438C 13.1719 6.50521 13.737 6.39062 14.3516 6.39062C 15.3255 6.39062 16.0885 6.63542 16.6406 7.125C 17.1927 7.60938 17.4792 8.27865 17.5 9.13281L 17.5 13.0234C 17.5 13.7995 17.599 14.4167 17.7969 14.875L 17.7969 15L 16.2812 15ZM 13.8828 13.8984C 14.3359 13.8984 14.7656 13.7812 15.1719 13.5469C 15.5781 13.3125 15.8724 13.0078 16.0547 12.6328L 16.0547 10.8984L 14.9219 10.8984C 13.151 10.8984 12.2656 11.4167 12.2656 12.4531C 12.2656 12.9062 12.4167 13.2604 12.7188 13.5156C 13.0208 13.7708 13.4089 13.8984 13.8828 13.8984ZM 24.6875 12.7578C 24.6875 12.3672 24.5391 12.0651 24.2422 11.8516C 23.9505 11.6328 23.4375 11.4453 22.7031 11.2891C 21.974 11.1328 21.3932 10.9453 20.9609 10.7266C 20.5339 10.5078 20.2161 10.2474 20.0078 9.94531C 19.8047 9.64323 19.7031 9.28385 19.7031 8.86719C 19.7031 8.17448 19.9948 7.58854 20.5781 7.10938C 21.1667 6.63021 21.9167 6.39062 22.8281 6.39062C 23.7865 6.39062 24.5625 6.63802 25.1562 7.13281C 25.7552 7.6276 26.0547 8.26042 26.0547 9.03125L 24.6016 9.03125C 24.6016 8.63542 24.4323 8.29427 24.0938 8.00781C 23.7604 7.72135 23.3385 7.57812 22.8281 7.57812C 22.3021 7.57812 21.8906 7.69271 21.5938 7.92188C 21.2969 8.15104 21.1484 8.45052 21.1484 8.82031C 21.1484 9.16927 21.2865 9.43229 21.5625 9.60938C 21.8385 9.78646 22.3359 9.95573 23.0547 10.1172C 23.7786 10.2786 24.3646 10.4714 24.8125 10.6953C 25.2604 10.9193 25.5911 11.1901 25.8047 11.5078C 26.0234 11.8203 26.1328 12.2031 26.1328 12.6562C 26.1328 13.4115 25.8307 14.0182 25.2266 14.4766C 24.6224 14.9297 23.8385 15.1562 22.875 15.1562C 22.1979 15.1562 21.599 15.0365 21.0781 14.7969C 20.5573 14.5573 20.1484 14.224 19.8516 13.7969C 19.5599 13.3646 19.4141 12.8984 19.4141 12.3984L 20.8594 12.3984C 20.8854 12.8828 21.0781 13.2682 21.4375 13.5547C 21.8021 13.8359 22.2812 13.9766 22.875 13.9766C 23.4219 13.9766 23.8594 13.8672 24.1875 13.6484C 24.5208 13.4245 24.6875 13.1276 24.6875 12.7578ZM 31.5234 15.1562C 30.3776 15.1562 29.4453 14.7812 28.7266 14.0312C 28.0078 13.276 27.6484 12.2682 27.6484 11.0078L 27.6484 10.7422C 27.6484 9.90365 27.8073 9.15625 28.125 8.5C 28.4479 7.83854 28.8958 7.32292 29.4688 6.95312C 30.0469 6.57812 30.6719 6.39062 31.3438 6.39062C 32.4427 6.39062 33.2969 6.7526 33.9062 7.47656C 34.5156 8.20052 34.8203 9.23698 34.8203 10.5859L 34.8203 11.1875L 29.0938 11.1875C 29.1146 12.0208 29.3568 12.6953 29.8203 13.2109C 30.2891 13.7214 30.8828 13.9766 31.6016 13.9766C 32.112 13.9766 32.5443 13.8724 32.8984 13.6641C 33.2526 13.4557 33.5625 13.1797 33.8281 12.8359L 34.7109 13.5234C 34.0026 14.612 32.9401 15.1562 31.5234 15.1562ZM 31.3438 7.57812C 30.7604 7.57812 30.2708 7.79167 29.875 8.21875C 29.4792 8.64062 29.2344 9.23438 29.1406 10L 33.375 10L 33.375 9.89062C 33.3333 9.15625 33.1354 8.58854 32.7812 8.1875C 32.4271 7.78125 31.9479 7.57812 31.3438 7.57812ZM 45.0703 15L 43.6172 15L 43.6172 5.36719L 40.7031 6.4375L 40.7031 5.125L 44.8438 3.57031L 45.0703 3.57031L 45.0703 15ZM 56.4375 10.1484C 56.4375 11.8411 56.1484 13.099 55.5703 13.9219C 54.9922 14.7448 54.0885 15.1562 52.8594 15.1562C 51.6458 15.1562 50.7474 14.7552 50.1641 13.9531C 49.5807 13.1458 49.2786 11.9427 49.2578 10.3438L 49.2578 8.41406C 49.2578 6.74219 49.5469 5.5 50.125 4.6875C 50.7031 3.875 51.6094 3.46875 52.8438 3.46875C 54.0677 3.46875 54.9688 3.86198 55.5469 4.64844C 56.125 5.42969 56.4219 6.63802 56.4375 8.27344L 56.4375 10.1484ZM 54.9922 8.17188C 54.9922 6.94792 54.8203 6.05729 54.4766 5.5C 54.1328 4.9375 53.5885 4.65625 52.8438 4.65625C 52.1042 4.65625 51.5651 4.9349 51.2266 5.49219C 50.888 6.04948 50.7135 6.90625 50.7031 8.0625L 50.7031 10.375C 50.7031 11.6042 50.8802 12.513 51.2344 13.1016C 51.5938 13.6849 52.1354 13.9766 52.8594 13.9766C 53.5729 13.9766 54.1016 13.7005 54.4453 13.1484C 54.7943 12.5964 54.9766 11.7266 54.9922 10.5391L 54.9922 8.17188ZM 69.0625 9.74219L 64.1328 9.74219L 64.1328 13.7734L 69.8594 13.7734L 69.8594 15L 62.6328 15L 62.6328 3.625L 69.7812 3.625L 69.7812 4.85938L 64.1328 4.85938L 64.1328 8.51562L 69.0625 8.51562L 69.0625 9.74219ZM 74.3359 9.63281L 76.2109 6.54688L 77.8984 6.54688L 75.1328 10.7266L 77.9844 15L 76.3125 15L 74.3594 11.8359L 72.4062 15L 70.7266 15L 73.5781 10.7266L 70.8125 6.54688L 72.4844 6.54688L 74.3359 9.63281ZM 86.5781 10.8672C 86.5781 12.1536 86.2839 13.1901 85.6953 13.9766C 85.1068 14.763 84.3099 15.1562 83.3047 15.1562C 82.2786 15.1562 81.4714 14.8307 80.8828 14.1797L 80.8828 18.25L 79.4375 18.25L 79.4375 6.54688L 80.7578 6.54688L 80.8281 7.48438C 81.4167 6.75521 82.2344 6.39062 83.2812 6.39062C 84.2969 6.39062 85.099 6.77344 85.6875 7.53906C 86.2812 8.30469 86.5781 9.36979 86.5781 10.7344L 86.5781 10.8672ZM 85.1328 10.7031C 85.1328 9.75 84.9297 8.9974 84.5234 8.44531C 84.1172 7.89323 83.5599 7.61719 82.8516 7.61719C 81.9766 7.61719 81.3203 8.00521 80.8828 8.78125L 80.8828 12.8203C 81.3151 13.5911 81.9766 13.9766 82.8672 13.9766C 83.5599 13.9766 84.1094 13.7031 84.5156 13.1562C 84.9271 12.6042 85.1328 11.7865 85.1328 10.7031ZM 93.6406 15C 93.5573 14.8333 93.4896 14.5365 93.4375 14.1094C 92.7656 14.8073 91.9635 15.1562 91.0312 15.1562C 90.1979 15.1562 89.513 14.9219 88.9766 14.4531C 88.4453 13.9792 88.1797 13.3802 88.1797 12.6562C 88.1797 11.776 88.513 11.0938 89.1797 10.6094C 89.8516 10.1198 90.7943 9.875 92.0078 9.875L 93.4141 9.875L 93.4141 9.21094C 93.4141 8.70573 93.263 8.30469 92.9609 8.00781C 92.6589 7.70573 92.2135 7.55469 91.625 7.55469C 91.1094 7.55469 90.6771 7.6849 90.3281 7.94531C 89.9792 8.20573 89.8047 8.52083 89.8047 8.89062L 88.3516 8.89062C 88.3516 8.46875 88.5 8.0625 88.7969 7.67188C 89.099 7.27604 89.5052 6.96354 90.0156 6.73438C 90.5312 6.50521 91.0964 6.39062 91.7109 6.39062C 92.6849 6.39062 93.4479 6.63542 94 7.125C 94.5521 7.60938 94.8385 8.27865 94.8594 9.13281L 94.8594 13.0234C 94.8594 13.7995 94.9583 14.4167 95.1562 14.875L 95.1562 15L 93.6406 15ZM 91.2422 13.8984C 91.6953 13.8984 92.125 13.7812 92.5312 13.5469C 92.9375 13.3125 93.2318 13.0078 93.4141 12.6328L 93.4141 10.8984L 92.2812 10.8984C 90.5104 10.8984 89.625 11.4167 89.625 12.4531C 89.625 12.9062 89.776 13.2604 90.0781 13.5156C 90.3802 13.7708 90.7682 13.8984 91.2422 13.8984ZM 98.4922 6.54688L 98.5391 7.60938C 99.1849 6.79688 100.029 6.39062 101.07 6.39062C 102.857 6.39062 103.758 7.39844 103.773 9.41406L 103.773 15L 102.328 15L 102.328 9.40625C 102.323 8.79688 102.182 8.34635 101.906 8.05469C 101.635 7.76302 101.211 7.61719 100.633 7.61719C 100.164 7.61719 99.7526 7.74219 99.3984 7.99219C 99.0443 8.24219 98.7682 8.57031 98.5703 8.97656L 98.5703 15L 97.125 15L 97.125 6.54688L 98.4922 6.54688ZM 110.875 12.7578C 110.875 12.3672 110.727 12.0651 110.43 11.8516C 110.138 11.6328 109.625 11.4453 108.891 11.2891C 108.161 11.1328 107.581 10.9453 107.148 10.7266C 106.721 10.5078 106.404 10.2474 106.195 9.94531C 105.992 9.64323 105.891 9.28385 105.891 8.86719C 105.891 8.17448 106.182 7.58854 106.766 7.10938C 107.354 6.63021 108.104 6.39062 109.016 6.39062C 109.974 6.39062 110.75 6.63802 111.344 7.13281C 111.943 7.6276 112.242 8.26042 112.242 9.03125L 110.789 9.03125C 110.789 8.63542 110.62 8.29427 110.281 8.00781C 109.948 7.72135 109.526 7.57812 109.016 7.57812C 108.49 7.57812 108.078 7.69271 107.781 7.92188C 107.484 8.15104 107.336 8.45052 107.336 8.82031C 107.336 9.16927 107.474 9.43229 107.75 9.60938C 108.026 9.78646 108.523 9.95573 109.242 10.1172C 109.966 10.2786 110.552 10.4714 111 10.6953C 111.448 10.9193 111.779 11.1901 111.992 11.5078C 112.211 11.8203 112.32 12.2031 112.32 12.6562C 112.32 13.4115 112.018 14.0182 111.414 14.4766C 110.81 14.9297 110.026 15.1562 109.062 15.1562C 108.385 15.1562 107.786 15.0365 107.266 14.7969C 106.745 14.5573 106.336 14.224 106.039 13.7969C 105.747 13.3646 105.602 12.8984 105.602 12.3984L 107.047 12.3984C 107.073 12.8828 107.266 13.2682 107.625 13.5547C 107.99 13.8359 108.469 13.9766 109.062 13.9766C 109.609 13.9766 110.047 13.8672 110.375 13.6484C 110.708 13.4245 110.875 13.1276 110.875 12.7578ZM 115.773 15L 114.328 15L 114.328 6.54688L 115.773 6.54688L 115.773 15ZM 114.211 4.30469C 114.211 4.07031 114.281 3.8724 114.422 3.71094C 114.568 3.54948 114.781 3.46875 115.062 3.46875C 115.344 3.46875 115.557 3.54948 115.703 3.71094C 115.849 3.8724 115.922 4.07031 115.922 4.30469C 115.922 4.53906 115.849 4.73438 115.703 4.89062C 115.557 5.04688 115.344 5.125 115.062 5.125C 114.781 5.125 114.568 5.04688 114.422 4.89062C 114.281 4.73438 114.211 4.53906 114.211 4.30469ZM 117.711 10.6953C 117.711 9.86719 117.872 9.1224 118.195 8.46094C 118.523 7.79948 118.977 7.28906 119.555 6.92969C 120.138 6.57031 120.802 6.39062 121.547 6.39062C 122.698 6.39062 123.628 6.78906 124.336 7.58594C 125.049 8.38281 125.406 9.44271 125.406 10.7656L 125.406 10.8672C 125.406 11.6901 125.247 12.4297 124.93 13.0859C 124.617 13.737 124.167 14.2448 123.578 14.6094C 122.995 14.974 122.323 15.1562 121.562 15.1562C 120.417 15.1562 119.487 14.7578 118.773 13.9609C 118.065 13.1641 117.711 12.1094 117.711 10.7969L 117.711 10.6953ZM 119.164 10.8672C 119.164 11.8047 119.38 12.5573 119.812 13.125C 120.25 13.6927 120.833 13.9766 121.562 13.9766C 122.297 13.9766 122.88 13.6901 123.312 13.1172C 123.745 12.5391 123.961 11.7318 123.961 10.6953C 123.961 9.76823 123.74 9.01823 123.297 8.44531C 122.859 7.86719 122.276 7.57812 121.547 7.57812C 120.833 7.57812 120.258 7.86198 119.82 8.42969C 119.383 8.9974 119.164 9.8099 119.164 10.8672ZM 128.586 6.54688L 128.633 7.60938C 129.279 6.79688 130.122 6.39062 131.164 6.39062C 132.951 6.39062 133.852 7.39844 133.867 9.41406L 133.867 15L 132.422 15L 132.422 9.40625C 132.417 8.79688 132.276 8.34635 132 8.05469C 131.729 7.76302 131.305 7.61719 130.727 7.61719C 130.258 7.61719 129.846 7.74219 129.492 7.99219C 129.138 8.24219 128.862 8.57031 128.664 8.97656L 128.664 15L 127.219 15L 127.219 6.54688L 128.586 6.54688Z"/>
<path id="path2_fill" d="M 9.08789 11.542C 9.08789 13.4463 8.7627 14.8613 8.1123 15.7871C 7.46191 16.7129 6.44531 17.1758 5.0625 17.1758C 3.69727 17.1758 2.68652 16.7246 2.03027 15.8223C 1.37402 14.9141 1.03418 13.5605 1.01074 11.7617L 1.01074 9.59082C 1.01074 7.70996 1.33594 6.3125 1.98633 5.39844C 2.63672 4.48438 3.65625 4.02734 5.04492 4.02734C 6.42188 4.02734 7.43555 4.46973 8.08594 5.35449C 8.73633 6.2334 9.07031 7.59277 9.08789 9.43262L 9.08789 11.542ZM 7.46191 9.31836C 7.46191 7.94141 7.26855 6.93945 6.88184 6.3125C 6.49512 5.67969 5.88281 5.36328 5.04492 5.36328C 4.21289 5.36328 3.60645 5.67676 3.22559 6.30371C 2.84473 6.93066 2.64844 7.89453 2.63672 9.19531L 2.63672 11.7969C 2.63672 13.1797 2.83594 14.2021 3.23438 14.8643C 3.63867 15.5205 4.24805 15.8486 5.0625 15.8486C 5.86523 15.8486 6.45996 15.5381 6.84668 14.917C 7.23926 14.2959 7.44434 13.3174 7.46191 11.9814L 7.46191 9.31836ZM 19.1953 11.542C 19.1953 13.4463 18.8701 14.8613 18.2197 15.7871C 17.5693 16.7129 16.5527 17.1758 15.1699 17.1758C 13.8047 17.1758 12.7939 16.7246 12.1377 15.8223C 11.4814 14.9141 11.1416 13.5605 11.1182 11.7617L 11.1182 9.59082C 11.1182 7.70996 11.4434 6.3125 12.0938 5.39844C 12.7441 4.48438 13.7637 4.02734 15.1523 4.02734C 16.5293 4.02734 17.543 4.46973 18.1934 5.35449C 18.8438 6.2334 19.1777 7.59277 19.1953 9.43262L 19.1953 11.542ZM 17.5693 9.31836C 17.5693 7.94141 17.376 6.93945 16.9893 6.3125C 16.6025 5.67969 15.9902 5.36328 15.1523 5.36328C 14.3203 5.36328 13.7139 5.67676 13.333 6.30371C 12.9521 6.93066 12.7559 7.89453 12.7441 9.19531L 12.7441 11.7969C 12.7441 13.1797 12.9434 14.2021 13.3418 14.8643C 13.7461 15.5205 14.3555 15.8486 15.1699 15.8486C 15.9727 15.8486 16.5674 15.5381 16.9541 14.917C 17.3467 14.2959 17.5518 13.3174 17.5693 11.9814L 17.5693 9.31836ZM 29.0391 7.54297C 29.0391 8.18164 28.8691 8.75 28.5293 9.24805C 28.1953 9.74609 27.7412 10.1357 27.167 10.417C 27.835 10.7041 28.3623 11.123 28.749 11.6738C 29.1416 12.2246 29.3379 12.8486 29.3379 13.5459C 29.3379 14.6533 28.9629 15.5352 28.2129 16.1914C 27.4687 16.8477 26.4873 17.1758 25.2686 17.1758C 24.0381 17.1758 23.0508 16.8477 22.3066 16.1914C 21.5684 15.5293 21.1992 14.6475 21.1992 13.5459C 21.1992 12.8545 21.3867 12.2305 21.7617 11.6738C 22.1426 11.1172 22.667 10.6953 23.335 10.4082C 22.7666 10.127 22.3184 9.7373 21.9902 9.23926C 21.6621 8.74121 21.498 8.17578 21.498 7.54297C 21.498 6.46484 21.8437 5.60938 22.5352 4.97656C 23.2266 4.34375 24.1377 4.02734 25.2686 4.02734C 26.3936 4.02734 27.3018 4.34375 27.9932 4.97656C 28.6904 5.60938 29.0391 6.46484 29.0391 7.54297ZM 27.7119 13.5107C 27.7119 12.7959 27.4834 12.2129 27.0264 11.7617C 26.5752 11.3105 25.9834 11.085 25.251 11.085C 24.5186 11.085 23.9297 11.3076 23.4844 11.7529C 23.0449 12.1982 22.8252 12.7842 22.8252 13.5107C 22.8252 14.2373 23.0391 14.8086 23.4668 15.2246C 23.9004 15.6406 24.501 15.8486 25.2686 15.8486C 26.0303 15.8486 26.6279 15.6406 27.0615 15.2246C 27.4951 14.8027 27.7119 14.2314 27.7119 13.5107ZM 25.2686 5.36328C 24.6299 5.36328 24.1113 5.5625 23.7129 5.96094C 23.3203 6.35352 23.124 6.88965 23.124 7.56934C 23.124 8.21973 23.3174 8.74707 23.7041 9.15137C 24.0967 9.5498 24.6182 9.74902 25.2686 9.74902C 25.9189 9.74902 26.4375 9.5498 26.8242 9.15137C 27.2168 8.74707 27.4131 8.21973 27.4131 7.56934C 27.4131 6.91895 27.2109 6.38867 26.8066 5.97852C 26.4023 5.56836 25.8896 5.36328 25.2686 5.36328Z"/>
<path id="path3_fill" d="M 9.08789 11.542C 9.08789 13.4463 8.7627 14.8613 8.1123 15.7871C 7.46191 16.7129 6.44531 17.1758 5.0625 17.1758C 3.69727 17.1758 2.68652 16.7246 2.03027 15.8223C 1.37402 14.9141 1.03418 13.5605 1.01074 11.7617L 1.01074 9.59082C 1.01074 7.70996 1.33594 6.3125 1.98633 5.39844C 2.63672 4.48438 3.65625 4.02734 5.04492 4.02734C 6.42188 4.02734 7.43555 4.46973 8.08594 5.35449C 8.73633 6.2334 9.07031 7.59277 9.08789 9.43262L 9.08789 11.542ZM 7.46191 9.31836C 7.46191 7.94141 7.26855 6.93945 6.88184 6.3125C 6.49512 5.67969 5.88281 5.36328 5.04492 5.36328C 4.21289 5.36328 3.60645 5.67676 3.22559 6.30371C 2.84473 6.93066 2.64844 7.89453 2.63672 9.19531L 2.63672 11.7969C 2.63672 13.1797 2.83594 14.2021 3.23438 14.8643C 3.63867 15.5205 4.24805 15.8486 5.0625 15.8486C 5.86523 15.8486 6.45996 15.5381 6.84668 14.917C 7.23926 14.2959 7.44434 13.3174 7.46191 11.9814L 7.46191 9.31836ZM 17.4023 11.375C 17.0625 11.7793 16.6553 12.1045 16.1807 12.3506C 15.7119 12.5967 15.1963 12.7197 14.6338 12.7197C 13.8955 12.7197 13.251 12.5381 12.7002 12.1748C 12.1553 11.8115 11.7334 11.3018 11.4346 10.6455C 11.1357 9.9834 10.9863 9.25391 10.9863 8.45703C 10.9863 7.60156 11.1475 6.83105 11.4697 6.14551C 11.7979 5.45996 12.2607 4.93555 12.8584 4.57227C 13.4561 4.20898 14.1533 4.02734 14.9502 4.02734C 16.2158 4.02734 17.2119 4.50195 17.9385 5.45117C 18.6709 6.39453 19.0371 7.68359 19.0371 9.31836L 19.0371 9.79297C 19.0371 12.2832 18.5449 14.1025 17.5605 15.251C 16.5762 16.3936 15.0908 16.9795 13.1045 17.0088L 12.7881 17.0088L 12.7881 15.6377L 13.1309 15.6377C 14.4727 15.6143 15.5039 15.2656 16.2246 14.5918C 16.9453 13.9121 17.3379 12.8398 17.4023 11.375ZM 14.8975 11.375C 15.4424 11.375 15.9434 11.208 16.4004 10.874C 16.8633 10.54 17.2002 10.127 17.4111 9.63477L 17.4111 8.98438C 17.4111 7.91797 17.1797 7.05078 16.7168 6.38281C 16.2539 5.71484 15.668 5.38086 14.959 5.38086C 14.2441 5.38086 13.6699 5.65625 13.2363 6.20703C 12.8027 6.75195 12.5859 7.47266 12.5859 8.36914C 12.5859 9.24219 12.7939 9.96289 13.21 10.5312C 13.6318 11.0938 14.1943 11.375 14.8975 11.375ZM 26.6221 17L 24.9873 17L 24.9873 6.16309L 21.709 7.36719L 21.709 5.89062L 26.3672 4.1416L 26.6221 4.1416L 26.6221 17Z"/>
<path id="path4_fill" d="M 7.92773 12.7021L 9.70312 12.7021L 9.70312 14.0293L 7.92773 14.0293L 7.92773 17L 6.29297 17L 6.29297 14.0293L 0.46582 14.0293L 0.46582 13.0713L 6.19629 4.20312L 7.92773 4.20312L 7.92773 12.7021ZM 2.31152 12.7021L 6.29297 12.7021L 6.29297 6.42676L 6.09961 6.77832L 2.31152 12.7021ZM 11.918 10.584L 12.5684 4.20312L 19.125 4.20312L 19.125 5.70605L 13.9482 5.70605L 13.5615 9.19531C 14.1885 8.82617 14.9004 8.6416 15.6973 8.6416C 16.8633 8.6416 17.7891 9.02832 18.4746 9.80176C 19.1602 10.5693 19.5029 11.6094 19.5029 12.9219C 19.5029 14.2402 19.1455 15.2803 18.4307 16.042C 17.7217 16.7979 16.7285 17.1758 15.4512 17.1758C 14.3203 17.1758 13.3975 16.8623 12.6826 16.2354C 11.9678 15.6084 11.5605 14.7412 11.4609 13.6338L 12.999 13.6338C 13.0986 14.3662 13.3594 14.9199 13.7812 15.2949C 14.2031 15.6641 14.7598 15.8486 15.4512 15.8486C 16.207 15.8486 16.7988 15.5908 17.2266 15.0752C 17.6602 14.5596 17.877 13.8477 17.877 12.9395C 17.877 12.084 17.6426 11.3984 17.1738 10.8828C 16.7109 10.3613 16.0928 10.1006 15.3193 10.1006C 14.6104 10.1006 14.0537 10.2559 13.6494 10.5664L 13.2188 10.918L 11.918 10.584ZM 23.6426 9.81055L 24.8643 9.81055C 25.6318 9.79883 26.2354 9.59668 26.6748 9.2041C 27.1143 8.81152 27.334 8.28125 27.334 7.61328C 27.334 6.11328 26.5869 5.36328 25.0928 5.36328C 24.3896 5.36328 23.8271 5.56543 23.4053 5.96973C 22.9893 6.36816 22.7812 6.89844 22.7812 7.56055L 21.1553 7.56055C 21.1553 6.54687 21.5244 5.70605 22.2627 5.03809C 23.0068 4.36426 23.9502 4.02734 25.0928 4.02734C 26.2998 4.02734 27.2461 4.34668 27.9316 4.98535C 28.6172 5.62402 28.96 6.51172 28.96 7.64844C 28.96 8.20508 28.7783 8.74414 28.415 9.26562C 28.0576 9.78711 27.5684 10.1768 26.9473 10.4346C 27.6504 10.6572 28.1924 11.0264 28.5732 11.542C 28.96 12.0576 29.1533 12.6875 29.1533 13.4316C 29.1533 14.5801 28.7783 15.4912 28.0283 16.165C 27.2783 16.8389 26.3027 17.1758 25.1016 17.1758C 23.9004 17.1758 22.9219 16.8506 22.166 16.2002C 21.416 15.5498 21.041 14.6914 21.041 13.625L 22.6758 13.625C 22.6758 14.2988 22.8955 14.8379 23.335 15.2422C 23.7744 15.6465 24.3633 15.8486 25.1016 15.8486C 25.8867 15.8486 26.4873 15.6436 26.9033 15.2334C 27.3193 14.8232 27.5273 14.2344 27.5273 13.4668C 27.5273 12.7227 27.2988 12.1514 26.8418 11.7529C 26.3848 11.3545 25.7256 11.1494 24.8643 11.1377L 23.6426 11.1377L 23.6426 9.81055Z"/>
<path id="path5_fill" d="M 17.4727 8.36035L 14.8184 7.56934L 15.2227 6.24219L 17.877 7.22656L 17.7979 4.20312L 19.1426 4.20312L 19.0547 7.27051L 21.665 6.30371L 22.0693 7.63965L 19.3711 8.43945L 21.1113 10.8213L 20.0215 11.6475L 18.3867 9.11621L 16.8047 11.5859L 15.7061 10.7861L 17.4727 8.36035ZM 27.958 11.8057C 27.958 10.4814 28.1338 9.20996 28.4854 7.99121C 28.8428 6.77246 29.373 5.66504 30.0762 4.66895C 30.7793 3.67285 31.5088 2.96973 32.2646 2.55957L 32.5986 3.63184C 31.7432 4.28809 31.04 5.29004 30.4893 6.6377C 29.9443 7.98535 29.6455 9.49414 29.5928 11.1641L 29.584 11.9111C 29.584 14.1729 29.9971 16.1357 30.8232 17.7998C 31.3213 18.7959 31.9131 19.5752 32.5986 20.1377L 32.2646 21.1309C 31.4854 20.6973 30.7412 19.9707 30.0322 18.9512C 28.6494 16.959 27.958 14.5771 27.958 11.8057ZM 39.3486 17L 37.7139 17L 37.7139 6.16309L 34.4355 7.36719L 34.4355 5.89062L 39.0938 4.1416L 39.3486 4.1416L 39.3486 17ZM 52.1367 11.542C 52.1367 13.4463 51.8115 14.8613 51.1611 15.7871C 50.5107 16.7129 49.4941 17.1758 48.1113 17.1758C 46.7461 17.1758 45.7354 16.7246 45.0791 15.8223C 44.4229 14.9141 44.083 13.5605 44.0596 11.7617L 44.0596 9.59082C 44.0596 7.70996 44.3848 6.3125 45.0352 5.39844C 45.6855 4.48438 46.7051 4.02734 48.0938 4.02734C 49.4707 4.02734 50.4844 4.46973 51.1348 5.35449C 51.7852 6.2334 52.1191 7.59277 52.1367 9.43262L 52.1367 11.542ZM 50.5107 9.31836C 50.5107 7.94141 50.3174 6.93945 49.9307 6.3125C 49.5439 5.67969 48.9316 5.36328 48.0938 5.36328C 47.2617 5.36328 46.6553 5.67676 46.2744 6.30371C 45.8936 6.93066 45.6973 7.89453 45.6855 9.19531L 45.6855 11.7969C 45.6855 13.1797 45.8848 14.2021 46.2832 14.8643C 46.6875 15.5205 47.2969 15.8486 48.1113 15.8486C 48.9141 15.8486 49.5088 15.5381 49.8955 14.917C 50.2881 14.2959 50.4932 13.3174 50.5107 11.9814L 50.5107 9.31836ZM 56.9004 6.35645L 55.2305 10.5928L 53.7188 10.5928L 56.3467 4.20312L 57.4629 4.20312L 60.082 10.5928L 58.5791 10.5928L 56.9004 6.35645ZM 70.1279 17L 61.7432 17L 61.7432 15.8311L 66.1729 10.9092C 66.8291 10.165 67.2803 9.56152 67.5264 9.09863C 67.7783 8.62988 67.9043 8.14648 67.9043 7.64844C 67.9043 6.98047 67.7021 6.43262 67.2979 6.00488C 66.8936 5.57715 66.3545 5.36328 65.6807 5.36328C 64.8721 5.36328 64.2422 5.59473 63.791 6.05762C 63.3457 6.51465 63.123 7.15332 63.123 7.97363L 61.4971 7.97363C 61.4971 6.7959 61.875 5.84375 62.6309 5.11719C 63.3926 4.39063 64.4092 4.02734 65.6807 4.02734C 66.8701 4.02734 67.8105 4.34082 68.502 4.96777C 69.1934 5.58887 69.5391 6.41797 69.5391 7.45508C 69.5391 8.71484 68.7363 10.2148 67.1309 11.9551L 63.7031 15.6729L 70.1279 15.6729L 70.1279 17ZM 75.7705 11.8936C 75.7705 13.2002 75.5977 14.4541 75.252 15.6553C 74.9121 16.8506 74.3877 17.9551 73.6787 18.9688C 72.9756 19.9824 72.2373 20.7031 71.4639 21.1309L 71.1211 20.1377C 72.0234 19.4463 72.7471 18.374 73.292 16.9209C 73.8428 15.4619 74.124 13.8447 74.1357 12.0693L 74.1357 11.7881C 74.1357 10.5576 74.0068 9.41504 73.749 8.36035C 73.4912 7.29981 73.1309 6.35059 72.668 5.5127C 72.2109 4.6748 71.6953 4.02148 71.1211 3.55273L 71.4639 2.55957C 72.2373 2.9873 72.9727 3.70215 73.6699 4.7041C 74.373 5.70605 74.8975 6.81055 75.2432 8.01758C 75.5947 9.22461 75.7705 10.5166 75.7705 11.8936ZM 91.8633 10.1357L 95.4316 10.1357L 95.4316 11.6738L 91.8633 11.6738L 91.8633 15.7168L 90.2285 15.7168L 90.2285 11.6738L 86.6602 11.6738L 86.6602 10.1357L 90.2285 10.1357L 90.2285 6.40039L 91.8633 6.40039L 91.8633 10.1357ZM 122.59 8.36035L 119.936 7.56934L 120.34 6.24219L 122.994 7.22656L 122.915 4.20312L 124.26 4.20312L 124.172 7.27051L 126.782 6.30371L 127.187 7.63965L 124.488 8.43945L 126.229 10.8213L 125.139 11.6475L 123.504 9.11621L 121.922 11.5859L 120.823 10.7861L 122.59 8.36035ZM 133.075 11.8057C 133.075 10.4814 133.251 9.20996 133.603 7.99121C 133.96 6.77246 134.49 5.66504 135.193 4.66895C 135.896 3.67285 136.626 2.96973 137.382 2.55957L 137.716 3.63184C 136.86 4.28809 136.157 5.29004 135.606 6.6377C 135.062 7.98535 134.763 9.49414 134.71 11.1641L 134.701 11.9111C 134.701 14.1729 135.114 16.1357 135.94 17.7998C 136.438 18.7959 137.03 19.5752 137.716 20.1377L 137.382 21.1309C 136.603 20.6973 135.858 19.9707 135.149 18.9512C 133.767 16.959 133.075 14.5771 133.075 11.8057ZM 144.466 17L 142.831 17L 142.831 6.16309L 139.553 7.36719L 139.553 5.89062L 144.211 4.1416L 144.466 4.1416L 144.466 17ZM 157.254 11.542C 157.254 13.4463 156.929 14.8613 156.278 15.7871C 155.628 16.7129 154.611 17.1758 153.229 17.1758C 151.863 17.1758 150.853 16.7246 150.196 15.8223C 149.54 14.9141 149.2 13.5605 149.177 11.7617L 149.177 9.59082C 149.177 7.70996 149.502 6.3125 150.152 5.39844C 150.803 4.48438 151.822 4.02734 153.211 4.02734C 154.588 4.02734 155.602 4.46973 156.252 5.35449C 156.902 6.2334 157.236 7.59277 157.254 9.43262L 157.254 11.542ZM 155.628 9.31836C 155.628 7.94141 155.435 6.93945 155.048 6.3125C 154.661 5.67969 154.049 5.36328 153.211 5.36328C 152.379 5.36328 151.772 5.67676 151.392 6.30371C 151.011 6.93066 150.814 7.89453 150.803 9.19531L 150.803 11.7969C 150.803 13.1797 151.002 14.2021 151.4 14.8643C 151.805 15.5205 152.414 15.8486 153.229 15.8486C 154.031 15.8486 154.626 15.5381 155.013 14.917C 155.405 14.2959 155.61 13.3174 155.628 11.9814L 155.628 9.31836ZM 162.018 6.35645L 160.348 10.5928L 158.836 10.5928L 161.464 4.20312L 162.58 4.20312L 165.199 10.5928L 163.696 10.5928L 162.018 6.35645ZM 172.204 17L 170.569 17L 170.569 6.16309L 167.291 7.36719L 167.291 5.89062L 171.949 4.1416L 172.204 4.1416L 172.204 17ZM 180.888 11.8936C 180.888 13.2002 180.715 14.4541 180.369 15.6553C 180.029 16.8506 179.505 17.9551 178.796 18.9688C 178.093 19.9824 177.354 20.7031 176.581 21.1309L 176.238 20.1377C 177.141 19.4463 177.864 18.374 178.409 16.9209C 178.96 15.4619 179.241 13.8447 179.253 12.0693L 179.253 11.7881C 179.253 10.5576 179.124 9.41504 178.866 8.36035C 178.608 7.29981 178.248 6.35059 177.785 5.5127C 177.328 4.6748 176.813 4.02148 176.238 3.55273L 176.581 2.55957C 177.354 2.9873 178.09 3.70215 178.787 4.7041C 179.49 5.70605 180.015 6.81055 180.36 8.01758C 180.712 9.22461 180.888 10.5166 180.888 11.8936ZM 196.98 10.1357L 200.549 10.1357L 200.549 11.6738L 196.98 11.6738L 196.98 15.7168L 195.346 15.7168L 195.346 11.6738L 191.777 11.6738L 191.777 10.1357L 195.346 10.1357L 195.346 6.40039L 196.98 6.40039L 196.98 10.1357ZM 227.707 8.36035L 225.053 7.56934L 225.457 6.24219L 228.111 7.22656L 228.032 4.20312L 229.377 4.20312L 229.289 7.27051L 231.899 6.30371L 232.304 7.63965L 229.605 8.43945L 231.346 10.8213L 230.256 11.6475L 228.621 9.11621L 227.039 11.5859L 225.94 10.7861L 227.707 8.36035ZM 238.192 11.8057C 238.192 10.4814 238.368 9.20996 238.72 7.99121C 239.077 6.77246 239.607 5.66504 240.311 4.66895C 241.014 3.67285 241.743 2.96973 242.499 2.55957L 242.833 3.63184C 241.978 4.28809 241.274 5.29004 240.724 6.6377C 240.179 7.98535 239.88 9.49414 239.827 11.1641L 239.818 11.9111C 239.818 14.1729 240.231 16.1357 241.058 17.7998C 241.556 18.7959 242.147 19.5752 242.833 20.1377L 242.499 21.1309C 241.72 20.6973 240.976 19.9707 240.267 18.9512C 238.884 16.959 238.192 14.5771 238.192 11.8057ZM 249.583 17L 247.948 17L 247.948 6.16309L 244.67 7.36719L 244.67 5.89062L 249.328 4.1416L 249.583 4.1416L 249.583 17ZM 262.371 11.542C 262.371 13.4463 262.046 14.8613 261.396 15.7871C 260.745 16.7129 259.729 17.1758 258.346 17.1758C 256.98 17.1758 255.97 16.7246 255.313 15.8223C 254.657 14.9141 254.317 13.5605 254.294 11.7617L 254.294 9.59082C 254.294 7.70996 254.619 6.3125 255.27 5.39844C 255.92 4.48438 256.939 4.02734 258.328 4.02734C 259.705 4.02734 260.719 4.46973 261.369 5.35449C 262.02 6.2334 262.354 7.59277 262.371 9.43262L 262.371 11.542ZM 260.745 9.31836C 260.745 7.94141 260.552 6.93945 260.165 6.3125C 259.778 5.67969 259.166 5.36328 258.328 5.36328C 257.496 5.36328 256.89 5.67676 256.509 6.30371C 256.128 6.93066 255.932 7.89453 255.92 9.19531L 255.92 11.7969C 255.92 13.1797 256.119 14.2021 256.518 14.8643C 256.922 15.5205 257.531 15.8486 258.346 15.8486C 259.148 15.8486 259.743 15.5381 260.13 14.917C 260.522 14.2959 260.728 13.3174 260.745 11.9814L 260.745 9.31836ZM 267.135 6.35645L 265.465 10.5928L 263.953 10.5928L 266.581 4.20312L 267.697 4.20312L 270.316 10.5928L 268.813 10.5928L 267.135 6.35645ZM 280.002 11.542C 280.002 13.4463 279.677 14.8613 279.026 15.7871C 278.376 16.7129 277.359 17.1758 275.977 17.1758C 274.611 17.1758 273.601 16.7246 272.944 15.8223C 272.288 14.9141 271.948 13.5605 271.925 11.7617L 271.925 9.59082C 271.925 7.70996 272.25 6.3125 272.9 5.39844C 273.551 4.48438 274.57 4.02734 275.959 4.02734C 277.336 4.02734 278.35 4.46973 279 5.35449C 279.65 6.2334 279.984 7.59277 280.002 9.43262L 280.002 11.542ZM 278.376 9.31836C 278.376 7.94141 278.183 6.93945 277.796 6.3125C 277.409 5.67969 276.797 5.36328 275.959 5.36328C 275.127 5.36328 274.521 5.67676 274.14 6.30371C 273.759 6.93066 273.563 7.89453 273.551 9.19531L 273.551 11.7969C 273.551 13.1797 273.75 14.2021 274.148 14.8643C 274.553 15.5205 275.162 15.8486 275.977 15.8486C 276.779 15.8486 277.374 15.5381 277.761 14.917C 278.153 14.2959 278.358 13.3174 278.376 11.9814L 278.376 9.31836ZM 286.005 11.8936C 286.005 13.2002 285.832 14.4541 285.486 15.6553C 285.146 16.8506 284.622 17.9551 283.913 18.9688C 283.21 19.9824 282.472 20.7031 281.698 21.1309L 281.355 20.1377C 282.258 19.4463 282.981 18.374 283.526 16.9209C 284.077 15.4619 284.358 13.8447 284.37 12.0693L 284.37 11.7881C 284.37 10.5576 284.241 9.41504 283.983 8.36035C 283.726 7.29981 283.365 6.35059 282.902 5.5127C 282.445 4.6748 281.93 4.02148 281.355 3.55273L 281.698 2.55957C 282.472 2.9873 283.207 3.70215 283.904 4.7041C 284.607 5.70605 285.132 6.81055 285.478 8.01758C 285.829 9.22461 286.005 10.5166 286.005 11.8936Z"/>
<path id="path6_fill" d="M 9.08789 11.542C 9.08789 13.4463 8.7627 14.8613 8.1123 15.7871C 7.46191 16.7129 6.44531 17.1758 5.0625 17.1758C 3.69727 17.1758 2.68652 16.7246 2.03027 15.8223C 1.37402 14.9141 1.03418 13.5605 1.01074 11.7617L 1.01074 9.59082C 1.01074 7.70996 1.33594 6.3125 1.98633 5.39844C 2.63672 4.48438 3.65625 4.02734 5.04492 4.02734C 6.42188 4.02734 7.43555 4.46973 8.08594 5.35449C 8.73633 6.2334 9.07031 7.59277 9.08789 9.43262L 9.08789 11.542ZM 7.46191 9.31836C 7.46191 7.94141 7.26855 6.93945 6.88184 6.3125C 6.49512 5.67969 5.88281 5.36328 5.04492 5.36328C 4.21289 5.36328 3.60645 5.67676 3.22559 6.30371C 2.84473 6.93066 2.64844 7.89453 2.63672 9.19531L 2.63672 11.7969C 2.63672 13.1797 2.83594 14.2021 3.23438 14.8643C 3.63867 15.5205 4.24805 15.8486 5.0625 15.8486C 5.86523 15.8486 6.45996 15.5381 6.84668 14.917C 7.23926 14.2959 7.44434 13.3174 7.46191 11.9814L 7.46191 9.31836ZM 114.205 11.542C 114.205 13.4463 113.88 14.8613 113.229 15.7871C 112.579 16.7129 111.562 17.1758 110.18 17.1758C 108.814 17.1758 107.804 16.7246 107.147 15.8223C 106.491 14.9141 106.151 13.5605 106.128 11.7617L 106.128 9.59082C 106.128 7.70996 106.453 6.3125 107.104 5.39844C 107.754 4.48438 108.773 4.02734 110.162 4.02734C 111.539 4.02734 112.553 4.46973 113.203 5.35449C 113.854 6.2334 114.188 7.59277 114.205 9.43262L 114.205 11.542ZM 112.579 9.31836C 112.579 7.94141 112.386 6.93945 111.999 6.3125C 111.612 5.67969 111 5.36328 110.162 5.36328C 109.33 5.36328 108.724 5.67676 108.343 6.30371C 107.962 6.93066 107.766 7.89453 107.754 9.19531L 107.754 11.7969C 107.754 13.1797 107.953 14.2021 108.352 14.8643C 108.756 15.5205 109.365 15.8486 110.18 15.8486C 110.982 15.8486 111.577 15.5381 111.964 14.917C 112.356 14.2959 112.562 13.3174 112.579 11.9814L 112.579 9.31836ZM 219.059 7.54297C 219.059 8.18164 218.889 8.75 218.549 9.24805C 218.215 9.74609 217.761 10.1357 217.187 10.417C 217.854 10.7041 218.382 11.123 218.769 11.6738C 219.161 12.2246 219.357 12.8486 219.357 13.5459C 219.357 14.6533 218.982 15.5352 218.232 16.1914C 217.488 16.8477 216.507 17.1758 215.288 17.1758C 214.058 17.1758 213.07 16.8477 212.326 16.1914C 211.588 15.5293 211.219 14.6475 211.219 13.5459C 211.219 12.8545 211.406 12.2305 211.781 11.6738C 212.162 11.1172 212.687 10.6953 213.354 10.4082C 212.786 10.127 212.338 9.7373 212.01 9.23926C 211.682 8.74121 211.518 8.17578 211.518 7.54297C 211.518 6.46484 211.863 5.60938 212.555 4.97656C 213.246 4.34375 214.157 4.02734 215.288 4.02734C 216.413 4.02734 217.321 4.34375 218.013 4.97656C 218.71 5.60938 219.059 6.46484 219.059 7.54297ZM 217.731 13.5107C 217.731 12.7959 217.503 12.2129 217.046 11.7617C 216.595 11.3105 216.003 11.085 215.271 11.085C 214.538 11.085 213.949 11.3076 213.504 11.7529C 213.064 12.1982 212.845 12.7842 212.845 13.5107C 212.845 14.2373 213.059 14.8086 213.486 15.2246C 213.92 15.6406 214.521 15.8486 215.288 15.8486C 216.05 15.8486 216.647 15.6406 217.081 15.2246C 217.515 14.8027 217.731 14.2314 217.731 13.5107ZM 215.288 5.36328C 214.649 5.36328 214.131 5.5625 213.732 5.96094C 213.34 6.35352 213.144 6.88965 213.144 7.56934C 213.144 8.21973 213.337 8.74707 213.724 9.15137C 214.116 9.5498 214.638 9.74902 215.288 9.74902C 215.938 9.74902 216.457 9.5498 216.844 9.15137C 217.236 8.74707 217.433 8.21973 217.433 7.56934C 217.433 6.91895 217.23 6.38867 216.826 5.97852C 216.422 5.56836 215.909 5.36328 215.288 5.36328Z"/>
<path id="path7_fill" d="M 17.4727 8.36035L 14.8184 7.56934L 15.2227 6.24219L 17.877 7.22656L 17.7979 4.20312L 19.1426 4.20312L 19.0547 7.27051L 21.665 6.30371L 22.0693 7.63965L 19.3711 8.43945L 21.1113 10.8213L 20.0215 11.6475L 18.3867 9.11621L 16.8047 11.5859L 15.7061 10.7861L 17.4727 8.36035ZM 27.958 11.8057C 27.958 10.4814 28.1338 9.20996 28.4854 7.99121C 28.8428 6.77246 29.373 5.66504 30.0762 4.66895C 30.7793 3.67285 31.5088 2.96973 32.2646 2.55957L 32.5986 3.63184C 31.7432 4.28809 31.04 5.29004 30.4893 6.6377C 29.9443 7.98535 29.6455 9.49414 29.5928 11.1641L 29.584 11.9111C 29.584 14.1729 29.9971 16.1357 30.8232 17.7998C 31.3213 18.7959 31.9131 19.5752 32.5986 20.1377L 32.2646 21.1309C 31.4854 20.6973 30.7412 19.9707 30.0322 18.9512C 28.6494 16.959 27.958 14.5771 27.958 11.8057ZM 39.3486 17L 37.7139 17L 37.7139 6.16309L 34.4355 7.36719L 34.4355 5.89062L 39.0938 4.1416L 39.3486 4.1416L 39.3486 17ZM 52.1367 11.542C 52.1367 13.4463 51.8115 14.8613 51.1611 15.7871C 50.5107 16.7129 49.4941 17.1758 48.1113 17.1758C 46.7461 17.1758 45.7354 16.7246 45.0791 15.8223C 44.4229 14.9141 44.083 13.5605 44.0596 11.7617L 44.0596 9.59082C 44.0596 7.70996 44.3848 6.3125 45.0352 5.39844C 45.6855 4.48438 46.7051 4.02734 48.0938 4.02734C 49.4707 4.02734 50.4844 4.46973 51.1348 5.35449C 51.7852 6.2334 52.1191 7.59277 52.1367 9.43262L 52.1367 11.542ZM 50.5107 9.31836C 50.5107 7.94141 50.3174 6.93945 49.9307 6.3125C 49.5439 5.67969 48.9316 5.36328 48.0938 5.36328C 47.2617 5.36328 46.6553 5.67676 46.2744 6.30371C 45.8936 6.93066 45.6973 7.89453 45.6855 9.19531L 45.6855 11.7969C 45.6855 13.1797 45.8848 14.2021 46.2832 14.8643C 46.6875 15.5205 47.2969 15.8486 48.1113 15.8486C 48.9141 15.8486 49.5088 15.5381 49.8955 14.917C 50.2881 14.2959 50.4932 13.3174 50.5107 11.9814L 50.5107 9.31836ZM 56.9004 6.35645L 55.2305 10.5928L 53.7188 10.5928L 56.3467 4.20312L 57.4629 4.20312L 60.082 10.5928L 58.5791 10.5928L 56.9004 6.35645ZM 70.1279 17L 61.7432 17L 61.7432 15.8311L 66.1729 10.9092C 66.8291 10.165 67.2803 9.56152 67.5264 9.09863C 67.7783 8.62988 67.9043 8.14648 67.9043 7.64844C 67.9043 6.98047 67.7021 6.43262 67.2979 6.00488C 66.8936 5.57715 66.3545 5.36328 65.6807 5.36328C 64.8721 5.36328 64.2422 5.59473 63.791 6.05762C 63.3457 6.51465 63.123 7.15332 63.123 7.97363L 61.4971 7.97363C 61.4971 6.7959 61.875 5.84375 62.6309 5.11719C 63.3926 4.39063 64.4092 4.02734 65.6807 4.02734C 66.8701 4.02734 67.8105 4.34082 68.502 4.96777C 69.1934 5.58887 69.5391 6.41797 69.5391 7.45508C 69.5391 8.71484 68.7363 10.2148 67.1309 11.9551L 63.7031 15.6729L 70.1279 15.6729L 70.1279 17ZM 75.7705 11.8936C 75.7705 13.2002 75.5977 14.4541 75.252 15.6553C 74.9121 16.8506 74.3877 17.9551 73.6787 18.9688C 72.9756 19.9824 72.2373 20.7031 71.4639 21.1309L 71.1211 20.1377C 72.0234 19.4463 72.7471 18.374 73.292 16.9209C 73.8428 15.4619 74.124 13.8447 74.1357 12.0693L 74.1357 11.7881C 74.1357 10.5576 74.0068 9.41504 73.749 8.36035C 73.4912 7.29981 73.1309 6.35059 72.668 5.5127C 72.2109 4.6748 71.6953 4.02148 71.1211 3.55273L 71.4639 2.55957C 72.2373 2.9873 72.9727 3.70215 73.6699 4.7041C 74.373 5.70605 74.8975 6.81055 75.2432 8.01758C 75.5947 9.22461 75.7705 10.5166 75.7705 11.8936ZM 91.8633 10.1357L 95.4316 10.1357L 95.4316 11.6738L 91.8633 11.6738L 91.8633 15.7168L 90.2285 15.7168L 90.2285 11.6738L 86.6602 11.6738L 86.6602 10.1357L 90.2285 10.1357L 90.2285 6.40039L 91.8633 6.40039L 91.8633 10.1357ZM 122.59 8.36035L 119.936 7.56934L 120.34 6.24219L 122.994 7.22656L 122.915 4.20312L 124.26 4.20312L 124.172 7.27051L 126.782 6.30371L 127.187 7.63965L 124.488 8.43945L 126.229 10.8213L 125.139 11.6475L 123.504 9.11621L 121.922 11.5859L 120.823 10.7861L 122.59 8.36035ZM 133.075 11.8057C 133.075 10.4814 133.251 9.20996 133.603 7.99121C 133.96 6.77246 134.49 5.66504 135.193 4.66895C 135.896 3.67285 136.626 2.96973 137.382 2.55957L 137.716 3.63184C 136.86 4.28809 136.157 5.29004 135.606 6.6377C 135.062 7.98535 134.763 9.49414 134.71 11.1641L 134.701 11.9111C 134.701 14.1729 135.114 16.1357 135.94 17.7998C 136.438 18.7959 137.03 19.5752 137.716 20.1377L 137.382 21.1309C 136.603 20.6973 135.858 19.9707 135.149 18.9512C 133.767 16.959 133.075 14.5771 133.075 11.8057ZM 144.466 17L 142.831 17L 142.831 6.16309L 139.553 7.36719L 139.553 5.89062L 144.211 4.1416L 144.466 4.1416L 144.466 17ZM 157.254 11.542C 157.254 13.4463 156.929 14.8613 156.278 15.7871C 155.628 16.7129 154.611 17.1758 153.229 17.1758C 151.863 17.1758 150.853 16.7246 150.196 15.8223C 149.54 14.9141 149.2 13.5605 149.177 11.7617L 149.177 9.59082C 149.177 7.70996 149.502 6.3125 150.152 5.39844C 150.803 4.48438 151.822 4.02734 153.211 4.02734C 154.588 4.02734 155.602 4.46973 156.252 5.35449C 156.902 6.2334 157.236 7.59277 157.254 9.43262L 157.254 11.542ZM 155.628 9.31836C 155.628 7.94141 155.435 6.93945 155.048 6.3125C 154.661 5.67969 154.049 5.36328 153.211 5.36328C 152.379 5.36328 151.772 5.67676 151.392 6.30371C 151.011 6.93066 150.814 7.89453 150.803 9.19531L 150.803 11.7969C 150.803 13.1797 151.002 14.2021 151.4 14.8643C 151.805 15.5205 152.414 15.8486 153.229 15.8486C 154.031 15.8486 154.626 15.5381 155.013 14.917C 155.405 14.2959 155.61 13.3174 155.628 11.9814L 155.628 9.31836ZM 162.018 6.35645L 160.348 10.5928L 158.836 10.5928L 161.464 4.20312L 162.58 4.20312L 165.199 10.5928L 163.696 10.5928L 162.018 6.35645ZM 172.204 17L 170.569 17L 170.569 6.16309L 167.291 7.36719L 167.291 5.89062L 171.949 4.1416L 172.204 4.1416L 172.204 17ZM 180.888 11.8936C 180.888 13.2002 180.715 14.4541 180.369 15.6553C 180.029 16.8506 179.505 17.9551 178.796 18.9688C 178.093 19.9824 177.354 20.7031 176.581 21.1309L 176.238 20.1377C 177.141 19.4463 177.864 18.374 178.409 16.9209C 178.96 15.4619 179.241 13.8447 179.253 12.0693L 179.253 11.7881C 179.253 10.5576 179.124 9.41504 178.866 8.36035C 178.608 7.29981 178.248 6.35059 177.785 5.5127C 177.328 4.6748 176.813 4.02148 176.238 3.55273L 176.581 2.55957C 177.354 2.9873 178.09 3.70215 178.787 4.7041C 179.49 5.70605 180.015 6.81055 180.36 8.01758C 180.712 9.22461 180.888 10.5166 180.888 11.8936ZM 196.98 10.1357L 200.549 10.1357L 200.549 11.6738L 196.98 11.6738L 196.98 15.7168L 195.346 15.7168L 195.346 11.6738L 191.777 11.6738L 191.777 10.1357L 195.346 10.1357L 195.346 6.40039L 196.98 6.40039L 196.98 10.1357ZM 227.707 8.36035L 225.053 7.56934L 225.457 6.24219L 228.111 7.22656L 228.032 4.20312L 229.377 4.20312L 229.289 7.27051L 231.899 6.30371L 232.304 7.63965L 229.605 8.43945L 231.346 10.8213L 230.256 11.6475L 228.621 9.11621L 227.039 11.5859L 225.94 10.7861L 227.707 8.36035ZM 238.192 11.8057C 238.192 10.4814 238.368 9.20996 238.72 7.99121C 239.077 6.77246 239.607 5.66504 240.311 4.66895C 241.014 3.67285 241.743 2.96973 242.499 2.55957L 242.833 3.63184C 241.978 4.28809 241.274 5.29004 240.724 6.6377C 240.179 7.98535 239.88 9.49414 239.827 11.1641L 239.818 11.9111C 239.818 14.1729 240.231 16.1357 241.058 17.7998C 241.556 18.7959 242.147 19.5752 242.833 20.1377L 242.499 21.1309C 241.72 20.6973 240.976 19.9707 240.267 18.9512C 238.884 16.959 238.192 14.5771 238.192 11.8057ZM 249.583 17L 247.948 17L 247.948 6.16309L 244.67 7.36719L 244.67 5.89062L 249.328 4.1416L 249.583 4.1416L 249.583 17ZM 262.371 11.542C 262.371 13.4463 262.046 14.8613 261.396 15.7871C 260.745 16.7129 259.729 17.1758 258.346 17.1758C 256.98 17.1758 255.97 16.7246 255.313 15.8223C 254.657 14.9141 254.317 13.5605 254.294 11.7617L 254.294 9.59082C 254.294 7.70996 254.619 6.3125 255.27 5.39844C 255.92 4.48438 256.939 4.02734 258.328 4.02734C 259.705 4.02734 260.719 4.46973 261.369 5.35449C 262.02 6.2334 262.354 7.59277 262.371 9.43262L 262.371 11.542ZM 260.745 9.31836C 260.745 7.94141 260.552 6.93945 260.165 6.3125C 259.778 5.67969 259.166 5.36328 258.328 5.36328C 257.496 5.36328 256.89 5.67676 256.509 6.30371C 256.128 6.93066 255.932 7.89453 255.92 9.19531L 255.92 11.7969C 255.92 13.1797 256.119 14.2021 256.518 14.8643C 256.922 15.5205 257.531 15.8486 258.346 15.8486C 259.148 15.8486 259.743 15.5381 260.13 14.917C 260.522 14.2959 260.728 13.3174 260.745 11.9814L 260.745 9.31836ZM 267.135 6.35645L 265.465 10.5928L 263.953 10.5928L 266.581 4.20312L 267.697 4.20312L 270.316 10.5928L 268.813 10.5928L 267.135 6.35645ZM 280.002 11.542C 280.002 13.4463 279.677 14.8613 279.026 15.7871C 278.376 16.7129 277.359 17.1758 275.977 17.1758C 274.611 17.1758 273.601 16.7246 272.944 15.8223C 272.288 14.9141 271.948 13.5605 271.925 11.7617L 271.925 9.59082C 271.925 7.70996 272.25 6.3125 272.9 5.39844C 273.551 4.48438 274.57 4.02734 275.959 4.02734C 277.336 4.02734 278.35 4.46973 279 5.35449C 279.65 6.2334 279.984 7.59277 280.002 9.43262L 280.002 11.542ZM 278.376 9.31836C 278.376 7.94141 278.183 6.93945 277.796 6.3125C 277.409 5.67969 276.797 5.36328 275.959 5.36328C 275.127 5.36328 274.521 5.67676 274.14 6.30371C 273.759 6.93066 273.563 7.89453 273.551 9.19531L 273.551 11.7969C 273.551 13.1797 273.75 14.2021 274.148 14.8643C 274.553 15.5205 275.162 15.8486 275.977 15.8486C 276.779 15.8486 277.374 15.5381 277.761 14.917C 278.153 14.2959 278.358 13.3174 278.376 11.9814L 278.376 9.31836ZM 286.005 11.8936C 286.005 13.2002 285.832 14.4541 285.486 15.6553C 285.146 16.8506 284.622 17.9551 283.913 18.9688C 283.21 19.9824 282.472 20.7031 281.698 21.1309L 281.355 20.1377C 282.258 19.4463 282.981 18.374 283.526 16.9209C 284.077 15.4619 284.358 13.8447 284.37 12.0693L 284.37 11.7881C 284.37 10.5576 284.241 9.41504 283.983 8.36035C 283.726 7.29981 283.365 6.35059 282.902 5.5127C 282.445 4.6748 281.93 4.02148 281.355 3.55273L 281.698 2.55957C 282.472 2.9873 283.207 3.70215 283.904 4.7041C 284.607 5.70605 285.132 6.81055 285.478 8.01758C 285.829 9.22461 286.005 10.5166 286.005 11.8936Z"/>
<path id="path8_fill" d="M 9.08789 11.542C 9.08789 13.4463 8.7627 14.8613 8.1123 15.7871C 7.46191 16.7129 6.44531 17.1758 5.0625 17.1758C 3.69727 17.1758 2.68652 16.7246 2.03027 15.8223C 1.37402 14.9141 1.03418 13.5605 1.01074 11.7617L 1.01074 9.59082C 1.01074 7.70996 1.33594 6.3125 1.98633 5.39844C 2.63672 4.48438 3.65625 4.02734 5.04492 4.02734C 6.42188 4.02734 7.43555 4.46973 8.08594 5.35449C 8.73633 6.2334 9.07031 7.59277 9.08789 9.43262L 9.08789 11.542ZM 7.46191 9.31836C 7.46191 7.94141 7.26855 6.93945 6.88184 6.3125C 6.49512 5.67969 5.88281 5.36328 5.04492 5.36328C 4.21289 5.36328 3.60645 5.67676 3.22559 6.30371C 2.84473 6.93066 2.64844 7.89453 2.63672 9.19531L 2.63672 11.7969C 2.63672 13.1797 2.83594 14.2021 3.23438 14.8643C 3.63867 15.5205 4.24805 15.8486 5.0625 15.8486C 5.86523 15.8486 6.45996 15.5381 6.84668 14.917C 7.23926 14.2959 7.44434 13.3174 7.46191 11.9814L 7.46191 9.31836ZM 112.412 11.375C 112.072 11.7793 111.665 12.1045 111.19 12.3506C 110.722 12.5967 110.206 12.7197 109.644 12.7197C 108.905 12.7197 108.261 12.5381 107.71 12.1748C 107.165 11.8115 106.743 11.3018 106.444 10.6455C 106.146 9.9834 105.996 9.25391 105.996 8.45703C 105.996 7.60156 106.157 6.83105 106.479 6.14551C 106.808 5.45996 107.271 4.93555 107.868 4.57227C 108.466 4.20898 109.163 4.02734 109.96 4.02734C 111.226 4.02734 112.222 4.50195 112.948 5.45117C 113.681 6.39453 114.047 7.68359 114.047 9.31836L 114.047 9.79297C 114.047 12.2832 113.555 14.1025 112.57 15.251C 111.586 16.3936 110.101 16.9795 108.114 17.0088L 107.798 17.0088L 107.798 15.6377L 108.141 15.6377C 109.482 15.6143 110.514 15.2656 111.234 14.5918C 111.955 13.9121 112.348 12.8398 112.412 11.375ZM 109.907 11.375C 110.452 11.375 110.953 11.208 111.41 10.874C 111.873 10.54 112.21 10.127 112.421 9.63477L 112.421 8.98438C 112.421 7.91797 112.189 7.05078 111.727 6.38281C 111.264 5.71484 110.678 5.38086 109.969 5.38086C 109.254 5.38086 108.68 5.65625 108.246 6.20703C 107.812 6.75195 107.596 7.47266 107.596 8.36914C 107.596 9.24219 107.804 9.96289 108.22 10.5312C 108.642 11.0938 109.204 11.375 109.907 11.375ZM 216.642 17L 215.007 17L 215.007 6.16309L 211.729 7.36719L 211.729 5.89062L 216.387 4.1416L 216.642 4.1416L 216.642 17Z"/>
<path id="path9_fill" d="M 17.4727 8.36035L 14.8184 7.56934L 15.2227 6.24219L 17.877 7.22656L 17.7979 4.20312L 19.1426 4.20312L 19.0547 7.27051L 21.665 6.30371L 22.0693 7.63965L 19.3711 8.43945L 21.1113 10.8213L 20.0215 11.6475L 18.3867 9.11621L 16.8047 11.5859L 15.7061 10.7861L 17.4727 8.36035ZM 27.958 11.8057C 27.958 10.4814 28.1338 9.20996 28.4854 7.99121C 28.8428 6.77246 29.373 5.66504 30.0762 4.66895C 30.7793 3.67285 31.5088 2.96973 32.2646 2.55957L 32.5986 3.63184C 31.7432 4.28809 31.04 5.29004 30.4893 6.6377C 29.9443 7.98535 29.6455 9.49414 29.5928 11.1641L 29.584 11.9111C 29.584 14.1729 29.9971 16.1357 30.8232 17.7998C 31.3213 18.7959 31.9131 19.5752 32.5986 20.1377L 32.2646 21.1309C 31.4854 20.6973 30.7412 19.9707 30.0322 18.9512C 28.6494 16.959 27.958 14.5771 27.958 11.8057ZM 39.3486 17L 37.7139 17L 37.7139 6.16309L 34.4355 7.36719L 34.4355 5.89062L 39.0938 4.1416L 39.3486 4.1416L 39.3486 17ZM 52.1367 11.542C 52.1367 13.4463 51.8115 14.8613 51.1611 15.7871C 50.5107 16.7129 49.4941 17.1758 48.1113 17.1758C 46.7461 17.1758 45.7354 16.7246 45.0791 15.8223C 44.4229 14.9141 44.083 13.5605 44.0596 11.7617L 44.0596 9.59082C 44.0596 7.70996 44.3848 6.3125 45.0352 5.39844C 45.6855 4.48438 46.7051 4.02734 48.0938 4.02734C 49.4707 4.02734 50.4844 4.46973 51.1348 5.35449C 51.7852 6.2334 52.1191 7.59277 52.1367 9.43262L 52.1367 11.542ZM 50.5107 9.31836C 50.5107 7.94141 50.3174 6.93945 49.9307 6.3125C 49.5439 5.67969 48.9316 5.36328 48.0938 5.36328C 47.2617 5.36328 46.6553 5.67676 46.2744 6.30371C 45.8936 6.93066 45.6973 7.89453 45.6855 9.19531L 45.6855 11.7969C 45.6855 13.1797 45.8848 14.2021 46.2832 14.8643C 46.6875 15.5205 47.2969 15.8486 48.1113 15.8486C 48.9141 15.8486 49.5088 15.5381 49.8955 14.917C 50.2881 14.2959 50.4932 13.3174 50.5107 11.9814L 50.5107 9.31836ZM 56.9004 6.35645L 55.2305 10.5928L 53.7188 10.5928L 56.3467 4.20312L 57.4629 4.20312L 60.082 10.5928L 58.5791 10.5928L 56.9004 6.35645ZM 70.1279 17L 61.7432 17L 61.7432 15.8311L 66.1729 10.9092C 66.8291 10.165 67.2803 9.56152 67.5264 9.09863C 67.7783 8.62988 67.9043 8.14648 67.9043 7.64844C 67.9043 6.98047 67.7021 6.43262 67.2979 6.00488C 66.8936 5.57715 66.3545 5.36328 65.6807 5.36328C 64.8721 5.36328 64.2422 5.59473 63.791 6.05762C 63.3457 6.51465 63.123 7.15332 63.123 7.97363L 61.4971 7.97363C 61.4971 6.7959 61.875 5.84375 62.6309 5.11719C 63.3926 4.39063 64.4092 4.02734 65.6807 4.02734C 66.8701 4.02734 67.8105 4.34082 68.502 4.96777C 69.1934 5.58887 69.5391 6.41797 69.5391 7.45508C 69.5391 8.71484 68.7363 10.2148 67.1309 11.9551L 63.7031 15.6729L 70.1279 15.6729L 70.1279 17ZM 75.7705 11.8936C 75.7705 13.2002 75.5977 14.4541 75.252 15.6553C 74.9121 16.8506 74.3877 17.9551 73.6787 18.9688C 72.9756 19.9824 72.2373 20.7031 71.4639 21.1309L 71.1211 20.1377C 72.0234 19.4463 72.7471 18.374 73.292 16.9209C 73.8428 15.4619 74.124 13.8447 74.1357 12.0693L 74.1357 11.7881C 74.1357 10.5576 74.0068 9.41504 73.749 8.36035C 73.4912 7.29981 73.1309 6.35059 72.668 5.5127C 72.2109 4.6748 71.6953 4.02148 71.1211 3.55273L 71.4639 2.55957C 72.2373 2.9873 72.9727 3.70215 73.6699 4.7041C 74.373 5.70605 74.8975 6.81055 75.2432 8.01758C 75.5947 9.22461 75.7705 10.5166 75.7705 11.8936ZM 91.8633 10.1357L 95.4316 10.1357L 95.4316 11.6738L 91.8633 11.6738L 91.8633 15.7168L 90.2285 15.7168L 90.2285 11.6738L 86.6602 11.6738L 86.6602 10.1357L 90.2285 10.1357L 90.2285 6.40039L 91.8633 6.40039L 91.8633 10.1357ZM 122.59 8.36035L 119.936 7.56934L 120.34 6.24219L 122.994 7.22656L 122.915 4.20312L 124.26 4.20312L 124.172 7.27051L 126.782 6.30371L 127.187 7.63965L 124.488 8.43945L 126.229 10.8213L 125.139 11.6475L 123.504 9.11621L 121.922 11.5859L 120.823 10.7861L 122.59 8.36035ZM 133.075 11.8057C 133.075 10.4814 133.251 9.20996 133.603 7.99121C 133.96 6.77246 134.49 5.66504 135.193 4.66895C 135.896 3.67285 136.626 2.96973 137.382 2.55957L 137.716 3.63184C 136.86 4.28809 136.157 5.29004 135.606 6.6377C 135.062 7.98535 134.763 9.49414 134.71 11.1641L 134.701 11.9111C 134.701 14.1729 135.114 16.1357 135.94 17.7998C 136.438 18.7959 137.03 19.5752 137.716 20.1377L 137.382 21.1309C 136.603 20.6973 135.858 19.9707 135.149 18.9512C 133.767 16.959 133.075 14.5771 133.075 11.8057ZM 144.466 17L 142.831 17L 142.831 6.16309L 139.553 7.36719L 139.553 5.89062L 144.211 4.1416L 144.466 4.1416L 144.466 17ZM 157.254 11.542C 157.254 13.4463 156.929 14.8613 156.278 15.7871C 155.628 16.7129 154.611 17.1758 153.229 17.1758C 151.863 17.1758 150.853 16.7246 150.196 15.8223C 149.54 14.9141 149.2 13.5605 149.177 11.7617L 149.177 9.59082C 149.177 7.70996 149.502 6.3125 150.152 5.39844C 150.803 4.48438 151.822 4.02734 153.211 4.02734C 154.588 4.02734 155.602 4.46973 156.252 5.35449C 156.902 6.2334 157.236 7.59277 157.254 9.43262L 157.254 11.542ZM 155.628 9.31836C 155.628 7.94141 155.435 6.93945 155.048 6.3125C 154.661 5.67969 154.049 5.36328 153.211 5.36328C 152.379 5.36328 151.772 5.67676 151.392 6.30371C 151.011 6.93066 150.814 7.89453 150.803 9.19531L 150.803 11.7969C 150.803 13.1797 151.002 14.2021 151.4 14.8643C 151.805 15.5205 152.414 15.8486 153.229 15.8486C 154.031 15.8486 154.626 15.5381 155.013 14.917C 155.405 14.2959 155.61 13.3174 155.628 11.9814L 155.628 9.31836ZM 162.018 6.35645L 160.348 10.5928L 158.836 10.5928L 161.464 4.20312L 162.58 4.20312L 165.199 10.5928L 163.696 10.5928L 162.018 6.35645ZM 172.204 17L 170.569 17L 170.569 6.16309L 167.291 7.36719L 167.291 5.89062L 171.949 4.1416L 172.204 4.1416L 172.204 17ZM 180.888 11.8936C 180.888 13.2002 180.715 14.4541 180.369 15.6553C 180.029 16.8506 179.505 17.9551 178.796 18.9688C 178.093 19.9824 177.354 20.7031 176.581 21.1309L 176.238 20.1377C 177.141 19.4463 177.864 18.374 178.409 16.9209C 178.96 15.4619 179.241 13.8447 179.253 12.0693L 179.253 11.7881C 179.253 10.5576 179.124 9.41504 178.866 8.36035C 178.608 7.29981 178.248 6.35059 177.785 5.5127C 177.328 4.6748 176.813 4.02148 176.238 3.55273L 176.581 2.55957C 177.354 2.9873 178.09 3.70215 178.787 4.7041C 179.49 5.70605 180.015 6.81055 180.36 8.01758C 180.712 9.22461 180.888 10.5166 180.888 11.8936ZM 196.98 10.1357L 200.549 10.1357L 200.549 11.6738L 196.98 11.6738L 196.98 15.7168L 195.346 15.7168L 195.346 11.6738L 191.777 11.6738L 191.777 10.1357L 195.346 10.1357L 195.346 6.40039L 196.98 6.40039L 196.98 10.1357ZM 227.707 8.36035L 225.053 7.56934L 225.457 6.24219L 228.111 7.22656L 228.032 4.20312L 229.377 4.20312L 229.289 7.27051L 231.899 6.30371L 232.304 7.63965L 229.605 8.43945L 231.346 10.8213L 230.256 11.6475L 228.621 9.11621L 227.039 11.5859L 225.94 10.7861L 227.707 8.36035ZM 238.192 11.8057C 238.192 10.4814 238.368 9.20996 238.72 7.99121C 239.077 6.77246 239.607 5.66504 240.311 4.66895C 241.014 3.67285 241.743 2.96973 242.499 2.55957L 242.833 3.63184C 241.978 4.28809 241.274 5.29004 240.724 6.6377C 240.179 7.98535 239.88 9.49414 239.827 11.1641L 239.818 11.9111C 239.818 14.1729 240.231 16.1357 241.058 17.7998C 241.556 18.7959 242.147 19.5752 242.833 20.1377L 242.499 21.1309C 241.72 20.6973 240.976 19.9707 240.267 18.9512C 238.884 16.959 238.192 14.5771 238.192 11.8057ZM 249.583 17L 247.948 17L 247.948 6.16309L 244.67 7.36719L 244.67 5.89062L 249.328 4.1416L 249.583 4.1416L 249.583 17ZM 262.371 11.542C 262.371 13.4463 262.046 14.8613 261.396 15.7871C 260.745 16.7129 259.729 17.1758 258.346 17.1758C 256.98 17.1758 255.97 16.7246 255.313 15.8223C 254.657 14.9141 254.317 13.5605 254.294 11.7617L 254.294 9.59082C 254.294 7.70996 254.619 6.3125 255.27 5.39844C 255.92 4.48438 256.939 4.02734 258.328 4.02734C 259.705 4.02734 260.719 4.46973 261.369 5.35449C 262.02 6.2334 262.354 7.59277 262.371 9.43262L 262.371 11.542ZM 260.745 9.31836C 260.745 7.94141 260.552 6.93945 260.165 6.3125C 259.778 5.67969 259.166 5.36328 258.328 5.36328C 257.496 5.36328 256.89 5.67676 256.509 6.30371C 256.128 6.93066 255.932 7.89453 255.92 9.19531L 255.92 11.7969C 255.92 13.1797 256.119 14.2021 256.518 14.8643C 256.922 15.5205 257.531 15.8486 258.346 15.8486C 259.148 15.8486 259.743 15.5381 260.13 14.917C 260.522 14.2959 260.728 13.3174 260.745 11.9814L 260.745 9.31836ZM 267.135 6.35645L 265.465 10.5928L 263.953 10.5928L 266.581 4.20312L 267.697 4.20312L 270.316 10.5928L 268.813 10.5928L 267.135 6.35645ZM 280.002 11.542C 280.002 13.4463 279.677 14.8613 279.026 15.7871C 278.376 16.7129 277.359 17.1758 275.977 17.1758C 274.611 17.1758 273.601 16.7246 272.944 15.8223C 272.288 14.9141 271.948 13.5605 271.925 11.7617L 271.925 9.59082C 271.925 7.70996 272.25 6.3125 272.9 5.39844C 273.551 4.48438 274.57 4.02734 275.959 4.02734C 277.336 4.02734 278.35 4.46973 279 5.35449C 279.65 6.2334 279.984 7.59277 280.002 9.43262L 280.002 11.542ZM 278.376 9.31836C 278.376 7.94141 278.183 6.93945 277.796 6.3125C 277.409 5.67969 276.797 5.36328 275.959 5.36328C 275.127 5.36328 274.521 5.67676 274.14 6.30371C 273.759 6.93066 273.563 7.89453 273.551 9.19531L 273.551 11.7969C 273.551 13.1797 273.75 14.2021 274.148 14.8643C 274.553 15.5205 275.162 15.8486 275.977 15.8486C 276.779 15.8486 277.374 15.5381 277.761 14.917C 278.153 14.2959 278.358 13.3174 278.376 11.9814L 278.376 9.31836ZM 286.005 11.8936C 286.005 13.2002 285.832 14.4541 285.486 15.6553C 285.146 16.8506 284.622 17.9551 283.913 18.9688C 283.21 19.9824 282.472 20.7031 281.698 21.1309L 281.355 20.1377C 282.258 19.4463 282.981 18.374 283.526 16.9209C 284.077 15.4619 284.358 13.8447 284.37 12.0693L 284.37 11.7881C 284.37 10.5576 284.241 9.41504 283.983 8.36035C 283.726 7.29981 283.365 6.35059 282.902 5.5127C 282.445 4.6748 281.93 4.02148 281.355 3.55273L 281.698 2.55957C 282.472 2.9873 283.207 3.70215 283.904 4.7041C 284.607 5.70605 285.132 6.81055 285.478 8.01758C 285.829 9.22461 286.005 10.5166 286.005 11.8936Z"/>
<path id="path10_fill" d="M 7.92773 12.7021L 9.70312 12.7021L 9.70312 14.0293L 7.92773 14.0293L 7.92773 17L 6.29297 17L 6.29297 14.0293L 0.46582 14.0293L 0.46582 13.0713L 6.19629 4.20312L 7.92773 4.20312L 7.92773 12.7021ZM 2.31152 12.7021L 6.29297 12.7021L 6.29297 6.42676L 6.09961 6.77832L 2.31152 12.7021ZM 106.928 10.584L 107.578 4.20312L 114.135 4.20312L 114.135 5.70605L 108.958 5.70605L 108.571 9.19531C 109.198 8.82617 109.91 8.6416 110.707 8.6416C 111.873 8.6416 112.799 9.02832 113.484 9.80176C 114.17 10.5693 114.513 11.6094 114.513 12.9219C 114.513 14.2402 114.155 15.2803 113.44 16.042C 112.731 16.7979 111.738 17.1758 110.461 17.1758C 109.33 17.1758 108.407 16.8623 107.692 16.2354C 106.978 15.6084 106.57 14.7412 106.471 13.6338L 108.009 13.6338C 108.108 14.3662 108.369 14.9199 108.791 15.2949C 109.213 15.6641 109.77 15.8486 110.461 15.8486C 111.217 15.8486 111.809 15.5908 112.236 15.0752C 112.67 14.5596 112.887 13.8477 112.887 12.9395C 112.887 12.084 112.652 11.3984 112.184 10.8828C 111.721 10.3613 111.103 10.1006 110.329 10.1006C 109.62 10.1006 109.063 10.2559 108.659 10.5664L 108.229 10.918L 106.928 10.584ZM 213.662 9.81055L 214.884 9.81055C 215.651 9.79883 216.255 9.59668 216.694 9.2041C 217.134 8.81152 217.354 8.28125 217.354 7.61328C 217.354 6.11328 216.606 5.36328 215.112 5.36328C 214.409 5.36328 213.847 5.56543 213.425 5.96973C 213.009 6.36816 212.801 6.89844 212.801 7.56055L 211.175 7.56055C 211.175 6.54687 211.544 5.70605 212.282 5.03809C 213.026 4.36426 213.97 4.02734 215.112 4.02734C 216.319 4.02734 217.266 4.34668 217.951 4.98535C 218.637 5.62402 218.979 6.51172 218.979 7.64844C 218.979 8.20508 218.798 8.74414 218.435 9.26562C 218.077 9.78711 217.588 10.1768 216.967 10.4346C 217.67 10.6572 218.212 11.0264 218.593 11.542C 218.979 12.0576 219.173 12.6875 219.173 13.4316C 219.173 14.5801 218.798 15.4912 218.048 16.165C 217.298 16.8389 216.322 17.1758 215.121 17.1758C 213.92 17.1758 212.941 16.8506 212.186 16.2002C 211.436 15.5498 211.061 14.6914 211.061 13.625L 212.695 13.625C 212.695 14.2988 212.915 14.8379 213.354 15.2422C 213.794 15.6465 214.383 15.8486 215.121 15.8486C 215.906 15.8486 216.507 15.6436 216.923 15.2334C 217.339 14.8232 217.547 14.2344 217.547 13.4668C 217.547 12.7227 217.318 12.1514 216.861 11.7529C 216.404 11.3545 215.745 11.1494 214.884 11.1377L 213.662 11.1377L 213.662 9.81055Z"/>
<path id="path11_stroke" d="M 0 0L 431 0L 431 -1.5L 0 -1.5L 0 0Z"/>
<path id="path12_stroke" d="M 0 0L 431 0L 431 -1L 0 -1L 0 0Z"/>
<path id="path13_stroke" d="M 0 0L 125 0L 125 -1.5L 0 -1.5L 0 0Z"/>
<path id="path14_stroke" d="M 0 0L 125 0L 125 -1L 0 -1L 0 0Z"/>
<path id="path15_stroke" d="M 0 0L 124 0L 124 -1.5L 0 -1.5L 0 0Z"/>
</defs>
</svg>

