<svg width="982" height="420" viewBox="0 0 982 420" version="1.1" xmlns="http://www.w3.org/2000/svg" xmlns:xlink="http://www.w3.org/1999/xlink">
<title>Frame</title>
<desc>Created using Figma</desc>
<g id="Canvas" transform="matrix(2 0 0 2 1108 1124)">
<clipPath id="clip-0" clip-rule="evenodd">
<path d="M -554 -562L -63 -562L -63 -352L -554 -352L -554 -562Z" fill="#FFFFFF"/>
</clipPath>
<g id="Frame" clip-path="url(#clip-0)">
<path d="M -554 -562L -63 -562L -63 -352L -554 -352L -554 -562Z" fill="#FFFFFF"/>
<g id="Rectangle">
<use xlink:href="#path0_fill" transform="translate(-454 -513)" fill="#F2C59D"/>
<use xlink:href="#path1_stroke" transform="translate(-454 -513)"/>
</g>
<g id="1 2 3 4 5">
<use xlink:href="#path2_fill" transform="translate(-454 -506)"/>
</g>
<g id="A">
<use xlink:href="#path3_fill" transform="translate(-441 -537)"/>
</g>
<g id="Rectangle">
<use xlink:href="#path0_fill" transform="translate(-418 -513)" fill="#F88F8F"/>
<use xlink:href="#path1_stroke" transform="translate(-418 -513)"/>
</g>
<g id="2 4 6 8 10">
<use xlink:href="#path4_fill" transform="translate(-418 -506)"/>
</g>
<g id="B">
<use xlink:href="#path5_fill" transform="translate(-404 -537)"/>
</g>
<g id="Rectangle">
<use xlink:href="#path0_fill" transform="translate(-382 -513)" fill="#74ACF7"/>
<use xlink:href="#path1_stroke" transform="translate(-382 -513)"/>
</g>
<g id="3 6 9 12 15">
<use xlink:href="#path6_fill" transform="translate(-382 -506)"/>
</g>
<g id="C">
<use xlink:href="#path7_fill" transform="translate(-369 -537)"/>
</g>
<g id="Rectangle">
<use xlink:href="#path0_fill" transform="translate(-263 -513)" fill="#F2C59D"/>
<use xlink:href="#path1_stroke" transform="translate(-263 -513)"/>
</g>
<g id="0 0.25 0.5 0.75 1">
<use xlink:href="#path8_fill" transform="translate(-263 -506)"/>
</g>
<g id="A">
<use xlink:href="#path3_fill" transform="translate(-250 -537)"/>
</g>
<g id="Rectangle">
<use xlink:href="#path0_fill" transform="translate(-227 -513)" fill="#F88F8F"/>
<use xlink:href="#path1_stroke" transform="translate(-227 -513)"/>
</g>
<g id="B">
<use xlink:href="#path5_fill" transform="translate(-213 -537)"/>
</g>
<g id="Rectangle">
<use xlink:href="#path0_fill" transform="translate(-191 -513)" fill="#74ACF7"/>
<use xlink:href="#path1_stroke" transform="translate(-191 -513)"/>
</g>
<g id="C">
<use xlink:href="#path7_fill" transform="translate(-178 -537)"/>
</g>
<g id="0 0.25 0.5 0.75 1">
<use xlink:href="#path8_fill" transform="translate(-227 -506)"/>
</g>
<g id="0 0.25 0.5 0.75 1">
<use xlink:href="#path8_fill" transform="translate(-191 -506)"/>
</g>
<g id="Data before rescaling">
<use xlink:href="#path9_fill" transform="translate(-470 -393)"/>
</g>
<g id="Data after rescaling">
<use xlink:href="#path10_fill" transform="translate(-270 -393)"/>
</g>
</g>
</g>
<defs>
<path id="path0_fill" d="M 0 0L 36 0L 36 113L 0 113L 0 0Z"/>
<path id="path1_stroke" d="M 0 0L 0 -0.5L -0.5 -0.5L -0.5 0L 0 0ZM 36 0L 36.5 0L 36.5 -0.5L 36 -0.5L 36 0ZM 36 113L 36 113.5L 36.5 113.5L 36.5 113L 36 113ZM 0 113L -0.5 113L -0.5 113.5L 0 113.5L 0 113ZM 0 0.5L 36 0.5L 36 -0.5L 0 -0.5L 0 0.5ZM 35.5 0L 35.5 113L 36.5 113L 36.5 0L 35.5 0ZM 36 112.5L 0 112.5L 0 113.5L 36 113.5L 36 112.5ZM 0.5 113L 0.5 0L -0.5 0L -0.5 113L 0.5 113Z"/>
<path id="path2_fill" d="M 19.0527 13L 17.7812 13L 17.7812 4.57129L 15.2314 5.50781L 15.2314 4.35938L 18.8545 2.99902L 19.0527 2.99902L 19.0527 13ZM 21.418 34L 14.8965 34L 14.8965 33.0908L 18.3418 29.2627C 18.8522 28.6839 19.2031 28.2145 19.3945 27.8545C 19.5905 27.4899 19.6885 27.1139 19.6885 26.7266C 19.6885 26.207 19.5312 25.7809 19.2168 25.4482C 18.9023 25.1156 18.4831 24.9492 17.959 24.9492C 17.3301 24.9492 16.8402 25.1292 16.4893 25.4893C 16.1429 25.8447 15.9697 26.3415 15.9697 26.9795L 14.7051 26.9795C 14.7051 26.0635 14.999 25.3229 15.5869 24.7578C 16.1794 24.1927 16.9701 23.9102 17.959 23.9102C 18.8841 23.9102 19.6156 24.154 20.1533 24.6416C 20.6911 25.1247 20.96 25.7695 20.96 26.5762C 20.96 27.556 20.3356 28.7227 19.0869 30.0762L 16.4209 32.9678L 21.418 32.9678L 21.418 34ZM 16.7354 50.4082L 17.6855 50.4082C 18.2826 50.3991 18.752 50.2419 19.0938 49.9365C 19.4355 49.6312 19.6064 49.2188 19.6064 48.6992C 19.6064 47.5326 19.0254 46.9492 17.8633 46.9492C 17.3164 46.9492 16.8789 47.1064 16.5508 47.4209C 16.2272 47.7308 16.0654 48.1432 16.0654 48.6582L 14.8008 48.6582C 14.8008 47.8698 15.0879 47.2158 15.6621 46.6963C 16.2409 46.1722 16.9746 45.9102 17.8633 45.9102C 18.8021 45.9102 19.5381 46.1585 20.0713 46.6553C 20.6045 47.152 20.8711 47.8424 20.8711 48.7266C 20.8711 49.1595 20.7298 49.5788 20.4473 49.9844C 20.1693 50.39 19.7887 50.693 19.3057 50.8936C 19.8525 51.0667 20.2741 51.3538 20.5703 51.7549C 20.8711 52.1559 21.0215 52.6458 21.0215 53.2246C 21.0215 54.1178 20.7298 54.8265 20.1465 55.3506C 19.5632 55.8747 18.8044 56.1367 17.8701 56.1367C 16.9359 56.1367 16.1748 55.8838 15.5869 55.3779C 15.0036 54.8721 14.7119 54.2044 14.7119 53.375L 15.9834 53.375C 15.9834 53.8991 16.1543 54.3184 16.4961 54.6328C 16.8379 54.9473 17.2959 55.1045 17.8701 55.1045C 18.4808 55.1045 18.9479 54.945 19.2715 54.626C 19.5951 54.307 19.7568 53.849 19.7568 53.252C 19.7568 52.6732 19.5791 52.2288 19.2236 51.9189C 18.8682 51.609 18.3555 51.4495 17.6855 51.4404L 16.7354 51.4404L 16.7354 50.4082ZM 20.2354 73.6572L 21.6162 73.6572L 21.6162 74.6895L 20.2354 74.6895L 20.2354 77L 18.9639 77L 18.9639 74.6895L 14.4316 74.6895L 14.4316 73.9443L 18.8887 67.0469L 20.2354 67.0469L 20.2354 73.6572ZM 15.8672 73.6572L 18.9639 73.6572L 18.9639 68.7764L 18.8135 69.0498L 15.8672 73.6572ZM 15.4775 94.0098L 15.9834 89.0469L 21.083 89.0469L 21.083 90.2158L 17.0566 90.2158L 16.7559 92.9297C 17.2435 92.6426 17.7972 92.499 18.417 92.499C 19.3239 92.499 20.0439 92.7998 20.5771 93.4014C 21.1104 93.9984 21.377 94.8073 21.377 95.8281C 21.377 96.8535 21.099 97.6624 20.543 98.2549C 19.9915 98.8428 19.2191 99.1367 18.2256 99.1367C 17.346 99.1367 16.6283 98.8929 16.0723 98.4053C 15.5163 97.9176 15.1995 97.2432 15.1221 96.3818L 16.3184 96.3818C 16.3958 96.9515 16.5986 97.3822 16.9268 97.6738C 17.2549 97.9609 17.6878 98.1045 18.2256 98.1045C 18.8135 98.1045 19.2738 97.904 19.6064 97.5029C 19.9437 97.1019 20.1123 96.5482 20.1123 95.8418C 20.1123 95.1764 19.93 94.6432 19.5654 94.2422C 19.2054 93.8366 18.7246 93.6338 18.123 93.6338C 17.5716 93.6338 17.1387 93.7546 16.8242 93.9961L 16.4893 94.2695L 15.4775 94.0098Z"/>
<path id="path3_fill" d="M 6.79785 10.9492L 3.20215 10.9492L 2.51855 13L 0.337891 13L 4.04297 3.04688L 5.94336 3.04688L 9.66895 13L 7.48828 13L 6.79785 10.9492ZM 3.75586 9.28809L 6.24414 9.28809L 4.99316 5.5625L 3.75586 9.28809Z"/>
<path id="path4_fill" d="M 21.418 13L 14.8965 13L 14.8965 12.0908L 18.3418 8.2627C 18.8522 7.68392 19.2031 7.21452 19.3945 6.85449C 19.5905 6.48991 19.6885 6.11393 19.6885 5.72656C 19.6885 5.20703 19.5312 4.78092 19.2168 4.44824C 18.9023 4.11556 18.4831 3.94922 17.959 3.94922C 17.3301 3.94922 16.8402 4.12923 16.4893 4.48926C 16.1429 4.84473 15.9697 5.34147 15.9697 5.97949L 14.7051 5.97949C 14.7051 5.06348 14.999 4.32292 15.5869 3.75781C 16.1794 3.19271 16.9701 2.91016 17.959 2.91016C 18.8841 2.91016 19.6156 3.15397 20.1533 3.6416C 20.6911 4.12467 20.96 4.76953 20.96 5.57617C 20.96 6.55599 20.3356 7.72266 19.0869 9.07617L 16.4209 11.9678L 21.418 11.9678L 21.418 13ZM 20.2354 30.6572L 21.6162 30.6572L 21.6162 31.6895L 20.2354 31.6895L 20.2354 34L 18.9639 34L 18.9639 31.6895L 14.4316 31.6895L 14.4316 30.9443L 18.8887 24.0469L 20.2354 24.0469L 20.2354 30.6572ZM 15.8672 30.6572L 18.9639 30.6572L 18.9639 25.7764L 18.8135 26.0498L 15.8672 30.6572ZM 19.8594 46.04L 19.8594 47.1133L 19.627 47.1133C 18.6426 47.1315 17.8587 47.4232 17.2754 47.9883C 16.6921 48.5534 16.3548 49.3486 16.2637 50.374C 16.7878 49.7725 17.5033 49.4717 18.4102 49.4717C 19.276 49.4717 19.9665 49.777 20.4814 50.3877C 21.001 50.9984 21.2607 51.7868 21.2607 52.7529C 21.2607 53.7783 20.9805 54.5986 20.4199 55.2139C 19.8639 55.8291 19.1165 56.1367 18.1777 56.1367C 17.2253 56.1367 16.4528 55.7721 15.8604 55.043C 15.2679 54.3092 14.9717 53.3659 14.9717 52.2129L 14.9717 51.7275C 14.9717 49.8955 15.3613 48.4964 16.1406 47.5303C 16.9245 46.5596 18.0889 46.0628 19.6338 46.04L 19.8594 46.04ZM 18.1982 50.5244C 17.7653 50.5244 17.3665 50.6543 17.002 50.9141C 16.6374 51.1738 16.3844 51.4997 16.2432 51.8916L 16.2432 52.3564C 16.2432 53.1768 16.4277 53.8376 16.7969 54.3389C 17.166 54.8402 17.6263 55.0908 18.1777 55.0908C 18.7474 55.0908 19.194 54.8812 19.5176 54.4619C 19.8457 54.0426 20.0098 53.4935 20.0098 52.8145C 20.0098 52.1309 19.8434 51.5794 19.5107 51.1602C 19.1826 50.7363 18.7451 50.5244 18.1982 50.5244ZM 20.9326 69.6445C 20.9326 70.1413 20.8005 70.5833 20.5361 70.9707C 20.2764 71.3581 19.9232 71.6611 19.4766 71.8799C 19.9961 72.1032 20.4062 72.429 20.707 72.8574C 21.0124 73.2858 21.165 73.7712 21.165 74.3135C 21.165 75.1748 20.8734 75.8607 20.29 76.3711C 19.7113 76.8815 18.9479 77.1367 18 77.1367C 17.043 77.1367 16.2751 76.8815 15.6963 76.3711C 15.1221 75.8561 14.835 75.1702 14.835 74.3135C 14.835 73.7757 14.9808 73.2904 15.2725 72.8574C 15.5687 72.4245 15.9766 72.0964 16.4961 71.873C 16.054 71.6543 15.7054 71.3512 15.4502 70.9639C 15.195 70.5765 15.0674 70.1367 15.0674 69.6445C 15.0674 68.806 15.3363 68.1406 15.874 67.6484C 16.4118 67.1562 17.1204 66.9102 18 66.9102C 18.875 66.9102 19.5814 67.1562 20.1191 67.6484C 20.6615 68.1406 20.9326 68.806 20.9326 69.6445ZM 19.9004 74.2861C 19.9004 73.7301 19.7227 73.2767 19.3672 72.9258C 19.0163 72.5749 18.556 72.3994 17.9863 72.3994C 17.4167 72.3994 16.9587 72.5726 16.6123 72.9189C 16.2705 73.2653 16.0996 73.721 16.0996 74.2861C 16.0996 74.8512 16.266 75.2956 16.5986 75.6191C 16.9359 75.9427 17.403 76.1045 18 76.1045C 18.5924 76.1045 19.0573 75.9427 19.3945 75.6191C 19.7318 75.291 19.9004 74.8467 19.9004 74.2861ZM 18 67.9492C 17.5033 67.9492 17.0999 68.1042 16.79 68.4141C 16.4847 68.7194 16.332 69.1364 16.332 69.665C 16.332 70.1709 16.4824 70.5811 16.7832 70.8955C 17.0885 71.2054 17.4941 71.3604 18 71.3604C 18.5059 71.3604 18.9092 71.2054 19.21 70.8955C 19.5153 70.5811 19.668 70.1709 19.668 69.665C 19.668 69.1592 19.5107 68.7467 19.1963 68.4277C 18.8818 68.1087 18.4831 67.9492 18 67.9492ZM 15.1221 99L 13.8506 99L 13.8506 90.5713L 11.3008 91.5078L 11.3008 90.3594L 14.9238 88.999L 15.1221 88.999L 15.1221 99ZM 25.0684 94.7549C 25.0684 96.236 24.8154 97.3366 24.3096 98.0566C 23.8037 98.7767 23.013 99.1367 21.9375 99.1367C 20.8757 99.1367 20.0895 98.7858 19.5791 98.084C 19.0687 97.3776 18.8044 96.3249 18.7861 94.9258L 18.7861 93.2373C 18.7861 91.7744 19.0391 90.6875 19.5449 89.9766C 20.0508 89.2656 20.8438 88.9102 21.9238 88.9102C 22.9948 88.9102 23.7832 89.2542 24.2891 89.9424C 24.7949 90.626 25.0547 91.6833 25.0684 93.1143L 25.0684 94.7549ZM 23.8037 93.0254C 23.8037 91.9544 23.6533 91.1751 23.3525 90.6875C 23.0518 90.1953 22.5755 89.9492 21.9238 89.9492C 21.2767 89.9492 20.805 90.193 20.5088 90.6807C 20.2126 91.1683 20.0599 91.918 20.0508 92.9297L 20.0508 94.9531C 20.0508 96.0286 20.2057 96.8239 20.5156 97.3389C 20.8301 97.8493 21.304 98.1045 21.9375 98.1045C 22.5618 98.1045 23.0244 97.863 23.3252 97.3799C 23.6305 96.8968 23.79 96.1357 23.8037 95.0967L 23.8037 93.0254Z"/>
<path id="path5_fill" d="M 0.917969 13L 0.917969 3.04688L 4.4043 3.04688C 5.61198 3.04688 6.52799 3.2793 7.15234 3.74414C 7.77669 4.20443 8.08887 4.88119 8.08887 5.77441C 8.08887 6.26204 7.96354 6.69271 7.71289 7.06641C 7.46224 7.43555 7.11361 7.70671 6.66699 7.87988C 7.17741 8.00749 7.57845 8.26497 7.87012 8.65234C 8.16634 9.03971 8.31445 9.51367 8.31445 10.0742C 8.31445 11.0312 8.00911 11.7559 7.39844 12.248C 6.78776 12.7402 5.91732 12.9909 4.78711 13L 0.917969 13ZM 2.96875 8.66602L 2.96875 11.3525L 4.72559 11.3525C 5.20866 11.3525 5.58464 11.2386 5.85352 11.0107C 6.12695 10.7783 6.26367 10.4593 6.26367 10.0537C 6.26367 9.14225 5.79199 8.67969 4.84863 8.66602L 2.96875 8.66602ZM 2.96875 7.2168L 4.48633 7.2168C 5.52083 7.19857 6.03809 6.78613 6.03809 5.97949C 6.03809 5.52832 5.90592 5.20475 5.6416 5.00879C 5.38184 4.80827 4.9694 4.70801 4.4043 4.70801L 2.96875 4.70801L 2.96875 7.2168Z"/>
<path id="path6_fill" d="M 16.7354 7.4082L 17.6855 7.4082C 18.2826 7.39909 18.752 7.24186 19.0938 6.93652C 19.4355 6.63118 19.6064 6.21875 19.6064 5.69922C 19.6064 4.53255 19.0254 3.94922 17.8633 3.94922C 17.3164 3.94922 16.8789 4.10645 16.5508 4.4209C 16.2272 4.73079 16.0654 5.14323 16.0654 5.6582L 14.8008 5.6582C 14.8008 4.86979 15.0879 4.21582 15.6621 3.69629C 16.2409 3.1722 16.9746 2.91016 17.8633 2.91016C 18.8021 2.91016 19.5381 3.15853 20.0713 3.65527C 20.6045 4.15202 20.8711 4.84245 20.8711 5.72656C 20.8711 6.15951 20.7298 6.57878 20.4473 6.98438C 20.1693 7.38997 19.7887 7.69303 19.3057 7.89355C 19.8525 8.06673 20.2741 8.35384 20.5703 8.75488C 20.8711 9.15592 21.0215 9.64583 21.0215 10.2246C 21.0215 11.1178 20.7298 11.8265 20.1465 12.3506C 19.5632 12.8747 18.8044 13.1367 17.8701 13.1367C 16.9359 13.1367 16.1748 12.8838 15.5869 12.3779C 15.0036 11.8721 14.7119 11.2044 14.7119 10.375L 15.9834 10.375C 15.9834 10.8991 16.1543 11.3184 16.4961 11.6328C 16.8379 11.9473 17.2959 12.1045 17.8701 12.1045C 18.4808 12.1045 18.9479 11.945 19.2715 11.626C 19.5951 11.307 19.7568 10.849 19.7568 10.252C 19.7568 9.67318 19.5791 9.22884 19.2236 8.91895C 18.8682 8.60905 18.3555 8.44954 17.6855 8.44043L 16.7354 8.44043L 16.7354 7.4082ZM 19.8594 24.04L 19.8594 25.1133L 19.627 25.1133C 18.6426 25.1315 17.8587 25.4232 17.2754 25.9883C 16.6921 26.5534 16.3548 27.3486 16.2637 28.374C 16.7878 27.7725 17.5033 27.4717 18.4102 27.4717C 19.276 27.4717 19.9665 27.777 20.4814 28.3877C 21.001 28.9984 21.2607 29.7868 21.2607 30.7529C 21.2607 31.7783 20.9805 32.5986 20.4199 33.2139C 19.8639 33.8291 19.1165 34.1367 18.1777 34.1367C 17.2253 34.1367 16.4528 33.7721 15.8604 33.043C 15.2679 32.3092 14.9717 31.3659 14.9717 30.2129L 14.9717 29.7275C 14.9717 27.8955 15.3613 26.4964 16.1406 25.5303C 16.9245 24.5596 18.0889 24.0628 19.6338 24.04L 19.8594 24.04ZM 18.1982 28.5244C 17.7653 28.5244 17.3665 28.6543 17.002 28.9141C 16.6374 29.1738 16.3844 29.4997 16.2432 29.8916L 16.2432 30.3564C 16.2432 31.1768 16.4277 31.8376 16.7969 32.3389C 17.166 32.8402 17.6263 33.0908 18.1777 33.0908C 18.7474 33.0908 19.194 32.8812 19.5176 32.4619C 19.8457 32.0426 20.0098 31.4935 20.0098 30.8145C 20.0098 30.1309 19.8434 29.5794 19.5107 29.1602C 19.1826 28.7363 18.7451 28.5244 18.1982 28.5244ZM 19.7432 51.625C 19.4788 51.9395 19.1621 52.1924 18.793 52.3838C 18.4284 52.5752 18.0273 52.6709 17.5898 52.6709C 17.0156 52.6709 16.5143 52.5296 16.0859 52.2471C 15.6621 51.9645 15.334 51.568 15.1016 51.0576C 14.8691 50.5426 14.7529 49.9753 14.7529 49.3555C 14.7529 48.6901 14.8783 48.0908 15.1289 47.5576C 15.3841 47.0244 15.7441 46.6165 16.209 46.334C 16.6738 46.0514 17.2161 45.9102 17.8359 45.9102C 18.8203 45.9102 19.5951 46.2793 20.1602 47.0176C 20.7298 47.7513 21.0146 48.7539 21.0146 50.0254L 21.0146 50.3945C 21.0146 52.3314 20.6318 53.7464 19.8662 54.6396C 19.1006 55.5283 17.9453 55.984 16.4004 56.0068L 16.1543 56.0068L 16.1543 54.9404L 16.4209 54.9404C 17.4645 54.9222 18.2666 54.651 18.8271 54.127C 19.3877 53.5983 19.693 52.7643 19.7432 51.625ZM 17.7949 51.625C 18.2188 51.625 18.6084 51.4951 18.9639 51.2354C 19.3239 50.9756 19.5859 50.6543 19.75 50.2715L 19.75 49.7656C 19.75 48.9362 19.57 48.2617 19.21 47.7422C 18.8499 47.2227 18.3942 46.9629 17.8428 46.9629C 17.2868 46.9629 16.8402 47.1771 16.5029 47.6055C 16.1657 48.0293 15.9971 48.5898 15.9971 49.2871C 15.9971 49.9661 16.1589 50.5267 16.4824 50.9688C 16.8105 51.4062 17.248 51.625 17.7949 51.625ZM 15.1221 77L 13.8506 77L 13.8506 68.5713L 11.3008 69.5078L 11.3008 68.3594L 14.9238 66.999L 15.1221 66.999L 15.1221 77ZM 25.3486 77L 18.8271 77L 18.8271 76.0908L 22.2725 72.2627C 22.7829 71.6839 23.1338 71.2145 23.3252 70.8545C 23.5212 70.4899 23.6191 70.1139 23.6191 69.7266C 23.6191 69.207 23.4619 68.7809 23.1475 68.4482C 22.833 68.1156 22.4137 67.9492 21.8896 67.9492C 21.2607 67.9492 20.7708 68.1292 20.4199 68.4893C 20.0736 68.8447 19.9004 69.3415 19.9004 69.9795L 18.6357 69.9795C 18.6357 69.0635 18.9297 68.3229 19.5176 67.7578C 20.11 67.1927 20.9007 66.9102 21.8896 66.9102C 22.8148 66.9102 23.5462 67.154 24.084 67.6416C 24.6217 68.1247 24.8906 68.7695 24.8906 69.5762C 24.8906 70.556 24.2663 71.7227 23.0176 73.0762L 20.3516 75.9678L 25.3486 75.9678L 25.3486 77ZM 15.1221 99L 13.8506 99L 13.8506 90.5713L 11.3008 91.5078L 11.3008 90.3594L 14.9238 88.999L 15.1221 88.999L 15.1221 99ZM 19.4082 94.0098L 19.9141 89.0469L 25.0137 89.0469L 25.0137 90.2158L 20.9873 90.2158L 20.6865 92.9297C 21.1742 92.6426 21.7279 92.499 22.3477 92.499C 23.2546 92.499 23.9746 92.7998 24.5078 93.4014C 25.041 93.9984 25.3076 94.8073 25.3076 95.8281C 25.3076 96.8535 25.0296 97.6624 24.4736 98.2549C 23.9222 98.8428 23.1497 99.1367 22.1562 99.1367C 21.2767 99.1367 20.5589 98.8929 20.0029 98.4053C 19.4469 97.9176 19.1302 97.2432 19.0527 96.3818L 20.249 96.3818C 20.3265 96.9515 20.5293 97.3822 20.8574 97.6738C 21.1855 97.9609 21.6185 98.1045 22.1562 98.1045C 22.7441 98.1045 23.2044 97.904 23.5371 97.5029C 23.8743 97.1019 24.043 96.5482 24.043 95.8418C 24.043 95.1764 23.8607 94.6432 23.4961 94.2422C 23.1361 93.8366 22.6553 93.6338 22.0537 93.6338C 21.5023 93.6338 21.0693 93.7546 20.7549 93.9961L 20.4199 94.2695L 19.4082 94.0098Z"/>
<path id="path7_fill" d="M 9.12207 9.68457C 9.0446 10.7555 8.64811 11.5986 7.93262 12.2139C 7.22168 12.8291 6.28288 13.1367 5.11621 13.1367C 3.84017 13.1367 2.83529 12.7083 2.10156 11.8516C 1.3724 10.9902 1.00781 9.8099 1.00781 8.31055L 1.00781 7.70215C 1.00781 6.74512 1.17643 5.90202 1.51367 5.17285C 1.85091 4.44369 2.33171 3.88542 2.95605 3.49805C 3.58496 3.10612 4.31413 2.91016 5.14355 2.91016C 6.29199 2.91016 7.21712 3.21777 7.91895 3.83301C 8.62077 4.44824 9.02637 5.31185 9.13574 6.42383L 7.08496 6.42383C 7.03483 5.78125 6.85482 5.31641 6.54492 5.0293C 6.23958 4.73763 5.77246 4.5918 5.14355 4.5918C 4.45996 4.5918 3.94727 4.83789 3.60547 5.33008C 3.26823 5.81771 3.09505 6.5765 3.08594 7.60645L 3.08594 8.3584C 3.08594 9.43392 3.24772 10.2201 3.57129 10.7168C 3.89941 11.2135 4.41439 11.4619 5.11621 11.4619C 5.74967 11.4619 6.22135 11.3184 6.53125 11.0312C 6.8457 10.7396 7.02572 10.2907 7.07129 9.68457L 9.12207 9.68457Z"/>
<path id="path8_fill" d="M 21.1377 8.75488C 21.1377 10.236 20.8848 11.3366 20.3789 12.0566C 19.873 12.7767 19.0824 13.1367 18.0068 13.1367C 16.945 13.1367 16.1589 12.7858 15.6484 12.084C 15.138 11.3776 14.8737 10.3249 14.8555 8.92578L 14.8555 7.2373C 14.8555 5.77441 15.1084 4.6875 15.6143 3.97656C 16.1201 3.26562 16.9131 2.91016 17.9932 2.91016C 19.0641 2.91016 19.8525 3.25423 20.3584 3.94238C 20.8643 4.62598 21.124 5.68327 21.1377 7.11426L 21.1377 8.75488ZM 19.873 7.02539C 19.873 5.95443 19.7227 5.17513 19.4219 4.6875C 19.1211 4.19531 18.6449 3.94922 17.9932 3.94922C 17.346 3.94922 16.8743 4.19303 16.5781 4.68066C 16.2819 5.16829 16.1292 5.91797 16.1201 6.92969L 16.1201 8.95312C 16.1201 10.0286 16.2751 10.8239 16.585 11.3389C 16.8994 11.8493 17.3734 12.1045 18.0068 12.1045C 18.6312 12.1045 19.0938 11.863 19.3945 11.3799C 19.6999 10.8968 19.8594 10.1357 19.873 9.09668L 19.873 7.02539ZM 11.4307 29.7549C 11.4307 31.236 11.1777 32.3366 10.6719 33.0566C 10.166 33.7767 9.37533 34.1367 8.2998 34.1367C 7.23796 34.1367 6.45182 33.7858 5.94141 33.084C 5.43099 32.3776 5.16667 31.3249 5.14844 29.9258L 5.14844 28.2373C 5.14844 26.7744 5.40137 25.6875 5.90723 24.9766C 6.41309 24.2656 7.20605 23.9102 8.28613 23.9102C 9.3571 23.9102 10.1455 24.2542 10.6514 24.9424C 11.1572 25.626 11.417 26.6833 11.4307 28.1143L 11.4307 29.7549ZM 10.166 28.0254C 10.166 26.9544 10.0156 26.1751 9.71484 25.6875C 9.41406 25.1953 8.93783 24.9492 8.28613 24.9492C 7.639 24.9492 7.16732 25.193 6.87109 25.6807C 6.57487 26.1683 6.4222 26.918 6.41309 27.9297L 6.41309 29.9531C 6.41309 31.0286 6.56803 31.8239 6.87793 32.3389C 7.19238 32.8493 7.66634 33.1045 8.2998 33.1045C 8.92415 33.1045 9.38672 32.863 9.6875 32.3799C 9.99284 31.8968 10.1523 31.1357 10.166 30.0967L 10.166 28.0254ZM 13.208 33.3369C 13.208 33.1182 13.2718 32.9359 13.3994 32.79C 13.5316 32.6442 13.7275 32.5713 13.9873 32.5713C 14.2471 32.5713 14.443 32.6442 14.5752 32.79C 14.7119 32.9359 14.7803 33.1182 14.7803 33.3369C 14.7803 33.5465 14.7119 33.722 14.5752 33.8633C 14.443 34.0046 14.2471 34.0752 13.9873 34.0752C 13.7275 34.0752 13.5316 34.0046 13.3994 33.8633C 13.2718 33.722 13.208 33.5465 13.208 33.3369ZM 23.2637 34L 16.7422 34L 16.7422 33.0908L 20.1875 29.2627C 20.6979 28.6839 21.0488 28.2145 21.2402 27.8545C 21.4362 27.4899 21.5342 27.1139 21.5342 26.7266C 21.5342 26.207 21.377 25.7809 21.0625 25.4482C 20.748 25.1156 20.3288 24.9492 19.8047 24.9492C 19.1758 24.9492 18.6859 25.1292 18.335 25.4893C 17.9886 25.8447 17.8154 26.3415 17.8154 26.9795L 16.5508 26.9795C 16.5508 26.0635 16.8447 25.3229 17.4326 24.7578C 18.0251 24.1927 18.8158 23.9102 19.8047 23.9102C 20.7298 23.9102 21.4613 24.154 21.999 24.6416C 22.5368 25.1247 22.8057 25.7695 22.8057 26.5762C 22.8057 27.556 22.1813 28.7227 20.9326 30.0762L 18.2666 32.9678L 23.2637 32.9678L 23.2637 34ZM 25.1846 29.0098L 25.6904 24.0469L 30.79 24.0469L 30.79 25.2158L 26.7637 25.2158L 26.4629 27.9297C 26.9505 27.6426 27.5042 27.499 28.124 27.499C 29.0309 27.499 29.751 27.7998 30.2842 28.4014C 30.8174 28.9984 31.084 29.8073 31.084 30.8281C 31.084 31.8535 30.806 32.6624 30.25 33.2549C 29.6986 33.8428 28.9261 34.1367 27.9326 34.1367C 27.0531 34.1367 26.3353 33.8929 25.7793 33.4053C 25.2233 32.9176 24.9066 32.2432 24.8291 31.3818L 26.0254 31.3818C 26.1029 31.9515 26.3057 32.3822 26.6338 32.6738C 26.9619 32.9609 27.3949 33.1045 27.9326 33.1045C 28.5205 33.1045 28.9808 32.904 29.3135 32.5029C 29.6507 32.1019 29.8193 31.5482 29.8193 30.8418C 29.8193 30.1764 29.637 29.6432 29.2725 29.2422C 28.9124 28.8366 28.4316 28.6338 27.8301 28.6338C 27.2786 28.6338 26.8457 28.7546 26.5312 28.9961L 26.1963 29.2695L 25.1846 29.0098ZM 15.3613 51.7549C 15.3613 53.236 15.1084 54.3366 14.6025 55.0566C 14.0967 55.7767 13.306 56.1367 12.2305 56.1367C 11.1686 56.1367 10.3825 55.7858 9.87207 55.084C 9.36165 54.3776 9.09733 53.3249 9.0791 51.9258L 9.0791 50.2373C 9.0791 48.7744 9.33203 47.6875 9.83789 46.9766C 10.3438 46.2656 11.1367 45.9102 12.2168 45.9102C 13.2878 45.9102 14.0762 46.2542 14.582 46.9424C 15.0879 47.626 15.3477 48.6833 15.3613 50.1143L 15.3613 51.7549ZM 14.0967 50.0254C 14.0967 48.9544 13.9463 48.1751 13.6455 47.6875C 13.3447 47.1953 12.8685 46.9492 12.2168 46.9492C 11.5697 46.9492 11.098 47.193 10.8018 47.6807C 10.5055 48.1683 10.3529 48.918 10.3438 49.9297L 10.3438 51.9531C 10.3438 53.0286 10.4987 53.8239 10.8086 54.3389C 11.123 54.8493 11.597 55.1045 12.2305 55.1045C 12.8548 55.1045 13.3174 54.863 13.6182 54.3799C 13.9235 53.8968 14.083 53.1357 14.0967 52.0967L 14.0967 50.0254ZM 17.1387 55.3369C 17.1387 55.1182 17.2025 54.9359 17.3301 54.79C 17.4622 54.6442 17.6582 54.5713 17.918 54.5713C 18.1777 54.5713 18.3737 54.6442 18.5059 54.79C 18.6426 54.9359 18.7109 55.1182 18.7109 55.3369C 18.7109 55.5465 18.6426 55.722 18.5059 55.8633C 18.3737 56.0046 18.1777 56.0752 17.918 56.0752C 17.6582 56.0752 17.4622 56.0046 17.3301 55.8633C 17.2025 55.722 17.1387 55.5465 17.1387 55.3369ZM 21.2539 51.0098L 21.7598 46.0469L 26.8594 46.0469L 26.8594 47.2158L 22.833 47.2158L 22.5322 49.9297C 23.0199 49.6426 23.5736 49.499 24.1934 49.499C 25.1003 49.499 25.8203 49.7998 26.3535 50.4014C 26.8867 50.9984 27.1533 51.8073 27.1533 52.8281C 27.1533 53.8535 26.8753 54.6624 26.3193 55.2549C 25.7679 55.8428 24.9954 56.1367 24.002 56.1367C 23.1224 56.1367 22.4046 55.8929 21.8486 55.4053C 21.2926 54.9176 20.9759 54.2432 20.8984 53.3818L 22.0947 53.3818C 22.1722 53.9515 22.375 54.3822 22.7031 54.6738C 23.0312 54.9609 23.4642 55.1045 24.002 55.1045C 24.5898 55.1045 25.0501 54.904 25.3828 54.5029C 25.7201 54.1019 25.8887 53.5482 25.8887 52.8418C 25.8887 52.1764 25.7064 51.6432 25.3418 51.2422C 24.9818 50.8366 24.501 50.6338 23.8994 50.6338C 23.348 50.6338 22.915 50.7546 22.6006 50.9961L 22.2656 51.2695L 21.2539 51.0098ZM 11.4307 72.7549C 11.4307 74.236 11.1777 75.3366 10.6719 76.0566C 10.166 76.7767 9.37533 77.1367 8.2998 77.1367C 7.23796 77.1367 6.45182 76.7858 5.94141 76.084C 5.43099 75.3776 5.16667 74.3249 5.14844 72.9258L 5.14844 71.2373C 5.14844 69.7744 5.40137 68.6875 5.90723 67.9766C 6.41309 67.2656 7.20605 66.9102 8.28613 66.9102C 9.3571 66.9102 10.1455 67.2542 10.6514 67.9424C 11.1572 68.626 11.417 69.6833 11.4307 71.1143L 11.4307 72.7549ZM 10.166 71.0254C 10.166 69.9544 10.0156 69.1751 9.71484 68.6875C 9.41406 68.1953 8.93783 67.9492 8.28613 67.9492C 7.639 67.9492 7.16732 68.193 6.87109 68.6807C 6.57487 69.1683 6.4222 69.918 6.41309 70.9297L 6.41309 72.9531C 6.41309 74.0286 6.56803 74.8239 6.87793 75.3389C 7.19238 75.8493 7.66634 76.1045 8.2998 76.1045C 8.92415 76.1045 9.38672 75.863 9.6875 75.3799C 9.99284 74.8968 10.1523 74.1357 10.166 73.0967L 10.166 71.0254ZM 13.208 76.3369C 13.208 76.1182 13.2718 75.9359 13.3994 75.79C 13.5316 75.6442 13.7275 75.5713 13.9873 75.5713C 14.2471 75.5713 14.443 75.6442 14.5752 75.79C 14.7119 75.9359 14.7803 76.1182 14.7803 76.3369C 14.7803 76.5465 14.7119 76.722 14.5752 76.8633C 14.443 77.0046 14.2471 77.0752 13.9873 77.0752C 13.7275 77.0752 13.5316 77.0046 13.3994 76.8633C 13.2718 76.722 13.208 76.5465 13.208 76.3369ZM 23.168 67.7578L 19.0459 77L 17.7197 77L 21.8281 68.0859L 16.4414 68.0859L 16.4414 67.0469L 23.168 67.0469L 23.168 67.7578ZM 25.1846 72.0098L 25.6904 67.0469L 30.79 67.0469L 30.79 68.2158L 26.7637 68.2158L 26.4629 70.9297C 26.9505 70.6426 27.5042 70.499 28.124 70.499C 29.0309 70.499 29.751 70.7998 30.2842 71.4014C 30.8174 71.9984 31.084 72.8073 31.084 73.8281C 31.084 74.8535 30.806 75.6624 30.25 76.2549C 29.6986 76.8428 28.9261 77.1367 27.9326 77.1367C 27.0531 77.1367 26.3353 76.8929 25.7793 76.4053C 25.2233 75.9176 24.9066 75.2432 24.8291 74.3818L 26.0254 74.3818C 26.1029 74.9515 26.3057 75.3822 26.6338 75.6738C 26.9619 75.9609 27.3949 76.1045 27.9326 76.1045C 28.5205 76.1045 28.9808 75.904 29.3135 75.5029C 29.6507 75.1019 29.8193 74.5482 29.8193 73.8418C 29.8193 73.1764 29.637 72.6432 29.2725 72.2422C 28.9124 71.8366 28.4316 71.6338 27.8301 71.6338C 27.2786 71.6338 26.8457 71.7546 26.5312 71.9961L 26.1963 72.2695L 25.1846 72.0098ZM 19.0527 99L 17.7812 99L 17.7812 90.5713L 15.2314 91.5078L 15.2314 90.3594L 18.8545 88.999L 19.0527 88.999L 19.0527 99Z"/>
<path id="path9_fill" d="M 1.30566 13L 1.30566 3.04688L 4.11523 3.04688C 4.98112 3.04688 5.74674 3.23828 6.41211 3.62109C 7.07747 4.00391 7.59017 4.5485 7.9502 5.25488C 8.31478 5.96126 8.49935 6.77246 8.50391 7.68848L 8.50391 8.32422C 8.50391 9.26302 8.32161 10.0856 7.95703 10.792C 7.59701 11.4984 7.07975 12.0407 6.40527 12.4189C 5.73535 12.7972 4.95378 12.9909 4.06055 13L 1.30566 13ZM 2.61816 4.12695L 2.61816 11.9268L 3.99902 11.9268C 5.01074 11.9268 5.79688 11.6123 6.35742 10.9834C 6.92253 10.3545 7.20508 9.45898 7.20508 8.29688L 7.20508 7.71582C 7.20508 6.58561 6.93848 5.70833 6.40527 5.08398C 5.87663 4.45508 5.12467 4.13607 4.14941 4.12695L 2.61816 4.12695ZM 14.8613 13C 14.7884 12.8542 14.7292 12.5944 14.6836 12.2207C 14.0957 12.8314 13.3939 13.1367 12.5781 13.1367C 11.849 13.1367 11.2497 12.9316 10.7803 12.5215C 10.3154 12.1068 10.083 11.5827 10.083 10.9492C 10.083 10.179 10.3747 9.58203 10.958 9.1582C 11.5459 8.72982 12.3708 8.51562 13.4326 8.51562L 14.6631 8.51562L 14.6631 7.93457C 14.6631 7.49251 14.5309 7.1416 14.2666 6.88184C 14.0023 6.61751 13.6126 6.48535 13.0977 6.48535C 12.6465 6.48535 12.2682 6.59928 11.9629 6.82715C 11.6576 7.05501 11.5049 7.33073 11.5049 7.6543L 10.2334 7.6543C 10.2334 7.28516 10.3633 6.92969 10.623 6.58789C 10.8874 6.24154 11.2428 5.9681 11.6895 5.76758C 12.1406 5.56706 12.6351 5.4668 13.1729 5.4668C 14.0251 5.4668 14.6927 5.68099 15.1758 6.10938C 15.6589 6.5332 15.9095 7.11882 15.9277 7.86621L 15.9277 11.2705C 15.9277 11.9495 16.0143 12.4896 16.1875 12.8906L 16.1875 13L 14.8613 13ZM 12.7627 12.0361C 13.1592 12.0361 13.5352 11.9336 13.8906 11.7285C 14.2461 11.5234 14.5036 11.2568 14.6631 10.9287L 14.6631 9.41113L 13.6719 9.41113C 12.1224 9.41113 11.3477 9.86458 11.3477 10.7715C 11.3477 11.168 11.4798 11.4779 11.7441 11.7012C 12.0085 11.9245 12.348 12.0361 12.7627 12.0361ZM 19.626 3.8125L 19.626 5.60352L 21.0068 5.60352L 21.0068 6.58105L 19.626 6.58105L 19.626 11.168C 19.626 11.4642 19.6875 11.6875 19.8105 11.8379C 19.9336 11.9837 20.1432 12.0566 20.4395 12.0566C 20.5853 12.0566 20.7858 12.0293 21.041 11.9746L 21.041 13C 20.7083 13.0911 20.3848 13.1367 20.0703 13.1367C 19.5052 13.1367 19.0791 12.9658 18.792 12.624C 18.5049 12.2822 18.3613 11.7969 18.3613 11.168L 18.3613 6.58105L 17.0146 6.58105L 17.0146 5.60352L 18.3613 5.60352L 18.3613 3.8125L 19.626 3.8125ZM 27.0566 13C 26.9837 12.8542 26.9245 12.5944 26.8789 12.2207C 26.291 12.8314 25.5892 13.1367 24.7734 13.1367C 24.0443 13.1367 23.445 12.9316 22.9756 12.5215C 22.5107 12.1068 22.2783 11.5827 22.2783 10.9492C 22.2783 10.179 22.57 9.58203 23.1533 9.1582C 23.7412 8.72982 24.5661 8.51562 25.6279 8.51562L 26.8584 8.51562L 26.8584 7.93457C 26.8584 7.49251 26.7262 7.1416 26.4619 6.88184C 26.1976 6.61751 25.8079 6.48535 25.293 6.48535C 24.8418 6.48535 24.4635 6.59928 24.1582 6.82715C 23.8529 7.05501 23.7002 7.33073 23.7002 7.6543L 22.4287 7.6543C 22.4287 7.28516 22.5586 6.92969 22.8184 6.58789C 23.0827 6.24154 23.4382 5.9681 23.8848 5.76758C 24.3359 5.56706 24.8304 5.4668 25.3682 5.4668C 26.2204 5.4668 26.888 5.68099 27.3711 6.10938C 27.8542 6.5332 28.1048 7.11882 28.123 7.86621L 28.123 11.2705C 28.123 11.9495 28.2096 12.4896 28.3828 12.8906L 28.3828 13L 27.0566 13ZM 24.958 12.0361C 25.3545 12.0361 25.7305 11.9336 26.0859 11.7285C 26.4414 11.5234 26.6989 11.2568 26.8584 10.9287L 26.8584 9.41113L 25.8672 9.41113C 24.3177 9.41113 23.543 9.86458 23.543 10.7715C 23.543 11.168 23.6751 11.4779 23.9395 11.7012C 24.2038 11.9245 24.5433 12.0361 24.958 12.0361ZM 39.8398 9.38379C 39.8398 10.514 39.5801 11.4232 39.0605 12.1113C 38.541 12.7949 37.8438 13.1367 36.9688 13.1367C 36.0345 13.1367 35.3122 12.8063 34.8018 12.1455L 34.7402 13L 33.5781 13L 33.5781 2.5L 34.8428 2.5L 34.8428 6.41699C 35.3532 5.78353 36.0573 5.4668 36.9551 5.4668C 37.8529 5.4668 38.557 5.80631 39.0674 6.48535C 39.5824 7.16439 39.8398 8.09408 39.8398 9.27441L 39.8398 9.38379ZM 38.5752 9.24023C 38.5752 8.37891 38.4089 7.71354 38.0762 7.24414C 37.7435 6.77474 37.265 6.54004 36.6406 6.54004C 35.8066 6.54004 35.2074 6.92741 34.8428 7.70215L 34.8428 10.9014C 35.2301 11.6761 35.834 12.0635 36.6543 12.0635C 37.2604 12.0635 37.7321 11.8288 38.0693 11.3594C 38.4066 10.89 38.5752 10.1836 38.5752 9.24023ZM 44.5088 13.1367C 43.5062 13.1367 42.6904 12.8086 42.0615 12.1523C 41.4326 11.4915 41.1182 10.6097 41.1182 9.50684L 41.1182 9.27441C 41.1182 8.54069 41.2572 7.88672 41.5352 7.3125C 41.8177 6.73372 42.2096 6.28255 42.7109 5.95898C 43.2168 5.63086 43.7637 5.4668 44.3516 5.4668C 45.3132 5.4668 46.0605 5.78353 46.5938 6.41699C 47.127 7.05046 47.3936 7.95736 47.3936 9.1377L 47.3936 9.66406L 42.3828 9.66406C 42.401 10.3932 42.613 10.9834 43.0186 11.4346C 43.4287 11.8812 43.9482 12.1045 44.5771 12.1045C 45.0238 12.1045 45.402 12.0133 45.7119 11.8311C 46.0218 11.6488 46.293 11.4072 46.5254 11.1064L 47.2979 11.708C 46.6781 12.6605 45.7484 13.1367 44.5088 13.1367ZM 44.3516 6.50586C 43.8411 6.50586 43.4128 6.69271 43.0664 7.06641C 42.7201 7.43555 42.5059 7.95508 42.4238 8.625L 46.1289 8.625L 46.1289 8.5293C 46.0924 7.88672 45.9193 7.38997 45.6094 7.03906C 45.2995 6.68359 44.8802 6.50586 44.3516 6.50586ZM 49.4854 13L 49.4854 6.58105L 48.3164 6.58105L 48.3164 5.60352L 49.4854 5.60352L 49.4854 4.84473C 49.4854 4.05176 49.6973 3.4388 50.1211 3.00586C 50.5449 2.57292 51.1442 2.35645 51.9189 2.35645C 52.2106 2.35645 52.5 2.39518 52.7871 2.47266L 52.7188 3.49805C 52.5046 3.45703 52.2767 3.43652 52.0352 3.43652C 51.625 3.43652 51.3083 3.55729 51.085 3.79883C 50.8617 4.03581 50.75 4.3776 50.75 4.82422L 50.75 5.60352L 52.3291 5.60352L 52.3291 6.58105L 50.75 6.58105L 50.75 13L 49.4854 13ZM 53.3955 9.2334C 53.3955 8.50879 53.5368 7.8571 53.8193 7.27832C 54.1064 6.69954 54.5029 6.25293 55.0088 5.93848C 55.5192 5.62402 56.1003 5.4668 56.752 5.4668C 57.7591 5.4668 58.5726 5.81543 59.1924 6.5127C 59.8167 7.20996 60.1289 8.13737 60.1289 9.29492L 60.1289 9.38379C 60.1289 10.1038 59.9899 10.751 59.7119 11.3252C 59.4385 11.8949 59.0443 12.3392 58.5293 12.6582C 58.0189 12.9772 57.431 13.1367 56.7656 13.1367C 55.763 13.1367 54.9495 12.7881 54.3252 12.0908C 53.7054 11.3936 53.3955 10.4707 53.3955 9.32227L 53.3955 9.2334ZM 54.667 9.38379C 54.667 10.2041 54.8561 10.8626 55.2344 11.3594C 55.6172 11.8561 56.1276 12.1045 56.7656 12.1045C 57.4082 12.1045 57.9186 11.8538 58.2969 11.3525C 58.6751 10.8467 58.8643 10.1403 58.8643 9.2334C 58.8643 8.4222 58.6706 7.76595 58.2832 7.26465C 57.9004 6.75879 57.39 6.50586 56.752 6.50586C 56.1276 6.50586 55.624 6.75423 55.2412 7.25098C 54.8584 7.74772 54.667 8.45866 54.667 9.38379ZM 65.29 6.73828C 65.0986 6.70638 64.8913 6.69043 64.668 6.69043C 63.8385 6.69043 63.2757 7.04362 62.9795 7.75L 62.9795 13L 61.7148 13L 61.7148 5.60352L 62.9453 5.60352L 62.9658 6.45801C 63.3805 5.7972 63.9684 5.4668 64.7295 5.4668C 64.9756 5.4668 65.1624 5.4987 65.29 5.5625L 65.29 6.73828ZM 69.3916 13.1367C 68.389 13.1367 67.5732 12.8086 66.9443 12.1523C 66.3154 11.4915 66.001 10.6097 66.001 9.50684L 66.001 9.27441C 66.001 8.54069 66.14 7.88672 66.418 7.3125C 66.7005 6.73372 67.0924 6.28255 67.5938 5.95898C 68.0996 5.63086 68.6465 5.4668 69.2344 5.4668C 70.196 5.4668 70.9434 5.78353 71.4766 6.41699C 72.0098 7.05046 72.2764 7.95736 72.2764 9.1377L 72.2764 9.66406L 67.2656 9.66406C 67.2839 10.3932 67.4958 10.9834 67.9014 11.4346C 68.3115 11.8812 68.8311 12.1045 69.46 12.1045C 69.9066 12.1045 70.2848 12.0133 70.5947 11.8311C 70.9046 11.6488 71.1758 11.4072 71.4082 11.1064L 72.1807 11.708C 71.5609 12.6605 70.6312 13.1367 69.3916 13.1367ZM 69.2344 6.50586C 68.724 6.50586 68.2956 6.69271 67.9492 7.06641C 67.6029 7.43555 67.3887 7.95508 67.3066 8.625L 71.0117 8.625L 71.0117 8.5293C 70.9753 7.88672 70.8021 7.38997 70.4922 7.03906C 70.1823 6.68359 69.763 6.50586 69.2344 6.50586ZM 80.7939 6.73828C 80.6025 6.70638 80.3952 6.69043 80.1719 6.69043C 79.3424 6.69043 78.7796 7.04362 78.4834 7.75L 78.4834 13L 77.2188 13L 77.2188 5.60352L 78.4492 5.60352L 78.4697 6.45801C 78.8844 5.7972 79.4723 5.4668 80.2334 5.4668C 80.4795 5.4668 80.6663 5.4987 80.7939 5.5625L 80.7939 6.73828ZM 84.8955 13.1367C 83.8929 13.1367 83.0771 12.8086 82.4482 12.1523C 81.8193 11.4915 81.5049 10.6097 81.5049 9.50684L 81.5049 9.27441C 81.5049 8.54069 81.6439 7.88672 81.9219 7.3125C 82.2044 6.73372 82.5964 6.28255 83.0977 5.95898C 83.6035 5.63086 84.1504 5.4668 84.7383 5.4668C 85.6999 5.4668 86.4473 5.78353 86.9805 6.41699C 87.5137 7.05046 87.7803 7.95736 87.7803 9.1377L 87.7803 9.66406L 82.7695 9.66406C 82.7878 10.3932 82.9997 10.9834 83.4053 11.4346C 83.8154 11.8812 84.335 12.1045 84.9639 12.1045C 85.4105 12.1045 85.7887 12.0133 86.0986 11.8311C 86.4085 11.6488 86.6797 11.4072 86.9121 11.1064L 87.6846 11.708C 87.0648 12.6605 86.1351 13.1367 84.8955 13.1367ZM 84.7383 6.50586C 84.2279 6.50586 83.7995 6.69271 83.4531 7.06641C 83.1068 7.43555 82.8926 7.95508 82.8105 8.625L 86.5156 8.625L 86.5156 8.5293C 86.4792 7.88672 86.306 7.38997 85.9961 7.03906C 85.6862 6.68359 85.2669 6.50586 84.7383 6.50586ZM 93.5566 11.0381C 93.5566 10.6963 93.4268 10.432 93.167 10.2451C 92.9118 10.0537 92.4629 9.88965 91.8203 9.75293C 91.1823 9.61621 90.6742 9.45215 90.2959 9.26074C 89.9222 9.06934 89.6442 8.84147 89.4619 8.57715C 89.2842 8.31283 89.1953 7.99837 89.1953 7.63379C 89.1953 7.02767 89.4505 6.51497 89.9609 6.0957C 90.4759 5.67643 91.1322 5.4668 91.9297 5.4668C 92.7682 5.4668 93.4473 5.68327 93.9668 6.11621C 94.4909 6.54915 94.7529 7.10286 94.7529 7.77734L 93.4814 7.77734C 93.4814 7.43099 93.3333 7.13249 93.0371 6.88184C 92.7454 6.63118 92.3763 6.50586 91.9297 6.50586C 91.4694 6.50586 91.1094 6.60612 90.8496 6.80664C 90.5898 7.00716 90.46 7.26921 90.46 7.59277C 90.46 7.89811 90.5807 8.12826 90.8223 8.2832C 91.0638 8.43815 91.499 8.58626 92.1279 8.72754C 92.7614 8.86882 93.2741 9.03743 93.666 9.2334C 94.0579 9.42936 94.3473 9.66634 94.5342 9.94434C 94.7256 10.2178 94.8213 10.5527 94.8213 10.9492C 94.8213 11.61 94.557 12.141 94.0283 12.542C 93.4997 12.9385 92.8138 13.1367 91.9707 13.1367C 91.3783 13.1367 90.8542 13.0319 90.3984 12.8223C 89.9427 12.6126 89.585 12.321 89.3252 11.9473C 89.07 11.569 88.9424 11.1611 88.9424 10.7236L 90.207 10.7236C 90.2298 11.1475 90.3984 11.4847 90.7129 11.7354C 91.0319 11.9814 91.4512 12.1045 91.9707 12.1045C 92.4492 12.1045 92.832 12.0088 93.1191 11.8174C 93.4108 11.6214 93.5566 11.3617 93.5566 11.0381ZM 99.4355 12.1045C 99.8867 12.1045 100.281 11.9678 100.618 11.6943C 100.955 11.4209 101.142 11.0791 101.179 10.6689L 102.375 10.6689C 102.352 11.0928 102.206 11.4961 101.938 11.8789C 101.669 12.2617 101.309 12.5671 100.857 12.7949C 100.411 13.0228 99.9368 13.1367 99.4355 13.1367C 98.4284 13.1367 97.6263 12.8018 97.0293 12.1318C 96.4368 11.4574 96.1406 10.5368 96.1406 9.37012L 96.1406 9.1582C 96.1406 8.43815 96.2728 7.79785 96.5371 7.2373C 96.8014 6.67676 97.1797 6.24154 97.6719 5.93164C 98.1686 5.62174 98.7542 5.4668 99.4287 5.4668C 100.258 5.4668 100.946 5.71517 101.493 6.21191C 102.045 6.70866 102.339 7.35352 102.375 8.14648L 101.179 8.14648C 101.142 7.66797 100.96 7.27604 100.632 6.9707C 100.308 6.66081 99.9072 6.50586 99.4287 6.50586C 98.7861 6.50586 98.2871 6.73828 97.9316 7.20312C 97.5807 7.66341 97.4053 8.33105 97.4053 9.20605L 97.4053 9.44531C 97.4053 10.2975 97.5807 10.9538 97.9316 11.4141C 98.2826 11.8743 98.7839 12.1045 99.4355 12.1045ZM 108.363 13C 108.29 12.8542 108.231 12.5944 108.186 12.2207C 107.598 12.8314 106.896 13.1367 106.08 13.1367C 105.351 13.1367 104.752 12.9316 104.282 12.5215C 103.817 12.1068 103.585 11.5827 103.585 10.9492C 103.585 10.179 103.877 9.58203 104.46 9.1582C 105.048 8.72982 105.873 8.51562 106.935 8.51562L 108.165 8.51562L 108.165 7.93457C 108.165 7.49251 108.033 7.1416 107.769 6.88184C 107.504 6.61751 107.115 6.48535 106.6 6.48535C 106.148 6.48535 105.77 6.59928 105.465 6.82715C 105.16 7.05501 105.007 7.33073 105.007 7.6543L 103.735 7.6543C 103.735 7.28516 103.865 6.92969 104.125 6.58789C 104.389 6.24154 104.745 5.9681 105.191 5.76758C 105.643 5.56706 106.137 5.4668 106.675 5.4668C 107.527 5.4668 108.195 5.68099 108.678 6.10938C 109.161 6.5332 109.411 7.11882 109.43 7.86621L 109.43 11.2705C 109.43 11.9495 109.516 12.4896 109.689 12.8906L 109.689 13L 108.363 13ZM 106.265 12.0361C 106.661 12.0361 107.037 11.9336 107.393 11.7285C 107.748 11.5234 108.006 11.2568 108.165 10.9287L 108.165 9.41113L 107.174 9.41113C 105.624 9.41113 104.85 9.86458 104.85 10.7715C 104.85 11.168 104.982 11.4779 105.246 11.7012C 105.51 11.9245 105.85 12.0361 106.265 12.0361ZM 112.786 13L 111.521 13L 111.521 2.5L 112.786 2.5L 112.786 13ZM 116.19 13L 114.926 13L 114.926 5.60352L 116.19 5.60352L 116.19 13ZM 114.823 3.6416C 114.823 3.43652 114.885 3.26335 115.008 3.12207C 115.135 2.98079 115.322 2.91016 115.568 2.91016C 115.814 2.91016 116.001 2.98079 116.129 3.12207C 116.257 3.26335 116.32 3.43652 116.32 3.6416C 116.32 3.84668 116.257 4.01758 116.129 4.1543C 116.001 4.29102 115.814 4.35938 115.568 4.35938C 115.322 4.35938 115.135 4.29102 115.008 4.1543C 114.885 4.01758 114.823 3.84668 114.823 3.6416ZM 119.417 5.60352L 119.458 6.5332C 120.023 5.82227 120.761 5.4668 121.673 5.4668C 123.236 5.4668 124.024 6.34863 124.038 8.1123L 124.038 13L 122.773 13L 122.773 8.10547C 122.769 7.57227 122.646 7.17806 122.404 6.92285C 122.167 6.66764 121.796 6.54004 121.29 6.54004C 120.88 6.54004 120.52 6.64941 120.21 6.86816C 119.9 7.08691 119.659 7.37402 119.485 7.72949L 119.485 13L 118.221 13L 118.221 5.60352L 119.417 5.60352ZM 125.645 9.24023C 125.645 8.08724 125.911 7.17122 126.444 6.49219C 126.978 5.80859 127.684 5.4668 128.563 5.4668C 129.466 5.4668 130.17 5.78581 130.676 6.42383L 130.737 5.60352L 131.893 5.60352L 131.893 12.8223C 131.893 13.7793 131.608 14.5335 131.038 15.085C 130.473 15.6364 129.712 15.9121 128.755 15.9121C 128.222 15.9121 127.7 15.7982 127.189 15.5703C 126.679 15.3424 126.289 15.0303 126.021 14.6338L 126.677 13.875C 127.219 14.5449 127.882 14.8799 128.666 14.8799C 129.281 14.8799 129.76 14.7067 130.102 14.3604C 130.448 14.014 130.621 13.5264 130.621 12.8975L 130.621 12.2617C 130.115 12.8451 129.425 13.1367 128.55 13.1367C 127.684 13.1367 126.982 12.7881 126.444 12.0908C 125.911 11.3936 125.645 10.4434 125.645 9.24023ZM 126.916 9.38379C 126.916 10.2178 127.087 10.874 127.429 11.3525C 127.771 11.8265 128.249 12.0635 128.864 12.0635C 129.662 12.0635 130.247 11.7012 130.621 10.9766L 130.621 7.59961C 130.234 6.89323 129.653 6.54004 128.878 6.54004C 128.263 6.54004 127.782 6.7793 127.436 7.25781C 127.089 7.73633 126.916 8.44499 126.916 9.38379Z"/>
<path id="path10_fill" d="M 1.27441 13L 1.27441 3.04688L 4.08398 3.04688C 4.94987 3.04688 5.71549 3.23828 6.38086 3.62109C 7.04622 4.00391 7.55892 4.5485 7.91895 5.25488C 8.28353 5.96126 8.4681 6.77246 8.47266 7.68848L 8.47266 8.32422C 8.47266 9.26302 8.29036 10.0856 7.92578 10.792C 7.56576 11.4984 7.0485 12.0407 6.37402 12.4189C 5.7041 12.7972 4.92253 12.9909 4.0293 13L 1.27441 13ZM 2.58691 4.12695L 2.58691 11.9268L 3.96777 11.9268C 4.97949 11.9268 5.76562 11.6123 6.32617 10.9834C 6.89128 10.3545 7.17383 9.45898 7.17383 8.29688L 7.17383 7.71582C 7.17383 6.58561 6.90723 5.70833 6.37402 5.08398C 5.84538 4.45508 5.09342 4.13607 4.11816 4.12695L 2.58691 4.12695ZM 14.8301 13C 14.7572 12.8542 14.6979 12.5944 14.6523 12.2207C 14.0645 12.8314 13.3626 13.1367 12.5469 13.1367C 11.8177 13.1367 11.2184 12.9316 10.749 12.5215C 10.2842 12.1068 10.0518 11.5827 10.0518 10.9492C 10.0518 10.179 10.3434 9.58203 10.9268 9.1582C 11.5146 8.72982 12.3395 8.51562 13.4014 8.51562L 14.6318 8.51562L 14.6318 7.93457C 14.6318 7.49251 14.4997 7.1416 14.2354 6.88184C 13.971 6.61751 13.5814 6.48535 13.0664 6.48535C 12.6152 6.48535 12.237 6.59928 11.9316 6.82715C 11.6263 7.05501 11.4736 7.33073 11.4736 7.6543L 10.2021 7.6543C 10.2021 7.28516 10.332 6.92969 10.5918 6.58789C 10.8561 6.24154 11.2116 5.9681 11.6582 5.76758C 12.1094 5.56706 12.6038 5.4668 13.1416 5.4668C 13.9938 5.4668 14.6615 5.68099 15.1445 6.10938C 15.6276 6.5332 15.8783 7.11882 15.8965 7.86621L 15.8965 11.2705C 15.8965 11.9495 15.9831 12.4896 16.1562 12.8906L 16.1562 13L 14.8301 13ZM 12.7314 12.0361C 13.1279 12.0361 13.5039 11.9336 13.8594 11.7285C 14.2148 11.5234 14.4723 11.2568 14.6318 10.9287L 14.6318 9.41113L 13.6406 9.41113C 12.0911 9.41113 11.3164 9.86458 11.3164 10.7715C 11.3164 11.168 11.4486 11.4779 11.7129 11.7012C 11.9772 11.9245 12.3167 12.0361 12.7314 12.0361ZM 19.5947 3.8125L 19.5947 5.60352L 20.9756 5.60352L 20.9756 6.58105L 19.5947 6.58105L 19.5947 11.168C 19.5947 11.4642 19.6562 11.6875 19.7793 11.8379C 19.9023 11.9837 20.112 12.0566 20.4082 12.0566C 20.554 12.0566 20.7546 12.0293 21.0098 11.9746L 21.0098 13C 20.6771 13.0911 20.3535 13.1367 20.0391 13.1367C 19.474 13.1367 19.0479 12.9658 18.7607 12.624C 18.4736 12.2822 18.3301 11.7969 18.3301 11.168L 18.3301 6.58105L 16.9834 6.58105L 16.9834 5.60352L 18.3301 5.60352L 18.3301 3.8125L 19.5947 3.8125ZM 27.0254 13C 26.9525 12.8542 26.8932 12.5944 26.8477 12.2207C 26.2598 12.8314 25.5579 13.1367 24.7422 13.1367C 24.013 13.1367 23.4137 12.9316 22.9443 12.5215C 22.4795 12.1068 22.2471 11.5827 22.2471 10.9492C 22.2471 10.179 22.5387 9.58203 23.1221 9.1582C 23.71 8.72982 24.5348 8.51562 25.5967 8.51562L 26.8271 8.51562L 26.8271 7.93457C 26.8271 7.49251 26.695 7.1416 26.4307 6.88184C 26.1663 6.61751 25.7767 6.48535 25.2617 6.48535C 24.8105 6.48535 24.4323 6.59928 24.127 6.82715C 23.8216 7.05501 23.6689 7.33073 23.6689 7.6543L 22.3975 7.6543C 22.3975 7.28516 22.5273 6.92969 22.7871 6.58789C 23.0514 6.24154 23.4069 5.9681 23.8535 5.76758C 24.3047 5.56706 24.7992 5.4668 25.3369 5.4668C 26.1891 5.4668 26.8568 5.68099 27.3398 6.10938C 27.8229 6.5332 28.0736 7.11882 28.0918 7.86621L 28.0918 11.2705C 28.0918 11.9495 28.1784 12.4896 28.3516 12.8906L 28.3516 13L 27.0254 13ZM 24.9268 12.0361C 25.3232 12.0361 25.6992 11.9336 26.0547 11.7285C 26.4102 11.5234 26.6676 11.2568 26.8271 10.9287L 26.8271 9.41113L 25.8359 9.41113C 24.2865 9.41113 23.5117 9.86458 23.5117 10.7715C 23.5117 11.168 23.6439 11.4779 23.9082 11.7012C 24.1725 11.9245 24.512 12.0361 24.9268 12.0361ZM 38.1133 13C 38.0404 12.8542 37.9811 12.5944 37.9355 12.2207C 37.3477 12.8314 36.6458 13.1367 35.8301 13.1367C 35.1009 13.1367 34.5016 12.9316 34.0322 12.5215C 33.5674 12.1068 33.335 11.5827 33.335 10.9492C 33.335 10.179 33.6266 9.58203 34.21 9.1582C 34.7979 8.72982 35.6227 8.51562 36.6846 8.51562L 37.915 8.51562L 37.915 7.93457C 37.915 7.49251 37.7829 7.1416 37.5186 6.88184C 37.2542 6.61751 36.8646 6.48535 36.3496 6.48535C 35.8984 6.48535 35.5202 6.59928 35.2148 6.82715C 34.9095 7.05501 34.7568 7.33073 34.7568 7.6543L 33.4854 7.6543C 33.4854 7.28516 33.6152 6.92969 33.875 6.58789C 34.1393 6.24154 34.4948 5.9681 34.9414 5.76758C 35.3926 5.56706 35.887 5.4668 36.4248 5.4668C 37.277 5.4668 37.9447 5.68099 38.4277 6.10938C 38.9108 6.5332 39.1615 7.11882 39.1797 7.86621L 39.1797 11.2705C 39.1797 11.9495 39.2663 12.4896 39.4395 12.8906L 39.4395 13L 38.1133 13ZM 36.0146 12.0361C 36.4111 12.0361 36.7871 11.9336 37.1426 11.7285C 37.498 11.5234 37.7555 11.2568 37.915 10.9287L 37.915 9.41113L 36.9238 9.41113C 35.3743 9.41113 34.5996 9.86458 34.5996 10.7715C 34.5996 11.168 34.7318 11.4779 34.9961 11.7012C 35.2604 11.9245 35.5999 12.0361 36.0146 12.0361ZM 41.7842 13L 41.7842 6.58105L 40.6152 6.58105L 40.6152 5.60352L 41.7842 5.60352L 41.7842 4.84473C 41.7842 4.05176 41.9961 3.4388 42.4199 3.00586C 42.8438 2.57292 43.443 2.35645 44.2178 2.35645C 44.5094 2.35645 44.7988 2.39518 45.0859 2.47266L 45.0176 3.49805C 44.8034 3.45703 44.5755 3.43652 44.334 3.43652C 43.9238 3.43652 43.6071 3.55729 43.3838 3.79883C 43.1605 4.03581 43.0488 4.3776 43.0488 4.82422L 43.0488 5.60352L 44.6279 5.60352L 44.6279 6.58105L 43.0488 6.58105L 43.0488 13L 41.7842 13ZM 47.7451 3.8125L 47.7451 5.60352L 49.126 5.60352L 49.126 6.58105L 47.7451 6.58105L 47.7451 11.168C 47.7451 11.4642 47.8066 11.6875 47.9297 11.8379C 48.0527 11.9837 48.2624 12.0566 48.5586 12.0566C 48.7044 12.0566 48.9049 12.0293 49.1602 11.9746L 49.1602 13C 48.8275 13.0911 48.5039 13.1367 48.1895 13.1367C 47.6243 13.1367 47.1982 12.9658 46.9111 12.624C 46.624 12.2822 46.4805 11.7969 46.4805 11.168L 46.4805 6.58105L 45.1338 6.58105L 45.1338 5.60352L 46.4805 5.60352L 46.4805 3.8125L 47.7451 3.8125ZM 53.6787 13.1367C 52.6761 13.1367 51.8604 12.8086 51.2314 12.1523C 50.6025 11.4915 50.2881 10.6097 50.2881 9.50684L 50.2881 9.27441C 50.2881 8.54069 50.4271 7.88672 50.7051 7.3125C 50.9876 6.73372 51.3796 6.28255 51.8809 5.95898C 52.3867 5.63086 52.9336 5.4668 53.5215 5.4668C 54.4831 5.4668 55.2305 5.78353 55.7637 6.41699C 56.2969 7.05046 56.5635 7.95736 56.5635 9.1377L 56.5635 9.66406L 51.5527 9.66406C 51.571 10.3932 51.7829 10.9834 52.1885 11.4346C 52.5986 11.8812 53.1182 12.1045 53.7471 12.1045C 54.1937 12.1045 54.5719 12.0133 54.8818 11.8311C 55.1917 11.6488 55.4629 11.4072 55.6953 11.1064L 56.4678 11.708C 55.848 12.6605 54.9183 13.1367 53.6787 13.1367ZM 53.5215 6.50586C 53.0111 6.50586 52.5827 6.69271 52.2363 7.06641C 51.89 7.43555 51.6758 7.95508 51.5938 8.625L 55.2988 8.625L 55.2988 8.5293C 55.2624 7.88672 55.0892 7.38997 54.7793 7.03906C 54.4694 6.68359 54.0501 6.50586 53.5215 6.50586ZM 61.6084 6.73828C 61.417 6.70638 61.2096 6.69043 60.9863 6.69043C 60.1569 6.69043 59.5941 7.04362 59.2979 7.75L 59.2979 13L 58.0332 13L 58.0332 5.60352L 59.2637 5.60352L 59.2842 6.45801C 59.6989 5.7972 60.2868 5.4668 61.0479 5.4668C 61.2939 5.4668 61.4808 5.4987 61.6084 5.5625L 61.6084 6.73828ZM 69.8252 6.73828C 69.6338 6.70638 69.4264 6.69043 69.2031 6.69043C 68.3737 6.69043 67.8109 7.04362 67.5146 7.75L 67.5146 13L 66.25 13L 66.25 5.60352L 67.4805 5.60352L 67.501 6.45801C 67.9157 5.7972 68.5036 5.4668 69.2646 5.4668C 69.5107 5.4668 69.6976 5.4987 69.8252 5.5625L 69.8252 6.73828ZM 73.9268 13.1367C 72.9242 13.1367 72.1084 12.8086 71.4795 12.1523C 70.8506 11.4915 70.5361 10.6097 70.5361 9.50684L 70.5361 9.27441C 70.5361 8.54069 70.6751 7.88672 70.9531 7.3125C 71.2357 6.73372 71.6276 6.28255 72.1289 5.95898C 72.6348 5.63086 73.1816 5.4668 73.7695 5.4668C 74.7311 5.4668 75.4785 5.78353 76.0117 6.41699C 76.5449 7.05046 76.8115 7.95736 76.8115 9.1377L 76.8115 9.66406L 71.8008 9.66406C 71.819 10.3932 72.0309 10.9834 72.4365 11.4346C 72.8467 11.8812 73.3662 12.1045 73.9951 12.1045C 74.4417 12.1045 74.82 12.0133 75.1299 11.8311C 75.4398 11.6488 75.7109 11.4072 75.9434 11.1064L 76.7158 11.708C 76.096 12.6605 75.1663 13.1367 73.9268 13.1367ZM 73.7695 6.50586C 73.2591 6.50586 72.8307 6.69271 72.4844 7.06641C 72.138 7.43555 71.9238 7.95508 71.8418 8.625L 75.5469 8.625L 75.5469 8.5293C 75.5104 7.88672 75.3372 7.38997 75.0273 7.03906C 74.7174 6.68359 74.2982 6.50586 73.7695 6.50586ZM 82.5879 11.0381C 82.5879 10.6963 82.458 10.432 82.1982 10.2451C 81.943 10.0537 81.4941 9.88965 80.8516 9.75293C 80.2135 9.61621 79.7054 9.45215 79.3271 9.26074C 78.9535 9.06934 78.6755 8.84147 78.4932 8.57715C 78.3154 8.31283 78.2266 7.99837 78.2266 7.63379C 78.2266 7.02767 78.4818 6.51497 78.9922 6.0957C 79.5072 5.67643 80.1634 5.4668 80.9609 5.4668C 81.7995 5.4668 82.4785 5.68327 82.998 6.11621C 83.5221 6.54915 83.7842 7.10286 83.7842 7.77734L 82.5127 7.77734C 82.5127 7.43099 82.3646 7.13249 82.0684 6.88184C 81.7767 6.63118 81.4076 6.50586 80.9609 6.50586C 80.5007 6.50586 80.1406 6.60612 79.8809 6.80664C 79.6211 7.00716 79.4912 7.26921 79.4912 7.59277C 79.4912 7.89811 79.612 8.12826 79.8535 8.2832C 80.0951 8.43815 80.5303 8.58626 81.1592 8.72754C 81.7926 8.86882 82.3053 9.03743 82.6973 9.2334C 83.0892 9.42936 83.3786 9.66634 83.5654 9.94434C 83.7568 10.2178 83.8525 10.5527 83.8525 10.9492C 83.8525 11.61 83.5882 12.141 83.0596 12.542C 82.5309 12.9385 81.8451 13.1367 81.002 13.1367C 80.4095 13.1367 79.8854 13.0319 79.4297 12.8223C 78.974 12.6126 78.6162 12.321 78.3564 11.9473C 78.1012 11.569 77.9736 11.1611 77.9736 10.7236L 79.2383 10.7236C 79.2611 11.1475 79.4297 11.4847 79.7441 11.7354C 80.0632 11.9814 80.4824 12.1045 81.002 12.1045C 81.4805 12.1045 81.8633 12.0088 82.1504 11.8174C 82.4421 11.6214 82.5879 11.3617 82.5879 11.0381ZM 88.4668 12.1045C 88.918 12.1045 89.3122 11.9678 89.6494 11.6943C 89.9867 11.4209 90.1735 11.0791 90.21 10.6689L 91.4062 10.6689C 91.3835 11.0928 91.2376 11.4961 90.9688 11.8789C 90.6999 12.2617 90.3398 12.5671 89.8887 12.7949C 89.4421 13.0228 88.9681 13.1367 88.4668 13.1367C 87.4596 13.1367 86.6576 12.8018 86.0605 12.1318C 85.4681 11.4574 85.1719 10.5368 85.1719 9.37012L 85.1719 9.1582C 85.1719 8.43815 85.304 7.79785 85.5684 7.2373C 85.8327 6.67676 86.2109 6.24154 86.7031 5.93164C 87.1999 5.62174 87.7855 5.4668 88.46 5.4668C 89.2894 5.4668 89.9775 5.71517 90.5244 6.21191C 91.0758 6.70866 91.3698 7.35352 91.4062 8.14648L 90.21 8.14648C 90.1735 7.66797 89.9912 7.27604 89.6631 6.9707C 89.3395 6.66081 88.9385 6.50586 88.46 6.50586C 87.8174 6.50586 87.3184 6.73828 86.9629 7.20312C 86.612 7.66341 86.4365 8.33105 86.4365 9.20605L 86.4365 9.44531C 86.4365 10.2975 86.612 10.9538 86.9629 11.4141C 87.3138 11.8743 87.8151 12.1045 88.4668 12.1045ZM 97.3945 13C 97.3216 12.8542 97.2624 12.5944 97.2168 12.2207C 96.6289 12.8314 95.9271 13.1367 95.1113 13.1367C 94.3822 13.1367 93.7829 12.9316 93.3135 12.5215C 92.8486 12.1068 92.6162 11.5827 92.6162 10.9492C 92.6162 10.179 92.9079 9.58203 93.4912 9.1582C 94.0791 8.72982 94.904 8.51562 95.9658 8.51562L 97.1963 8.51562L 97.1963 7.93457C 97.1963 7.49251 97.0641 7.1416 96.7998 6.88184C 96.5355 6.61751 96.1458 6.48535 95.6309 6.48535C 95.1797 6.48535 94.8014 6.59928 94.4961 6.82715C 94.1908 7.05501 94.0381 7.33073 94.0381 7.6543L 92.7666 7.6543C 92.7666 7.28516 92.8965 6.92969 93.1562 6.58789C 93.4206 6.24154 93.776 5.9681 94.2227 5.76758C 94.6738 5.56706 95.1683 5.4668 95.7061 5.4668C 96.5583 5.4668 97.2259 5.68099 97.709 6.10938C 98.1921 6.5332 98.4427 7.11882 98.4609 7.86621L 98.4609 11.2705C 98.4609 11.9495 98.5475 12.4896 98.7207 12.8906L 98.7207 13L 97.3945 13ZM 95.2959 12.0361C 95.6924 12.0361 96.0684 11.9336 96.4238 11.7285C 96.7793 11.5234 97.0368 11.2568 97.1963 10.9287L 97.1963 9.41113L 96.2051 9.41113C 94.6556 9.41113 93.8809 9.86458 93.8809 10.7715C 93.8809 11.168 94.013 11.4779 94.2773 11.7012C 94.5417 11.9245 94.8812 12.0361 95.2959 12.0361ZM 101.817 13L 100.553 13L 100.553 2.5L 101.817 2.5L 101.817 13ZM 105.222 13L 103.957 13L 103.957 5.60352L 105.222 5.60352L 105.222 13ZM 103.854 3.6416C 103.854 3.43652 103.916 3.26335 104.039 3.12207C 104.167 2.98079 104.354 2.91016 104.6 2.91016C 104.846 2.91016 105.033 2.98079 105.16 3.12207C 105.288 3.26335 105.352 3.43652 105.352 3.6416C 105.352 3.84668 105.288 4.01758 105.16 4.1543C 105.033 4.29102 104.846 4.35938 104.6 4.35938C 104.354 4.35938 104.167 4.29102 104.039 4.1543C 103.916 4.01758 103.854 3.84668 103.854 3.6416ZM 108.448 5.60352L 108.489 6.5332C 109.054 5.82227 109.793 5.4668 110.704 5.4668C 112.267 5.4668 113.056 6.34863 113.069 8.1123L 113.069 13L 111.805 13L 111.805 8.10547C 111.8 7.57227 111.677 7.17806 111.436 6.92285C 111.199 6.66764 110.827 6.54004 110.321 6.54004C 109.911 6.54004 109.551 6.64941 109.241 6.86816C 108.931 7.08691 108.69 7.37402 108.517 7.72949L 108.517 13L 107.252 13L 107.252 5.60352L 108.448 5.60352ZM 114.676 9.24023C 114.676 8.08724 114.942 7.17122 115.476 6.49219C 116.009 5.80859 116.715 5.4668 117.595 5.4668C 118.497 5.4668 119.201 5.78581 119.707 6.42383L 119.769 5.60352L 120.924 5.60352L 120.924 12.8223C 120.924 13.7793 120.639 14.5335 120.069 15.085C 119.504 15.6364 118.743 15.9121 117.786 15.9121C 117.253 15.9121 116.731 15.7982 116.221 15.5703C 115.71 15.3424 115.321 15.0303 115.052 14.6338L 115.708 13.875C 116.25 14.5449 116.913 14.8799 117.697 14.8799C 118.312 14.8799 118.791 14.7067 119.133 14.3604C 119.479 14.014 119.652 13.5264 119.652 12.8975L 119.652 12.2617C 119.146 12.8451 118.456 13.1367 117.581 13.1367C 116.715 13.1367 116.013 12.7881 115.476 12.0908C 114.942 11.3936 114.676 10.4434 114.676 9.24023ZM 115.947 9.38379C 115.947 10.2178 116.118 10.874 116.46 11.3525C 116.802 11.8265 117.28 12.0635 117.896 12.0635C 118.693 12.0635 119.279 11.7012 119.652 10.9766L 119.652 7.59961C 119.265 6.89323 118.684 6.54004 117.909 6.54004C 117.294 6.54004 116.813 6.7793 116.467 7.25781C 116.12 7.73633 115.947 8.44499 115.947 9.38379Z"/>
</defs>
</svg>
