<svg width="1566" height="860" viewBox="0 0 1566 860" version="1.1" xmlns="http://www.w3.org/2000/svg" xmlns:xlink="http://www.w3.org/1999/xlink">
<title>Frame</title>
<desc>Created using Figma</desc>
<g id="Canvas" transform="matrix(2 0 0 2 786 900)">
<clipPath id="clip-0" clip-rule="evenodd">
<path d="M -393 -450L 390 -450L 390 -20L -393 -20L -393 -450Z" fill="#FFFFFF"/>
</clipPath>
<g id="Frame" clip-path="url(#clip-0)">
<path d="M -393 -450L 390 -450L 390 -20L -393 -20L -393 -450Z" fill="#FFFFFF"/>
<g id="Rectangle">
<use xlink:href="#path0_fill" transform="translate(-151 -428)" fill="#C4C4C4"/>
<mask id="mask0_outline_ins">
<use xlink:href="#path0_fill" fill="white" transform="translate(-151 -428)"/>
</mask>
<g mask="url(#mask0_outline_ins)">
<use xlink:href="#path1_stroke_2x" transform="translate(-151 -428)"/>
</g>
</g>
<g id="Is it a food?">
<use xlink:href="#path2_fill" transform="translate(-140 -412)"/>
</g>
<g id="Rectangle">
<use xlink:href="#path0_fill" transform="translate(-151 -428)" fill="#C4C4C4"/>
<mask id="mask1_outline_ins">
<use xlink:href="#path0_fill" fill="white" transform="translate(-151 -428)"/>
</mask>
<g mask="url(#mask1_outline_ins)">
<use xlink:href="#path1_stroke_2x" transform="translate(-151 -428)"/>
</g>
</g>
<g id="Is it a food?">
<use xlink:href="#path3_fill" transform="translate(-140 -412)"/>
</g>
<g id="Rectangle">
<use xlink:href="#path0_fill" transform="translate(137 -86)" fill="#219653"/>
<mask id="mask2_outline_ins">
<use xlink:href="#path0_fill" fill="white" transform="translate(137 -86)"/>
</mask>
<g mask="url(#mask2_outline_ins)">
<use xlink:href="#path1_stroke_2x" transform="translate(137 -86)"/>
</g>
</g>
<g id="HOTDOG">
<use xlink:href="#path4_fill" transform="translate(148 -69)" fill="#F2F2F2"/>
</g>
<g id="Rectangle">
<use xlink:href="#path0_fill" transform="translate(-45 -86)" fill="#EB5757"/>
<mask id="mask3_outline_ins">
<use xlink:href="#path0_fill" fill="white" transform="translate(-45 -86)"/>
</mask>
<g mask="url(#mask3_outline_ins)">
<use xlink:href="#path1_stroke_2x" transform="translate(-45 -86)"/>
</g>
</g>
<g id="Rectangle">
<use xlink:href="#path0_fill" transform="translate(-45 -86)" fill="#EB5757"/>
<mask id="mask4_outline_ins">
<use xlink:href="#path0_fill" fill="white" transform="translate(-45 -86)"/>
</mask>
<g mask="url(#mask4_outline_ins)">
<use xlink:href="#path1_stroke_2x" transform="translate(-45 -86)"/>
</g>
</g>
<g id="NOT HOTDOG">
<use xlink:href="#path5_fill" transform="translate(-34 -79)" fill="#F2F2F2"/>
</g>
<g id="Rectangle">
<use xlink:href="#path0_fill" transform="translate(-132 -200)" fill="#EB5757"/>
<mask id="mask5_outline_ins">
<use xlink:href="#path0_fill" fill="white" transform="translate(-132 -200)"/>
</mask>
<g mask="url(#mask5_outline_ins)">
<use xlink:href="#path1_stroke_2x" transform="translate(-132 -200)"/>
</g>
</g>
<g id="NOT HOTDOG">
<use xlink:href="#path6_fill" transform="translate(-121 -193)" fill="#F2F2F2"/>
</g>
<g id="Rectangle">
<use xlink:href="#path0_fill" transform="translate(-257 -314)" fill="#EB5757"/>
<mask id="mask6_outline_ins">
<use xlink:href="#path0_fill" fill="white" transform="translate(-257 -314)"/>
</mask>
<g mask="url(#mask6_outline_ins)">
<use xlink:href="#path1_stroke_2x" transform="translate(-257 -314)"/>
</g>
</g>
<g id="NOT HOTDOG">
<use xlink:href="#path6_fill" transform="translate(-246 -307)" fill="#F2F2F2"/>
</g>
<g id="Rectangle">
<use xlink:href="#path0_fill" transform="translate(-45 -314)" fill="#C4C4C4"/>
<mask id="mask7_outline_ins">
<use xlink:href="#path0_fill" fill="white" transform="translate(-45 -314)"/>
</mask>
<g mask="url(#mask7_outline_ins)">
<use xlink:href="#path1_stroke_2x" transform="translate(-45 -314)"/>
</g>
</g>
<g id="Does it contain a bun?">
<use xlink:href="#path7_fill" transform="translate(-34 -305)"/>
</g>
<g id="Vector">
<use xlink:href="#path8_stroke" transform="translate(-93 -378)"/>
</g>
<g id="Vector">
<use xlink:href="#path8_stroke" transform="matrix(-1 0 0 1 -93 -378)"/>
</g>
<g id="Vector">
<use xlink:href="#path9_stroke" transform="translate(13 -264)"/>
</g>
<g id="Vector">
<use xlink:href="#path9_stroke" transform="matrix(-1 0 0 1 13 -264)"/>
</g>
<g id="Rectangle">
<use xlink:href="#path0_fill" transform="translate(42 -200)" fill="#C4C4C4"/>
<mask id="mask8_outline_ins">
<use xlink:href="#path0_fill" fill="white" transform="translate(42 -200)"/>
</mask>
<g mask="url(#mask8_outline_ins)">
<use xlink:href="#path1_stroke_2x" transform="translate(42 -200)"/>
</g>
</g>
<g id="Does it contain sausage?">
<use xlink:href="#path10_fill" transform="translate(47 -191)"/>
</g>
<g id="Vector">
<use xlink:href="#path9_stroke" transform="translate(100 -150)"/>
</g>
<g id="Vector">
<use xlink:href="#path9_stroke" transform="matrix(-1 0 0 1 100 -150)"/>
</g>
</g>
</g>
<defs>
<path id="path0_fill" d="M 0 0L 116 0L 116 50L 0 50L 0 0Z"/>
<path id="path1_stroke_2x" d="M 0 0L 0 -1L -1 -1L -1 0L 0 0ZM 116 0L 117 0L 117 -1L 116 -1L 116 0ZM 116 50L 116 51L 117 51L 117 50L 116 50ZM 0 50L -1 50L -1 51L 0 51L 0 50ZM 0 1L 116 1L 116 -1L 0 -1L 0 1ZM 115 0L 115 50L 117 50L 117 0L 115 0ZM 116 49L 0 49L 0 51L 116 51L 116 49ZM 1 50L 1 0L -1 0L -1 50L 1 50Z"/>
<path id="path2_fill" d="M 13.3604 13L 11.3096 13L 11.3096 3.04688L 13.3604 3.04688L 13.3604 13ZM 19.1436 10.9561C 19.1436 10.7145 19.0228 10.5254 18.7812 10.3887C 18.5443 10.2474 18.1615 10.1221 17.6328 10.0127C 15.8737 9.64355 14.9941 8.89616 14.9941 7.77051C 14.9941 7.11426 15.2653 6.56738 15.8076 6.12988C 16.3545 5.68783 17.0677 5.4668 17.9473 5.4668C 18.8861 5.4668 19.6357 5.68783 20.1963 6.12988C 20.7614 6.57194 21.0439 7.14616 21.0439 7.85254L 19.0684 7.85254C 19.0684 7.56999 18.9772 7.33757 18.7949 7.15527C 18.6126 6.96842 18.3278 6.875 17.9404 6.875C 17.6077 6.875 17.3503 6.9502 17.168 7.10059C 16.9857 7.25098 16.8945 7.44238 16.8945 7.6748C 16.8945 7.89355 16.9971 8.07129 17.2021 8.20801C 17.4118 8.34017 17.7627 8.45638 18.2549 8.55664C 18.7471 8.65234 19.1618 8.76172 19.499 8.88477C 20.5426 9.26758 21.0645 9.93066 21.0645 10.874C 21.0645 11.5485 20.7751 12.0954 20.1963 12.5146C 19.6175 12.9294 18.8701 13.1367 17.9541 13.1367C 17.3343 13.1367 16.7829 13.0273 16.2998 12.8086C 15.8213 12.5853 15.4453 12.2822 15.1719 11.8994C 14.8984 11.512 14.7617 11.0951 14.7617 10.6484L 16.6348 10.6484C 16.653 10.9993 16.7829 11.2682 17.0244 11.4551C 17.266 11.6419 17.5895 11.7354 17.9951 11.7354C 18.3734 11.7354 18.6582 11.6647 18.8496 11.5234C 19.0456 11.3776 19.1436 11.1885 19.1436 10.9561ZM 27.9141 13L 25.9316 13L 25.9316 5.60352L 27.9141 5.60352L 27.9141 13ZM 25.8154 3.68945C 25.8154 3.39323 25.9134 3.14941 26.1094 2.95801C 26.3099 2.7666 26.5811 2.6709 26.9229 2.6709C 27.2601 2.6709 27.529 2.7666 27.7295 2.95801C 27.93 3.14941 28.0303 3.39323 28.0303 3.68945C 28.0303 3.99023 27.9277 4.23633 27.7227 4.42773C 27.5221 4.61914 27.2555 4.71484 26.9229 4.71484C 26.5902 4.71484 26.3213 4.61914 26.1162 4.42773C 25.9157 4.23633 25.8154 3.99023 25.8154 3.68945ZM 31.9131 3.78516L 31.9131 5.60352L 33.1777 5.60352L 33.1777 7.05273L 31.9131 7.05273L 31.9131 10.7441C 31.9131 11.0176 31.9655 11.2135 32.0703 11.332C 32.1751 11.4505 32.3757 11.5098 32.6719 11.5098C 32.8906 11.5098 33.0843 11.4938 33.2529 11.4619L 33.2529 12.959C 32.8656 13.0775 32.4668 13.1367 32.0566 13.1367C 30.6712 13.1367 29.9648 12.4372 29.9375 11.0381L 29.9375 7.05273L 28.8574 7.05273L 28.8574 5.60352L 29.9375 5.60352L 29.9375 3.78516L 31.9131 3.78516ZM 42.0508 13C 41.9596 12.8223 41.8936 12.6012 41.8525 12.3369C 41.374 12.8701 40.752 13.1367 39.9863 13.1367C 39.2617 13.1367 38.6602 12.9271 38.1816 12.5078C 37.7077 12.0885 37.4707 11.5599 37.4707 10.9219C 37.4707 10.138 37.7601 9.53646 38.3389 9.11719C 38.9222 8.69792 39.763 8.486 40.8613 8.48145L 41.7705 8.48145L 41.7705 8.05762C 41.7705 7.71582 41.6816 7.44238 41.5039 7.2373C 41.3307 7.03223 41.055 6.92969 40.6768 6.92969C 40.3441 6.92969 40.082 7.00944 39.8906 7.16895C 39.7038 7.32845 39.6104 7.5472 39.6104 7.8252L 37.6348 7.8252C 37.6348 7.39681 37.7669 7.00033 38.0312 6.63574C 38.2956 6.27116 38.6693 5.98633 39.1523 5.78125C 39.6354 5.57161 40.1777 5.4668 40.7793 5.4668C 41.6908 5.4668 42.4131 5.69694 42.9463 6.15723C 43.484 6.61296 43.7529 7.25553 43.7529 8.08496L 43.7529 11.291C 43.7575 11.9928 43.8555 12.5238 44.0469 12.8838L 44.0469 13L 42.0508 13ZM 40.417 11.626C 40.7087 11.626 40.9775 11.5622 41.2236 11.4346C 41.4697 11.3024 41.652 11.127 41.7705 10.9082L 41.7705 9.63672L 41.0322 9.63672C 40.0433 9.63672 39.5169 9.97852 39.4531 10.6621L 39.4463 10.7783C 39.4463 11.0244 39.5329 11.2272 39.7061 11.3867C 39.8792 11.5462 40.1162 11.626 40.417 11.626ZM 49.2969 13L 49.2969 7.05273L 48.1963 7.05273L 48.1963 5.60352L 49.2969 5.60352L 49.2969 4.97461C 49.2969 4.14518 49.5339 3.5026 50.0078 3.04688C 50.4863 2.58659 51.154 2.35645 52.0107 2.35645C 52.2842 2.35645 52.6191 2.40202 53.0156 2.49316L 52.9951 4.02441C 52.8311 3.9834 52.6305 3.96289 52.3936 3.96289C 51.6507 3.96289 51.2793 4.31152 51.2793 5.00879L 51.2793 5.60352L 52.749 5.60352L 52.749 7.05273L 51.2793 7.05273L 51.2793 13L 49.2969 13ZM 53.4668 9.2334C 53.4668 8.49967 53.6081 7.8457 53.8906 7.27148C 54.1732 6.69727 54.5788 6.25293 55.1074 5.93848C 55.6406 5.62402 56.2581 5.4668 56.96 5.4668C 57.958 5.4668 58.7715 5.77214 59.4004 6.38281C 60.0339 6.99349 60.387 7.82292 60.46 8.87109L 60.4736 9.37695C 60.4736 10.5117 60.1569 11.4232 59.5234 12.1113C 58.89 12.7949 58.04 13.1367 56.9736 13.1367C 55.9072 13.1367 55.055 12.7949 54.417 12.1113C 53.7835 11.4277 53.4668 10.498 53.4668 9.32227L 53.4668 9.2334ZM 55.4424 9.37695C 55.4424 10.0788 55.5745 10.6165 55.8389 10.9902C 56.1032 11.3594 56.4814 11.5439 56.9736 11.5439C 57.4521 11.5439 57.8258 11.3617 58.0947 10.9971C 58.3636 10.6279 58.498 10.04 58.498 9.2334C 58.498 8.54525 58.3636 8.01204 58.0947 7.63379C 57.8258 7.25553 57.4476 7.06641 56.96 7.06641C 56.4769 7.06641 56.1032 7.25553 55.8389 7.63379C 55.5745 8.00749 55.4424 8.58854 55.4424 9.37695ZM 61.3828 9.2334C 61.3828 8.49967 61.5241 7.8457 61.8066 7.27148C 62.0892 6.69727 62.4948 6.25293 63.0234 5.93848C 63.5566 5.62402 64.1742 5.4668 64.876 5.4668C 65.874 5.4668 66.6875 5.77214 67.3164 6.38281C 67.9499 6.99349 68.3031 7.82292 68.376 8.87109L 68.3896 9.37695C 68.3896 10.5117 68.0729 11.4232 67.4395 12.1113C 66.806 12.7949 65.9561 13.1367 64.8896 13.1367C 63.8232 13.1367 62.971 12.7949 62.333 12.1113C 61.6995 11.4277 61.3828 10.498 61.3828 9.32227L 61.3828 9.2334ZM 63.3584 9.37695C 63.3584 10.0788 63.4906 10.6165 63.7549 10.9902C 64.0192 11.3594 64.3975 11.5439 64.8896 11.5439C 65.3682 11.5439 65.7419 11.3617 66.0107 10.9971C 66.2796 10.6279 66.4141 10.04 66.4141 9.2334C 66.4141 8.54525 66.2796 8.01204 66.0107 7.63379C 65.7419 7.25553 65.3636 7.06641 64.876 7.06641C 64.3929 7.06641 64.0192 7.25553 63.7549 7.63379C 63.4906 8.00749 63.3584 8.58854 63.3584 9.37695ZM 69.2988 9.24707C 69.2988 8.09408 69.5563 7.17578 70.0713 6.49219C 70.5908 5.80859 71.2995 5.4668 72.1973 5.4668C 72.9173 5.4668 73.512 5.73568 73.9814 6.27344L 73.9814 2.5L 75.9639 2.5L 75.9639 13L 74.1797 13L 74.084 12.2139C 73.5918 12.8291 72.9583 13.1367 72.1836 13.1367C 71.3132 13.1367 70.6136 12.7949 70.085 12.1113C 69.5609 11.4232 69.2988 10.4684 69.2988 9.24707ZM 71.2744 9.39062C 71.2744 10.0833 71.3952 10.6143 71.6367 10.9834C 71.8783 11.3525 72.2292 11.5371 72.6895 11.5371C 73.3001 11.5371 73.7308 11.2796 73.9814 10.7646L 73.9814 7.8457C 73.7354 7.33073 73.3092 7.07324 72.7031 7.07324C 71.7507 7.07324 71.2744 7.8457 71.2744 9.39062ZM 79.1084 9.94434C 79.1084 9.30632 79.1859 8.79818 79.3408 8.41992C 79.4958 8.04167 79.7783 7.67025 80.1885 7.30566C 80.6032 6.93652 80.8789 6.63802 81.0156 6.41016C 81.1523 6.17773 81.2207 5.93392 81.2207 5.67871C 81.2207 4.90853 80.8652 4.52344 80.1543 4.52344C 79.8171 4.52344 79.5459 4.62826 79.3408 4.83789C 79.1403 5.04297 79.0355 5.3278 79.0264 5.69238L 77.0439 5.69238C 77.0531 4.82194 77.3333 4.14062 77.8848 3.64844C 78.4408 3.15625 79.1973 2.91016 80.1543 2.91016C 81.1204 2.91016 81.8701 3.14486 82.4033 3.61426C 82.9365 4.0791 83.2031 4.73763 83.2031 5.58984C 83.2031 5.97721 83.1165 6.34408 82.9434 6.69043C 82.7702 7.03223 82.4671 7.41276 82.0342 7.83203L 81.4805 8.3584C 81.1341 8.69108 80.9359 9.08073 80.8857 9.52734L 80.8584 9.94434L 79.1084 9.94434ZM 78.9102 12.043C 78.9102 11.7376 79.0127 11.487 79.2178 11.291C 79.4274 11.0905 79.694 10.9902 80.0176 10.9902C 80.3411 10.9902 80.6055 11.0905 80.8105 11.291C 81.0202 11.487 81.125 11.7376 81.125 12.043C 81.125 12.3438 81.0225 12.5921 80.8174 12.7881C 80.6169 12.984 80.3503 13.082 80.0176 13.082C 79.6849 13.082 79.416 12.984 79.2109 12.7881C 79.0104 12.5921 78.9102 12.3438 78.9102 12.043Z"/>
<path id="path3_fill" d="M 13.3604 13L 11.3096 13L 11.3096 3.04688L 13.3604 3.04688L 13.3604 13ZM 19.1436 10.9561C 19.1436 10.7145 19.0228 10.5254 18.7812 10.3887C 18.5443 10.2474 18.1615 10.1221 17.6328 10.0127C 15.8737 9.64355 14.9941 8.89616 14.9941 7.77051C 14.9941 7.11426 15.2653 6.56738 15.8076 6.12988C 16.3545 5.68783 17.0677 5.4668 17.9473 5.4668C 18.8861 5.4668 19.6357 5.68783 20.1963 6.12988C 20.7614 6.57194 21.0439 7.14616 21.0439 7.85254L 19.0684 7.85254C 19.0684 7.56999 18.9772 7.33757 18.7949 7.15527C 18.6126 6.96842 18.3278 6.875 17.9404 6.875C 17.6077 6.875 17.3503 6.9502 17.168 7.10059C 16.9857 7.25098 16.8945 7.44238 16.8945 7.6748C 16.8945 7.89355 16.9971 8.07129 17.2021 8.20801C 17.4118 8.34017 17.7627 8.45638 18.2549 8.55664C 18.7471 8.65234 19.1618 8.76172 19.499 8.88477C 20.5426 9.26758 21.0645 9.93066 21.0645 10.874C 21.0645 11.5485 20.7751 12.0954 20.1963 12.5146C 19.6175 12.9294 18.8701 13.1367 17.9541 13.1367C 17.3343 13.1367 16.7829 13.0273 16.2998 12.8086C 15.8213 12.5853 15.4453 12.2822 15.1719 11.8994C 14.8984 11.512 14.7617 11.0951 14.7617 10.6484L 16.6348 10.6484C 16.653 10.9993 16.7829 11.2682 17.0244 11.4551C 17.266 11.6419 17.5895 11.7354 17.9951 11.7354C 18.3734 11.7354 18.6582 11.6647 18.8496 11.5234C 19.0456 11.3776 19.1436 11.1885 19.1436 10.9561ZM 27.9141 13L 25.9316 13L 25.9316 5.60352L 27.9141 5.60352L 27.9141 13ZM 25.8154 3.68945C 25.8154 3.39323 25.9134 3.14941 26.1094 2.95801C 26.3099 2.7666 26.5811 2.6709 26.9229 2.6709C 27.2601 2.6709 27.529 2.7666 27.7295 2.95801C 27.93 3.14941 28.0303 3.39323 28.0303 3.68945C 28.0303 3.99023 27.9277 4.23633 27.7227 4.42773C 27.5221 4.61914 27.2555 4.71484 26.9229 4.71484C 26.5902 4.71484 26.3213 4.61914 26.1162 4.42773C 25.9157 4.23633 25.8154 3.99023 25.8154 3.68945ZM 31.9131 3.78516L 31.9131 5.60352L 33.1777 5.60352L 33.1777 7.05273L 31.9131 7.05273L 31.9131 10.7441C 31.9131 11.0176 31.9655 11.2135 32.0703 11.332C 32.1751 11.4505 32.3757 11.5098 32.6719 11.5098C 32.8906 11.5098 33.0843 11.4938 33.2529 11.4619L 33.2529 12.959C 32.8656 13.0775 32.4668 13.1367 32.0566 13.1367C 30.6712 13.1367 29.9648 12.4372 29.9375 11.0381L 29.9375 7.05273L 28.8574 7.05273L 28.8574 5.60352L 29.9375 5.60352L 29.9375 3.78516L 31.9131 3.78516ZM 42.0508 13C 41.9596 12.8223 41.8936 12.6012 41.8525 12.3369C 41.374 12.8701 40.752 13.1367 39.9863 13.1367C 39.2617 13.1367 38.6602 12.9271 38.1816 12.5078C 37.7077 12.0885 37.4707 11.5599 37.4707 10.9219C 37.4707 10.138 37.7601 9.53646 38.3389 9.11719C 38.9222 8.69792 39.763 8.486 40.8613 8.48145L 41.7705 8.48145L 41.7705 8.05762C 41.7705 7.71582 41.6816 7.44238 41.5039 7.2373C 41.3307 7.03223 41.055 6.92969 40.6768 6.92969C 40.3441 6.92969 40.082 7.00944 39.8906 7.16895C 39.7038 7.32845 39.6104 7.5472 39.6104 7.8252L 37.6348 7.8252C 37.6348 7.39681 37.7669 7.00033 38.0312 6.63574C 38.2956 6.27116 38.6693 5.98633 39.1523 5.78125C 39.6354 5.57161 40.1777 5.4668 40.7793 5.4668C 41.6908 5.4668 42.4131 5.69694 42.9463 6.15723C 43.484 6.61296 43.7529 7.25553 43.7529 8.08496L 43.7529 11.291C 43.7575 11.9928 43.8555 12.5238 44.0469 12.8838L 44.0469 13L 42.0508 13ZM 40.417 11.626C 40.7087 11.626 40.9775 11.5622 41.2236 11.4346C 41.4697 11.3024 41.652 11.127 41.7705 10.9082L 41.7705 9.63672L 41.0322 9.63672C 40.0433 9.63672 39.5169 9.97852 39.4531 10.6621L 39.4463 10.7783C 39.4463 11.0244 39.5329 11.2272 39.7061 11.3867C 39.8792 11.5462 40.1162 11.626 40.417 11.626ZM 49.2969 13L 49.2969 7.05273L 48.1963 7.05273L 48.1963 5.60352L 49.2969 5.60352L 49.2969 4.97461C 49.2969 4.14518 49.5339 3.5026 50.0078 3.04688C 50.4863 2.58659 51.154 2.35645 52.0107 2.35645C 52.2842 2.35645 52.6191 2.40202 53.0156 2.49316L 52.9951 4.02441C 52.8311 3.9834 52.6305 3.96289 52.3936 3.96289C 51.6507 3.96289 51.2793 4.31152 51.2793 5.00879L 51.2793 5.60352L 52.749 5.60352L 52.749 7.05273L 51.2793 7.05273L 51.2793 13L 49.2969 13ZM 53.4668 9.2334C 53.4668 8.49967 53.6081 7.8457 53.8906 7.27148C 54.1732 6.69727 54.5788 6.25293 55.1074 5.93848C 55.6406 5.62402 56.2581 5.4668 56.96 5.4668C 57.958 5.4668 58.7715 5.77214 59.4004 6.38281C 60.0339 6.99349 60.387 7.82292 60.46 8.87109L 60.4736 9.37695C 60.4736 10.5117 60.1569 11.4232 59.5234 12.1113C 58.89 12.7949 58.04 13.1367 56.9736 13.1367C 55.9072 13.1367 55.055 12.7949 54.417 12.1113C 53.7835 11.4277 53.4668 10.498 53.4668 9.32227L 53.4668 9.2334ZM 55.4424 9.37695C 55.4424 10.0788 55.5745 10.6165 55.8389 10.9902C 56.1032 11.3594 56.4814 11.5439 56.9736 11.5439C 57.4521 11.5439 57.8258 11.3617 58.0947 10.9971C 58.3636 10.6279 58.498 10.04 58.498 9.2334C 58.498 8.54525 58.3636 8.01204 58.0947 7.63379C 57.8258 7.25553 57.4476 7.06641 56.96 7.06641C 56.4769 7.06641 56.1032 7.25553 55.8389 7.63379C 55.5745 8.00749 55.4424 8.58854 55.4424 9.37695ZM 61.3828 9.2334C 61.3828 8.49967 61.5241 7.8457 61.8066 7.27148C 62.0892 6.69727 62.4948 6.25293 63.0234 5.93848C 63.5566 5.62402 64.1742 5.4668 64.876 5.4668C 65.874 5.4668 66.6875 5.77214 67.3164 6.38281C 67.9499 6.99349 68.3031 7.82292 68.376 8.87109L 68.3896 9.37695C 68.3896 10.5117 68.0729 11.4232 67.4395 12.1113C 66.806 12.7949 65.9561 13.1367 64.8896 13.1367C 63.8232 13.1367 62.971 12.7949 62.333 12.1113C 61.6995 11.4277 61.3828 10.498 61.3828 9.32227L 61.3828 9.2334ZM 63.3584 9.37695C 63.3584 10.0788 63.4906 10.6165 63.7549 10.9902C 64.0192 11.3594 64.3975 11.5439 64.8896 11.5439C 65.3682 11.5439 65.7419 11.3617 66.0107 10.9971C 66.2796 10.6279 66.4141 10.04 66.4141 9.2334C 66.4141 8.54525 66.2796 8.01204 66.0107 7.63379C 65.7419 7.25553 65.3636 7.06641 64.876 7.06641C 64.3929 7.06641 64.0192 7.25553 63.7549 7.63379C 63.4906 8.00749 63.3584 8.58854 63.3584 9.37695ZM 69.2988 9.24707C 69.2988 8.09408 69.5563 7.17578 70.0713 6.49219C 70.5908 5.80859 71.2995 5.4668 72.1973 5.4668C 72.9173 5.4668 73.512 5.73568 73.9814 6.27344L 73.9814 2.5L 75.9639 2.5L 75.9639 13L 74.1797 13L 74.084 12.2139C 73.5918 12.8291 72.9583 13.1367 72.1836 13.1367C 71.3132 13.1367 70.6136 12.7949 70.085 12.1113C 69.5609 11.4232 69.2988 10.4684 69.2988 9.24707ZM 71.2744 9.39062C 71.2744 10.0833 71.3952 10.6143 71.6367 10.9834C 71.8783 11.3525 72.2292 11.5371 72.6895 11.5371C 73.3001 11.5371 73.7308 11.2796 73.9814 10.7646L 73.9814 7.8457C 73.7354 7.33073 73.3092 7.07324 72.7031 7.07324C 71.7507 7.07324 71.2744 7.8457 71.2744 9.39062ZM 79.1084 9.94434C 79.1084 9.30632 79.1859 8.79818 79.3408 8.41992C 79.4958 8.04167 79.7783 7.67025 80.1885 7.30566C 80.6032 6.93652 80.8789 6.63802 81.0156 6.41016C 81.1523 6.17773 81.2207 5.93392 81.2207 5.67871C 81.2207 4.90853 80.8652 4.52344 80.1543 4.52344C 79.8171 4.52344 79.5459 4.62826 79.3408 4.83789C 79.1403 5.04297 79.0355 5.3278 79.0264 5.69238L 77.0439 5.69238C 77.0531 4.82194 77.3333 4.14062 77.8848 3.64844C 78.4408 3.15625 79.1973 2.91016 80.1543 2.91016C 81.1204 2.91016 81.8701 3.14486 82.4033 3.61426C 82.9365 4.0791 83.2031 4.73763 83.2031 5.58984C 83.2031 5.97721 83.1165 6.34408 82.9434 6.69043C 82.7702 7.03223 82.4671 7.41276 82.0342 7.83203L 81.4805 8.3584C 81.1341 8.69108 80.9359 9.08073 80.8857 9.52734L 80.8584 9.94434L 79.1084 9.94434ZM 78.9102 12.043C 78.9102 11.7376 79.0127 11.487 79.2178 11.291C 79.4274 11.0905 79.694 10.9902 80.0176 10.9902C 80.3411 10.9902 80.6055 11.0905 80.8105 11.291C 81.0202 11.487 81.125 11.7376 81.125 12.043C 81.125 12.3438 81.0225 12.5921 80.8174 12.7881C 80.6169 12.984 80.3503 13.082 80.0176 13.082C 79.6849 13.082 79.416 12.984 79.2109 12.7881C 79.0104 12.5921 78.9102 12.3438 78.9102 12.043Z"/>
<path id="path4_fill" d="M 28.0098 13L 25.959 13L 25.959 8.73438L 21.96 8.73438L 21.96 13L 19.9092 13L 19.9092 3.04688L 21.96 3.04688L 21.96 7.08008L 25.959 7.08008L 25.959 3.04688L 28.0098 3.04688L 28.0098 13ZM 37.9834 8.24902C 37.9834 9.22884 37.8102 10.0879 37.4639 10.8262C 37.1175 11.5645 36.6208 12.1341 35.9736 12.5352C 35.3311 12.9362 34.5928 13.1367 33.7588 13.1367C 32.9339 13.1367 32.1979 12.9385 31.5508 12.542C 30.9036 12.1455 30.4023 11.5804 30.0469 10.8467C 29.6914 10.1084 29.5114 9.26074 29.5068 8.30371L 29.5068 7.81152C 29.5068 6.83171 29.6823 5.97038 30.0332 5.22754C 30.3887 4.48014 30.8877 3.9082 31.5303 3.51172C 32.1774 3.11068 32.9157 2.91016 33.7451 2.91016C 34.5745 2.91016 35.3105 3.11068 35.9531 3.51172C 36.6003 3.9082 37.0993 4.48014 37.4502 5.22754C 37.8057 5.97038 37.9834 6.82943 37.9834 7.80469L 37.9834 8.24902ZM 35.9053 7.79785C 35.9053 6.75423 35.7184 5.96126 35.3447 5.41895C 34.971 4.87663 34.4378 4.60547 33.7451 4.60547C 33.057 4.60547 32.526 4.87435 32.1523 5.41211C 31.7786 5.94531 31.5895 6.72917 31.585 7.76367L 31.585 8.24902C 31.585 9.2653 31.7718 10.0537 32.1455 10.6143C 32.5192 11.1748 33.057 11.4551 33.7588 11.4551C 34.4469 11.4551 34.9756 11.1862 35.3447 10.6484C 35.7139 10.1061 35.9007 9.31771 35.9053 8.2832L 35.9053 7.79785ZM 46.3779 4.70801L 43.3291 4.70801L 43.3291 13L 41.2783 13L 41.2783 4.70801L 38.2705 4.70801L 38.2705 3.04688L 46.3779 3.04688L 46.3779 4.70801ZM 47.5537 13L 47.5537 3.04688L 50.6162 3.04688C 51.4912 3.04688 52.2728 3.24512 52.9609 3.6416C 53.6536 4.03353 54.1937 4.59408 54.5811 5.32324C 54.9684 6.04785 55.1621 6.87272 55.1621 7.79785L 55.1621 8.25586C 55.1621 9.18099 54.9707 10.0036 54.5879 10.7236C 54.2096 11.4437 53.6742 12.002 52.9814 12.3984C 52.2887 12.7949 51.5072 12.9954 50.6367 13L 47.5537 13ZM 49.6045 4.70801L 49.6045 11.3525L 50.5957 11.3525C 51.3978 11.3525 52.0107 11.0905 52.4346 10.5664C 52.8584 10.0423 53.0749 9.29264 53.084 8.31738L 53.084 7.79102C 53.084 6.7793 52.8743 6.01367 52.4551 5.49414C 52.0358 4.97005 51.4229 4.70801 50.6162 4.70801L 49.6045 4.70801ZM 64.835 8.24902C 64.835 9.22884 64.6618 10.0879 64.3154 10.8262C 63.9691 11.5645 63.4723 12.1341 62.8252 12.5352C 62.1826 12.9362 61.4443 13.1367 60.6104 13.1367C 59.7855 13.1367 59.0495 12.9385 58.4023 12.542C 57.7552 12.1455 57.2539 11.5804 56.8984 10.8467C 56.543 10.1084 56.363 9.26074 56.3584 8.30371L 56.3584 7.81152C 56.3584 6.83171 56.5339 5.97038 56.8848 5.22754C 57.2402 4.48014 57.7393 3.9082 58.3818 3.51172C 59.029 3.11068 59.7673 2.91016 60.5967 2.91016C 61.4261 2.91016 62.1621 3.11068 62.8047 3.51172C 63.4518 3.9082 63.9508 4.48014 64.3018 5.22754C 64.6572 5.97038 64.835 6.82943 64.835 7.80469L 64.835 8.24902ZM 62.7568 7.79785C 62.7568 6.75423 62.57 5.96126 62.1963 5.41895C 61.8226 4.87663 61.2894 4.60547 60.5967 4.60547C 59.9085 4.60547 59.3776 4.87435 59.0039 5.41211C 58.6302 5.94531 58.4411 6.72917 58.4365 7.76367L 58.4365 8.24902C 58.4365 9.2653 58.6234 10.0537 58.9971 10.6143C 59.3708 11.1748 59.9085 11.4551 60.6104 11.4551C 61.2985 11.4551 61.8271 11.1862 62.1963 10.6484C 62.5654 10.1061 62.7523 9.31771 62.7568 8.2832L 62.7568 7.79785ZM 74.2002 11.7422C 73.8311 12.1842 73.3092 12.5283 72.6348 12.7744C 71.9603 13.016 71.2129 13.1367 70.3926 13.1367C 69.5312 13.1367 68.7747 12.9499 68.123 12.5762C 67.4759 12.1979 66.9746 11.651 66.6191 10.9355C 66.2682 10.2201 66.0882 9.37923 66.0791 8.41309L 66.0791 7.73633C 66.0791 6.74284 66.2454 5.88379 66.5781 5.15918C 66.9154 4.43001 67.3984 3.87402 68.0273 3.49121C 68.6608 3.10384 69.4014 2.91016 70.249 2.91016C 71.4294 2.91016 72.3522 3.19271 73.0176 3.75781C 73.6829 4.31836 74.0771 5.13639 74.2002 6.21191L 72.2041 6.21191C 72.113 5.64225 71.9102 5.22526 71.5957 4.96094C 71.2858 4.69661 70.8574 4.56445 70.3105 4.56445C 69.6133 4.56445 69.0824 4.8265 68.7178 5.35059C 68.3532 5.87467 68.1686 6.65397 68.1641 7.68848L 68.1641 8.32422C 68.1641 9.36784 68.3623 10.1562 68.7588 10.6895C 69.1553 11.2227 69.7363 11.4893 70.502 11.4893C 71.2721 11.4893 71.8213 11.3252 72.1494 10.9971L 72.1494 9.28125L 70.2832 9.28125L 70.2832 7.77051L 74.2002 7.77051L 74.2002 11.7422Z"/>
<path id="path5_fill" d="M 42.167 13L 40.1162 13L 36.124 6.45117L 36.124 13L 34.0732 13L 34.0732 3.04688L 36.124 3.04688L 40.123 9.60938L 40.123 3.04688L 42.167 3.04688L 42.167 13ZM 52.1338 8.24902C 52.1338 9.22884 51.9606 10.0879 51.6143 10.8262C 51.2679 11.5645 50.7712 12.1341 50.124 12.5352C 49.4814 12.9362 48.7432 13.1367 47.9092 13.1367C 47.0843 13.1367 46.3483 12.9385 45.7012 12.542C 45.054 12.1455 44.5527 11.5804 44.1973 10.8467C 43.8418 10.1084 43.6618 9.26074 43.6572 8.30371L 43.6572 7.81152C 43.6572 6.83171 43.8327 5.97038 44.1836 5.22754C 44.5391 4.48014 45.0381 3.9082 45.6807 3.51172C 46.3278 3.11068 47.0661 2.91016 47.8955 2.91016C 48.7249 2.91016 49.4609 3.11068 50.1035 3.51172C 50.7507 3.9082 51.2497 4.48014 51.6006 5.22754C 51.9561 5.97038 52.1338 6.82943 52.1338 7.80469L 52.1338 8.24902ZM 50.0557 7.79785C 50.0557 6.75423 49.8688 5.96126 49.4951 5.41895C 49.1214 4.87663 48.5882 4.60547 47.8955 4.60547C 47.2074 4.60547 46.6764 4.87435 46.3027 5.41211C 45.929 5.94531 45.7399 6.72917 45.7354 7.76367L 45.7354 8.24902C 45.7354 9.2653 45.9222 10.0537 46.2959 10.6143C 46.6696 11.1748 47.2074 11.4551 47.9092 11.4551C 48.5973 11.4551 49.126 11.1862 49.4951 10.6484C 49.8643 10.1061 50.0511 9.31771 50.0557 8.2832L 50.0557 7.79785ZM 60.5283 4.70801L 57.4795 4.70801L 57.4795 13L 55.4287 13L 55.4287 4.70801L 52.4209 4.70801L 52.4209 3.04688L 60.5283 3.04688L 60.5283 4.70801ZM 28.0098 29L 25.959 29L 25.959 24.7344L 21.96 24.7344L 21.96 29L 19.9092 29L 19.9092 19.0469L 21.96 19.0469L 21.96 23.0801L 25.959 23.0801L 25.959 19.0469L 28.0098 19.0469L 28.0098 29ZM 37.9834 24.249C 37.9834 25.2288 37.8102 26.0879 37.4639 26.8262C 37.1175 27.5645 36.6208 28.1341 35.9736 28.5352C 35.3311 28.9362 34.5928 29.1367 33.7588 29.1367C 32.9339 29.1367 32.1979 28.9385 31.5508 28.542C 30.9036 28.1455 30.4023 27.5804 30.0469 26.8467C 29.6914 26.1084 29.5114 25.2607 29.5068 24.3037L 29.5068 23.8115C 29.5068 22.8317 29.6823 21.9704 30.0332 21.2275C 30.3887 20.4801 30.8877 19.9082 31.5303 19.5117C 32.1774 19.1107 32.9157 18.9102 33.7451 18.9102C 34.5745 18.9102 35.3105 19.1107 35.9531 19.5117C 36.6003 19.9082 37.0993 20.4801 37.4502 21.2275C 37.8057 21.9704 37.9834 22.8294 37.9834 23.8047L 37.9834 24.249ZM 35.9053 23.7979C 35.9053 22.7542 35.7184 21.9613 35.3447 21.4189C 34.971 20.8766 34.4378 20.6055 33.7451 20.6055C 33.057 20.6055 32.526 20.8743 32.1523 21.4121C 31.7786 21.9453 31.5895 22.7292 31.585 23.7637L 31.585 24.249C 31.585 25.2653 31.7718 26.0537 32.1455 26.6143C 32.5192 27.1748 33.057 27.4551 33.7588 27.4551C 34.4469 27.4551 34.9756 27.1862 35.3447 26.6484C 35.7139 26.1061 35.9007 25.3177 35.9053 24.2832L 35.9053 23.7979ZM 46.3779 20.708L 43.3291 20.708L 43.3291 29L 41.2783 29L 41.2783 20.708L 38.2705 20.708L 38.2705 19.0469L 46.3779 19.0469L 46.3779 20.708ZM 47.5537 29L 47.5537 19.0469L 50.6162 19.0469C 51.4912 19.0469 52.2728 19.2451 52.9609 19.6416C 53.6536 20.0335 54.1937 20.5941 54.5811 21.3232C 54.9684 22.0479 55.1621 22.8727 55.1621 23.7979L 55.1621 24.2559C 55.1621 25.181 54.9707 26.0036 54.5879 26.7236C 54.2096 27.4437 53.6742 28.002 52.9814 28.3984C 52.2887 28.7949 51.5072 28.9954 50.6367 29L 47.5537 29ZM 49.6045 20.708L 49.6045 27.3525L 50.5957 27.3525C 51.3978 27.3525 52.0107 27.0905 52.4346 26.5664C 52.8584 26.0423 53.0749 25.2926 53.084 24.3174L 53.084 23.791C 53.084 22.7793 52.8743 22.0137 52.4551 21.4941C 52.0358 20.9701 51.4229 20.708 50.6162 20.708L 49.6045 20.708ZM 64.835 24.249C 64.835 25.2288 64.6618 26.0879 64.3154 26.8262C 63.9691 27.5645 63.4723 28.1341 62.8252 28.5352C 62.1826 28.9362 61.4443 29.1367 60.6104 29.1367C 59.7855 29.1367 59.0495 28.9385 58.4023 28.542C 57.7552 28.1455 57.2539 27.5804 56.8984 26.8467C 56.543 26.1084 56.363 25.2607 56.3584 24.3037L 56.3584 23.8115C 56.3584 22.8317 56.5339 21.9704 56.8848 21.2275C 57.2402 20.4801 57.7393 19.9082 58.3818 19.5117C 59.029 19.1107 59.7673 18.9102 60.5967 18.9102C 61.4261 18.9102 62.1621 19.1107 62.8047 19.5117C 63.4518 19.9082 63.9508 20.4801 64.3018 21.2275C 64.6572 21.9704 64.835 22.8294 64.835 23.8047L 64.835 24.249ZM 62.7568 23.7979C 62.7568 22.7542 62.57 21.9613 62.1963 21.4189C 61.8226 20.8766 61.2894 20.6055 60.5967 20.6055C 59.9085 20.6055 59.3776 20.8743 59.0039 21.4121C 58.6302 21.9453 58.4411 22.7292 58.4365 23.7637L 58.4365 24.249C 58.4365 25.2653 58.6234 26.0537 58.9971 26.6143C 59.3708 27.1748 59.9085 27.4551 60.6104 27.4551C 61.2985 27.4551 61.8271 27.1862 62.1963 26.6484C 62.5654 26.1061 62.7523 25.3177 62.7568 24.2832L 62.7568 23.7979ZM 74.2002 27.7422C 73.8311 28.1842 73.3092 28.5283 72.6348 28.7744C 71.9603 29.016 71.2129 29.1367 70.3926 29.1367C 69.5312 29.1367 68.7747 28.9499 68.123 28.5762C 67.4759 28.1979 66.9746 27.651 66.6191 26.9355C 66.2682 26.2201 66.0882 25.3792 66.0791 24.4131L 66.0791 23.7363C 66.0791 22.7428 66.2454 21.8838 66.5781 21.1592C 66.9154 20.43 67.3984 19.874 68.0273 19.4912C 68.6608 19.1038 69.4014 18.9102 70.249 18.9102C 71.4294 18.9102 72.3522 19.1927 73.0176 19.7578C 73.6829 20.3184 74.0771 21.1364 74.2002 22.2119L 72.2041 22.2119C 72.113 21.6423 71.9102 21.2253 71.5957 20.9609C 71.2858 20.6966 70.8574 20.5645 70.3105 20.5645C 69.6133 20.5645 69.0824 20.8265 68.7178 21.3506C 68.3532 21.8747 68.1686 22.654 68.1641 23.6885L 68.1641 24.3242C 68.1641 25.3678 68.3623 26.1562 68.7588 26.6895C 69.1553 27.2227 69.7363 27.4893 70.502 27.4893C 71.2721 27.4893 71.8213 27.3252 72.1494 26.9971L 72.1494 25.2812L 70.2832 25.2812L 70.2832 23.7705L 74.2002 23.7705L 74.2002 27.7422Z"/>
<path id="path6_fill" d="M 42.167 13L 40.1162 13L 36.124 6.45117L 36.124 13L 34.0732 13L 34.0732 3.04688L 36.124 3.04688L 40.123 9.60938L 40.123 3.04688L 42.167 3.04688L 42.167 13ZM 52.1338 8.24902C 52.1338 9.22884 51.9606 10.0879 51.6143 10.8262C 51.2679 11.5645 50.7712 12.1341 50.124 12.5352C 49.4814 12.9362 48.7432 13.1367 47.9092 13.1367C 47.0843 13.1367 46.3483 12.9385 45.7012 12.542C 45.054 12.1455 44.5527 11.5804 44.1973 10.8467C 43.8418 10.1084 43.6618 9.26074 43.6572 8.30371L 43.6572 7.81152C 43.6572 6.83171 43.8327 5.97038 44.1836 5.22754C 44.5391 4.48014 45.0381 3.9082 45.6807 3.51172C 46.3278 3.11068 47.0661 2.91016 47.8955 2.91016C 48.7249 2.91016 49.4609 3.11068 50.1035 3.51172C 50.7507 3.9082 51.2497 4.48014 51.6006 5.22754C 51.9561 5.97038 52.1338 6.82943 52.1338 7.80469L 52.1338 8.24902ZM 50.0557 7.79785C 50.0557 6.75423 49.8688 5.96126 49.4951 5.41895C 49.1214 4.87663 48.5882 4.60547 47.8955 4.60547C 47.2074 4.60547 46.6764 4.87435 46.3027 5.41211C 45.929 5.94531 45.7399 6.72917 45.7354 7.76367L 45.7354 8.24902C 45.7354 9.2653 45.9222 10.0537 46.2959 10.6143C 46.6696 11.1748 47.2074 11.4551 47.9092 11.4551C 48.5973 11.4551 49.126 11.1862 49.4951 10.6484C 49.8643 10.1061 50.0511 9.31771 50.0557 8.2832L 50.0557 7.79785ZM 60.5283 4.70801L 57.4795 4.70801L 57.4795 13L 55.4287 13L 55.4287 4.70801L 52.4209 4.70801L 52.4209 3.04688L 60.5283 3.04688L 60.5283 4.70801ZM 28.0098 29L 25.959 29L 25.959 24.7344L 21.96 24.7344L 21.96 29L 19.9092 29L 19.9092 19.0469L 21.96 19.0469L 21.96 23.0801L 25.959 23.0801L 25.959 19.0469L 28.0098 19.0469L 28.0098 29ZM 37.9834 24.249C 37.9834 25.2288 37.8102 26.0879 37.4639 26.8262C 37.1175 27.5645 36.6208 28.1341 35.9736 28.5352C 35.3311 28.9362 34.5928 29.1367 33.7588 29.1367C 32.9339 29.1367 32.1979 28.9385 31.5508 28.542C 30.9036 28.1455 30.4023 27.5804 30.0469 26.8467C 29.6914 26.1084 29.5114 25.2607 29.5068 24.3037L 29.5068 23.8115C 29.5068 22.8317 29.6823 21.9704 30.0332 21.2275C 30.3887 20.4801 30.8877 19.9082 31.5303 19.5117C 32.1774 19.1107 32.9157 18.9102 33.7451 18.9102C 34.5745 18.9102 35.3105 19.1107 35.9531 19.5117C 36.6003 19.9082 37.0993 20.4801 37.4502 21.2275C 37.8057 21.9704 37.9834 22.8294 37.9834 23.8047L 37.9834 24.249ZM 35.9053 23.7979C 35.9053 22.7542 35.7184 21.9613 35.3447 21.4189C 34.971 20.8766 34.4378 20.6055 33.7451 20.6055C 33.057 20.6055 32.526 20.8743 32.1523 21.4121C 31.7786 21.9453 31.5895 22.7292 31.585 23.7637L 31.585 24.249C 31.585 25.2653 31.7718 26.0537 32.1455 26.6143C 32.5192 27.1748 33.057 27.4551 33.7588 27.4551C 34.4469 27.4551 34.9756 27.1862 35.3447 26.6484C 35.7139 26.1061 35.9007 25.3177 35.9053 24.2832L 35.9053 23.7979ZM 46.3779 20.708L 43.3291 20.708L 43.3291 29L 41.2783 29L 41.2783 20.708L 38.2705 20.708L 38.2705 19.0469L 46.3779 19.0469L 46.3779 20.708ZM 47.5537 29L 47.5537 19.0469L 50.6162 19.0469C 51.4912 19.0469 52.2728 19.2451 52.9609 19.6416C 53.6536 20.0335 54.1937 20.5941 54.5811 21.3232C 54.9684 22.0479 55.1621 22.8727 55.1621 23.7979L 55.1621 24.2559C 55.1621 25.181 54.9707 26.0036 54.5879 26.7236C 54.2096 27.4437 53.6742 28.002 52.9814 28.3984C 52.2887 28.7949 51.5072 28.9954 50.6367 29L 47.5537 29ZM 49.6045 20.708L 49.6045 27.3525L 50.5957 27.3525C 51.3978 27.3525 52.0107 27.0905 52.4346 26.5664C 52.8584 26.0423 53.0749 25.2926 53.084 24.3174L 53.084 23.791C 53.084 22.7793 52.8743 22.0137 52.4551 21.4941C 52.0358 20.9701 51.4229 20.708 50.6162 20.708L 49.6045 20.708ZM 64.835 24.249C 64.835 25.2288 64.6618 26.0879 64.3154 26.8262C 63.9691 27.5645 63.4723 28.1341 62.8252 28.5352C 62.1826 28.9362 61.4443 29.1367 60.6104 29.1367C 59.7855 29.1367 59.0495 28.9385 58.4023 28.542C 57.7552 28.1455 57.2539 27.5804 56.8984 26.8467C 56.543 26.1084 56.363 25.2607 56.3584 24.3037L 56.3584 23.8115C 56.3584 22.8317 56.5339 21.9704 56.8848 21.2275C 57.2402 20.4801 57.7393 19.9082 58.3818 19.5117C 59.029 19.1107 59.7673 18.9102 60.5967 18.9102C 61.4261 18.9102 62.1621 19.1107 62.8047 19.5117C 63.4518 19.9082 63.9508 20.4801 64.3018 21.2275C 64.6572 21.9704 64.835 22.8294 64.835 23.8047L 64.835 24.249ZM 62.7568 23.7979C 62.7568 22.7542 62.57 21.9613 62.1963 21.4189C 61.8226 20.8766 61.2894 20.6055 60.5967 20.6055C 59.9085 20.6055 59.3776 20.8743 59.0039 21.4121C 58.6302 21.9453 58.4411 22.7292 58.4365 23.7637L 58.4365 24.249C 58.4365 25.2653 58.6234 26.0537 58.9971 26.6143C 59.3708 27.1748 59.9085 27.4551 60.6104 27.4551C 61.2985 27.4551 61.8271 27.1862 62.1963 26.6484C 62.5654 26.1061 62.7523 25.3177 62.7568 24.2832L 62.7568 23.7979ZM 74.2002 27.7422C 73.8311 28.1842 73.3092 28.5283 72.6348 28.7744C 71.9603 29.016 71.2129 29.1367 70.3926 29.1367C 69.5312 29.1367 68.7747 28.9499 68.123 28.5762C 67.4759 28.1979 66.9746 27.651 66.6191 26.9355C 66.2682 26.2201 66.0882 25.3792 66.0791 24.4131L 66.0791 23.7363C 66.0791 22.7428 66.2454 21.8838 66.5781 21.1592C 66.9154 20.43 67.3984 19.874 68.0273 19.4912C 68.6608 19.1038 69.4014 18.9102 70.249 18.9102C 71.4294 18.9102 72.3522 19.1927 73.0176 19.7578C 73.6829 20.3184 74.0771 21.1364 74.2002 22.2119L 72.2041 22.2119C 72.113 21.6423 71.9102 21.2253 71.5957 20.9609C 71.2858 20.6966 70.8574 20.5645 70.3105 20.5645C 69.6133 20.5645 69.0824 20.8265 68.7178 21.3506C 68.3532 21.8747 68.1686 22.654 68.1641 23.6885L 68.1641 24.3242C 68.1641 25.3678 68.3623 26.1562 68.7588 26.6895C 69.1553 27.2227 69.7363 27.4893 70.502 27.4893C 71.2721 27.4893 71.8213 27.3252 72.1494 26.9971L 72.1494 25.2812L 70.2832 25.2812L 70.2832 23.7705L 74.2002 23.7705L 74.2002 27.7422Z"/>
<path id="path7_fill" d="M 26.0205 13L 26.0205 3.04688L 29.083 3.04688C 29.958 3.04688 30.7396 3.24512 31.4277 3.6416C 32.1204 4.03353 32.6605 4.59408 33.0479 5.32324C 33.4352 6.04785 33.6289 6.87272 33.6289 7.79785L 33.6289 8.25586C 33.6289 9.18099 33.4375 10.0036 33.0547 10.7236C 32.6764 11.4437 32.141 12.002 31.4482 12.3984C 30.7555 12.7949 29.974 12.9954 29.1035 13L 26.0205 13ZM 28.0713 4.70801L 28.0713 11.3525L 29.0625 11.3525C 29.8646 11.3525 30.4775 11.0905 30.9014 10.5664C 31.3252 10.0423 31.5417 9.29264 31.5508 8.31738L 31.5508 7.79102C 31.5508 6.7793 31.3411 6.01367 30.9219 5.49414C 30.5026 4.97005 29.8896 4.70801 29.083 4.70801L 28.0713 4.70801ZM 34.6885 9.2334C 34.6885 8.49967 34.8298 7.8457 35.1123 7.27148C 35.3949 6.69727 35.8005 6.25293 36.3291 5.93848C 36.8623 5.62402 37.4798 5.4668 38.1816 5.4668C 39.1797 5.4668 39.9932 5.77214 40.6221 6.38281C 41.2555 6.99349 41.6087 7.82292 41.6816 8.87109L 41.6953 9.37695C 41.6953 10.5117 41.3786 11.4232 40.7451 12.1113C 40.1117 12.7949 39.2617 13.1367 38.1953 13.1367C 37.1289 13.1367 36.2767 12.7949 35.6387 12.1113C 35.0052 11.4277 34.6885 10.498 34.6885 9.32227L 34.6885 9.2334ZM 36.6641 9.37695C 36.6641 10.0788 36.7962 10.6165 37.0605 10.9902C 37.3249 11.3594 37.7031 11.5439 38.1953 11.5439C 38.6738 11.5439 39.0475 11.3617 39.3164 10.9971C 39.5853 10.6279 39.7197 10.04 39.7197 9.2334C 39.7197 8.54525 39.5853 8.01204 39.3164 7.63379C 39.0475 7.25553 38.6693 7.06641 38.1816 7.06641C 37.6986 7.06641 37.3249 7.25553 37.0605 7.63379C 36.7962 8.00749 36.6641 8.58854 36.6641 9.37695ZM 46.3164 13.1367C 45.2318 13.1367 44.3477 12.804 43.6641 12.1387C 42.985 11.4733 42.6455 10.5869 42.6455 9.47949L 42.6455 9.28809C 42.6455 8.54525 42.7891 7.88216 43.0762 7.29883C 43.3633 6.71094 43.7689 6.25977 44.293 5.94531C 44.8216 5.6263 45.4232 5.4668 46.0977 5.4668C 47.1094 5.4668 47.9046 5.78581 48.4834 6.42383C 49.0667 7.06185 49.3584 7.96647 49.3584 9.1377L 49.3584 9.94434L 44.6484 9.94434C 44.7122 10.4274 44.9036 10.8148 45.2227 11.1064C 45.5462 11.3981 45.9541 11.5439 46.4463 11.5439C 47.2074 11.5439 47.8021 11.2682 48.2305 10.7168L 49.2012 11.8037C 48.9049 12.223 48.5039 12.5511 47.998 12.7881C 47.4922 13.0205 46.9316 13.1367 46.3164 13.1367ZM 46.0908 7.06641C 45.6989 7.06641 45.3799 7.19857 45.1338 7.46289C 44.8923 7.72721 44.7373 8.10547 44.6689 8.59766L 47.417 8.59766L 47.417 8.44043C 47.4079 8.00293 47.2894 7.66569 47.0615 7.42871C 46.8337 7.18717 46.5101 7.06641 46.0908 7.06641ZM 54.4922 10.9561C 54.4922 10.7145 54.3714 10.5254 54.1299 10.3887C 53.8929 10.2474 53.5101 10.1221 52.9814 10.0127C 51.2223 9.64355 50.3428 8.89616 50.3428 7.77051C 50.3428 7.11426 50.6139 6.56738 51.1562 6.12988C 51.7031 5.68783 52.4163 5.4668 53.2959 5.4668C 54.2347 5.4668 54.9844 5.68783 55.5449 6.12988C 56.11 6.57194 56.3926 7.14616 56.3926 7.85254L 54.417 7.85254C 54.417 7.56999 54.3258 7.33757 54.1436 7.15527C 53.9613 6.96842 53.6764 6.875 53.2891 6.875C 52.9564 6.875 52.6989 6.9502 52.5166 7.10059C 52.3343 7.25098 52.2432 7.44238 52.2432 7.6748C 52.2432 7.89355 52.3457 8.07129 52.5508 8.20801C 52.7604 8.34017 53.1113 8.45638 53.6035 8.55664C 54.0957 8.65234 54.5104 8.76172 54.8477 8.88477C 55.8913 9.26758 56.4131 9.93066 56.4131 10.874C 56.4131 11.5485 56.1237 12.0954 55.5449 12.5146C 54.9661 12.9294 54.2188 13.1367 53.3027 13.1367C 52.6829 13.1367 52.1315 13.0273 51.6484 12.8086C 51.1699 12.5853 50.7939 12.2822 50.5205 11.8994C 50.2471 11.512 50.1104 11.0951 50.1104 10.6484L 51.9834 10.6484C 52.0016 10.9993 52.1315 11.2682 52.373 11.4551C 52.6146 11.6419 52.9382 11.7354 53.3438 11.7354C 53.722 11.7354 54.0068 11.6647 54.1982 11.5234C 54.3942 11.3776 54.4922 11.1885 54.4922 10.9561ZM 63.2627 13L 61.2803 13L 61.2803 5.60352L 63.2627 5.60352L 63.2627 13ZM 61.1641 3.68945C 61.1641 3.39323 61.262 3.14941 61.458 2.95801C 61.6585 2.7666 61.9297 2.6709 62.2715 2.6709C 62.6087 2.6709 62.8776 2.7666 63.0781 2.95801C 63.2786 3.14941 63.3789 3.39323 63.3789 3.68945C 63.3789 3.99023 63.2764 4.23633 63.0713 4.42773C 62.8708 4.61914 62.6042 4.71484 62.2715 4.71484C 61.9388 4.71484 61.6699 4.61914 61.4648 4.42773C 61.2643 4.23633 61.1641 3.99023 61.1641 3.68945ZM 67.2617 3.78516L 67.2617 5.60352L 68.5264 5.60352L 68.5264 7.05273L 67.2617 7.05273L 67.2617 10.7441C 67.2617 11.0176 67.3141 11.2135 67.4189 11.332C 67.5238 11.4505 67.7243 11.5098 68.0205 11.5098C 68.2393 11.5098 68.4329 11.4938 68.6016 11.4619L 68.6016 12.959C 68.2142 13.0775 67.8154 13.1367 67.4053 13.1367C 66.0199 13.1367 65.3135 12.4372 65.2861 11.0381L 65.2861 7.05273L 64.2061 7.05273L 64.2061 5.60352L 65.2861 5.60352L 65.2861 3.78516L 67.2617 3.78516ZM 4.89062 27.5439C 5.25521 27.5439 5.55143 27.4437 5.7793 27.2432C 6.00716 27.0426 6.12565 26.776 6.13477 26.4434L 7.9873 26.4434C 7.98275 26.9447 7.84603 27.4049 7.57715 27.8242C 7.30827 28.2389 6.93913 28.5625 6.46973 28.7949C 6.00488 29.0228 5.48991 29.1367 4.9248 29.1367C 3.86751 29.1367 3.03353 28.8018 2.42285 28.1318C 1.81217 27.4574 1.50684 26.5277 1.50684 25.3428L 1.50684 25.2129C 1.50684 24.0736 1.8099 23.1644 2.41602 22.4854C 3.02214 21.8063 3.85384 21.4668 4.91113 21.4668C 5.83626 21.4668 6.57682 21.7311 7.13281 22.2598C 7.69336 22.7839 7.97819 23.4834 7.9873 24.3584L 6.13477 24.3584C 6.12565 23.9756 6.00716 23.6657 5.7793 23.4287C 5.55143 23.1872 5.25065 23.0664 4.87695 23.0664C 4.41667 23.0664 4.06803 23.235 3.83105 23.5723C 3.59863 23.9049 3.48242 24.4473 3.48242 25.1992L 3.48242 25.4043C 3.48242 26.1654 3.59863 26.7122 3.83105 27.0449C 4.06348 27.3776 4.41667 27.5439 4.89062 27.5439ZM 8.80762 25.2334C 8.80762 24.4997 8.94889 23.8457 9.23145 23.2715C 9.514 22.6973 9.9196 22.2529 10.4482 21.9385C 10.9814 21.624 11.599 21.4668 12.3008 21.4668C 13.2988 21.4668 14.1123 21.7721 14.7412 22.3828C 15.3747 22.9935 15.7279 23.8229 15.8008 24.8711L 15.8145 25.377C 15.8145 26.5117 15.4977 27.4232 14.8643 28.1113C 14.2308 28.7949 13.3809 29.1367 12.3145 29.1367C 11.248 29.1367 10.3958 28.7949 9.75781 28.1113C 9.12435 27.4277 8.80762 26.498 8.80762 25.3223L 8.80762 25.2334ZM 10.7832 25.377C 10.7832 26.0788 10.9154 26.6165 11.1797 26.9902C 11.444 27.3594 11.8223 27.5439 12.3145 27.5439C 12.793 27.5439 13.1667 27.3617 13.4355 26.9971C 13.7044 26.6279 13.8389 26.04 13.8389 25.2334C 13.8389 24.5452 13.7044 24.012 13.4355 23.6338C 13.1667 23.2555 12.7884 23.0664 12.3008 23.0664C 11.8177 23.0664 11.444 23.2555 11.1797 23.6338C 10.9154 24.0075 10.7832 24.5885 10.7832 25.377ZM 18.8496 21.6035L 18.9111 22.458C 19.4398 21.7972 20.1484 21.4668 21.0371 21.4668C 21.821 21.4668 22.4043 21.6969 22.7871 22.1572C 23.1699 22.6175 23.3659 23.3057 23.375 24.2217L 23.375 29L 21.3994 29L 21.3994 24.2695C 21.3994 23.8503 21.3083 23.5472 21.126 23.3604C 20.9437 23.1689 20.6406 23.0732 20.2168 23.0732C 19.6608 23.0732 19.2438 23.3102 18.9658 23.7842L 18.9658 29L 16.9902 29L 16.9902 21.6035L 18.8496 21.6035ZM 27.2441 19.7852L 27.2441 21.6035L 28.5088 21.6035L 28.5088 23.0527L 27.2441 23.0527L 27.2441 26.7441C 27.2441 27.0176 27.2965 27.2135 27.4014 27.332C 27.5062 27.4505 27.7067 27.5098 28.0029 27.5098C 28.2217 27.5098 28.4154 27.4938 28.584 27.4619L 28.584 28.959C 28.1966 29.0775 27.7979 29.1367 27.3877 29.1367C 26.0023 29.1367 25.2959 28.4372 25.2686 27.0381L 25.2686 23.0527L 24.1885 23.0527L 24.1885 21.6035L 25.2686 21.6035L 25.2686 19.7852L 27.2441 19.7852ZM 33.8955 29C 33.8044 28.8223 33.7383 28.6012 33.6973 28.3369C 33.2188 28.8701 32.5967 29.1367 31.8311 29.1367C 31.1064 29.1367 30.5049 28.9271 30.0264 28.5078C 29.5524 28.0885 29.3154 27.5599 29.3154 26.9219C 29.3154 26.138 29.6048 25.5365 30.1836 25.1172C 30.7669 24.6979 31.6077 24.486 32.7061 24.4814L 33.6152 24.4814L 33.6152 24.0576C 33.6152 23.7158 33.5264 23.4424 33.3486 23.2373C 33.1755 23.0322 32.8997 22.9297 32.5215 22.9297C 32.1888 22.9297 31.9268 23.0094 31.7354 23.1689C 31.5485 23.3285 31.4551 23.5472 31.4551 23.8252L 29.4795 23.8252C 29.4795 23.3968 29.6117 23.0003 29.876 22.6357C 30.1403 22.2712 30.514 21.9863 30.9971 21.7812C 31.4801 21.5716 32.0225 21.4668 32.624 21.4668C 33.5355 21.4668 34.2578 21.6969 34.791 22.1572C 35.3288 22.613 35.5977 23.2555 35.5977 24.085L 35.5977 27.291C 35.6022 27.9928 35.7002 28.5238 35.8916 28.8838L 35.8916 29L 33.8955 29ZM 32.2617 27.626C 32.5534 27.626 32.8223 27.5622 33.0684 27.4346C 33.3145 27.3024 33.4967 27.127 33.6152 26.9082L 33.6152 25.6367L 32.877 25.6367C 31.888 25.6367 31.3617 25.9785 31.2979 26.6621L 31.291 26.7783C 31.291 27.0244 31.3776 27.2272 31.5508 27.3867C 31.724 27.5462 31.9609 27.626 32.2617 27.626ZM 39.2002 29L 37.2178 29L 37.2178 21.6035L 39.2002 21.6035L 39.2002 29ZM 37.1016 19.6895C 37.1016 19.3932 37.1995 19.1494 37.3955 18.958C 37.596 18.7666 37.8672 18.6709 38.209 18.6709C 38.5462 18.6709 38.8151 18.7666 39.0156 18.958C 39.2161 19.1494 39.3164 19.3932 39.3164 19.6895C 39.3164 19.9902 39.2139 20.2363 39.0088 20.4277C 38.8083 20.6191 38.5417 20.7148 38.209 20.7148C 37.8763 20.7148 37.6074 20.6191 37.4023 20.4277C 37.2018 20.2363 37.1016 19.9902 37.1016 19.6895ZM 42.6523 21.6035L 42.7139 22.458C 43.2425 21.7972 43.9512 21.4668 44.8398 21.4668C 45.6237 21.4668 46.207 21.6969 46.5898 22.1572C 46.9727 22.6175 47.1686 23.3057 47.1777 24.2217L 47.1777 29L 45.2021 29L 45.2021 24.2695C 45.2021 23.8503 45.111 23.5472 44.9287 23.3604C 44.7464 23.1689 44.4434 23.0732 44.0195 23.0732C 43.4635 23.0732 43.0465 23.3102 42.7686 23.7842L 42.7686 29L 40.793 29L 40.793 21.6035L 42.6523 21.6035ZM 56.4541 29C 56.363 28.8223 56.2969 28.6012 56.2559 28.3369C 55.7773 28.8701 55.1553 29.1367 54.3896 29.1367C 53.665 29.1367 53.0635 28.9271 52.585 28.5078C 52.111 28.0885 51.874 27.5599 51.874 26.9219C 51.874 26.138 52.1634 25.5365 52.7422 25.1172C 53.3255 24.6979 54.1663 24.486 55.2646 24.4814L 56.1738 24.4814L 56.1738 24.0576C 56.1738 23.7158 56.085 23.4424 55.9072 23.2373C 55.734 23.0322 55.4583 22.9297 55.0801 22.9297C 54.7474 22.9297 54.4854 23.0094 54.2939 23.1689C 54.1071 23.3285 54.0137 23.5472 54.0137 23.8252L 52.0381 23.8252C 52.0381 23.3968 52.1702 23.0003 52.4346 22.6357C 52.6989 22.2712 53.0726 21.9863 53.5557 21.7812C 54.0387 21.5716 54.5811 21.4668 55.1826 21.4668C 56.0941 21.4668 56.8164 21.6969 57.3496 22.1572C 57.8874 22.613 58.1562 23.2555 58.1562 24.085L 58.1562 27.291C 58.1608 27.9928 58.2588 28.5238 58.4502 28.8838L 58.4502 29L 56.4541 29ZM 54.8203 27.626C 55.112 27.626 55.3809 27.5622 55.627 27.4346C 55.873 27.3024 56.0553 27.127 56.1738 26.9082L 56.1738 25.6367L 55.4355 25.6367C 54.4466 25.6367 53.9202 25.9785 53.8564 26.6621L 53.8496 26.7783C 53.8496 27.0244 53.9362 27.2272 54.1094 27.3867C 54.2826 27.5462 54.5195 27.626 54.8203 27.626ZM 69.8252 25.3701C 69.8252 26.555 69.5723 27.4801 69.0664 28.1455C 68.5605 28.8063 67.8542 29.1367 66.9473 29.1367C 66.1452 29.1367 65.5049 28.8291 65.0264 28.2139L 64.9375 29L 63.1602 29L 63.1602 18.5L 65.1357 18.5L 65.1357 22.2666C 65.5915 21.7334 66.1908 21.4668 66.9336 21.4668C 67.8359 21.4668 68.5423 21.7995 69.0527 22.4648C 69.5677 23.1257 69.8252 24.0576 69.8252 25.2607L 69.8252 25.3701ZM 67.8496 25.2266C 67.8496 24.4792 67.7311 23.9346 67.4941 23.5928C 67.2572 23.2464 66.904 23.0732 66.4346 23.0732C 65.8057 23.0732 65.3727 23.3307 65.1357 23.8457L 65.1357 26.7646C 65.3773 27.2842 65.8148 27.5439 66.4482 27.5439C 67.0863 27.5439 67.5055 27.2295 67.7061 26.6006C 67.8018 26.2998 67.8496 25.8418 67.8496 25.2266ZM 75.4785 28.248C 74.9909 28.8405 74.3164 29.1367 73.4551 29.1367C 72.6621 29.1367 72.056 28.9089 71.6367 28.4531C 71.222 27.9974 71.0101 27.3298 71.001 26.4502L 71.001 21.6035L 72.9766 21.6035L 72.9766 26.3818C 72.9766 27.152 73.3275 27.5371 74.0293 27.5371C 74.6992 27.5371 75.1595 27.3047 75.4102 26.8398L 75.4102 21.6035L 77.3926 21.6035L 77.3926 29L 75.5332 29L 75.4785 28.248ZM 80.7012 21.6035L 80.7627 22.458C 81.2913 21.7972 82 21.4668 82.8887 21.4668C 83.6725 21.4668 84.2559 21.6969 84.6387 22.1572C 85.0215 22.6175 85.2174 23.3057 85.2266 24.2217L 85.2266 29L 83.251 29L 83.251 24.2695C 83.251 23.8503 83.1598 23.5472 82.9775 23.3604C 82.7952 23.1689 82.4922 23.0732 82.0684 23.0732C 81.5124 23.0732 81.0954 23.3102 80.8174 23.7842L 80.8174 29L 78.8418 29L 78.8418 21.6035L 80.7012 21.6035ZM 88.3438 25.9443C 88.3438 25.3063 88.4212 24.7982 88.5762 24.4199C 88.7311 24.0417 89.0137 23.6702 89.4238 23.3057C 89.8385 22.9365 90.1143 22.638 90.251 22.4102C 90.3877 22.1777 90.4561 21.9339 90.4561 21.6787C 90.4561 20.9085 90.1006 20.5234 89.3896 20.5234C 89.0524 20.5234 88.7812 20.6283 88.5762 20.8379C 88.3757 21.043 88.2708 21.3278 88.2617 21.6924L 86.2793 21.6924C 86.2884 20.8219 86.5687 20.1406 87.1201 19.6484C 87.6761 19.1562 88.4326 18.9102 89.3896 18.9102C 90.3558 18.9102 91.1055 19.1449 91.6387 19.6143C 92.1719 20.0791 92.4385 20.7376 92.4385 21.5898C 92.4385 21.9772 92.3519 22.3441 92.1787 22.6904C 92.0055 23.0322 91.7025 23.4128 91.2695 23.832L 90.7158 24.3584C 90.3695 24.6911 90.1712 25.0807 90.1211 25.5273L 90.0938 25.9443L 88.3438 25.9443ZM 88.1455 28.043C 88.1455 27.7376 88.248 27.487 88.4531 27.291C 88.6628 27.0905 88.9294 26.9902 89.2529 26.9902C 89.5765 26.9902 89.8408 27.0905 90.0459 27.291C 90.2555 27.487 90.3604 27.7376 90.3604 28.043C 90.3604 28.3438 90.2578 28.5921 90.0527 28.7881C 89.8522 28.984 89.5856 29.082 89.2529 29.082C 88.9202 29.082 88.6514 28.984 88.4463 28.7881C 88.2458 28.5921 88.1455 28.3438 88.1455 28.043Z"/>
<path id="path8_stroke" d="M 0 29.2713L -0.5 29.2713L -0.5 29.7713L 0 29.7713L 0 29.2713ZM 106 29.2713L 106.5 29.2713L 106.5 28.7713L 106 28.7713L 106 29.2713ZM -0.5 0L -0.5 29.2713L 0.5 29.2713L 0.5 0L -0.5 0ZM 0 29.7713L 106 29.7713L 106 28.7713L 0 28.7713L 0 29.7713ZM 105.5 29.2713L 105.5 64L 106.5 64L 106.5 29.2713L 105.5 29.2713Z"/>
<path id="path9_stroke" d="M 0 29.2713L -0.5 29.2713L -0.5 29.7713L 0 29.7713L 0 29.2713ZM 87 29.2713L 87.5 29.2713L 87.5 28.7713L 87 28.7713L 87 29.2713ZM -0.5 0L -0.5 29.2713L 0.5 29.2713L 0.5 0L -0.5 0ZM 0 29.7713L 87 29.7713L 87 28.7713L 0 28.7713L 0 29.7713ZM 86.5 29.2713L 86.5 64L 87.5 64L 87.5 29.2713L 86.5 29.2713Z"/>
<path id="path10_fill" d="M 6.34375 13L 6.34375 3.04688L 9.40625 3.04688C 10.2812 3.04688 11.0628 3.24512 11.751 3.6416C 12.4437 4.03353 12.9837 4.59408 13.3711 5.32324C 13.7585 6.04785 13.9521 6.87272 13.9521 7.79785L 13.9521 8.25586C 13.9521 9.18099 13.7607 10.0036 13.3779 10.7236C 12.9997 11.4437 12.4642 12.002 11.7715 12.3984C 11.0788 12.7949 10.2972 12.9954 9.42676 13L 6.34375 13ZM 8.39453 4.70801L 8.39453 11.3525L 9.38574 11.3525C 10.1878 11.3525 10.8008 11.0905 11.2246 10.5664C 11.6484 10.0423 11.8649 9.29264 11.874 8.31738L 11.874 7.79102C 11.874 6.7793 11.6644 6.01367 11.2451 5.49414C 10.8258 4.97005 10.2129 4.70801 9.40625 4.70801L 8.39453 4.70801ZM 15.0117 9.2334C 15.0117 8.49967 15.153 7.8457 15.4355 7.27148C 15.7181 6.69727 16.1237 6.25293 16.6523 5.93848C 17.1855 5.62402 17.8031 5.4668 18.5049 5.4668C 19.5029 5.4668 20.3164 5.77214 20.9453 6.38281C 21.5788 6.99349 21.932 7.82292 22.0049 8.87109L 22.0186 9.37695C 22.0186 10.5117 21.7018 11.4232 21.0684 12.1113C 20.4349 12.7949 19.585 13.1367 18.5186 13.1367C 17.4521 13.1367 16.5999 12.7949 15.9619 12.1113C 15.3285 11.4277 15.0117 10.498 15.0117 9.32227L 15.0117 9.2334ZM 16.9873 9.37695C 16.9873 10.0788 17.1195 10.6165 17.3838 10.9902C 17.6481 11.3594 18.0264 11.5439 18.5186 11.5439C 18.9971 11.5439 19.3708 11.3617 19.6396 10.9971C 19.9085 10.6279 20.043 10.04 20.043 9.2334C 20.043 8.54525 19.9085 8.01204 19.6396 7.63379C 19.3708 7.25553 18.9925 7.06641 18.5049 7.06641C 18.0218 7.06641 17.6481 7.25553 17.3838 7.63379C 17.1195 8.00749 16.9873 8.58854 16.9873 9.37695ZM 26.6396 13.1367C 25.555 13.1367 24.6709 12.804 23.9873 12.1387C 23.3083 11.4733 22.9688 10.5869 22.9688 9.47949L 22.9688 9.28809C 22.9688 8.54525 23.1123 7.88216 23.3994 7.29883C 23.6865 6.71094 24.0921 6.25977 24.6162 5.94531C 25.1449 5.6263 25.7464 5.4668 26.4209 5.4668C 27.4326 5.4668 28.2279 5.78581 28.8066 6.42383C 29.39 7.06185 29.6816 7.96647 29.6816 9.1377L 29.6816 9.94434L 24.9717 9.94434C 25.0355 10.4274 25.2269 10.8148 25.5459 11.1064C 25.8695 11.3981 26.2773 11.5439 26.7695 11.5439C 27.5306 11.5439 28.1253 11.2682 28.5537 10.7168L 29.5244 11.8037C 29.2282 12.223 28.8271 12.5511 28.3213 12.7881C 27.8154 13.0205 27.2549 13.1367 26.6396 13.1367ZM 26.4141 7.06641C 26.0221 7.06641 25.7031 7.19857 25.457 7.46289C 25.2155 7.72721 25.0605 8.10547 24.9922 8.59766L 27.7402 8.59766L 27.7402 8.44043C 27.7311 8.00293 27.6126 7.66569 27.3848 7.42871C 27.1569 7.18717 26.8333 7.06641 26.4141 7.06641ZM 34.8154 10.9561C 34.8154 10.7145 34.6947 10.5254 34.4531 10.3887C 34.2161 10.2474 33.8333 10.1221 33.3047 10.0127C 31.5456 9.64355 30.666 8.89616 30.666 7.77051C 30.666 7.11426 30.9372 6.56738 31.4795 6.12988C 32.0264 5.68783 32.7396 5.4668 33.6191 5.4668C 34.5579 5.4668 35.3076 5.68783 35.8682 6.12988C 36.4333 6.57194 36.7158 7.14616 36.7158 7.85254L 34.7402 7.85254C 34.7402 7.56999 34.6491 7.33757 34.4668 7.15527C 34.2845 6.96842 33.9997 6.875 33.6123 6.875C 33.2796 6.875 33.0221 6.9502 32.8398 7.10059C 32.6576 7.25098 32.5664 7.44238 32.5664 7.6748C 32.5664 7.89355 32.6689 8.07129 32.874 8.20801C 33.0837 8.34017 33.4346 8.45638 33.9268 8.55664C 34.4189 8.65234 34.8337 8.76172 35.1709 8.88477C 36.2145 9.26758 36.7363 9.93066 36.7363 10.874C 36.7363 11.5485 36.4469 12.0954 35.8682 12.5146C 35.2894 12.9294 34.542 13.1367 33.626 13.1367C 33.0062 13.1367 32.4548 13.0273 31.9717 12.8086C 31.4932 12.5853 31.1172 12.2822 30.8438 11.8994C 30.5703 11.512 30.4336 11.0951 30.4336 10.6484L 32.3066 10.6484C 32.3249 10.9993 32.4548 11.2682 32.6963 11.4551C 32.9378 11.6419 33.2614 11.7354 33.667 11.7354C 34.0452 11.7354 34.3301 11.6647 34.5215 11.5234C 34.7174 11.3776 34.8154 11.1885 34.8154 10.9561ZM 43.5859 13L 41.6035 13L 41.6035 5.60352L 43.5859 5.60352L 43.5859 13ZM 41.4873 3.68945C 41.4873 3.39323 41.5853 3.14941 41.7812 2.95801C 41.9818 2.7666 42.2529 2.6709 42.5947 2.6709C 42.932 2.6709 43.2008 2.7666 43.4014 2.95801C 43.6019 3.14941 43.7021 3.39323 43.7021 3.68945C 43.7021 3.99023 43.5996 4.23633 43.3945 4.42773C 43.194 4.61914 42.9274 4.71484 42.5947 4.71484C 42.262 4.71484 41.9932 4.61914 41.7881 4.42773C 41.5876 4.23633 41.4873 3.99023 41.4873 3.68945ZM 47.585 3.78516L 47.585 5.60352L 48.8496 5.60352L 48.8496 7.05273L 47.585 7.05273L 47.585 10.7441C 47.585 11.0176 47.6374 11.2135 47.7422 11.332C 47.847 11.4505 48.0475 11.5098 48.3438 11.5098C 48.5625 11.5098 48.7562 11.4938 48.9248 11.4619L 48.9248 12.959C 48.5374 13.0775 48.1387 13.1367 47.7285 13.1367C 46.3431 13.1367 45.6367 12.4372 45.6094 11.0381L 45.6094 7.05273L 44.5293 7.05273L 44.5293 5.60352L 45.6094 5.60352L 45.6094 3.78516L 47.585 3.78516ZM 56.5127 11.5439C 56.8773 11.5439 57.1735 11.4437 57.4014 11.2432C 57.6292 11.0426 57.7477 10.776 57.7568 10.4434L 59.6094 10.4434C 59.6048 10.9447 59.4681 11.4049 59.1992 11.8242C 58.9303 12.2389 58.5612 12.5625 58.0918 12.7949C 57.627 13.0228 57.112 13.1367 56.5469 13.1367C 55.4896 13.1367 54.6556 12.8018 54.0449 12.1318C 53.4342 11.4574 53.1289 10.5277 53.1289 9.34277L 53.1289 9.21289C 53.1289 8.07357 53.432 7.16439 54.0381 6.48535C 54.6442 5.80632 55.4759 5.4668 56.5332 5.4668C 57.4583 5.4668 58.1989 5.73112 58.7549 6.25977C 59.3154 6.78385 59.6003 7.4834 59.6094 8.3584L 57.7568 8.3584C 57.7477 7.97559 57.6292 7.66569 57.4014 7.42871C 57.1735 7.18717 56.8727 7.06641 56.499 7.06641C 56.0387 7.06641 55.6901 7.23503 55.4531 7.57227C 55.2207 7.90495 55.1045 8.44727 55.1045 9.19922L 55.1045 9.4043C 55.1045 10.1654 55.2207 10.7122 55.4531 11.0449C 55.6855 11.3776 56.0387 11.5439 56.5127 11.5439ZM 60.4297 9.2334C 60.4297 8.49967 60.571 7.8457 60.8535 7.27148C 61.1361 6.69727 61.5417 6.25293 62.0703 5.93848C 62.6035 5.62402 63.221 5.4668 63.9229 5.4668C 64.9209 5.4668 65.7344 5.77214 66.3633 6.38281C 66.9967 6.99349 67.3499 7.82292 67.4229 8.87109L 67.4365 9.37695C 67.4365 10.5117 67.1198 11.4232 66.4863 12.1113C 65.8529 12.7949 65.0029 13.1367 63.9365 13.1367C 62.8701 13.1367 62.0179 12.7949 61.3799 12.1113C 60.7464 11.4277 60.4297 10.498 60.4297 9.32227L 60.4297 9.2334ZM 62.4053 9.37695C 62.4053 10.0788 62.5374 10.6165 62.8018 10.9902C 63.0661 11.3594 63.4443 11.5439 63.9365 11.5439C 64.415 11.5439 64.7887 11.3617 65.0576 10.9971C 65.3265 10.6279 65.4609 10.04 65.4609 9.2334C 65.4609 8.54525 65.3265 8.01204 65.0576 7.63379C 64.7887 7.25553 64.4105 7.06641 63.9229 7.06641C 63.4398 7.06641 63.0661 7.25553 62.8018 7.63379C 62.5374 8.00749 62.4053 8.58854 62.4053 9.37695ZM 70.4717 5.60352L 70.5332 6.45801C 71.0618 5.7972 71.7705 5.4668 72.6592 5.4668C 73.443 5.4668 74.0264 5.69694 74.4092 6.15723C 74.792 6.61751 74.988 7.30566 74.9971 8.22168L 74.9971 13L 73.0215 13L 73.0215 8.26953C 73.0215 7.85026 72.9303 7.5472 72.748 7.36035C 72.5658 7.16895 72.2627 7.07324 71.8389 7.07324C 71.2829 7.07324 70.8659 7.31022 70.5879 7.78418L 70.5879 13L 68.6123 13L 68.6123 5.60352L 70.4717 5.60352ZM 78.8662 3.78516L 78.8662 5.60352L 80.1309 5.60352L 80.1309 7.05273L 78.8662 7.05273L 78.8662 10.7441C 78.8662 11.0176 78.9186 11.2135 79.0234 11.332C 79.1283 11.4505 79.3288 11.5098 79.625 11.5098C 79.8438 11.5098 80.0374 11.4938 80.2061 11.4619L 80.2061 12.959C 79.8187 13.0775 79.4199 13.1367 79.0098 13.1367C 77.6243 13.1367 76.918 12.4372 76.8906 11.0381L 76.8906 7.05273L 75.8105 7.05273L 75.8105 5.60352L 76.8906 5.60352L 76.8906 3.78516L 78.8662 3.78516ZM 85.5176 13C 85.4264 12.8223 85.3604 12.6012 85.3193 12.3369C 84.8408 12.8701 84.2188 13.1367 83.4531 13.1367C 82.7285 13.1367 82.127 12.9271 81.6484 12.5078C 81.1745 12.0885 80.9375 11.5599 80.9375 10.9219C 80.9375 10.138 81.2269 9.53646 81.8057 9.11719C 82.389 8.69792 83.2298 8.486 84.3281 8.48145L 85.2373 8.48145L 85.2373 8.05762C 85.2373 7.71582 85.1484 7.44238 84.9707 7.2373C 84.7975 7.03223 84.5218 6.92969 84.1436 6.92969C 83.8109 6.92969 83.5488 7.00944 83.3574 7.16895C 83.1706 7.32845 83.0771 7.5472 83.0771 7.8252L 81.1016 7.8252C 81.1016 7.39681 81.2337 7.00033 81.498 6.63574C 81.7624 6.27116 82.1361 5.98633 82.6191 5.78125C 83.1022 5.57161 83.6445 5.4668 84.2461 5.4668C 85.1576 5.4668 85.8799 5.69694 86.4131 6.15723C 86.9508 6.61296 87.2197 7.25553 87.2197 8.08496L 87.2197 11.291C 87.2243 11.9928 87.3223 12.5238 87.5137 12.8838L 87.5137 13L 85.5176 13ZM 83.8838 11.626C 84.1755 11.626 84.4443 11.5622 84.6904 11.4346C 84.9365 11.3024 85.1188 11.127 85.2373 10.9082L 85.2373 9.63672L 84.499 9.63672C 83.5101 9.63672 82.9837 9.97852 82.9199 10.6621L 82.9131 10.7783C 82.9131 11.0244 82.9997 11.2272 83.1729 11.3867C 83.346 11.5462 83.583 11.626 83.8838 11.626ZM 90.8223 13L 88.8398 13L 88.8398 5.60352L 90.8223 5.60352L 90.8223 13ZM 88.7236 3.68945C 88.7236 3.39323 88.8216 3.14941 89.0176 2.95801C 89.2181 2.7666 89.4893 2.6709 89.8311 2.6709C 90.1683 2.6709 90.4372 2.7666 90.6377 2.95801C 90.8382 3.14941 90.9385 3.39323 90.9385 3.68945C 90.9385 3.99023 90.8359 4.23633 90.6309 4.42773C 90.4303 4.61914 90.1637 4.71484 89.8311 4.71484C 89.4984 4.71484 89.2295 4.61914 89.0244 4.42773C 88.8239 4.23633 88.7236 3.99023 88.7236 3.68945ZM 94.2744 5.60352L 94.3359 6.45801C 94.8646 5.7972 95.5732 5.4668 96.4619 5.4668C 97.2458 5.4668 97.8291 5.69694 98.2119 6.15723C 98.5947 6.61751 98.7907 7.30566 98.7998 8.22168L 98.7998 13L 96.8242 13L 96.8242 8.26953C 96.8242 7.85026 96.7331 7.5472 96.5508 7.36035C 96.3685 7.16895 96.0654 7.07324 95.6416 7.07324C 95.0856 7.07324 94.6686 7.31022 94.3906 7.78418L 94.3906 13L 92.415 13L 92.415 5.60352L 94.2744 5.60352ZM 27.3643 26.9561C 27.3643 26.7145 27.2435 26.5254 27.002 26.3887C 26.765 26.2474 26.3822 26.1221 25.8535 26.0127C 24.0944 25.6436 23.2148 24.8962 23.2148 23.7705C 23.2148 23.1143 23.486 22.5674 24.0283 22.1299C 24.5752 21.6878 25.2884 21.4668 26.168 21.4668C 27.1068 21.4668 27.8564 21.6878 28.417 22.1299C 28.9821 22.5719 29.2646 23.1462 29.2646 23.8525L 27.2891 23.8525C 27.2891 23.57 27.1979 23.3376 27.0156 23.1553C 26.8333 22.9684 26.5485 22.875 26.1611 22.875C 25.8285 22.875 25.571 22.9502 25.3887 23.1006C 25.2064 23.251 25.1152 23.4424 25.1152 23.6748C 25.1152 23.8936 25.2178 24.0713 25.4229 24.208C 25.6325 24.3402 25.9834 24.4564 26.4756 24.5566C 26.9678 24.6523 27.3825 24.7617 27.7197 24.8848C 28.7633 25.2676 29.2852 25.9307 29.2852 26.874C 29.2852 27.5485 28.9958 28.0954 28.417 28.5146C 27.8382 28.9294 27.0908 29.1367 26.1748 29.1367C 25.555 29.1367 25.0036 29.0273 24.5205 28.8086C 24.042 28.5853 23.666 28.2822 23.3926 27.8994C 23.1191 27.512 22.9824 27.0951 22.9824 26.6484L 24.8555 26.6484C 24.8737 26.9993 25.0036 27.2682 25.2451 27.4551C 25.4867 27.6419 25.8102 27.7354 26.2158 27.7354C 26.5941 27.7354 26.8789 27.6647 27.0703 27.5234C 27.2663 27.3776 27.3643 27.1885 27.3643 26.9561ZM 34.8496 29C 34.7585 28.8223 34.6924 28.6012 34.6514 28.3369C 34.1729 28.8701 33.5508 29.1367 32.7852 29.1367C 32.0605 29.1367 31.459 28.9271 30.9805 28.5078C 30.5065 28.0885 30.2695 27.5599 30.2695 26.9219C 30.2695 26.138 30.5589 25.5365 31.1377 25.1172C 31.721 24.6979 32.5618 24.486 33.6602 24.4814L 34.5693 24.4814L 34.5693 24.0576C 34.5693 23.7158 34.4805 23.4424 34.3027 23.2373C 34.1296 23.0322 33.8538 22.9297 33.4756 22.9297C 33.1429 22.9297 32.8809 23.0094 32.6895 23.1689C 32.5026 23.3285 32.4092 23.5472 32.4092 23.8252L 30.4336 23.8252C 30.4336 23.3968 30.5658 23.0003 30.8301 22.6357C 31.0944 22.2712 31.4681 21.9863 31.9512 21.7812C 32.4342 21.5716 32.9766 21.4668 33.5781 21.4668C 34.4896 21.4668 35.2119 21.6969 35.7451 22.1572C 36.2829 22.613 36.5518 23.2555 36.5518 24.085L 36.5518 27.291C 36.5563 27.9928 36.6543 28.5238 36.8457 28.8838L 36.8457 29L 34.8496 29ZM 33.2158 27.626C 33.5075 27.626 33.7764 27.5622 34.0225 27.4346C 34.2686 27.3024 34.4508 27.127 34.5693 26.9082L 34.5693 25.6367L 33.8311 25.6367C 32.8421 25.6367 32.3158 25.9785 32.252 26.6621L 32.2451 26.7783C 32.2451 27.0244 32.3317 27.2272 32.5049 27.3867C 32.6781 27.5462 32.915 27.626 33.2158 27.626ZM 42.499 28.248C 42.0114 28.8405 41.3369 29.1367 40.4756 29.1367C 39.6826 29.1367 39.0765 28.9089 38.6572 28.4531C 38.2425 27.9974 38.0306 27.3298 38.0215 26.4502L 38.0215 21.6035L 39.9971 21.6035L 39.9971 26.3818C 39.9971 27.152 40.348 27.5371 41.0498 27.5371C 41.7197 27.5371 42.18 27.3047 42.4307 26.8398L 42.4307 21.6035L 44.4131 21.6035L 44.4131 29L 42.5537 29L 42.499 28.248ZM 49.9092 26.9561C 49.9092 26.7145 49.7884 26.5254 49.5469 26.3887C 49.3099 26.2474 48.9271 26.1221 48.3984 26.0127C 46.6393 25.6436 45.7598 24.8962 45.7598 23.7705C 45.7598 23.1143 46.0309 22.5674 46.5732 22.1299C 47.1201 21.6878 47.8333 21.4668 48.7129 21.4668C 49.6517 21.4668 50.4014 21.6878 50.9619 22.1299C 51.527 22.5719 51.8096 23.1462 51.8096 23.8525L 49.834 23.8525C 49.834 23.57 49.7428 23.3376 49.5605 23.1553C 49.3783 22.9684 49.0934 22.875 48.7061 22.875C 48.3734 22.875 48.1159 22.9502 47.9336 23.1006C 47.7513 23.251 47.6602 23.4424 47.6602 23.6748C 47.6602 23.8936 47.7627 24.0713 47.9678 24.208C 48.1774 24.3402 48.5283 24.4564 49.0205 24.5566C 49.5127 24.6523 49.9274 24.7617 50.2646 24.8848C 51.3083 25.2676 51.8301 25.9307 51.8301 26.874C 51.8301 27.5485 51.5407 28.0954 50.9619 28.5146C 50.3831 28.9294 49.6357 29.1367 48.7197 29.1367C 48.0999 29.1367 47.5485 29.0273 47.0654 28.8086C 46.5869 28.5853 46.2109 28.2822 45.9375 27.8994C 45.6641 27.512 45.5273 27.0951 45.5273 26.6484L 47.4004 26.6484C 47.4186 26.9993 47.5485 27.2682 47.79 27.4551C 48.0316 27.6419 48.3551 27.7354 48.7607 27.7354C 49.139 27.7354 49.4238 27.6647 49.6152 27.5234C 49.8112 27.3776 49.9092 27.1885 49.9092 26.9561ZM 57.3945 29C 57.3034 28.8223 57.2373 28.6012 57.1963 28.3369C 56.7178 28.8701 56.0957 29.1367 55.3301 29.1367C 54.6055 29.1367 54.0039 28.9271 53.5254 28.5078C 53.0514 28.0885 52.8145 27.5599 52.8145 26.9219C 52.8145 26.138 53.1038 25.5365 53.6826 25.1172C 54.266 24.6979 55.1068 24.486 56.2051 24.4814L 57.1143 24.4814L 57.1143 24.0576C 57.1143 23.7158 57.0254 23.4424 56.8477 23.2373C 56.6745 23.0322 56.3988 22.9297 56.0205 22.9297C 55.6878 22.9297 55.4258 23.0094 55.2344 23.1689C 55.0475 23.3285 54.9541 23.5472 54.9541 23.8252L 52.9785 23.8252C 52.9785 23.3968 53.1107 23.0003 53.375 22.6357C 53.6393 22.2712 54.013 21.9863 54.4961 21.7812C 54.9792 21.5716 55.5215 21.4668 56.123 21.4668C 57.0345 21.4668 57.7568 21.6969 58.29 22.1572C 58.8278 22.613 59.0967 23.2555 59.0967 24.085L 59.0967 27.291C 59.1012 27.9928 59.1992 28.5238 59.3906 28.8838L 59.3906 29L 57.3945 29ZM 55.7607 27.626C 56.0524 27.626 56.3213 27.5622 56.5674 27.4346C 56.8135 27.3024 56.9958 27.127 57.1143 26.9082L 57.1143 25.6367L 56.376 25.6367C 55.387 25.6367 54.8607 25.9785 54.7969 26.6621L 54.79 26.7783C 54.79 27.0244 54.8766 27.2272 55.0498 27.3867C 55.223 27.5462 55.46 27.626 55.7607 27.626ZM 60.3271 25.2471C 60.3271 24.1123 60.596 23.1986 61.1338 22.5059C 61.6761 21.8132 62.4053 21.4668 63.3213 21.4668C 64.1325 21.4668 64.7637 21.7448 65.2148 22.3008L 65.2969 21.6035L 67.0879 21.6035L 67.0879 28.7539C 67.0879 29.401 66.9398 29.9639 66.6436 30.4424C 66.3519 30.9209 65.9395 31.2855 65.4062 31.5361C 64.873 31.7868 64.2487 31.9121 63.5332 31.9121C 62.9909 31.9121 62.4622 31.8027 61.9473 31.584C 61.4323 31.3698 61.0426 31.0918 60.7783 30.75L 61.6533 29.5469C 62.1455 30.0983 62.7425 30.374 63.4443 30.374C 63.9684 30.374 64.3763 30.2327 64.668 29.9502C 64.9596 29.6722 65.1055 29.2757 65.1055 28.7607L 65.1055 28.3643C 64.6497 28.8792 64.0505 29.1367 63.3076 29.1367C 62.4189 29.1367 61.6989 28.7904 61.1475 28.0977C 60.6006 27.4004 60.3271 26.4775 60.3271 25.3291L 60.3271 25.2471ZM 62.3027 25.3906C 62.3027 26.0605 62.4372 26.5869 62.7061 26.9697C 62.9749 27.348 63.3441 27.5371 63.8135 27.5371C 64.415 27.5371 64.8457 27.3115 65.1055 26.8604L 65.1055 23.75C 64.8411 23.2988 64.415 23.0732 63.8271 23.0732C 63.3532 23.0732 62.9795 23.2669 62.7061 23.6543C 62.4372 24.0417 62.3027 24.6204 62.3027 25.3906ZM 72.0166 29.1367C 70.932 29.1367 70.0479 28.804 69.3643 28.1387C 68.6852 27.4733 68.3457 26.5869 68.3457 25.4795L 68.3457 25.2881C 68.3457 24.5452 68.4893 23.8822 68.7764 23.2988C 69.0635 22.7109 69.4691 22.2598 69.9932 21.9453C 70.5218 21.6263 71.1234 21.4668 71.7979 21.4668C 72.8096 21.4668 73.6048 21.7858 74.1836 22.4238C 74.7669 23.0618 75.0586 23.9665 75.0586 25.1377L 75.0586 25.9443L 70.3486 25.9443C 70.4124 26.4274 70.6038 26.8148 70.9229 27.1064C 71.2464 27.3981 71.6543 27.5439 72.1465 27.5439C 72.9076 27.5439 73.5023 27.2682 73.9307 26.7168L 74.9014 27.8037C 74.6051 28.223 74.2041 28.5511 73.6982 28.7881C 73.1924 29.0205 72.6318 29.1367 72.0166 29.1367ZM 71.791 23.0664C 71.3991 23.0664 71.0801 23.1986 70.834 23.4629C 70.5924 23.7272 70.4375 24.1055 70.3691 24.5977L 73.1172 24.5977L 73.1172 24.4404C 73.1081 24.0029 72.9896 23.6657 72.7617 23.4287C 72.5339 23.1872 72.2103 23.0664 71.791 23.0664ZM 77.7998 25.9443C 77.7998 25.3063 77.8773 24.7982 78.0322 24.4199C 78.1872 24.0417 78.4697 23.6702 78.8799 23.3057C 79.2946 22.9365 79.5703 22.638 79.707 22.4102C 79.8438 22.1777 79.9121 21.9339 79.9121 21.6787C 79.9121 20.9085 79.5566 20.5234 78.8457 20.5234C 78.5085 20.5234 78.2373 20.6283 78.0322 20.8379C 77.8317 21.043 77.7269 21.3278 77.7178 21.6924L 75.7354 21.6924C 75.7445 20.8219 76.0247 20.1406 76.5762 19.6484C 77.1322 19.1562 77.8887 18.9102 78.8457 18.9102C 79.8118 18.9102 80.5615 19.1449 81.0947 19.6143C 81.6279 20.0791 81.8945 20.7376 81.8945 21.5898C 81.8945 21.9772 81.8079 22.3441 81.6348 22.6904C 81.4616 23.0322 81.1585 23.4128 80.7256 23.832L 80.1719 24.3584C 79.8255 24.6911 79.6273 25.0807 79.5771 25.5273L 79.5498 25.9443L 77.7998 25.9443ZM 77.6016 28.043C 77.6016 27.7376 77.7041 27.487 77.9092 27.291C 78.1188 27.0905 78.3854 26.9902 78.709 26.9902C 79.0326 26.9902 79.2969 27.0905 79.502 27.291C 79.7116 27.487 79.8164 27.7376 79.8164 28.043C 79.8164 28.3438 79.7139 28.5921 79.5088 28.7881C 79.3083 28.984 79.0417 29.082 78.709 29.082C 78.3763 29.082 78.1074 28.984 77.9023 28.7881C 77.7018 28.5921 77.6016 28.3438 77.6016 28.043Z"/>
</defs>
</svg>
