<svg width="499" height="198" viewBox="0 0 499 198" version="1.1" xmlns="http://www.w3.org/2000/svg" xmlns:xlink="http://www.w3.org/1999/xlink">
<title>Group.svg</title>
<desc>Created using Figma</desc>
<g id="Canvas" transform="translate(296 -99)">
<g id="Group">
<g id="Binary">
<use xlink:href="#path0_fill" transform="translate(-286 96)"/>
</g>
<g id="Base 2 Expansion">
<use xlink:href="#path1_fill" transform="translate(-135 96)"/>
</g>
<g id="001">
<use xlink:href="#path2_fill" transform="translate(-277 134)" fill="#EB5757"/>
</g>
<g id="010">
<use xlink:href="#path3_fill" transform="translate(-277 174)" fill="#EB5757"/>
</g>
<g id="100">
<use xlink:href="#path4_fill" transform="translate(-278 216)" fill="#EB5757"/>
</g>
<g id="101">
<use xlink:href="#path5_fill" transform="translate(-278 260)" fill="#EB5757"/>
</g>
<g id="0 * (2^2) + 0 * (2^1) + 1 * (2^0)">
<use xlink:href="#path6_fill" transform="translate(-200 134)"/>
<use xlink:href="#path7_fill" transform="translate(-200 134)" fill="#EB5757"/>
</g>
<g id="0 * (2^2) + 1 * (2^1) + 0 * (2^0)">
<use xlink:href="#path8_fill" transform="translate(-200 174)"/>
<use xlink:href="#path9_fill" transform="translate(-200 174)" fill="#EB5757"/>
</g>
<g id="1 * (2^2) + 0 * (2^1) + 0 * (2^0)">
<use xlink:href="#path10_fill" transform="translate(-200 216)"/>
<use xlink:href="#path11_fill" transform="translate(-200 216)" fill="#EB5757"/>
</g>
<g id="1 * (2^2) + 0 * (2^1) + 1 * (2^0)">
<use xlink:href="#path12_fill" transform="translate(-200 260)"/>
<use xlink:href="#path13_fill" transform="translate(-200 260)" fill="#EB5757"/>
</g>
<g id="Line 3">
<use xlink:href="#path14_stroke" transform="translate(-296 124)"/>
</g>
<g id="Line 3">
<use xlink:href="#path15_stroke" transform="translate(-295 167)"/>
</g>
<g id="Line 3">
<use xlink:href="#path16_stroke" transform="translate(-296 206)"/>
</g>
<g id="Line 3">
<use xlink:href="#path16_stroke" transform="translate(-296 247)"/>
</g>
<g id="Line 4">
<use xlink:href="#path17_stroke" transform="matrix(6.12323e-17 1 -1 6.12323e-17 -296 124)"/>
</g>
<g id="Line 4">
<use xlink:href="#path18_stroke" transform="matrix(6.12323e-17 1 -1 6.12323e-17 -225 124)"/>
</g>
<g id="Line 3">
<use xlink:href="#path14_stroke" transform="translate(-296 297)"/>
</g>
<g id="Line 4">
<use xlink:href="#path17_stroke" transform="matrix(5.89881e-17 1 -1 6.59195e-17 84 124)"/>
</g>
<g id="Base 10 Value">
<use xlink:href="#path19_fill" transform="translate(93 96)"/>
</g>
<g id="1">
<use xlink:href="#path20_fill" transform="translate(137 137)"/>
</g>
<g id="Line 4">
<use xlink:href="#path21_stroke" transform="matrix(6.12323e-17 1 -1 6.12323e-17 201 123)"/>
</g>
<g id="2">
<use xlink:href="#path22_fill" transform="translate(137 174)"/>
</g>
<g id="4">
<use xlink:href="#path23_fill" transform="translate(137 216)"/>
</g>
<g id="5">
<use xlink:href="#path24_fill" transform="translate(137 260)"/>
</g>
</g>
</g>
<defs>
<path id="path0_fill" d="M 1.32031 15L 1.32031 3.625L 5.03906 3.625C 6.27344 3.625 7.20052 3.88021 7.82031 4.39062C 8.44531 4.90104 8.75781 5.65625 8.75781 6.65625C 8.75781 7.1875 8.60677 7.65885 8.30469 8.07031C 8.0026 8.47656 7.59115 8.79167 7.07031 9.01562C 7.6849 9.1875 8.16927 9.51562 8.52344 10C 8.88281 10.4792 9.0625 11.0521 9.0625 11.7188C 9.0625 12.7396 8.73177 13.5417 8.07031 14.125C 7.40885 14.7083 6.47396 15 5.26562 15L 1.32031 15ZM 2.82031 9.67969L 2.82031 13.7734L 5.29688 13.7734C 5.99479 13.7734 6.54427 13.5938 6.94531 13.2344C 7.35156 12.8698 7.55469 12.3698 7.55469 11.7344C 7.55469 10.3646 6.8099 9.67969 5.32031 9.67969L 2.82031 9.67969ZM 2.82031 8.47656L 5.08594 8.47656C 5.74219 8.47656 6.26562 8.3125 6.65625 7.98438C 7.05208 7.65625 7.25 7.21094 7.25 6.64844C 7.25 6.02344 7.06771 5.57031 6.70312 5.28906C 6.33854 5.0026 5.78385 4.85938 5.03906 4.85938L 2.82031 4.85938L 2.82031 8.47656ZM 12.6328 15L 11.1875 15L 11.1875 6.54688L 12.6328 6.54688L 12.6328 15ZM 11.0703 4.30469C 11.0703 4.07031 11.1406 3.8724 11.2812 3.71094C 11.4271 3.54948 11.6406 3.46875 11.9219 3.46875C 12.2031 3.46875 12.4167 3.54948 12.5625 3.71094C 12.7083 3.8724 12.7812 4.07031 12.7812 4.30469C 12.7812 4.53906 12.7083 4.73438 12.5625 4.89062C 12.4167 5.04688 12.2031 5.125 11.9219 5.125C 11.6406 5.125 11.4271 5.04688 11.2812 4.89062C 11.1406 4.73438 11.0703 4.53906 11.0703 4.30469ZM 16.3203 6.54688L 16.3672 7.60938C 17.013 6.79688 17.8568 6.39062 18.8984 6.39062C 20.6849 6.39062 21.5859 7.39844 21.6016 9.41406L 21.6016 15L 20.1562 15L 20.1562 9.40625C 20.151 8.79688 20.0104 8.34635 19.7344 8.05469C 19.4635 7.76302 19.0391 7.61719 18.4609 7.61719C 17.9922 7.61719 17.5807 7.74219 17.2266 7.99219C 16.8724 8.24219 16.5964 8.57031 16.3984 8.97656L 16.3984 15L 14.9531 15L 14.9531 6.54688L 16.3203 6.54688ZM 29 15C 28.9167 14.8333 28.849 14.5365 28.7969 14.1094C 28.125 14.8073 27.3229 15.1562 26.3906 15.1562C 25.5573 15.1562 24.8724 14.9219 24.3359 14.4531C 23.8047 13.9792 23.5391 13.3802 23.5391 12.6562C 23.5391 11.776 23.8724 11.0938 24.5391 10.6094C 25.2109 10.1198 26.1536 9.875 27.3672 9.875L 28.7734 9.875L 28.7734 9.21094C 28.7734 8.70573 28.6224 8.30469 28.3203 8.00781C 28.0182 7.70573 27.5729 7.55469 26.9844 7.55469C 26.4688 7.55469 26.0365 7.6849 25.6875 7.94531C 25.3385 8.20573 25.1641 8.52083 25.1641 8.89062L 23.7109 8.89062C 23.7109 8.46875 23.8594 8.0625 24.1562 7.67188C 24.4583 7.27604 24.8646 6.96354 25.375 6.73438C 25.8906 6.50521 26.4557 6.39062 27.0703 6.39062C 28.0443 6.39062 28.8073 6.63542 29.3594 7.125C 29.9115 7.60938 30.1979 8.27865 30.2188 9.13281L 30.2188 13.0234C 30.2188 13.7995 30.3177 14.4167 30.5156 14.875L 30.5156 15L 29 15ZM 26.6016 13.8984C 27.0547 13.8984 27.4844 13.7812 27.8906 13.5469C 28.2969 13.3125 28.5911 13.0078 28.7734 12.6328L 28.7734 10.8984L 27.6406 10.8984C 25.8698 10.8984 24.9844 11.4167 24.9844 12.4531C 24.9844 12.9062 25.1354 13.2604 25.4375 13.5156C 25.7396 13.7708 26.1276 13.8984 26.6016 13.8984ZM 36.5703 7.84375C 36.3516 7.80729 36.1146 7.78906 35.8594 7.78906C 34.9115 7.78906 34.2682 8.19271 33.9297 9L 33.9297 15L 32.4844 15L 32.4844 6.54688L 33.8906 6.54688L 33.9141 7.52344C 34.388 6.76823 35.0599 6.39062 35.9297 6.39062C 36.2109 6.39062 36.4245 6.42708 36.5703 6.5L 36.5703 7.84375ZM 40.8125 12.8828L 42.7812 6.54688L 44.3281 6.54688L 40.9297 16.3047C 40.4036 17.7109 39.5677 18.4141 38.4219 18.4141L 38.1484 18.3906L 37.6094 18.2891L 37.6094 17.1172L 38 17.1484C 38.4896 17.1484 38.8698 17.0495 39.1406 16.8516C 39.4167 16.6536 39.6432 16.2917 39.8203 15.7656L 40.1406 14.9062L 37.125 6.54688L 38.7031 6.54688L 40.8125 12.8828Z"/>
<path id="path1_fill" d="M 1.32031 15L 1.32031 3.625L 5.03906 3.625C 6.27344 3.625 7.20052 3.88021 7.82031 4.39062C 8.44531 4.90104 8.75781 5.65625 8.75781 6.65625C 8.75781 7.1875 8.60677 7.65885 8.30469 8.07031C 8.0026 8.47656 7.59115 8.79167 7.07031 9.01562C 7.6849 9.1875 8.16927 9.51562 8.52344 10C 8.88281 10.4792 9.0625 11.0521 9.0625 11.7188C 9.0625 12.7396 8.73177 13.5417 8.07031 14.125C 7.40885 14.7083 6.47396 15 5.26562 15L 1.32031 15ZM 2.82031 9.67969L 2.82031 13.7734L 5.29688 13.7734C 5.99479 13.7734 6.54427 13.5938 6.94531 13.2344C 7.35156 12.8698 7.55469 12.3698 7.55469 11.7344C 7.55469 10.3646 6.8099 9.67969 5.32031 9.67969L 2.82031 9.67969ZM 2.82031 8.47656L 5.08594 8.47656C 5.74219 8.47656 6.26562 8.3125 6.65625 7.98438C 7.05208 7.65625 7.25 7.21094 7.25 6.64844C 7.25 6.02344 7.06771 5.57031 6.70312 5.28906C 6.33854 5.0026 5.78385 4.85938 5.03906 4.85938L 2.82031 4.85938L 2.82031 8.47656ZM 16.2812 15C 16.1979 14.8333 16.1302 14.5365 16.0781 14.1094C 15.4062 14.8073 14.6042 15.1562 13.6719 15.1562C 12.8385 15.1562 12.1536 14.9219 11.6172 14.4531C 11.0859 13.9792 10.8203 13.3802 10.8203 12.6562C 10.8203 11.776 11.1536 11.0938 11.8203 10.6094C 12.4922 10.1198 13.4349 9.875 14.6484 9.875L 16.0547 9.875L 16.0547 9.21094C 16.0547 8.70573 15.9036 8.30469 15.6016 8.00781C 15.2995 7.70573 14.8542 7.55469 14.2656 7.55469C 13.75 7.55469 13.3177 7.6849 12.9688 7.94531C 12.6198 8.20573 12.4453 8.52083 12.4453 8.89062L 10.9922 8.89062C 10.9922 8.46875 11.1406 8.0625 11.4375 7.67188C 11.7396 7.27604 12.1458 6.96354 12.6562 6.73438C 13.1719 6.50521 13.737 6.39062 14.3516 6.39062C 15.3255 6.39062 16.0885 6.63542 16.6406 7.125C 17.1927 7.60938 17.4792 8.27865 17.5 9.13281L 17.5 13.0234C 17.5 13.7995 17.599 14.4167 17.7969 14.875L 17.7969 15L 16.2812 15ZM 13.8828 13.8984C 14.3359 13.8984 14.7656 13.7812 15.1719 13.5469C 15.5781 13.3125 15.8724 13.0078 16.0547 12.6328L 16.0547 10.8984L 14.9219 10.8984C 13.151 10.8984 12.2656 11.4167 12.2656 12.4531C 12.2656 12.9062 12.4167 13.2604 12.7188 13.5156C 13.0208 13.7708 13.4089 13.8984 13.8828 13.8984ZM 24.6875 12.7578C 24.6875 12.3672 24.5391 12.0651 24.2422 11.8516C 23.9505 11.6328 23.4375 11.4453 22.7031 11.2891C 21.974 11.1328 21.3932 10.9453 20.9609 10.7266C 20.5339 10.5078 20.2161 10.2474 20.0078 9.94531C 19.8047 9.64323 19.7031 9.28385 19.7031 8.86719C 19.7031 8.17448 19.9948 7.58854 20.5781 7.10938C 21.1667 6.63021 21.9167 6.39062 22.8281 6.39062C 23.7865 6.39062 24.5625 6.63802 25.1562 7.13281C 25.7552 7.6276 26.0547 8.26042 26.0547 9.03125L 24.6016 9.03125C 24.6016 8.63542 24.4323 8.29427 24.0938 8.00781C 23.7604 7.72135 23.3385 7.57812 22.8281 7.57812C 22.3021 7.57812 21.8906 7.69271 21.5938 7.92188C 21.2969 8.15104 21.1484 8.45052 21.1484 8.82031C 21.1484 9.16927 21.2865 9.43229 21.5625 9.60938C 21.8385 9.78646 22.3359 9.95573 23.0547 10.1172C 23.7786 10.2786 24.3646 10.4714 24.8125 10.6953C 25.2604 10.9193 25.5911 11.1901 25.8047 11.5078C 26.0234 11.8203 26.1328 12.2031 26.1328 12.6562C 26.1328 13.4115 25.8307 14.0182 25.2266 14.4766C 24.6224 14.9297 23.8385 15.1562 22.875 15.1562C 22.1979 15.1562 21.599 15.0365 21.0781 14.7969C 20.5573 14.5573 20.1484 14.224 19.8516 13.7969C 19.5599 13.3646 19.4141 12.8984 19.4141 12.3984L 20.8594 12.3984C 20.8854 12.8828 21.0781 13.2682 21.4375 13.5547C 21.8021 13.8359 22.2812 13.9766 22.875 13.9766C 23.4219 13.9766 23.8594 13.8672 24.1875 13.6484C 24.5208 13.4245 24.6875 13.1276 24.6875 12.7578ZM 31.5234 15.1562C 30.3776 15.1562 29.4453 14.7812 28.7266 14.0312C 28.0078 13.276 27.6484 12.2682 27.6484 11.0078L 27.6484 10.7422C 27.6484 9.90365 27.8073 9.15625 28.125 8.5C 28.4479 7.83854 28.8958 7.32292 29.4688 6.95312C 30.0469 6.57812 30.6719 6.39062 31.3438 6.39062C 32.4427 6.39062 33.2969 6.7526 33.9062 7.47656C 34.5156 8.20052 34.8203 9.23698 34.8203 10.5859L 34.8203 11.1875L 29.0938 11.1875C 29.1146 12.0208 29.3568 12.6953 29.8203 13.2109C 30.2891 13.7214 30.8828 13.9766 31.6016 13.9766C 32.112 13.9766 32.5443 13.8724 32.8984 13.6641C 33.2526 13.4557 33.5625 13.1797 33.8281 12.8359L 34.7109 13.5234C 34.0026 14.612 32.9401 15.1562 31.5234 15.1562ZM 31.3438 7.57812C 30.7604 7.57812 30.2708 7.79167 29.875 8.21875C 29.4792 8.64062 29.2344 9.23438 29.1406 10L 33.375 10L 33.375 9.89062C 33.3333 9.15625 33.1354 8.58854 32.7812 8.1875C 32.4271 7.78125 31.9479 7.57812 31.3438 7.57812ZM 47.7734 15L 40.3203 15L 40.3203 13.9609L 44.2578 9.58594C 44.8411 8.92448 45.2422 8.38802 45.4609 7.97656C 45.6849 7.5599 45.7969 7.13021 45.7969 6.6875C 45.7969 6.09375 45.6172 5.60677 45.2578 5.22656C 44.8984 4.84635 44.4193 4.65625 43.8203 4.65625C 43.1016 4.65625 42.5417 4.86198 42.1406 5.27344C 41.7448 5.67969 41.5469 6.2474 41.5469 6.97656L 40.1016 6.97656C 40.1016 5.92969 40.4375 5.08333 41.1094 4.4375C 41.7865 3.79167 42.6901 3.46875 43.8203 3.46875C 44.8776 3.46875 45.7135 3.7474 46.3281 4.30469C 46.9427 4.85677 47.25 5.59375 47.25 6.51562C 47.25 7.63542 46.5365 8.96875 45.1094 10.5156L 42.0625 13.8203L 47.7734 13.8203L 47.7734 15ZM 60.0781 9.74219L 55.1484 9.74219L 55.1484 13.7734L 60.875 13.7734L 60.875 15L 53.6484 15L 53.6484 3.625L 60.7969 3.625L 60.7969 4.85938L 55.1484 4.85938L 55.1484 8.51562L 60.0781 8.51562L 60.0781 9.74219ZM 65.3516 9.63281L 67.2266 6.54688L 68.9141 6.54688L 66.1484 10.7266L 69 15L 67.3281 15L 65.375 11.8359L 63.4219 15L 61.7422 15L 64.5938 10.7266L 61.8281 6.54688L 63.5 6.54688L 65.3516 9.63281ZM 77.5938 10.8672C 77.5938 12.1536 77.2995 13.1901 76.7109 13.9766C 76.1224 14.763 75.3255 15.1562 74.3203 15.1562C 73.2943 15.1562 72.487 14.8307 71.8984 14.1797L 71.8984 18.25L 70.4531 18.25L 70.4531 6.54688L 71.7734 6.54688L 71.8438 7.48438C 72.4323 6.75521 73.25 6.39062 74.2969 6.39062C 75.3125 6.39062 76.1146 6.77344 76.7031 7.53906C 77.2969 8.30469 77.5938 9.36979 77.5938 10.7344L 77.5938 10.8672ZM 76.1484 10.7031C 76.1484 9.75 75.9453 8.9974 75.5391 8.44531C 75.1328 7.89323 74.5755 7.61719 73.8672 7.61719C 72.9922 7.61719 72.3359 8.00521 71.8984 8.78125L 71.8984 12.8203C 72.3307 13.5911 72.9922 13.9766 73.8828 13.9766C 74.5755 13.9766 75.125 13.7031 75.5312 13.1562C 75.9427 12.6042 76.1484 11.7865 76.1484 10.7031ZM 84.6562 15C 84.5729 14.8333 84.5052 14.5365 84.4531 14.1094C 83.7812 14.8073 82.9792 15.1562 82.0469 15.1562C 81.2135 15.1562 80.5286 14.9219 79.9922 14.4531C 79.4609 13.9792 79.1953 13.3802 79.1953 12.6562C 79.1953 11.776 79.5286 11.0938 80.1953 10.6094C 80.8672 10.1198 81.8099 9.875 83.0234 9.875L 84.4297 9.875L 84.4297 9.21094C 84.4297 8.70573 84.2786 8.30469 83.9766 8.00781C 83.6745 7.70573 83.2292 7.55469 82.6406 7.55469C 82.125 7.55469 81.6927 7.6849 81.3438 7.94531C 80.9948 8.20573 80.8203 8.52083 80.8203 8.89062L 79.3672 8.89062C 79.3672 8.46875 79.5156 8.0625 79.8125 7.67188C 80.1146 7.27604 80.5208 6.96354 81.0312 6.73438C 81.5469 6.50521 82.112 6.39062 82.7266 6.39062C 83.7005 6.39062 84.4635 6.63542 85.0156 7.125C 85.5677 7.60938 85.8542 8.27865 85.875 9.13281L 85.875 13.0234C 85.875 13.7995 85.974 14.4167 86.1719 14.875L 86.1719 15L 84.6562 15ZM 82.2578 13.8984C 82.7109 13.8984 83.1406 13.7812 83.5469 13.5469C 83.9531 13.3125 84.2474 13.0078 84.4297 12.6328L 84.4297 10.8984L 83.2969 10.8984C 81.526 10.8984 80.6406 11.4167 80.6406 12.4531C 80.6406 12.9062 80.7917 13.2604 81.0938 13.5156C 81.3958 13.7708 81.7839 13.8984 82.2578 13.8984ZM 89.5078 6.54688L 89.5547 7.60938C 90.2005 6.79688 91.0443 6.39062 92.0859 6.39062C 93.8724 6.39062 94.7734 7.39844 94.7891 9.41406L 94.7891 15L 93.3438 15L 93.3438 9.40625C 93.3385 8.79688 93.1979 8.34635 92.9219 8.05469C 92.651 7.76302 92.2266 7.61719 91.6484 7.61719C 91.1797 7.61719 90.7682 7.74219 90.4141 7.99219C 90.0599 8.24219 89.7839 8.57031 89.5859 8.97656L 89.5859 15L 88.1406 15L 88.1406 6.54688L 89.5078 6.54688ZM 101.891 12.7578C 101.891 12.3672 101.742 12.0651 101.445 11.8516C 101.154 11.6328 100.641 11.4453 99.9062 11.2891C 99.1771 11.1328 98.5964 10.9453 98.1641 10.7266C 97.737 10.5078 97.4193 10.2474 97.2109 9.94531C 97.0078 9.64323 96.9062 9.28385 96.9062 8.86719C 96.9062 8.17448 97.1979 7.58854 97.7812 7.10938C 98.3698 6.63021 99.1198 6.39062 100.031 6.39062C 100.99 6.39062 101.766 6.63802 102.359 7.13281C 102.958 7.6276 103.258 8.26042 103.258 9.03125L 101.805 9.03125C 101.805 8.63542 101.635 8.29427 101.297 8.00781C 100.964 7.72135 100.542 7.57812 100.031 7.57812C 99.5052 7.57812 99.0938 7.69271 98.7969 7.92188C 98.5 8.15104 98.3516 8.45052 98.3516 8.82031C 98.3516 9.16927 98.4896 9.43229 98.7656 9.60938C 99.0417 9.78646 99.5391 9.95573 100.258 10.1172C 100.982 10.2786 101.568 10.4714 102.016 10.6953C 102.464 10.9193 102.794 11.1901 103.008 11.5078C 103.227 11.8203 103.336 12.2031 103.336 12.6562C 103.336 13.4115 103.034 14.0182 102.43 14.4766C 101.826 14.9297 101.042 15.1562 100.078 15.1562C 99.401 15.1562 98.8021 15.0365 98.2812 14.7969C 97.7604 14.5573 97.3516 14.224 97.0547 13.7969C 96.763 13.3646 96.6172 12.8984 96.6172 12.3984L 98.0625 12.3984C 98.0885 12.8828 98.2812 13.2682 98.6406 13.5547C 99.0052 13.8359 99.4844 13.9766 100.078 13.9766C 100.625 13.9766 101.062 13.8672 101.391 13.6484C 101.724 13.4245 101.891 13.1276 101.891 12.7578ZM 106.789 15L 105.344 15L 105.344 6.54688L 106.789 6.54688L 106.789 15ZM 105.227 4.30469C 105.227 4.07031 105.297 3.8724 105.438 3.71094C 105.583 3.54948 105.797 3.46875 106.078 3.46875C 106.359 3.46875 106.573 3.54948 106.719 3.71094C 106.865 3.8724 106.938 4.07031 106.938 4.30469C 106.938 4.53906 106.865 4.73438 106.719 4.89062C 106.573 5.04688 106.359 5.125 106.078 5.125C 105.797 5.125 105.583 5.04688 105.438 4.89062C 105.297 4.73438 105.227 4.53906 105.227 4.30469ZM 108.727 10.6953C 108.727 9.86719 108.888 9.1224 109.211 8.46094C 109.539 7.79948 109.992 7.28906 110.57 6.92969C 111.154 6.57031 111.818 6.39062 112.562 6.39062C 113.714 6.39062 114.643 6.78906 115.352 7.58594C 116.065 8.38281 116.422 9.44271 116.422 10.7656L 116.422 10.8672C 116.422 11.6901 116.263 12.4297 115.945 13.0859C 115.633 13.737 115.182 14.2448 114.594 14.6094C 114.01 14.974 113.339 15.1562 112.578 15.1562C 111.432 15.1562 110.503 14.7578 109.789 13.9609C 109.081 13.1641 108.727 12.1094 108.727 10.7969L 108.727 10.6953ZM 110.18 10.8672C 110.18 11.8047 110.396 12.5573 110.828 13.125C 111.266 13.6927 111.849 13.9766 112.578 13.9766C 113.312 13.9766 113.896 13.6901 114.328 13.1172C 114.76 12.5391 114.977 11.7318 114.977 10.6953C 114.977 9.76823 114.755 9.01823 114.312 8.44531C 113.875 7.86719 113.292 7.57812 112.562 7.57812C 111.849 7.57812 111.273 7.86198 110.836 8.42969C 110.398 8.9974 110.18 9.8099 110.18 10.8672ZM 119.602 6.54688L 119.648 7.60938C 120.294 6.79688 121.138 6.39062 122.18 6.39062C 123.966 6.39062 124.867 7.39844 124.883 9.41406L 124.883 15L 123.438 15L 123.438 9.40625C 123.432 8.79688 123.292 8.34635 123.016 8.05469C 122.745 7.76302 122.32 7.61719 121.742 7.61719C 121.273 7.61719 120.862 7.74219 120.508 7.99219C 120.154 8.24219 119.878 8.57031 119.68 8.97656L 119.68 15L 118.234 15L 118.234 6.54688L 119.602 6.54688Z"/>
<path id="path2_fill" d="M 9.08789 11.542C 9.08789 13.4463 8.7627 14.8613 8.1123 15.7871C 7.46191 16.7129 6.44531 17.1758 5.0625 17.1758C 3.69727 17.1758 2.68652 16.7246 2.03027 15.8223C 1.37402 14.9141 1.03418 13.5605 1.01074 11.7617L 1.01074 9.59082C 1.01074 7.70996 1.33594 6.3125 1.98633 5.39844C 2.63672 4.48438 3.65625 4.02734 5.04492 4.02734C 6.42188 4.02734 7.43555 4.46973 8.08594 5.35449C 8.73633 6.2334 9.07031 7.59277 9.08789 9.43262L 9.08789 11.542ZM 7.46191 9.31836C 7.46191 7.94141 7.26855 6.93945 6.88184 6.3125C 6.49512 5.67969 5.88281 5.36328 5.04492 5.36328C 4.21289 5.36328 3.60645 5.67676 3.22559 6.30371C 2.84473 6.93066 2.64844 7.89453 2.63672 9.19531L 2.63672 11.7969C 2.63672 13.1797 2.83594 14.2021 3.23438 14.8643C 3.63867 15.5205 4.24805 15.8486 5.0625 15.8486C 5.86523 15.8486 6.45996 15.5381 6.84668 14.917C 7.23926 14.2959 7.44434 13.3174 7.46191 11.9814L 7.46191 9.31836ZM 19.1953 11.542C 19.1953 13.4463 18.8701 14.8613 18.2197 15.7871C 17.5693 16.7129 16.5527 17.1758 15.1699 17.1758C 13.8047 17.1758 12.7939 16.7246 12.1377 15.8223C 11.4814 14.9141 11.1416 13.5605 11.1182 11.7617L 11.1182 9.59082C 11.1182 7.70996 11.4434 6.3125 12.0938 5.39844C 12.7441 4.48438 13.7637 4.02734 15.1523 4.02734C 16.5293 4.02734 17.543 4.46973 18.1934 5.35449C 18.8438 6.2334 19.1777 7.59277 19.1953 9.43262L 19.1953 11.542ZM 17.5693 9.31836C 17.5693 7.94141 17.376 6.93945 16.9893 6.3125C 16.6025 5.67969 15.9902 5.36328 15.1523 5.36328C 14.3203 5.36328 13.7139 5.67676 13.333 6.30371C 12.9521 6.93066 12.7559 7.89453 12.7441 9.19531L 12.7441 11.7969C 12.7441 13.1797 12.9434 14.2021 13.3418 14.8643C 13.7461 15.5205 14.3555 15.8486 15.1699 15.8486C 15.9727 15.8486 16.5674 15.5381 16.9541 14.917C 17.3467 14.2959 17.5518 13.3174 17.5693 11.9814L 17.5693 9.31836ZM 26.6221 17L 24.9873 17L 24.9873 6.16309L 21.709 7.36719L 21.709 5.89062L 26.3672 4.1416L 26.6221 4.1416L 26.6221 17Z"/>
<path id="path3_fill" d="M 9.08789 11.542C 9.08789 13.4463 8.7627 14.8613 8.1123 15.7871C 7.46191 16.7129 6.44531 17.1758 5.0625 17.1758C 3.69727 17.1758 2.68652 16.7246 2.03027 15.8223C 1.37402 14.9141 1.03418 13.5605 1.01074 11.7617L 1.01074 9.59082C 1.01074 7.70996 1.33594 6.3125 1.98633 5.39844C 2.63672 4.48438 3.65625 4.02734 5.04492 4.02734C 6.42188 4.02734 7.43555 4.46973 8.08594 5.35449C 8.73633 6.2334 9.07031 7.59277 9.08789 9.43262L 9.08789 11.542ZM 7.46191 9.31836C 7.46191 7.94141 7.26855 6.93945 6.88184 6.3125C 6.49512 5.67969 5.88281 5.36328 5.04492 5.36328C 4.21289 5.36328 3.60645 5.67676 3.22559 6.30371C 2.84473 6.93066 2.64844 7.89453 2.63672 9.19531L 2.63672 11.7969C 2.63672 13.1797 2.83594 14.2021 3.23438 14.8643C 3.63867 15.5205 4.24805 15.8486 5.0625 15.8486C 5.86523 15.8486 6.45996 15.5381 6.84668 14.917C 7.23926 14.2959 7.44434 13.3174 7.46191 11.9814L 7.46191 9.31836ZM 16.5146 17L 14.8799 17L 14.8799 6.16309L 11.6016 7.36719L 11.6016 5.89062L 16.2598 4.1416L 16.5146 4.1416L 16.5146 17ZM 29.3027 11.542C 29.3027 13.4463 28.9775 14.8613 28.3271 15.7871C 27.6768 16.7129 26.6602 17.1758 25.2773 17.1758C 23.9121 17.1758 22.9014 16.7246 22.2451 15.8223C 21.5889 14.9141 21.249 13.5605 21.2256 11.7617L 21.2256 9.59082C 21.2256 7.70996 21.5508 6.3125 22.2012 5.39844C 22.8516 4.48438 23.8711 4.02734 25.2598 4.02734C 26.6367 4.02734 27.6504 4.46973 28.3008 5.35449C 28.9512 6.2334 29.2852 7.59277 29.3027 9.43262L 29.3027 11.542ZM 27.6768 9.31836C 27.6768 7.94141 27.4834 6.93945 27.0967 6.3125C 26.71 5.67969 26.0977 5.36328 25.2598 5.36328C 24.4277 5.36328 23.8213 5.67676 23.4404 6.30371C 23.0596 6.93066 22.8633 7.89453 22.8516 9.19531L 22.8516 11.7969C 22.8516 13.1797 23.0508 14.2021 23.4492 14.8643C 23.8535 15.5205 24.4629 15.8486 25.2773 15.8486C 26.0801 15.8486 26.6748 15.5381 27.0615 14.917C 27.4541 14.2959 27.6592 13.3174 27.6768 11.9814L 27.6768 9.31836Z"/>
<path id="path4_fill" d="M 6.40723 17L 4.77246 17L 4.77246 6.16309L 1.49414 7.36719L 1.49414 5.89062L 6.15234 4.1416L 6.40723 4.1416L 6.40723 17ZM 19.1953 11.542C 19.1953 13.4463 18.8701 14.8613 18.2197 15.7871C 17.5693 16.7129 16.5527 17.1758 15.1699 17.1758C 13.8047 17.1758 12.7939 16.7246 12.1377 15.8223C 11.4814 14.9141 11.1416 13.5605 11.1182 11.7617L 11.1182 9.59082C 11.1182 7.70996 11.4434 6.3125 12.0938 5.39844C 12.7441 4.48438 13.7637 4.02734 15.1523 4.02734C 16.5293 4.02734 17.543 4.46973 18.1934 5.35449C 18.8438 6.2334 19.1777 7.59277 19.1953 9.43262L 19.1953 11.542ZM 17.5693 9.31836C 17.5693 7.94141 17.376 6.93945 16.9893 6.3125C 16.6025 5.67969 15.9902 5.36328 15.1523 5.36328C 14.3203 5.36328 13.7139 5.67676 13.333 6.30371C 12.9521 6.93066 12.7559 7.89453 12.7441 9.19531L 12.7441 11.7969C 12.7441 13.1797 12.9434 14.2021 13.3418 14.8643C 13.7461 15.5205 14.3555 15.8486 15.1699 15.8486C 15.9727 15.8486 16.5674 15.5381 16.9541 14.917C 17.3467 14.2959 17.5518 13.3174 17.5693 11.9814L 17.5693 9.31836ZM 29.3027 11.542C 29.3027 13.4463 28.9775 14.8613 28.3271 15.7871C 27.6768 16.7129 26.6602 17.1758 25.2773 17.1758C 23.9121 17.1758 22.9014 16.7246 22.2451 15.8223C 21.5889 14.9141 21.249 13.5605 21.2256 11.7617L 21.2256 9.59082C 21.2256 7.70996 21.5508 6.3125 22.2012 5.39844C 22.8516 4.48438 23.8711 4.02734 25.2598 4.02734C 26.6367 4.02734 27.6504 4.46973 28.3008 5.35449C 28.9512 6.2334 29.2852 7.59277 29.3027 9.43262L 29.3027 11.542ZM 27.6768 9.31836C 27.6768 7.94141 27.4834 6.93945 27.0967 6.3125C 26.71 5.67969 26.0977 5.36328 25.2598 5.36328C 24.4277 5.36328 23.8213 5.67676 23.4404 6.30371C 23.0596 6.93066 22.8633 7.89453 22.8516 9.19531L 22.8516 11.7969C 22.8516 13.1797 23.0508 14.2021 23.4492 14.8643C 23.8535 15.5205 24.4629 15.8486 25.2773 15.8486C 26.0801 15.8486 26.6748 15.5381 27.0615 14.917C 27.4541 14.2959 27.6592 13.3174 27.6768 11.9814L 27.6768 9.31836Z"/>
<path id="path5_fill" d="M 6.40723 17L 4.77246 17L 4.77246 6.16309L 1.49414 7.36719L 1.49414 5.89062L 6.15234 4.1416L 6.40723 4.1416L 6.40723 17ZM 19.1953 11.542C 19.1953 13.4463 18.8701 14.8613 18.2197 15.7871C 17.5693 16.7129 16.5527 17.1758 15.1699 17.1758C 13.8047 17.1758 12.7939 16.7246 12.1377 15.8223C 11.4814 14.9141 11.1416 13.5605 11.1182 11.7617L 11.1182 9.59082C 11.1182 7.70996 11.4434 6.3125 12.0938 5.39844C 12.7441 4.48438 13.7637 4.02734 15.1523 4.02734C 16.5293 4.02734 17.543 4.46973 18.1934 5.35449C 18.8438 6.2334 19.1777 7.59277 19.1953 9.43262L 19.1953 11.542ZM 17.5693 9.31836C 17.5693 7.94141 17.376 6.93945 16.9893 6.3125C 16.6025 5.67969 15.9902 5.36328 15.1523 5.36328C 14.3203 5.36328 13.7139 5.67676 13.333 6.30371C 12.9521 6.93066 12.7559 7.89453 12.7441 9.19531L 12.7441 11.7969C 12.7441 13.1797 12.9434 14.2021 13.3418 14.8643C 13.7461 15.5205 14.3555 15.8486 15.1699 15.8486C 15.9727 15.8486 16.5674 15.5381 16.9541 14.917C 17.3467 14.2959 17.5518 13.3174 17.5693 11.9814L 17.5693 9.31836ZM 26.6221 17L 24.9873 17L 24.9873 6.16309L 21.709 7.36719L 21.709 5.89062L 26.3672 4.1416L 26.6221 4.1416L 26.6221 17Z"/>
<path id="path6_fill" d="M 17.4727 8.36035L 14.8184 7.56934L 15.2227 6.24219L 17.877 7.22656L 17.7979 4.20312L 19.1426 4.20312L 19.0547 7.27051L 21.665 6.30371L 22.0693 7.63965L 19.3711 8.43945L 21.1113 10.8213L 20.0215 11.6475L 18.3867 9.11621L 16.8047 11.5859L 15.7061 10.7861L 17.4727 8.36035ZM 27.958 11.8057C 27.958 10.4814 28.1338 9.20996 28.4854 7.99121C 28.8428 6.77246 29.373 5.66504 30.0762 4.66895C 30.7793 3.67285 31.5088 2.96973 32.2646 2.55957L 32.5986 3.63184C 31.7432 4.28809 31.04 5.29004 30.4893 6.6377C 29.9443 7.98535 29.6455 9.49414 29.5928 11.1641L 29.584 11.9111C 29.584 14.1729 29.9971 16.1357 30.8232 17.7998C 31.3213 18.7959 31.9131 19.5752 32.5986 20.1377L 32.2646 21.1309C 31.4854 20.6973 30.7412 19.9707 30.0322 18.9512C 28.6494 16.959 27.958 14.5771 27.958 11.8057ZM 42.3896 17L 34.0049 17L 34.0049 15.8311L 38.4346 10.9092C 39.0908 10.165 39.542 9.56152 39.7881 9.09863C 40.04 8.62988 40.166 8.14648 40.166 7.64844C 40.166 6.98047 39.9639 6.43262 39.5596 6.00488C 39.1553 5.57715 38.6162 5.36328 37.9424 5.36328C 37.1338 5.36328 36.5039 5.59473 36.0527 6.05762C 35.6074 6.51465 35.3848 7.15332 35.3848 7.97363L 33.7588 7.97363C 33.7588 6.7959 34.1367 5.84375 34.8926 5.11719C 35.6543 4.39063 36.6709 4.02734 37.9424 4.02734C 39.1318 4.02734 40.0723 4.34082 40.7637 4.96777C 41.4551 5.58887 41.8008 6.41797 41.8008 7.45508C 41.8008 8.71484 40.998 10.2148 39.3926 11.9551L 35.9648 15.6729L 42.3896 15.6729L 42.3896 17ZM 46.793 6.35645L 45.123 10.5928L 43.6113 10.5928L 46.2393 4.20312L 47.3555 4.20312L 49.9746 10.5928L 48.4717 10.5928L 46.793 6.35645ZM 60.0205 17L 51.6357 17L 51.6357 15.8311L 56.0654 10.9092C 56.7217 10.165 57.1729 9.56152 57.4189 9.09863C 57.6709 8.62988 57.7969 8.14648 57.7969 7.64844C 57.7969 6.98047 57.5947 6.43262 57.1904 6.00488C 56.7861 5.57715 56.2471 5.36328 55.5732 5.36328C 54.7646 5.36328 54.1348 5.59473 53.6836 6.05762C 53.2383 6.51465 53.0156 7.15332 53.0156 7.97363L 51.3896 7.97363C 51.3896 6.7959 51.7676 5.84375 52.5234 5.11719C 53.2852 4.39063 54.3018 4.02734 55.5732 4.02734C 56.7627 4.02734 57.7031 4.34082 58.3945 4.96777C 59.0859 5.58887 59.4316 6.41797 59.4316 7.45508C 59.4316 8.71484 58.6289 10.2148 57.0234 11.9551L 53.5957 15.6729L 60.0205 15.6729L 60.0205 17ZM 65.6631 11.8936C 65.6631 13.2002 65.4902 14.4541 65.1445 15.6553C 64.8047 16.8506 64.2803 17.9551 63.5713 18.9688C 62.8682 19.9824 62.1299 20.7031 61.3564 21.1309L 61.0137 20.1377C 61.916 19.4463 62.6396 18.374 63.1846 16.9209C 63.7354 15.4619 64.0166 13.8447 64.0283 12.0693L 64.0283 11.7881C 64.0283 10.5576 63.8994 9.41504 63.6416 8.36035C 63.3838 7.29981 63.0234 6.35059 62.5605 5.5127C 62.1035 4.6748 61.5879 4.02148 61.0137 3.55273L 61.3564 2.55957C 62.1299 2.9873 62.8652 3.70215 63.5625 4.7041C 64.2656 5.70605 64.79 6.81055 65.1357 8.01758C 65.4873 9.22461 65.6631 10.5166 65.6631 11.8936ZM 81.7559 10.1357L 85.3242 10.1357L 85.3242 11.6738L 81.7559 11.6738L 81.7559 15.7168L 80.1211 15.7168L 80.1211 11.6738L 76.5527 11.6738L 76.5527 10.1357L 80.1211 10.1357L 80.1211 6.40039L 81.7559 6.40039L 81.7559 10.1357ZM 112.482 8.36035L 109.828 7.56934L 110.232 6.24219L 112.887 7.22656L 112.808 4.20312L 114.152 4.20312L 114.064 7.27051L 116.675 6.30371L 117.079 7.63965L 114.381 8.43945L 116.121 10.8213L 115.031 11.6475L 113.396 9.11621L 111.814 11.5859L 110.716 10.7861L 112.482 8.36035ZM 122.968 11.8057C 122.968 10.4814 123.144 9.20996 123.495 7.99121C 123.853 6.77246 124.383 5.66504 125.086 4.66895C 125.789 3.67285 126.519 2.96973 127.274 2.55957L 127.608 3.63184C 126.753 4.28809 126.05 5.29004 125.499 6.6377C 124.954 7.98535 124.655 9.49414 124.603 11.1641L 124.594 11.9111C 124.594 14.1729 125.007 16.1357 125.833 17.7998C 126.331 18.7959 126.923 19.5752 127.608 20.1377L 127.274 21.1309C 126.495 20.6973 125.751 19.9707 125.042 18.9512C 123.659 16.959 122.968 14.5771 122.968 11.8057ZM 137.399 17L 129.015 17L 129.015 15.8311L 133.444 10.9092C 134.101 10.165 134.552 9.56152 134.798 9.09863C 135.05 8.62988 135.176 8.14648 135.176 7.64844C 135.176 6.98047 134.974 6.43262 134.569 6.00488C 134.165 5.57715 133.626 5.36328 132.952 5.36328C 132.144 5.36328 131.514 5.59473 131.062 6.05762C 130.617 6.51465 130.395 7.15332 130.395 7.97363L 128.769 7.97363C 128.769 6.7959 129.146 5.84375 129.902 5.11719C 130.664 4.39063 131.681 4.02734 132.952 4.02734C 134.142 4.02734 135.082 4.34082 135.773 4.96777C 136.465 5.58887 136.811 6.41797 136.811 7.45508C 136.811 8.71484 136.008 10.2148 134.402 11.9551L 130.975 15.6729L 137.399 15.6729L 137.399 17ZM 141.803 6.35645L 140.133 10.5928L 138.621 10.5928L 141.249 4.20312L 142.365 4.20312L 144.984 10.5928L 143.481 10.5928L 141.803 6.35645ZM 151.989 17L 150.354 17L 150.354 6.16309L 147.076 7.36719L 147.076 5.89062L 151.734 4.1416L 151.989 4.1416L 151.989 17ZM 160.673 11.8936C 160.673 13.2002 160.5 14.4541 160.154 15.6553C 159.814 16.8506 159.29 17.9551 158.581 18.9688C 157.878 19.9824 157.14 20.7031 156.366 21.1309L 156.023 20.1377C 156.926 19.4463 157.649 18.374 158.194 16.9209C 158.745 15.4619 159.026 13.8447 159.038 12.0693L 159.038 11.7881C 159.038 10.5576 158.909 9.41504 158.651 8.36035C 158.394 7.29981 158.033 6.35059 157.57 5.5127C 157.113 4.6748 156.598 4.02148 156.023 3.55273L 156.366 2.55957C 157.14 2.9873 157.875 3.70215 158.572 4.7041C 159.275 5.70605 159.8 6.81055 160.146 8.01758C 160.497 9.22461 160.673 10.5166 160.673 11.8936ZM 176.766 10.1357L 180.334 10.1357L 180.334 11.6738L 176.766 11.6738L 176.766 15.7168L 175.131 15.7168L 175.131 11.6738L 171.562 11.6738L 171.562 10.1357L 175.131 10.1357L 175.131 6.40039L 176.766 6.40039L 176.766 10.1357ZM 207.492 8.36035L 204.838 7.56934L 205.242 6.24219L 207.896 7.22656L 207.817 4.20312L 209.162 4.20312L 209.074 7.27051L 211.685 6.30371L 212.089 7.63965L 209.391 8.43945L 211.131 10.8213L 210.041 11.6475L 208.406 9.11621L 206.824 11.5859L 205.726 10.7861L 207.492 8.36035ZM 217.978 11.8057C 217.978 10.4814 218.153 9.20996 218.505 7.99121C 218.862 6.77246 219.393 5.66504 220.096 4.66895C 220.799 3.67285 221.528 2.96973 222.284 2.55957L 222.618 3.63184C 221.763 4.28809 221.06 5.29004 220.509 6.6377C 219.964 7.98535 219.665 9.49414 219.612 11.1641L 219.604 11.9111C 219.604 14.1729 220.017 16.1357 220.843 17.7998C 221.341 18.7959 221.933 19.5752 222.618 20.1377L 222.284 21.1309C 221.505 20.6973 220.761 19.9707 220.052 18.9512C 218.669 16.959 217.978 14.5771 217.978 11.8057ZM 232.409 17L 224.024 17L 224.024 15.8311L 228.454 10.9092C 229.11 10.165 229.562 9.56152 229.808 9.09863C 230.06 8.62988 230.186 8.14648 230.186 7.64844C 230.186 6.98047 229.983 6.43262 229.579 6.00488C 229.175 5.57715 228.636 5.36328 227.962 5.36328C 227.153 5.36328 226.523 5.59473 226.072 6.05762C 225.627 6.51465 225.404 7.15332 225.404 7.97363L 223.778 7.97363C 223.778 6.7959 224.156 5.84375 224.912 5.11719C 225.674 4.39063 226.69 4.02734 227.962 4.02734C 229.151 4.02734 230.092 4.34082 230.783 4.96777C 231.475 5.58887 231.82 6.41797 231.82 7.45508C 231.82 8.71484 231.018 10.2148 229.412 11.9551L 225.984 15.6729L 232.409 15.6729L 232.409 17ZM 236.812 6.35645L 235.143 10.5928L 233.631 10.5928L 236.259 4.20312L 237.375 4.20312L 239.994 10.5928L 238.491 10.5928L 236.812 6.35645ZM 249.68 11.542C 249.68 13.4463 249.354 14.8613 248.704 15.7871C 248.054 16.7129 247.037 17.1758 245.654 17.1758C 244.289 17.1758 243.278 16.7246 242.622 15.8223C 241.966 14.9141 241.626 13.5605 241.603 11.7617L 241.603 9.59082C 241.603 7.70996 241.928 6.3125 242.578 5.39844C 243.229 4.48438 244.248 4.02734 245.637 4.02734C 247.014 4.02734 248.027 4.46973 248.678 5.35449C 249.328 6.2334 249.662 7.59277 249.68 9.43262L 249.68 11.542ZM 248.054 9.31836C 248.054 7.94141 247.86 6.93945 247.474 6.3125C 247.087 5.67969 246.475 5.36328 245.637 5.36328C 244.805 5.36328 244.198 5.67676 243.817 6.30371C 243.437 6.93066 243.24 7.89453 243.229 9.19531L 243.229 11.7969C 243.229 13.1797 243.428 14.2021 243.826 14.8643C 244.23 15.5205 244.84 15.8486 245.654 15.8486C 246.457 15.8486 247.052 15.5381 247.438 14.917C 247.831 14.2959 248.036 13.3174 248.054 11.9814L 248.054 9.31836ZM 255.683 11.8936C 255.683 13.2002 255.51 14.4541 255.164 15.6553C 254.824 16.8506 254.3 17.9551 253.591 18.9688C 252.888 19.9824 252.149 20.7031 251.376 21.1309L 251.033 20.1377C 251.936 19.4463 252.659 18.374 253.204 16.9209C 253.755 15.4619 254.036 13.8447 254.048 12.0693L 254.048 11.7881C 254.048 10.5576 253.919 9.41504 253.661 8.36035C 253.403 7.29981 253.043 6.35059 252.58 5.5127C 252.123 4.6748 251.607 4.02148 251.033 3.55273L 251.376 2.55957C 252.149 2.9873 252.885 3.70215 253.582 4.7041C 254.285 5.70605 254.81 6.81055 255.155 8.01758C 255.507 9.22461 255.683 10.5166 255.683 11.8936Z"/>
<path id="path7_fill" d="M 9.08789 11.542C 9.08789 13.4463 8.7627 14.8613 8.1123 15.7871C 7.46191 16.7129 6.44531 17.1758 5.0625 17.1758C 3.69727 17.1758 2.68652 16.7246 2.03027 15.8223C 1.37402 14.9141 1.03418 13.5605 1.01074 11.7617L 1.01074 9.59082C 1.01074 7.70996 1.33594 6.3125 1.98633 5.39844C 2.63672 4.48438 3.65625 4.02734 5.04492 4.02734C 6.42188 4.02734 7.43555 4.46973 8.08594 5.35449C 8.73633 6.2334 9.07031 7.59277 9.08789 9.43262L 9.08789 11.542ZM 7.46191 9.31836C 7.46191 7.94141 7.26855 6.93945 6.88184 6.3125C 6.49512 5.67969 5.88281 5.36328 5.04492 5.36328C 4.21289 5.36328 3.60645 5.67676 3.22559 6.30371C 2.84473 6.93066 2.64844 7.89453 2.63672 9.19531L 2.63672 11.7969C 2.63672 13.1797 2.83594 14.2021 3.23438 14.8643C 3.63867 15.5205 4.24805 15.8486 5.0625 15.8486C 5.86523 15.8486 6.45996 15.5381 6.84668 14.917C 7.23926 14.2959 7.44434 13.3174 7.46191 11.9814L 7.46191 9.31836ZM 104.098 11.542C 104.098 13.4463 103.772 14.8613 103.122 15.7871C 102.472 16.7129 101.455 17.1758 100.072 17.1758C 98.707 17.1758 97.6963 16.7246 97.04 15.8223C 96.3838 14.9141 96.0439 13.5605 96.0205 11.7617L 96.0205 9.59082C 96.0205 7.70996 96.3457 6.3125 96.9961 5.39844C 97.6465 4.48438 98.666 4.02734 100.055 4.02734C 101.432 4.02734 102.445 4.46973 103.096 5.35449C 103.746 6.2334 104.08 7.59277 104.098 9.43262L 104.098 11.542ZM 102.472 9.31836C 102.472 7.94141 102.278 6.93945 101.892 6.3125C 101.505 5.67969 100.893 5.36328 100.055 5.36328C 99.2227 5.36328 98.6162 5.67676 98.2354 6.30371C 97.8545 6.93066 97.6582 7.89453 97.6465 9.19531L 97.6465 11.7969C 97.6465 13.1797 97.8457 14.2021 98.2441 14.8643C 98.6484 15.5205 99.2578 15.8486 100.072 15.8486C 100.875 15.8486 101.47 15.5381 101.856 14.917C 102.249 14.2959 102.454 13.3174 102.472 11.9814L 102.472 9.31836ZM 196.427 17L 194.792 17L 194.792 6.16309L 191.514 7.36719L 191.514 5.89062L 196.172 4.1416L 196.427 4.1416L 196.427 17Z"/>
<path id="path8_fill" d="M 17.4727 8.36035L 14.8184 7.56934L 15.2227 6.24219L 17.877 7.22656L 17.7979 4.20312L 19.1426 4.20312L 19.0547 7.27051L 21.665 6.30371L 22.0693 7.63965L 19.3711 8.43945L 21.1113 10.8213L 20.0215 11.6475L 18.3867 9.11621L 16.8047 11.5859L 15.7061 10.7861L 17.4727 8.36035ZM 27.958 11.8057C 27.958 10.4814 28.1338 9.20996 28.4854 7.99121C 28.8428 6.77246 29.373 5.66504 30.0762 4.66895C 30.7793 3.67285 31.5088 2.96973 32.2646 2.55957L 32.5986 3.63184C 31.7432 4.28809 31.04 5.29004 30.4893 6.6377C 29.9443 7.98535 29.6455 9.49414 29.5928 11.1641L 29.584 11.9111C 29.584 14.1729 29.9971 16.1357 30.8232 17.7998C 31.3213 18.7959 31.9131 19.5752 32.5986 20.1377L 32.2646 21.1309C 31.4854 20.6973 30.7412 19.9707 30.0322 18.9512C 28.6494 16.959 27.958 14.5771 27.958 11.8057ZM 42.3896 17L 34.0049 17L 34.0049 15.8311L 38.4346 10.9092C 39.0908 10.165 39.542 9.56152 39.7881 9.09863C 40.04 8.62988 40.166 8.14648 40.166 7.64844C 40.166 6.98047 39.9639 6.43262 39.5596 6.00488C 39.1553 5.57715 38.6162 5.36328 37.9424 5.36328C 37.1338 5.36328 36.5039 5.59473 36.0527 6.05762C 35.6074 6.51465 35.3848 7.15332 35.3848 7.97363L 33.7588 7.97363C 33.7588 6.7959 34.1367 5.84375 34.8926 5.11719C 35.6543 4.39063 36.6709 4.02734 37.9424 4.02734C 39.1318 4.02734 40.0723 4.34082 40.7637 4.96777C 41.4551 5.58887 41.8008 6.41797 41.8008 7.45508C 41.8008 8.71484 40.998 10.2148 39.3926 11.9551L 35.9648 15.6729L 42.3896 15.6729L 42.3896 17ZM 46.793 6.35645L 45.123 10.5928L 43.6113 10.5928L 46.2393 4.20312L 47.3555 4.20312L 49.9746 10.5928L 48.4717 10.5928L 46.793 6.35645ZM 60.0205 17L 51.6357 17L 51.6357 15.8311L 56.0654 10.9092C 56.7217 10.165 57.1729 9.56152 57.4189 9.09863C 57.6709 8.62988 57.7969 8.14648 57.7969 7.64844C 57.7969 6.98047 57.5947 6.43262 57.1904 6.00488C 56.7861 5.57715 56.2471 5.36328 55.5732 5.36328C 54.7646 5.36328 54.1348 5.59473 53.6836 6.05762C 53.2383 6.51465 53.0156 7.15332 53.0156 7.97363L 51.3896 7.97363C 51.3896 6.7959 51.7676 5.84375 52.5234 5.11719C 53.2852 4.39063 54.3018 4.02734 55.5732 4.02734C 56.7627 4.02734 57.7031 4.34082 58.3945 4.96777C 59.0859 5.58887 59.4316 6.41797 59.4316 7.45508C 59.4316 8.71484 58.6289 10.2148 57.0234 11.9551L 53.5957 15.6729L 60.0205 15.6729L 60.0205 17ZM 65.6631 11.8936C 65.6631 13.2002 65.4902 14.4541 65.1445 15.6553C 64.8047 16.8506 64.2803 17.9551 63.5713 18.9688C 62.8682 19.9824 62.1299 20.7031 61.3564 21.1309L 61.0137 20.1377C 61.916 19.4463 62.6396 18.374 63.1846 16.9209C 63.7354 15.4619 64.0166 13.8447 64.0283 12.0693L 64.0283 11.7881C 64.0283 10.5576 63.8994 9.41504 63.6416 8.36035C 63.3838 7.29981 63.0234 6.35059 62.5605 5.5127C 62.1035 4.6748 61.5879 4.02148 61.0137 3.55273L 61.3564 2.55957C 62.1299 2.9873 62.8652 3.70215 63.5625 4.7041C 64.2656 5.70605 64.79 6.81055 65.1357 8.01758C 65.4873 9.22461 65.6631 10.5166 65.6631 11.8936ZM 81.7559 10.1357L 85.3242 10.1357L 85.3242 11.6738L 81.7559 11.6738L 81.7559 15.7168L 80.1211 15.7168L 80.1211 11.6738L 76.5527 11.6738L 76.5527 10.1357L 80.1211 10.1357L 80.1211 6.40039L 81.7559 6.40039L 81.7559 10.1357ZM 112.482 8.36035L 109.828 7.56934L 110.232 6.24219L 112.887 7.22656L 112.808 4.20312L 114.152 4.20312L 114.064 7.27051L 116.675 6.30371L 117.079 7.63965L 114.381 8.43945L 116.121 10.8213L 115.031 11.6475L 113.396 9.11621L 111.814 11.5859L 110.716 10.7861L 112.482 8.36035ZM 122.968 11.8057C 122.968 10.4814 123.144 9.20996 123.495 7.99121C 123.853 6.77246 124.383 5.66504 125.086 4.66895C 125.789 3.67285 126.519 2.96973 127.274 2.55957L 127.608 3.63184C 126.753 4.28809 126.05 5.29004 125.499 6.6377C 124.954 7.98535 124.655 9.49414 124.603 11.1641L 124.594 11.9111C 124.594 14.1729 125.007 16.1357 125.833 17.7998C 126.331 18.7959 126.923 19.5752 127.608 20.1377L 127.274 21.1309C 126.495 20.6973 125.751 19.9707 125.042 18.9512C 123.659 16.959 122.968 14.5771 122.968 11.8057ZM 137.399 17L 129.015 17L 129.015 15.8311L 133.444 10.9092C 134.101 10.165 134.552 9.56152 134.798 9.09863C 135.05 8.62988 135.176 8.14648 135.176 7.64844C 135.176 6.98047 134.974 6.43262 134.569 6.00488C 134.165 5.57715 133.626 5.36328 132.952 5.36328C 132.144 5.36328 131.514 5.59473 131.062 6.05762C 130.617 6.51465 130.395 7.15332 130.395 7.97363L 128.769 7.97363C 128.769 6.7959 129.146 5.84375 129.902 5.11719C 130.664 4.39063 131.681 4.02734 132.952 4.02734C 134.142 4.02734 135.082 4.34082 135.773 4.96777C 136.465 5.58887 136.811 6.41797 136.811 7.45508C 136.811 8.71484 136.008 10.2148 134.402 11.9551L 130.975 15.6729L 137.399 15.6729L 137.399 17ZM 141.803 6.35645L 140.133 10.5928L 138.621 10.5928L 141.249 4.20312L 142.365 4.20312L 144.984 10.5928L 143.481 10.5928L 141.803 6.35645ZM 151.989 17L 150.354 17L 150.354 6.16309L 147.076 7.36719L 147.076 5.89062L 151.734 4.1416L 151.989 4.1416L 151.989 17ZM 160.673 11.8936C 160.673 13.2002 160.5 14.4541 160.154 15.6553C 159.814 16.8506 159.29 17.9551 158.581 18.9688C 157.878 19.9824 157.14 20.7031 156.366 21.1309L 156.023 20.1377C 156.926 19.4463 157.649 18.374 158.194 16.9209C 158.745 15.4619 159.026 13.8447 159.038 12.0693L 159.038 11.7881C 159.038 10.5576 158.909 9.41504 158.651 8.36035C 158.394 7.29981 158.033 6.35059 157.57 5.5127C 157.113 4.6748 156.598 4.02148 156.023 3.55273L 156.366 2.55957C 157.14 2.9873 157.875 3.70215 158.572 4.7041C 159.275 5.70605 159.8 6.81055 160.146 8.01758C 160.497 9.22461 160.673 10.5166 160.673 11.8936ZM 176.766 10.1357L 180.334 10.1357L 180.334 11.6738L 176.766 11.6738L 176.766 15.7168L 175.131 15.7168L 175.131 11.6738L 171.562 11.6738L 171.562 10.1357L 175.131 10.1357L 175.131 6.40039L 176.766 6.40039L 176.766 10.1357ZM 207.492 8.36035L 204.838 7.56934L 205.242 6.24219L 207.896 7.22656L 207.817 4.20312L 209.162 4.20312L 209.074 7.27051L 211.685 6.30371L 212.089 7.63965L 209.391 8.43945L 211.131 10.8213L 210.041 11.6475L 208.406 9.11621L 206.824 11.5859L 205.726 10.7861L 207.492 8.36035ZM 217.978 11.8057C 217.978 10.4814 218.153 9.20996 218.505 7.99121C 218.862 6.77246 219.393 5.66504 220.096 4.66895C 220.799 3.67285 221.528 2.96973 222.284 2.55957L 222.618 3.63184C 221.763 4.28809 221.06 5.29004 220.509 6.6377C 219.964 7.98535 219.665 9.49414 219.612 11.1641L 219.604 11.9111C 219.604 14.1729 220.017 16.1357 220.843 17.7998C 221.341 18.7959 221.933 19.5752 222.618 20.1377L 222.284 21.1309C 221.505 20.6973 220.761 19.9707 220.052 18.9512C 218.669 16.959 217.978 14.5771 217.978 11.8057ZM 232.409 17L 224.024 17L 224.024 15.8311L 228.454 10.9092C 229.11 10.165 229.562 9.56152 229.808 9.09863C 230.06 8.62988 230.186 8.14648 230.186 7.64844C 230.186 6.98047 229.983 6.43262 229.579 6.00488C 229.175 5.57715 228.636 5.36328 227.962 5.36328C 227.153 5.36328 226.523 5.59473 226.072 6.05762C 225.627 6.51465 225.404 7.15332 225.404 7.97363L 223.778 7.97363C 223.778 6.7959 224.156 5.84375 224.912 5.11719C 225.674 4.39063 226.69 4.02734 227.962 4.02734C 229.151 4.02734 230.092 4.34082 230.783 4.96777C 231.475 5.58887 231.82 6.41797 231.82 7.45508C 231.82 8.71484 231.018 10.2148 229.412 11.9551L 225.984 15.6729L 232.409 15.6729L 232.409 17ZM 236.812 6.35645L 235.143 10.5928L 233.631 10.5928L 236.259 4.20312L 237.375 4.20312L 239.994 10.5928L 238.491 10.5928L 236.812 6.35645ZM 249.68 11.542C 249.68 13.4463 249.354 14.8613 248.704 15.7871C 248.054 16.7129 247.037 17.1758 245.654 17.1758C 244.289 17.1758 243.278 16.7246 242.622 15.8223C 241.966 14.9141 241.626 13.5605 241.603 11.7617L 241.603 9.59082C 241.603 7.70996 241.928 6.3125 242.578 5.39844C 243.229 4.48438 244.248 4.02734 245.637 4.02734C 247.014 4.02734 248.027 4.46973 248.678 5.35449C 249.328 6.2334 249.662 7.59277 249.68 9.43262L 249.68 11.542ZM 248.054 9.31836C 248.054 7.94141 247.86 6.93945 247.474 6.3125C 247.087 5.67969 246.475 5.36328 245.637 5.36328C 244.805 5.36328 244.198 5.67676 243.817 6.30371C 243.437 6.93066 243.24 7.89453 243.229 9.19531L 243.229 11.7969C 243.229 13.1797 243.428 14.2021 243.826 14.8643C 244.23 15.5205 244.84 15.8486 245.654 15.8486C 246.457 15.8486 247.052 15.5381 247.438 14.917C 247.831 14.2959 248.036 13.3174 248.054 11.9814L 248.054 9.31836ZM 255.683 11.8936C 255.683 13.2002 255.51 14.4541 255.164 15.6553C 254.824 16.8506 254.3 17.9551 253.591 18.9688C 252.888 19.9824 252.149 20.7031 251.376 21.1309L 251.033 20.1377C 251.936 19.4463 252.659 18.374 253.204 16.9209C 253.755 15.4619 254.036 13.8447 254.048 12.0693L 254.048 11.7881C 254.048 10.5576 253.919 9.41504 253.661 8.36035C 253.403 7.29981 253.043 6.35059 252.58 5.5127C 252.123 4.6748 251.607 4.02148 251.033 3.55273L 251.376 2.55957C 252.149 2.9873 252.885 3.70215 253.582 4.7041C 254.285 5.70605 254.81 6.81055 255.155 8.01758C 255.507 9.22461 255.683 10.5166 255.683 11.8936Z"/>
<path id="path9_fill" d="M 9.08789 11.542C 9.08789 13.4463 8.7627 14.8613 8.1123 15.7871C 7.46191 16.7129 6.44531 17.1758 5.0625 17.1758C 3.69727 17.1758 2.68652 16.7246 2.03027 15.8223C 1.37402 14.9141 1.03418 13.5605 1.01074 11.7617L 1.01074 9.59082C 1.01074 7.70996 1.33594 6.3125 1.98633 5.39844C 2.63672 4.48438 3.65625 4.02734 5.04492 4.02734C 6.42188 4.02734 7.43555 4.46973 8.08594 5.35449C 8.73633 6.2334 9.07031 7.59277 9.08789 9.43262L 9.08789 11.542ZM 7.46191 9.31836C 7.46191 7.94141 7.26855 6.93945 6.88184 6.3125C 6.49512 5.67969 5.88281 5.36328 5.04492 5.36328C 4.21289 5.36328 3.60645 5.67676 3.22559 6.30371C 2.84473 6.93066 2.64844 7.89453 2.63672 9.19531L 2.63672 11.7969C 2.63672 13.1797 2.83594 14.2021 3.23438 14.8643C 3.63867 15.5205 4.24805 15.8486 5.0625 15.8486C 5.86523 15.8486 6.45996 15.5381 6.84668 14.917C 7.23926 14.2959 7.44434 13.3174 7.46191 11.9814L 7.46191 9.31836ZM 101.417 17L 99.7822 17L 99.7822 6.16309L 96.5039 7.36719L 96.5039 5.89062L 101.162 4.1416L 101.417 4.1416L 101.417 17ZM 199.107 11.542C 199.107 13.4463 198.782 14.8613 198.132 15.7871C 197.481 16.7129 196.465 17.1758 195.082 17.1758C 193.717 17.1758 192.706 16.7246 192.05 15.8223C 191.394 14.9141 191.054 13.5605 191.03 11.7617L 191.03 9.59082C 191.03 7.70996 191.355 6.3125 192.006 5.39844C 192.656 4.48438 193.676 4.02734 195.064 4.02734C 196.441 4.02734 197.455 4.46973 198.105 5.35449C 198.756 6.2334 199.09 7.59277 199.107 9.43262L 199.107 11.542ZM 197.481 9.31836C 197.481 7.94141 197.288 6.93945 196.901 6.3125C 196.515 5.67969 195.902 5.36328 195.064 5.36328C 194.232 5.36328 193.626 5.67676 193.245 6.30371C 192.864 6.93066 192.668 7.89453 192.656 9.19531L 192.656 11.7969C 192.656 13.1797 192.855 14.2021 193.254 14.8643C 193.658 15.5205 194.268 15.8486 195.082 15.8486C 195.885 15.8486 196.479 15.5381 196.866 14.917C 197.259 14.2959 197.464 13.3174 197.481 11.9814L 197.481 9.31836Z"/>
<path id="path10_fill" d="M 17.4727 8.36035L 14.8184 7.56934L 15.2227 6.24219L 17.877 7.22656L 17.7979 4.20312L 19.1426 4.20312L 19.0547 7.27051L 21.665 6.30371L 22.0693 7.63965L 19.3711 8.43945L 21.1113 10.8213L 20.0215 11.6475L 18.3867 9.11621L 16.8047 11.5859L 15.7061 10.7861L 17.4727 8.36035ZM 27.958 11.8057C 27.958 10.4814 28.1338 9.20996 28.4854 7.99121C 28.8428 6.77246 29.373 5.66504 30.0762 4.66895C 30.7793 3.67285 31.5088 2.96973 32.2646 2.55957L 32.5986 3.63184C 31.7432 4.28809 31.04 5.29004 30.4893 6.6377C 29.9443 7.98535 29.6455 9.49414 29.5928 11.1641L 29.584 11.9111C 29.584 14.1729 29.9971 16.1357 30.8232 17.7998C 31.3213 18.7959 31.9131 19.5752 32.5986 20.1377L 32.2646 21.1309C 31.4854 20.6973 30.7412 19.9707 30.0322 18.9512C 28.6494 16.959 27.958 14.5771 27.958 11.8057ZM 42.3896 17L 34.0049 17L 34.0049 15.8311L 38.4346 10.9092C 39.0908 10.165 39.542 9.56152 39.7881 9.09863C 40.04 8.62988 40.166 8.14648 40.166 7.64844C 40.166 6.98047 39.9639 6.43262 39.5596 6.00488C 39.1553 5.57715 38.6162 5.36328 37.9424 5.36328C 37.1338 5.36328 36.5039 5.59473 36.0527 6.05762C 35.6074 6.51465 35.3848 7.15332 35.3848 7.97363L 33.7588 7.97363C 33.7588 6.7959 34.1367 5.84375 34.8926 5.11719C 35.6543 4.39063 36.6709 4.02734 37.9424 4.02734C 39.1318 4.02734 40.0723 4.34082 40.7637 4.96777C 41.4551 5.58887 41.8008 6.41797 41.8008 7.45508C 41.8008 8.71484 40.998 10.2148 39.3926 11.9551L 35.9648 15.6729L 42.3896 15.6729L 42.3896 17ZM 46.793 6.35645L 45.123 10.5928L 43.6113 10.5928L 46.2393 4.20312L 47.3555 4.20312L 49.9746 10.5928L 48.4717 10.5928L 46.793 6.35645ZM 60.0205 17L 51.6357 17L 51.6357 15.8311L 56.0654 10.9092C 56.7217 10.165 57.1729 9.56152 57.4189 9.09863C 57.6709 8.62988 57.7969 8.14648 57.7969 7.64844C 57.7969 6.98047 57.5947 6.43262 57.1904 6.00488C 56.7861 5.57715 56.2471 5.36328 55.5732 5.36328C 54.7646 5.36328 54.1348 5.59473 53.6836 6.05762C 53.2383 6.51465 53.0156 7.15332 53.0156 7.97363L 51.3896 7.97363C 51.3896 6.7959 51.7676 5.84375 52.5234 5.11719C 53.2852 4.39063 54.3018 4.02734 55.5732 4.02734C 56.7627 4.02734 57.7031 4.34082 58.3945 4.96777C 59.0859 5.58887 59.4316 6.41797 59.4316 7.45508C 59.4316 8.71484 58.6289 10.2148 57.0234 11.9551L 53.5957 15.6729L 60.0205 15.6729L 60.0205 17ZM 65.6631 11.8936C 65.6631 13.2002 65.4902 14.4541 65.1445 15.6553C 64.8047 16.8506 64.2803 17.9551 63.5713 18.9688C 62.8682 19.9824 62.1299 20.7031 61.3564 21.1309L 61.0137 20.1377C 61.916 19.4463 62.6396 18.374 63.1846 16.9209C 63.7354 15.4619 64.0166 13.8447 64.0283 12.0693L 64.0283 11.7881C 64.0283 10.5576 63.8994 9.41504 63.6416 8.36035C 63.3838 7.29981 63.0234 6.35059 62.5605 5.5127C 62.1035 4.6748 61.5879 4.02148 61.0137 3.55273L 61.3564 2.55957C 62.1299 2.9873 62.8652 3.70215 63.5625 4.7041C 64.2656 5.70605 64.79 6.81055 65.1357 8.01758C 65.4873 9.22461 65.6631 10.5166 65.6631 11.8936ZM 81.7559 10.1357L 85.3242 10.1357L 85.3242 11.6738L 81.7559 11.6738L 81.7559 15.7168L 80.1211 15.7168L 80.1211 11.6738L 76.5527 11.6738L 76.5527 10.1357L 80.1211 10.1357L 80.1211 6.40039L 81.7559 6.40039L 81.7559 10.1357ZM 112.482 8.36035L 109.828 7.56934L 110.232 6.24219L 112.887 7.22656L 112.808 4.20312L 114.152 4.20312L 114.064 7.27051L 116.675 6.30371L 117.079 7.63965L 114.381 8.43945L 116.121 10.8213L 115.031 11.6475L 113.396 9.11621L 111.814 11.5859L 110.716 10.7861L 112.482 8.36035ZM 122.968 11.8057C 122.968 10.4814 123.144 9.20996 123.495 7.99121C 123.853 6.77246 124.383 5.66504 125.086 4.66895C 125.789 3.67285 126.519 2.96973 127.274 2.55957L 127.608 3.63184C 126.753 4.28809 126.05 5.29004 125.499 6.6377C 124.954 7.98535 124.655 9.49414 124.603 11.1641L 124.594 11.9111C 124.594 14.1729 125.007 16.1357 125.833 17.7998C 126.331 18.7959 126.923 19.5752 127.608 20.1377L 127.274 21.1309C 126.495 20.6973 125.751 19.9707 125.042 18.9512C 123.659 16.959 122.968 14.5771 122.968 11.8057ZM 137.399 17L 129.015 17L 129.015 15.8311L 133.444 10.9092C 134.101 10.165 134.552 9.56152 134.798 9.09863C 135.05 8.62988 135.176 8.14648 135.176 7.64844C 135.176 6.98047 134.974 6.43262 134.569 6.00488C 134.165 5.57715 133.626 5.36328 132.952 5.36328C 132.144 5.36328 131.514 5.59473 131.062 6.05762C 130.617 6.51465 130.395 7.15332 130.395 7.97363L 128.769 7.97363C 128.769 6.7959 129.146 5.84375 129.902 5.11719C 130.664 4.39063 131.681 4.02734 132.952 4.02734C 134.142 4.02734 135.082 4.34082 135.773 4.96777C 136.465 5.58887 136.811 6.41797 136.811 7.45508C 136.811 8.71484 136.008 10.2148 134.402 11.9551L 130.975 15.6729L 137.399 15.6729L 137.399 17ZM 141.803 6.35645L 140.133 10.5928L 138.621 10.5928L 141.249 4.20312L 142.365 4.20312L 144.984 10.5928L 143.481 10.5928L 141.803 6.35645ZM 151.989 17L 150.354 17L 150.354 6.16309L 147.076 7.36719L 147.076 5.89062L 151.734 4.1416L 151.989 4.1416L 151.989 17ZM 160.673 11.8936C 160.673 13.2002 160.5 14.4541 160.154 15.6553C 159.814 16.8506 159.29 17.9551 158.581 18.9688C 157.878 19.9824 157.14 20.7031 156.366 21.1309L 156.023 20.1377C 156.926 19.4463 157.649 18.374 158.194 16.9209C 158.745 15.4619 159.026 13.8447 159.038 12.0693L 159.038 11.7881C 159.038 10.5576 158.909 9.41504 158.651 8.36035C 158.394 7.29981 158.033 6.35059 157.57 5.5127C 157.113 4.6748 156.598 4.02148 156.023 3.55273L 156.366 2.55957C 157.14 2.9873 157.875 3.70215 158.572 4.7041C 159.275 5.70605 159.8 6.81055 160.146 8.01758C 160.497 9.22461 160.673 10.5166 160.673 11.8936ZM 176.766 10.1357L 180.334 10.1357L 180.334 11.6738L 176.766 11.6738L 176.766 15.7168L 175.131 15.7168L 175.131 11.6738L 171.562 11.6738L 171.562 10.1357L 175.131 10.1357L 175.131 6.40039L 176.766 6.40039L 176.766 10.1357ZM 207.492 8.36035L 204.838 7.56934L 205.242 6.24219L 207.896 7.22656L 207.817 4.20312L 209.162 4.20312L 209.074 7.27051L 211.685 6.30371L 212.089 7.63965L 209.391 8.43945L 211.131 10.8213L 210.041 11.6475L 208.406 9.11621L 206.824 11.5859L 205.726 10.7861L 207.492 8.36035ZM 217.978 11.8057C 217.978 10.4814 218.153 9.20996 218.505 7.99121C 218.862 6.77246 219.393 5.66504 220.096 4.66895C 220.799 3.67285 221.528 2.96973 222.284 2.55957L 222.618 3.63184C 221.763 4.28809 221.06 5.29004 220.509 6.6377C 219.964 7.98535 219.665 9.49414 219.612 11.1641L 219.604 11.9111C 219.604 14.1729 220.017 16.1357 220.843 17.7998C 221.341 18.7959 221.933 19.5752 222.618 20.1377L 222.284 21.1309C 221.505 20.6973 220.761 19.9707 220.052 18.9512C 218.669 16.959 217.978 14.5771 217.978 11.8057ZM 232.409 17L 224.024 17L 224.024 15.8311L 228.454 10.9092C 229.11 10.165 229.562 9.56152 229.808 9.09863C 230.06 8.62988 230.186 8.14648 230.186 7.64844C 230.186 6.98047 229.983 6.43262 229.579 6.00488C 229.175 5.57715 228.636 5.36328 227.962 5.36328C 227.153 5.36328 226.523 5.59473 226.072 6.05762C 225.627 6.51465 225.404 7.15332 225.404 7.97363L 223.778 7.97363C 223.778 6.7959 224.156 5.84375 224.912 5.11719C 225.674 4.39063 226.69 4.02734 227.962 4.02734C 229.151 4.02734 230.092 4.34082 230.783 4.96777C 231.475 5.58887 231.82 6.41797 231.82 7.45508C 231.82 8.71484 231.018 10.2148 229.412 11.9551L 225.984 15.6729L 232.409 15.6729L 232.409 17ZM 236.812 6.35645L 235.143 10.5928L 233.631 10.5928L 236.259 4.20312L 237.375 4.20312L 239.994 10.5928L 238.491 10.5928L 236.812 6.35645ZM 249.68 11.542C 249.68 13.4463 249.354 14.8613 248.704 15.7871C 248.054 16.7129 247.037 17.1758 245.654 17.1758C 244.289 17.1758 243.278 16.7246 242.622 15.8223C 241.966 14.9141 241.626 13.5605 241.603 11.7617L 241.603 9.59082C 241.603 7.70996 241.928 6.3125 242.578 5.39844C 243.229 4.48438 244.248 4.02734 245.637 4.02734C 247.014 4.02734 248.027 4.46973 248.678 5.35449C 249.328 6.2334 249.662 7.59277 249.68 9.43262L 249.68 11.542ZM 248.054 9.31836C 248.054 7.94141 247.86 6.93945 247.474 6.3125C 247.087 5.67969 246.475 5.36328 245.637 5.36328C 244.805 5.36328 244.198 5.67676 243.817 6.30371C 243.437 6.93066 243.24 7.89453 243.229 9.19531L 243.229 11.7969C 243.229 13.1797 243.428 14.2021 243.826 14.8643C 244.23 15.5205 244.84 15.8486 245.654 15.8486C 246.457 15.8486 247.052 15.5381 247.438 14.917C 247.831 14.2959 248.036 13.3174 248.054 11.9814L 248.054 9.31836ZM 255.683 11.8936C 255.683 13.2002 255.51 14.4541 255.164 15.6553C 254.824 16.8506 254.3 17.9551 253.591 18.9688C 252.888 19.9824 252.149 20.7031 251.376 21.1309L 251.033 20.1377C 251.936 19.4463 252.659 18.374 253.204 16.9209C 253.755 15.4619 254.036 13.8447 254.048 12.0693L 254.048 11.7881C 254.048 10.5576 253.919 9.41504 253.661 8.36035C 253.403 7.29981 253.043 6.35059 252.58 5.5127C 252.123 4.6748 251.607 4.02148 251.033 3.55273L 251.376 2.55957C 252.149 2.9873 252.885 3.70215 253.582 4.7041C 254.285 5.70605 254.81 6.81055 255.155 8.01758C 255.507 9.22461 255.683 10.5166 255.683 11.8936Z"/>
<path id="path11_fill" d="M 6.40723 17L 4.77246 17L 4.77246 6.16309L 1.49414 7.36719L 1.49414 5.89062L 6.15234 4.1416L 6.40723 4.1416L 6.40723 17ZM 104.098 11.542C 104.098 13.4463 103.772 14.8613 103.122 15.7871C 102.472 16.7129 101.455 17.1758 100.072 17.1758C 98.707 17.1758 97.6963 16.7246 97.04 15.8223C 96.3838 14.9141 96.0439 13.5605 96.0205 11.7617L 96.0205 9.59082C 96.0205 7.70996 96.3457 6.3125 96.9961 5.39844C 97.6465 4.48438 98.666 4.02734 100.055 4.02734C 101.432 4.02734 102.445 4.46973 103.096 5.35449C 103.746 6.2334 104.08 7.59277 104.098 9.43262L 104.098 11.542ZM 102.472 9.31836C 102.472 7.94141 102.278 6.93945 101.892 6.3125C 101.505 5.67969 100.893 5.36328 100.055 5.36328C 99.2227 5.36328 98.6162 5.67676 98.2354 6.30371C 97.8545 6.93066 97.6582 7.89453 97.6465 9.19531L 97.6465 11.7969C 97.6465 13.1797 97.8457 14.2021 98.2441 14.8643C 98.6484 15.5205 99.2578 15.8486 100.072 15.8486C 100.875 15.8486 101.47 15.5381 101.856 14.917C 102.249 14.2959 102.454 13.3174 102.472 11.9814L 102.472 9.31836ZM 199.107 11.542C 199.107 13.4463 198.782 14.8613 198.132 15.7871C 197.481 16.7129 196.465 17.1758 195.082 17.1758C 193.717 17.1758 192.706 16.7246 192.05 15.8223C 191.394 14.9141 191.054 13.5605 191.03 11.7617L 191.03 9.59082C 191.03 7.70996 191.355 6.3125 192.006 5.39844C 192.656 4.48438 193.676 4.02734 195.064 4.02734C 196.441 4.02734 197.455 4.46973 198.105 5.35449C 198.756 6.2334 199.09 7.59277 199.107 9.43262L 199.107 11.542ZM 197.481 9.31836C 197.481 7.94141 197.288 6.93945 196.901 6.3125C 196.515 5.67969 195.902 5.36328 195.064 5.36328C 194.232 5.36328 193.626 5.67676 193.245 6.30371C 192.864 6.93066 192.668 7.89453 192.656 9.19531L 192.656 11.7969C 192.656 13.1797 192.855 14.2021 193.254 14.8643C 193.658 15.5205 194.268 15.8486 195.082 15.8486C 195.885 15.8486 196.479 15.5381 196.866 14.917C 197.259 14.2959 197.464 13.3174 197.481 11.9814L 197.481 9.31836Z"/>
<path id="path12_fill" d="M 17.4727 8.36035L 14.8184 7.56934L 15.2227 6.24219L 17.877 7.22656L 17.7979 4.20312L 19.1426 4.20312L 19.0547 7.27051L 21.665 6.30371L 22.0693 7.63965L 19.3711 8.43945L 21.1113 10.8213L 20.0215 11.6475L 18.3867 9.11621L 16.8047 11.5859L 15.7061 10.7861L 17.4727 8.36035ZM 27.958 11.8057C 27.958 10.4814 28.1338 9.20996 28.4854 7.99121C 28.8428 6.77246 29.373 5.66504 30.0762 4.66895C 30.7793 3.67285 31.5088 2.96973 32.2646 2.55957L 32.5986 3.63184C 31.7432 4.28809 31.04 5.29004 30.4893 6.6377C 29.9443 7.98535 29.6455 9.49414 29.5928 11.1641L 29.584 11.9111C 29.584 14.1729 29.9971 16.1357 30.8232 17.7998C 31.3213 18.7959 31.9131 19.5752 32.5986 20.1377L 32.2646 21.1309C 31.4854 20.6973 30.7412 19.9707 30.0322 18.9512C 28.6494 16.959 27.958 14.5771 27.958 11.8057ZM 42.3896 17L 34.0049 17L 34.0049 15.8311L 38.4346 10.9092C 39.0908 10.165 39.542 9.56152 39.7881 9.09863C 40.04 8.62988 40.166 8.14648 40.166 7.64844C 40.166 6.98047 39.9639 6.43262 39.5596 6.00488C 39.1553 5.57715 38.6162 5.36328 37.9424 5.36328C 37.1338 5.36328 36.5039 5.59473 36.0527 6.05762C 35.6074 6.51465 35.3848 7.15332 35.3848 7.97363L 33.7588 7.97363C 33.7588 6.7959 34.1367 5.84375 34.8926 5.11719C 35.6543 4.39063 36.6709 4.02734 37.9424 4.02734C 39.1318 4.02734 40.0723 4.34082 40.7637 4.96777C 41.4551 5.58887 41.8008 6.41797 41.8008 7.45508C 41.8008 8.71484 40.998 10.2148 39.3926 11.9551L 35.9648 15.6729L 42.3896 15.6729L 42.3896 17ZM 46.793 6.35645L 45.123 10.5928L 43.6113 10.5928L 46.2393 4.20312L 47.3555 4.20312L 49.9746 10.5928L 48.4717 10.5928L 46.793 6.35645ZM 60.0205 17L 51.6357 17L 51.6357 15.8311L 56.0654 10.9092C 56.7217 10.165 57.1729 9.56152 57.4189 9.09863C 57.6709 8.62988 57.7969 8.14648 57.7969 7.64844C 57.7969 6.98047 57.5947 6.43262 57.1904 6.00488C 56.7861 5.57715 56.2471 5.36328 55.5732 5.36328C 54.7646 5.36328 54.1348 5.59473 53.6836 6.05762C 53.2383 6.51465 53.0156 7.15332 53.0156 7.97363L 51.3896 7.97363C 51.3896 6.7959 51.7676 5.84375 52.5234 5.11719C 53.2852 4.39063 54.3018 4.02734 55.5732 4.02734C 56.7627 4.02734 57.7031 4.34082 58.3945 4.96777C 59.0859 5.58887 59.4316 6.41797 59.4316 7.45508C 59.4316 8.71484 58.6289 10.2148 57.0234 11.9551L 53.5957 15.6729L 60.0205 15.6729L 60.0205 17ZM 65.6631 11.8936C 65.6631 13.2002 65.4902 14.4541 65.1445 15.6553C 64.8047 16.8506 64.2803 17.9551 63.5713 18.9688C 62.8682 19.9824 62.1299 20.7031 61.3564 21.1309L 61.0137 20.1377C 61.916 19.4463 62.6396 18.374 63.1846 16.9209C 63.7354 15.4619 64.0166 13.8447 64.0283 12.0693L 64.0283 11.7881C 64.0283 10.5576 63.8994 9.41504 63.6416 8.36035C 63.3838 7.29981 63.0234 6.35059 62.5605 5.5127C 62.1035 4.6748 61.5879 4.02148 61.0137 3.55273L 61.3564 2.55957C 62.1299 2.9873 62.8652 3.70215 63.5625 4.7041C 64.2656 5.70605 64.79 6.81055 65.1357 8.01758C 65.4873 9.22461 65.6631 10.5166 65.6631 11.8936ZM 81.7559 10.1357L 85.3242 10.1357L 85.3242 11.6738L 81.7559 11.6738L 81.7559 15.7168L 80.1211 15.7168L 80.1211 11.6738L 76.5527 11.6738L 76.5527 10.1357L 80.1211 10.1357L 80.1211 6.40039L 81.7559 6.40039L 81.7559 10.1357ZM 112.482 8.36035L 109.828 7.56934L 110.232 6.24219L 112.887 7.22656L 112.808 4.20312L 114.152 4.20312L 114.064 7.27051L 116.675 6.30371L 117.079 7.63965L 114.381 8.43945L 116.121 10.8213L 115.031 11.6475L 113.396 9.11621L 111.814 11.5859L 110.716 10.7861L 112.482 8.36035ZM 122.968 11.8057C 122.968 10.4814 123.144 9.20996 123.495 7.99121C 123.853 6.77246 124.383 5.66504 125.086 4.66895C 125.789 3.67285 126.519 2.96973 127.274 2.55957L 127.608 3.63184C 126.753 4.28809 126.05 5.29004 125.499 6.6377C 124.954 7.98535 124.655 9.49414 124.603 11.1641L 124.594 11.9111C 124.594 14.1729 125.007 16.1357 125.833 17.7998C 126.331 18.7959 126.923 19.5752 127.608 20.1377L 127.274 21.1309C 126.495 20.6973 125.751 19.9707 125.042 18.9512C 123.659 16.959 122.968 14.5771 122.968 11.8057ZM 137.399 17L 129.015 17L 129.015 15.8311L 133.444 10.9092C 134.101 10.165 134.552 9.56152 134.798 9.09863C 135.05 8.62988 135.176 8.14648 135.176 7.64844C 135.176 6.98047 134.974 6.43262 134.569 6.00488C 134.165 5.57715 133.626 5.36328 132.952 5.36328C 132.144 5.36328 131.514 5.59473 131.062 6.05762C 130.617 6.51465 130.395 7.15332 130.395 7.97363L 128.769 7.97363C 128.769 6.7959 129.146 5.84375 129.902 5.11719C 130.664 4.39063 131.681 4.02734 132.952 4.02734C 134.142 4.02734 135.082 4.34082 135.773 4.96777C 136.465 5.58887 136.811 6.41797 136.811 7.45508C 136.811 8.71484 136.008 10.2148 134.402 11.9551L 130.975 15.6729L 137.399 15.6729L 137.399 17ZM 141.803 6.35645L 140.133 10.5928L 138.621 10.5928L 141.249 4.20312L 142.365 4.20312L 144.984 10.5928L 143.481 10.5928L 141.803 6.35645ZM 151.989 17L 150.354 17L 150.354 6.16309L 147.076 7.36719L 147.076 5.89062L 151.734 4.1416L 151.989 4.1416L 151.989 17ZM 160.673 11.8936C 160.673 13.2002 160.5 14.4541 160.154 15.6553C 159.814 16.8506 159.29 17.9551 158.581 18.9688C 157.878 19.9824 157.14 20.7031 156.366 21.1309L 156.023 20.1377C 156.926 19.4463 157.649 18.374 158.194 16.9209C 158.745 15.4619 159.026 13.8447 159.038 12.0693L 159.038 11.7881C 159.038 10.5576 158.909 9.41504 158.651 8.36035C 158.394 7.29981 158.033 6.35059 157.57 5.5127C 157.113 4.6748 156.598 4.02148 156.023 3.55273L 156.366 2.55957C 157.14 2.9873 157.875 3.70215 158.572 4.7041C 159.275 5.70605 159.8 6.81055 160.146 8.01758C 160.497 9.22461 160.673 10.5166 160.673 11.8936ZM 176.766 10.1357L 180.334 10.1357L 180.334 11.6738L 176.766 11.6738L 176.766 15.7168L 175.131 15.7168L 175.131 11.6738L 171.562 11.6738L 171.562 10.1357L 175.131 10.1357L 175.131 6.40039L 176.766 6.40039L 176.766 10.1357ZM 207.492 8.36035L 204.838 7.56934L 205.242 6.24219L 207.896 7.22656L 207.817 4.20312L 209.162 4.20312L 209.074 7.27051L 211.685 6.30371L 212.089 7.63965L 209.391 8.43945L 211.131 10.8213L 210.041 11.6475L 208.406 9.11621L 206.824 11.5859L 205.726 10.7861L 207.492 8.36035ZM 217.978 11.8057C 217.978 10.4814 218.153 9.20996 218.505 7.99121C 218.862 6.77246 219.393 5.66504 220.096 4.66895C 220.799 3.67285 221.528 2.96973 222.284 2.55957L 222.618 3.63184C 221.763 4.28809 221.06 5.29004 220.509 6.6377C 219.964 7.98535 219.665 9.49414 219.612 11.1641L 219.604 11.9111C 219.604 14.1729 220.017 16.1357 220.843 17.7998C 221.341 18.7959 221.933 19.5752 222.618 20.1377L 222.284 21.1309C 221.505 20.6973 220.761 19.9707 220.052 18.9512C 218.669 16.959 217.978 14.5771 217.978 11.8057ZM 232.409 17L 224.024 17L 224.024 15.8311L 228.454 10.9092C 229.11 10.165 229.562 9.56152 229.808 9.09863C 230.06 8.62988 230.186 8.14648 230.186 7.64844C 230.186 6.98047 229.983 6.43262 229.579 6.00488C 229.175 5.57715 228.636 5.36328 227.962 5.36328C 227.153 5.36328 226.523 5.59473 226.072 6.05762C 225.627 6.51465 225.404 7.15332 225.404 7.97363L 223.778 7.97363C 223.778 6.7959 224.156 5.84375 224.912 5.11719C 225.674 4.39063 226.69 4.02734 227.962 4.02734C 229.151 4.02734 230.092 4.34082 230.783 4.96777C 231.475 5.58887 231.82 6.41797 231.82 7.45508C 231.82 8.71484 231.018 10.2148 229.412 11.9551L 225.984 15.6729L 232.409 15.6729L 232.409 17ZM 236.812 6.35645L 235.143 10.5928L 233.631 10.5928L 236.259 4.20312L 237.375 4.20312L 239.994 10.5928L 238.491 10.5928L 236.812 6.35645ZM 249.68 11.542C 249.68 13.4463 249.354 14.8613 248.704 15.7871C 248.054 16.7129 247.037 17.1758 245.654 17.1758C 244.289 17.1758 243.278 16.7246 242.622 15.8223C 241.966 14.9141 241.626 13.5605 241.603 11.7617L 241.603 9.59082C 241.603 7.70996 241.928 6.3125 242.578 5.39844C 243.229 4.48438 244.248 4.02734 245.637 4.02734C 247.014 4.02734 248.027 4.46973 248.678 5.35449C 249.328 6.2334 249.662 7.59277 249.68 9.43262L 249.68 11.542ZM 248.054 9.31836C 248.054 7.94141 247.86 6.93945 247.474 6.3125C 247.087 5.67969 246.475 5.36328 245.637 5.36328C 244.805 5.36328 244.198 5.67676 243.817 6.30371C 243.437 6.93066 243.24 7.89453 243.229 9.19531L 243.229 11.7969C 243.229 13.1797 243.428 14.2021 243.826 14.8643C 244.23 15.5205 244.84 15.8486 245.654 15.8486C 246.457 15.8486 247.052 15.5381 247.438 14.917C 247.831 14.2959 248.036 13.3174 248.054 11.9814L 248.054 9.31836ZM 255.683 11.8936C 255.683 13.2002 255.51 14.4541 255.164 15.6553C 254.824 16.8506 254.3 17.9551 253.591 18.9688C 252.888 19.9824 252.149 20.7031 251.376 21.1309L 251.033 20.1377C 251.936 19.4463 252.659 18.374 253.204 16.9209C 253.755 15.4619 254.036 13.8447 254.048 12.0693L 254.048 11.7881C 254.048 10.5576 253.919 9.41504 253.661 8.36035C 253.403 7.29981 253.043 6.35059 252.58 5.5127C 252.123 4.6748 251.607 4.02148 251.033 3.55273L 251.376 2.55957C 252.149 2.9873 252.885 3.70215 253.582 4.7041C 254.285 5.70605 254.81 6.81055 255.155 8.01758C 255.507 9.22461 255.683 10.5166 255.683 11.8936Z"/>
<path id="path13_fill" d="M 6.40723 17L 4.77246 17L 4.77246 6.16309L 1.49414 7.36719L 1.49414 5.89062L 6.15234 4.1416L 6.40723 4.1416L 6.40723 17ZM 104.098 11.542C 104.098 13.4463 103.772 14.8613 103.122 15.7871C 102.472 16.7129 101.455 17.1758 100.072 17.1758C 98.707 17.1758 97.6963 16.7246 97.04 15.8223C 96.3838 14.9141 96.0439 13.5605 96.0205 11.7617L 96.0205 9.59082C 96.0205 7.70996 96.3457 6.3125 96.9961 5.39844C 97.6465 4.48438 98.666 4.02734 100.055 4.02734C 101.432 4.02734 102.445 4.46973 103.096 5.35449C 103.746 6.2334 104.08 7.59277 104.098 9.43262L 104.098 11.542ZM 102.472 9.31836C 102.472 7.94141 102.278 6.93945 101.892 6.3125C 101.505 5.67969 100.893 5.36328 100.055 5.36328C 99.2227 5.36328 98.6162 5.67676 98.2354 6.30371C 97.8545 6.93066 97.6582 7.89453 97.6465 9.19531L 97.6465 11.7969C 97.6465 13.1797 97.8457 14.2021 98.2441 14.8643C 98.6484 15.5205 99.2578 15.8486 100.072 15.8486C 100.875 15.8486 101.47 15.5381 101.856 14.917C 102.249 14.2959 102.454 13.3174 102.472 11.9814L 102.472 9.31836ZM 196.427 17L 194.792 17L 194.792 6.16309L 191.514 7.36719L 191.514 5.89062L 196.172 4.1416L 196.427 4.1416L 196.427 17Z"/>
<path id="path14_stroke" d="M 0 0L 498 0L 498 -1.5L 0 -1.5L 0 0Z"/>
<path id="path15_stroke" d="M 0 0L 497 0L 497 -1L 0 -1L 0 0Z"/>
<path id="path16_stroke" d="M 0 -5.55112e-17L 498 -5.55112e-17L 498 -1L 0 -1L 0 -5.55112e-17Z"/>
<path id="path17_stroke" d="M 0 -1.11022e-16L 173 -1.11022e-16L 173 -1.5L 0 -1.5L 0 -1.11022e-16Z"/>
<path id="path18_stroke" d="M 0 0L 173 0L 173 -1L 0 -1L 0 0Z"/>
<path id="path19_fill" d="M 1.32031 15L 1.32031 3.625L 5.03906 3.625C 6.27344 3.625 7.20052 3.88021 7.82031 4.39062C 8.44531 4.90104 8.75781 5.65625 8.75781 6.65625C 8.75781 7.1875 8.60677 7.65885 8.30469 8.07031C 8.0026 8.47656 7.59115 8.79167 7.07031 9.01562C 7.6849 9.1875 8.16927 9.51562 8.52344 10C 8.88281 10.4792 9.0625 11.0521 9.0625 11.7188C 9.0625 12.7396 8.73177 13.5417 8.07031 14.125C 7.40885 14.7083 6.47396 15 5.26562 15L 1.32031 15ZM 2.82031 9.67969L 2.82031 13.7734L 5.29688 13.7734C 5.99479 13.7734 6.54427 13.5938 6.94531 13.2344C 7.35156 12.8698 7.55469 12.3698 7.55469 11.7344C 7.55469 10.3646 6.8099 9.67969 5.32031 9.67969L 2.82031 9.67969ZM 2.82031 8.47656L 5.08594 8.47656C 5.74219 8.47656 6.26562 8.3125 6.65625 7.98438C 7.05208 7.65625 7.25 7.21094 7.25 6.64844C 7.25 6.02344 7.06771 5.57031 6.70312 5.28906C 6.33854 5.0026 5.78385 4.85938 5.03906 4.85938L 2.82031 4.85938L 2.82031 8.47656ZM 16.2812 15C 16.1979 14.8333 16.1302 14.5365 16.0781 14.1094C 15.4062 14.8073 14.6042 15.1562 13.6719 15.1562C 12.8385 15.1562 12.1536 14.9219 11.6172 14.4531C 11.0859 13.9792 10.8203 13.3802 10.8203 12.6562C 10.8203 11.776 11.1536 11.0938 11.8203 10.6094C 12.4922 10.1198 13.4349 9.875 14.6484 9.875L 16.0547 9.875L 16.0547 9.21094C 16.0547 8.70573 15.9036 8.30469 15.6016 8.00781C 15.2995 7.70573 14.8542 7.55469 14.2656 7.55469C 13.75 7.55469 13.3177 7.6849 12.9688 7.94531C 12.6198 8.20573 12.4453 8.52083 12.4453 8.89062L 10.9922 8.89062C 10.9922 8.46875 11.1406 8.0625 11.4375 7.67188C 11.7396 7.27604 12.1458 6.96354 12.6562 6.73438C 13.1719 6.50521 13.737 6.39062 14.3516 6.39062C 15.3255 6.39062 16.0885 6.63542 16.6406 7.125C 17.1927 7.60938 17.4792 8.27865 17.5 9.13281L 17.5 13.0234C 17.5 13.7995 17.599 14.4167 17.7969 14.875L 17.7969 15L 16.2812 15ZM 13.8828 13.8984C 14.3359 13.8984 14.7656 13.7812 15.1719 13.5469C 15.5781 13.3125 15.8724 13.0078 16.0547 12.6328L 16.0547 10.8984L 14.9219 10.8984C 13.151 10.8984 12.2656 11.4167 12.2656 12.4531C 12.2656 12.9062 12.4167 13.2604 12.7188 13.5156C 13.0208 13.7708 13.4089 13.8984 13.8828 13.8984ZM 24.6875 12.7578C 24.6875 12.3672 24.5391 12.0651 24.2422 11.8516C 23.9505 11.6328 23.4375 11.4453 22.7031 11.2891C 21.974 11.1328 21.3932 10.9453 20.9609 10.7266C 20.5339 10.5078 20.2161 10.2474 20.0078 9.94531C 19.8047 9.64323 19.7031 9.28385 19.7031 8.86719C 19.7031 8.17448 19.9948 7.58854 20.5781 7.10938C 21.1667 6.63021 21.9167 6.39062 22.8281 6.39062C 23.7865 6.39062 24.5625 6.63802 25.1562 7.13281C 25.7552 7.6276 26.0547 8.26042 26.0547 9.03125L 24.6016 9.03125C 24.6016 8.63542 24.4323 8.29427 24.0938 8.00781C 23.7604 7.72135 23.3385 7.57812 22.8281 7.57812C 22.3021 7.57812 21.8906 7.69271 21.5938 7.92188C 21.2969 8.15104 21.1484 8.45052 21.1484 8.82031C 21.1484 9.16927 21.2865 9.43229 21.5625 9.60938C 21.8385 9.78646 22.3359 9.95573 23.0547 10.1172C 23.7786 10.2786 24.3646 10.4714 24.8125 10.6953C 25.2604 10.9193 25.5911 11.1901 25.8047 11.5078C 26.0234 11.8203 26.1328 12.2031 26.1328 12.6562C 26.1328 13.4115 25.8307 14.0182 25.2266 14.4766C 24.6224 14.9297 23.8385 15.1562 22.875 15.1562C 22.1979 15.1562 21.599 15.0365 21.0781 14.7969C 20.5573 14.5573 20.1484 14.224 19.8516 13.7969C 19.5599 13.3646 19.4141 12.8984 19.4141 12.3984L 20.8594 12.3984C 20.8854 12.8828 21.0781 13.2682 21.4375 13.5547C 21.8021 13.8359 22.2812 13.9766 22.875 13.9766C 23.4219 13.9766 23.8594 13.8672 24.1875 13.6484C 24.5208 13.4245 24.6875 13.1276 24.6875 12.7578ZM 31.5234 15.1562C 30.3776 15.1562 29.4453 14.7812 28.7266 14.0312C 28.0078 13.276 27.6484 12.2682 27.6484 11.0078L 27.6484 10.7422C 27.6484 9.90365 27.8073 9.15625 28.125 8.5C 28.4479 7.83854 28.8958 7.32292 29.4688 6.95312C 30.0469 6.57812 30.6719 6.39062 31.3438 6.39062C 32.4427 6.39062 33.2969 6.7526 33.9062 7.47656C 34.5156 8.20052 34.8203 9.23698 34.8203 10.5859L 34.8203 11.1875L 29.0938 11.1875C 29.1146 12.0208 29.3568 12.6953 29.8203 13.2109C 30.2891 13.7214 30.8828 13.9766 31.6016 13.9766C 32.112 13.9766 32.5443 13.8724 32.8984 13.6641C 33.2526 13.4557 33.5625 13.1797 33.8281 12.8359L 34.7109 13.5234C 34.0026 14.612 32.9401 15.1562 31.5234 15.1562ZM 31.3438 7.57812C 30.7604 7.57812 30.2708 7.79167 29.875 8.21875C 29.4792 8.64062 29.2344 9.23438 29.1406 10L 33.375 10L 33.375 9.89062C 33.3333 9.15625 33.1354 8.58854 32.7812 8.1875C 32.4271 7.78125 31.9479 7.57812 31.3438 7.57812ZM 45.0703 15L 43.6172 15L 43.6172 5.36719L 40.7031 6.4375L 40.7031 5.125L 44.8438 3.57031L 45.0703 3.57031L 45.0703 15ZM 56.4375 10.1484C 56.4375 11.8411 56.1484 13.099 55.5703 13.9219C 54.9922 14.7448 54.0885 15.1562 52.8594 15.1562C 51.6458 15.1562 50.7474 14.7552 50.1641 13.9531C 49.5807 13.1458 49.2786 11.9427 49.2578 10.3438L 49.2578 8.41406C 49.2578 6.74219 49.5469 5.5 50.125 4.6875C 50.7031 3.875 51.6094 3.46875 52.8438 3.46875C 54.0677 3.46875 54.9688 3.86198 55.5469 4.64844C 56.125 5.42969 56.4219 6.63802 56.4375 8.27344L 56.4375 10.1484ZM 54.9922 8.17188C 54.9922 6.94792 54.8203 6.05729 54.4766 5.5C 54.1328 4.9375 53.5885 4.65625 52.8438 4.65625C 52.1042 4.65625 51.5651 4.9349 51.2266 5.49219C 50.888 6.04948 50.7135 6.90625 50.7031 8.0625L 50.7031 10.375C 50.7031 11.6042 50.8802 12.513 51.2344 13.1016C 51.5938 13.6849 52.1354 13.9766 52.8594 13.9766C 53.5729 13.9766 54.1016 13.7005 54.4453 13.1484C 54.7943 12.5964 54.9766 11.7266 54.9922 10.5391L 54.9922 8.17188ZM 66.3984 13.0078L 69.6484 3.625L 71.2891 3.625L 67.0703 15L 65.7422 15L 61.5312 3.625L 63.1641 3.625L 66.3984 13.0078ZM 77.4531 15C 77.3698 14.8333 77.3021 14.5365 77.25 14.1094C 76.5781 14.8073 75.776 15.1562 74.8438 15.1562C 74.0104 15.1562 73.3255 14.9219 72.7891 14.4531C 72.2578 13.9792 71.9922 13.3802 71.9922 12.6562C 71.9922 11.776 72.3255 11.0938 72.9922 10.6094C 73.6641 10.1198 74.6068 9.875 75.8203 9.875L 77.2266 9.875L 77.2266 9.21094C 77.2266 8.70573 77.0755 8.30469 76.7734 8.00781C 76.4714 7.70573 76.026 7.55469 75.4375 7.55469C 74.9219 7.55469 74.4896 7.6849 74.1406 7.94531C 73.7917 8.20573 73.6172 8.52083 73.6172 8.89062L 72.1641 8.89062C 72.1641 8.46875 72.3125 8.0625 72.6094 7.67188C 72.9115 7.27604 73.3177 6.96354 73.8281 6.73438C 74.3438 6.50521 74.9089 6.39062 75.5234 6.39062C 76.4974 6.39062 77.2604 6.63542 77.8125 7.125C 78.3646 7.60938 78.651 8.27865 78.6719 9.13281L 78.6719 13.0234C 78.6719 13.7995 78.7708 14.4167 78.9688 14.875L 78.9688 15L 77.4531 15ZM 75.0547 13.8984C 75.5078 13.8984 75.9375 13.7812 76.3438 13.5469C 76.75 13.3125 77.0443 13.0078 77.2266 12.6328L 77.2266 10.8984L 76.0938 10.8984C 74.3229 10.8984 73.4375 11.4167 73.4375 12.4531C 73.4375 12.9062 73.5885 13.2604 73.8906 13.5156C 74.1927 13.7708 74.5807 13.8984 75.0547 13.8984ZM 82.5078 15L 81.0625 15L 81.0625 3L 82.5078 3L 82.5078 15ZM 90.0469 14.1641C 89.4844 14.8255 88.6589 15.1562 87.5703 15.1562C 86.6693 15.1562 85.9818 14.8958 85.5078 14.375C 85.0391 13.849 84.8021 13.0729 84.7969 12.0469L 84.7969 6.54688L 86.2422 6.54688L 86.2422 12.0078C 86.2422 13.2891 86.763 13.9297 87.8047 13.9297C 88.9089 13.9297 89.6432 13.5182 90.0078 12.6953L 90.0078 6.54688L 91.4531 6.54688L 91.4531 15L 90.0781 15L 90.0469 14.1641ZM 97.1641 15.1562C 96.0182 15.1562 95.0859 14.7812 94.3672 14.0312C 93.6484 13.276 93.2891 12.2682 93.2891 11.0078L 93.2891 10.7422C 93.2891 9.90365 93.4479 9.15625 93.7656 8.5C 94.0885 7.83854 94.5365 7.32292 95.1094 6.95312C 95.6875 6.57812 96.3125 6.39062 96.9844 6.39062C 98.0833 6.39062 98.9375 6.7526 99.5469 7.47656C 100.156 8.20052 100.461 9.23698 100.461 10.5859L 100.461 11.1875L 94.7344 11.1875C 94.7552 12.0208 94.9974 12.6953 95.4609 13.2109C 95.9297 13.7214 96.5234 13.9766 97.2422 13.9766C 97.7526 13.9766 98.1849 13.8724 98.5391 13.6641C 98.8932 13.4557 99.2031 13.1797 99.4688 12.8359L 100.352 13.5234C 99.6432 14.612 98.5807 15.1562 97.1641 15.1562ZM 96.9844 7.57812C 96.401 7.57812 95.9115 7.79167 95.5156 8.21875C 95.1198 8.64062 94.875 9.23438 94.7812 10L 99.0156 10L 99.0156 9.89062C 98.974 9.15625 98.776 8.58854 98.4219 8.1875C 98.0677 7.78125 97.5885 7.57812 96.9844 7.57812Z"/>
<path id="path20_fill" d="M 6.40723 17L 4.77246 17L 4.77246 6.16309L 1.49414 7.36719L 1.49414 5.89062L 6.15234 4.1416L 6.40723 4.1416L 6.40723 17Z"/>
<path id="path21_stroke" d="M 0 0L 174 0L 174 -1.5L 0 -1.5L 0 0Z"/>
<path id="path22_fill" d="M 9.44824 17L 1.06348 17L 1.06348 15.8311L 5.49316 10.9092C 6.14941 10.165 6.60059 9.56152 6.84668 9.09863C 7.09863 8.62988 7.22461 8.14648 7.22461 7.64844C 7.22461 6.98047 7.02246 6.43262 6.61816 6.00488C 6.21387 5.57715 5.6748 5.36328 5.00098 5.36328C 4.19238 5.36328 3.5625 5.59473 3.11133 6.05762C 2.66602 6.51465 2.44336 7.15332 2.44336 7.97363L 0.817383 7.97363C 0.817383 6.7959 1.19531 5.84375 1.95117 5.11719C 2.71289 4.39063 3.72949 4.02734 5.00098 4.02734C 6.19043 4.02734 7.13086 4.34082 7.82227 4.96777C 8.51367 5.58887 8.85938 6.41797 8.85938 7.45508C 8.85938 8.71484 8.05664 10.2148 6.45117 11.9551L 3.02344 15.6729L 9.44824 15.6729L 9.44824 17Z"/>
<path id="path23_fill" d="M 7.92773 12.7021L 9.70312 12.7021L 9.70312 14.0293L 7.92773 14.0293L 7.92773 17L 6.29297 17L 6.29297 14.0293L 0.46582 14.0293L 0.46582 13.0713L 6.19629 4.20312L 7.92773 4.20312L 7.92773 12.7021ZM 2.31152 12.7021L 6.29297 12.7021L 6.29297 6.42676L 6.09961 6.77832L 2.31152 12.7021Z"/>
<path id="path24_fill" d="M 1.81055 10.584L 2.46094 4.20312L 9.01758 4.20312L 9.01758 5.70605L 3.84082 5.70605L 3.4541 9.19531C 4.08105 8.82617 4.79297 8.6416 5.58984 8.6416C 6.75586 8.6416 7.68164 9.02832 8.36719 9.80176C 9.05273 10.5693 9.39551 11.6094 9.39551 12.9219C 9.39551 14.2402 9.03809 15.2803 8.32324 16.042C 7.61426 16.7979 6.62109 17.1758 5.34375 17.1758C 4.21289 17.1758 3.29004 16.8623 2.5752 16.2354C 1.86035 15.6084 1.45312 14.7412 1.35352 13.6338L 2.8916 13.6338C 2.99121 14.3662 3.25195 14.9199 3.67383 15.2949C 4.0957 15.6641 4.65234 15.8486 5.34375 15.8486C 6.09961 15.8486 6.69141 15.5908 7.11914 15.0752C 7.55273 14.5596 7.76953 13.8477 7.76953 12.9395C 7.76953 12.084 7.53516 11.3984 7.06641 10.8828C 6.60352 10.3613 5.98535 10.1006 5.21191 10.1006C 4.50293 10.1006 3.94629 10.2559 3.54199 10.5664L 3.11133 10.918L 1.81055 10.584Z"/>
</defs>
</svg>

