<?xml version="1.0" encoding="UTF-8" standalone="no"?>
<svg width="580px" height="158px" viewBox="0 0 580 158" version="1.1" xmlns="http://www.w3.org/2000/svg" xmlns:xlink="http://www.w3.org/1999/xlink">
    <!-- Generator: Sketch 46.2 (44496) - http://www.bohemiancoding.com/sketch -->
    <title>s1_sql_path</title>
    <desc>Created with Sketch.</desc>
    <defs>
        <rect id="path-1" x="0" y="0" width="100" height="100"></rect>
        <rect id="path-2" x="0" y="0" width="100" height="100"></rect>
        <rect id="path-3" x="0" y="0" width="100" height="100"></rect>
        <rect id="path-4" x="0" y="0" width="100" height="100"></rect>
    </defs>
    <g id="DE6---Optimizing-Postgres" stroke="none" stroke-width="1" fill="none" fill-rule="evenodd">
        <g id="M2" transform="translate(-27.000000, -81.000000)">
            <g id="s1_sql_path" transform="translate(27.000000, 82.000000)">
                <g id="Pipeline-Bit" transform="translate(0.000000, 57.000000)">
                    <g id="Rectangle">
                        <use fill-opacity="0.1" fill="#FF5A5A" fill-rule="evenodd" xlink:href="#path-1"></use>
                        <rect stroke="#FF5A5A" stroke-width="1" x="0.5" y="0.5" width="99" height="99"></rect>
                    </g>
                    <text id="SQL-Input" font-family="HelveticaNeue, Helvetica Neue" font-size="12" font-weight="normal" fill="#333333">
                        <tspan x="22.874" y="54">SQL Input</tspan>
                    </text>
                </g>
                <text id="select-*-from-exampl" font-family="CourierNewPS-BoldMT, Courier New" font-size="12" font-weight="bold" fill="#333333">
                    <tspan x="21.6953125" y="24">select *</tspan>
                    <tspan x="7.29296875" y="38">from example</tspan>
                </text>
                <path d="M108.5,107.5 L152.5,107.5" id="Line-2" stroke="#000000" stroke-linecap="square"></path>
                <path id="Line-2-decoration-1" d="M141.7,110.5 L152.5,107.5 L141.7,104.5" stroke="#000000" stroke-linecap="square"></path>
                <path d="M268.5,107.5 L312.5,107.5" id="Line-2" stroke="#000000" stroke-linecap="square"></path>
                <path id="Line-2-decoration-1" d="M301.7,110.5 L312.5,107.5 L301.7,104.5" stroke="#000000" stroke-linecap="square"></path>
                <path d="M428.5,107.5 L472.5,107.5" id="Line-2" stroke="#000000" stroke-linecap="square"></path>
                <path id="Line-2-decoration-1" d="M461.7,110.5 L472.5,107.5 L461.7,104.5" stroke="#000000" stroke-linecap="square"></path>
                <g id="Pipeline-Bit" transform="translate(160.000000, 57.000000)">
                    <g id="Rectangle">
                        <use fill-opacity="0.2" fill="#7E87A8" fill-rule="evenodd" xlink:href="#path-2"></use>
                        <rect stroke="#7E87A8" stroke-width="1" x="0.5" y="0.5" width="99" height="99"></rect>
                    </g>
                    <text id="Parser-and-Rewriter" font-family="HelveticaNeue, Helvetica Neue" font-size="12" font-weight="normal" fill="#333333">
                        <tspan x="33.172" y="45">Parser</tspan>
                        <tspan x="16.396" y="59">and Rewriter</tspan>
                    </text>
                </g>
                <g id="Pipeline-Bit" transform="translate(320.000000, 57.000000)">
                    <g id="Rectangle">
                        <use fill-opacity="0.1" fill="#CA00C4" fill-rule="evenodd" xlink:href="#path-3"></use>
                        <rect stroke="#CA00C4" stroke-width="1" x="0.5" y="0.5" width="99" height="99"></rect>
                    </g>
                    <text id="Planner" font-family="HelveticaNeue, Helvetica Neue" font-size="12" font-weight="normal" fill="#333333">
                        <tspan x="29.666" y="54">Planner</tspan>
                    </text>
                </g>
                <g id="Pipeline-Bit" transform="translate(480.000000, 57.000000)">
                    <g id="Rectangle">
                        <use fill-opacity="0.1" fill="#1D8260" fill-rule="evenodd" xlink:href="#path-4"></use>
                        <rect stroke="#1D8260" stroke-width="1" x="0.5" y="0.5" width="99" height="99"></rect>
                    </g>
                    <text id="Executor" font-family="HelveticaNeue, Helvetica Neue" font-size="12" font-weight="normal" fill="#333333">
                        <tspan x="26.114" y="54">Executor</tspan>
                    </text>
                </g>
                <g id="Tree-(Level-Order)" transform="translate(182.000000, 0.000000)" stroke="#000000">
                    <g id="Tree-Node" transform="translate(47.000000, 32.000000)">
                        <ellipse id="Oval" cx="4.99918764" cy="4.87244898" rx="4.99918764" ry="4.87244898"></ellipse>
                    </g>
                    <g id="Tree-Node" transform="translate(32.000000, 32.000000)">
                        <ellipse id="Oval" cx="4.99918764" cy="4.87244898" rx="4.99918764" ry="4.87244898"></ellipse>
                    </g>
                    <g id="Tree-Node" transform="translate(15.000000, 32.000000)">
                        <ellipse id="Oval" cx="4.99918764" cy="4.87244898" rx="4.99918764" ry="4.87244898"></ellipse>
                    </g>
                    <g id="Tree-Node" transform="translate(0.000000, 32.000000)">
                        <ellipse id="Oval" cx="4.99918764" cy="4.87244898" rx="4.99918764" ry="4.87244898"></ellipse>
                    </g>
                    <path d="M39.7773537,26.1363636 L37.1662426,31.8636364" id="Line" stroke-linecap="square"></path>
                    <path d="M44.1057797,25.1481481 L49.5,32.5" id="Line" stroke-linecap="square"></path>
                    <g id="Tree-Node" transform="translate(36.000000, 16.000000)">
                        <ellipse id="Oval" cx="4.99918764" cy="4.87244898" rx="4.99918764" ry="4.87244898"></ellipse>
                    </g>
                    <path d="M11.5,25.5 L7.01833558,31.862069" id="Line" stroke-linecap="square"></path>
                    <path d="M17.5,25.5 L19.5,31.5" id="Line" stroke-linecap="square"></path>
                    <g id="Tree-Node" transform="translate(10.000000, 16.000000)">
                        <ellipse id="Oval" cx="4.99918764" cy="4.87244898" rx="4.99918764" ry="4.87244898"></ellipse>
                    </g>
                    <path d="M24.8468193,9.14814815 L18.0374046,16.8518519" id="Line" stroke-linecap="square"></path>
                    <path d="M31.5,8.5 L38.5,16.5" id="Line" stroke-linecap="square"></path>
                    <g id="Tree-Node" transform="translate(23.000000, 0.000000)">
                        <ellipse id="Oval" cx="4.99918764" cy="4.87244898" rx="4.99918764" ry="4.87244898"></ellipse>
                    </g>
                </g>
                <g id="Tree-(Level-Order)" transform="translate(344.000000, 0.000000)" stroke="#000000">
                    <g id="Tree-Node" transform="translate(47.000000, 32.000000)" fill="#000000" fill-opacity="0.2">
                        <ellipse id="Oval" cx="4.99918764" cy="4.87244898" rx="4.99918764" ry="4.87244898"></ellipse>
                    </g>
                    <g id="Tree-Node" transform="translate(32.000000, 32.000000)" fill="#000000" fill-opacity="0.2">
                        <ellipse id="Oval" cx="4.99918764" cy="4.87244898" rx="4.99918764" ry="4.87244898"></ellipse>
                    </g>
                    <g id="Tree-Node" transform="translate(15.000000, 32.000000)" fill="#000000" fill-opacity="0.2">
                        <ellipse id="Oval" cx="4.99918764" cy="4.87244898" rx="4.99918764" ry="4.87244898"></ellipse>
                    </g>
                    <g id="Tree-Node" transform="translate(0.000000, 32.000000)" fill="#000000" fill-opacity="0.2">
                        <ellipse id="Oval" cx="4.99918764" cy="4.87244898" rx="4.99918764" ry="4.87244898"></ellipse>
                    </g>
                    <path d="M39.7773537,26.1363636 L37.1662426,31.8636364" id="Line" stroke-linecap="square"></path>
                    <path d="M44.1057797,25.1481481 L49.5,32.5" id="Line" stroke-linecap="square"></path>
                    <g id="Tree-Node" transform="translate(36.000000, 16.000000)" fill="#000000" fill-opacity="0.2">
                        <ellipse id="Oval" cx="4.99918764" cy="4.87244898" rx="4.99918764" ry="4.87244898"></ellipse>
                    </g>
                    <path d="M11.5,25.5 L7.01833558,31.862069" id="Line" stroke-linecap="square"></path>
                    <path d="M17.5,25.5 L19.5,31.5" id="Line" stroke-linecap="square"></path>
                    <g id="Tree-Node" transform="translate(10.000000, 16.000000)" fill="#000000" fill-opacity="0.2">
                        <ellipse id="Oval" cx="4.99918764" cy="4.87244898" rx="4.99918764" ry="4.87244898"></ellipse>
                    </g>
                    <path d="M24.8468193,9.14814815 L18.0374046,16.8518519" id="Line" stroke-linecap="square"></path>
                    <path d="M31.5,8.5 L38.5,16.5" id="Line" stroke-linecap="square"></path>
                    <g id="Tree-Node" transform="translate(23.000000, 0.000000)" fill="#000000" fill-opacity="0.2">
                        <ellipse id="Oval" cx="4.99918764" cy="4.87244898" rx="4.99918764" ry="4.87244898"></ellipse>
                    </g>
                </g>
                <g id="Gears" transform="translate(489.000000, 0.000000)" stroke="#979797" fill="#D8D8D8">
                    <path d="M13.8934012,46.5939845 L12.6000762,51.420739 L13.8934012,46.5939845 C11.8280789,46.0419818 9.98223379,44.9527965 8.51471863,43.4852814 L4.97918472,47.0208153 L8.51471863,43.4852814 C7.04720346,42.0177662 5.95801822,40.1719211 5.40601554,38.1065988 L0.579260953,39.3999238 L5.40601554,38.1065988 C5.14118574,37.115736 5,36.0743559 5,35 C5,33.9256441 5.14118574,32.884264 5.40601554,31.8934012 L0.579260953,30.6000762 L5.40601554,31.8934012 C5.95801822,29.8280789 7.04720346,27.9822338 8.51471863,26.5147186 L4.97918472,22.9791847 L8.51471863,26.5147186 C9.98223379,25.0472035 11.8280789,23.9580182 13.8934012,23.4060155 L12.6000762,18.579261 L13.8934012,23.4060155 C14.884264,23.1411857 15.9256441,23 17,23 C18.0743559,23 19.115736,23.1411857 20.1065988,23.4060155 L21.3999238,18.579261 L20.1065988,23.4060155 C22.1719211,23.9580182 24.0177662,25.0472035 25.4852814,26.5147186 L29.0208153,22.9791847 L25.4852814,26.5147186 C26.9527965,27.9822338 28.0419818,29.8280789 28.5939845,31.8934012 L33.420739,30.6000762 L28.5939845,31.8934012 C28.8588143,32.884264 29,33.9256441 29,35 C29,36.0743559 28.8588143,37.115736 28.5939845,38.1065988 L33.420739,39.3999238 L28.5939845,38.1065988 C28.0419818,40.1719211 26.9527965,42.0177662 25.4852814,43.4852814 L29.0208153,47.0208153 L25.4852814,43.4852814 C24.0177662,44.9527965 22.1719211,46.0419818 20.1065988,46.5939845 L21.3999238,51.420739 L20.1065988,46.5939845 C19.115736,46.8588143 18.0743559,47 17,47 C15.9256441,47 14.884264,46.8588143 13.8934012,46.5939845 Z" id="Combined-Shape" stroke-width="5"></path>
                    <path d="M59.8934012,46.5939845 L58.6000762,51.420739 L59.8934012,46.5939845 C57.8280789,46.0419818 55.9822338,44.9527965 54.5147186,43.4852814 L50.9791847,47.0208153 L54.5147186,43.4852814 C53.0472035,42.0177662 51.9580182,40.1719211 51.4060155,38.1065988 L46.579261,39.3999238 L51.4060155,38.1065988 C51.1411857,37.115736 51,36.0743559 51,35 C51,33.9256441 51.1411857,32.884264 51.4060155,31.8934012 L46.579261,30.6000762 L51.4060155,31.8934012 C51.9580182,29.8280789 53.0472035,27.9822338 54.5147186,26.5147186 L50.9791847,22.9791847 L54.5147186,26.5147186 C55.9822338,25.0472035 57.8280789,23.9580182 59.8934012,23.4060155 L58.6000762,18.579261 L59.8934012,23.4060155 C60.884264,23.1411857 61.9256441,23 63,23 C64.0743559,23 65.115736,23.1411857 66.1065988,23.4060155 L67.3999238,18.579261 L66.1065988,23.4060155 C68.1719211,23.9580182 70.0177662,25.0472035 71.4852814,26.5147186 L75.0208153,22.9791847 L71.4852814,26.5147186 C72.9527965,27.9822338 74.0419818,29.8280789 74.5939845,31.8934012 L79.420739,30.6000762 L74.5939845,31.8934012 C74.8588143,32.884264 75,33.9256441 75,35 C75,36.0743559 74.8588143,37.115736 74.5939845,38.1065988 L79.420739,39.3999238 L74.5939845,38.1065988 C74.0419818,40.1719211 72.9527965,42.0177662 71.4852814,43.4852814 L75.0208153,47.0208153 L71.4852814,43.4852814 C70.0177662,44.9527965 68.1719211,46.0419818 66.1065988,46.5939845 L67.3999238,51.420739 L66.1065988,46.5939845 C65.115736,46.8588143 64.0743559,47 63,47 C61.9256441,47 60.884264,46.8588143 59.8934012,46.5939845 Z" id="Combined-Shape" stroke-width="5"></path>
                    <path d="M37.7297499,20.4726889 L36.7846097,24 L37.7297499,20.4726889 C36.220447,20.0692946 34.8715344,19.2733364 33.799099,18.200901 L31.2153903,20.7846097 L33.799099,18.200901 C32.7266636,17.1284656 31.9307054,15.779553 31.5273111,14.2702501 L28,15.2153903 L31.5273111,14.2702501 C31.3337779,13.5461443 31.2306018,12.7851212 31.2306018,12 C31.2306018,11.2148788 31.3337779,10.4538557 31.5273111,9.72974985 L28,8.78460969 L31.5273111,9.72974985 C31.9307054,8.220447 32.7266636,6.87153445 33.799099,5.79909904 L31.2153903,3.21539031 L33.799099,5.79909904 C34.8715344,4.72666364 36.220447,3.93070537 37.7297499,3.5273111 L36.7846097,5.05151476e-15 L37.7297499,3.5273111 C38.4538557,3.33377793 39.2148788,3.23060177 40,3.23060177 C40.7851212,3.23060177 41.5461443,3.33377793 42.2702501,3.5273111 L43.2153903,8.8817842e-16 L42.2702501,3.5273111 C43.779553,3.93070537 45.1284656,4.72666364 46.200901,5.79909904 L48.7846097,3.21539031 L46.200901,5.79909904 C47.2733364,6.87153445 48.0692946,8.220447 48.4726889,9.72974985 L52,8.78460969 L48.4726889,9.72974985 C48.6662221,10.4538557 48.7693982,11.2148788 48.7693982,12 C48.7693982,12.7851212 48.6662221,13.5461443 48.4726889,14.2702501 L52,15.2153903 L48.4726889,14.2702501 C48.0692946,15.779553 47.2733364,17.1284656 46.200901,18.200901 L48.7846097,20.7846097 L46.200901,18.200901 C45.1284656,19.2733364 43.779553,20.0692946 42.2702501,20.4726889 L43.2153903,24 L42.2702501,20.4726889 C41.5461443,20.6662221 40.7851212,20.7693982 40,20.7693982 C39.2148788,20.7693982 38.4538557,20.6662221 37.7297499,20.4726889 Z" id="Combined-Shape" stroke-width="4"></path>
                </g>
            </g>
        </g>
    </g>
</svg>